<?xml version="1.0" standalone="no"?> <!DOCTYPE svg PUBLIC "-//W3C//DTD SVG 1.0//EN" "http://www.w3.org/TR/2001/REC-SVG-20010904/DTD/svg10.dtd" > <svg xmlns="http://www.w3.org/2000/svg" width="100%" height="100%">
<defs >
<font horiz-adv-x="592" ><font-face
    font-family="headplane"
    units-per-em="1000"
    panose-1="0 0 4 0 0 0 0 0 0 0"
    ascent="800"
    descent="-200"
    alphabetic="0" />
<missing-glyph horiz-adv-x="500" d="M63 0V800H438V0H63ZM125 63H375V738H125V63Z" />
<glyph unicode=" " glyph-name="space" horiz-adv-x="500" />
<glyph unicode="!" glyph-name="exclam" horiz-adv-x="194" d="M144 200H0V515Q144 515 144 398V200ZM144 0Q0 0 0 120H144V0Z" />
<glyph unicode="&quot;" glyph-name="quotedbl" horiz-adv-x="265" d="M249 514Q247 253 139 253V514H249ZM110 514Q111 253 0 253V514H110Z" />
<glyph unicode="#" glyph-name="numbersign" horiz-adv-x="598" d="M515 134T448 134H380L367 67Q353 0 277 0L304 134H210L197 67Q183 0 107 0L134 134H0Q15 210 82 210H149L168 304H34Q49 380 116 380H183L197 448Q210 515 286 515L259 380H353L367 448Q380
515 456 515L429 380H564Q549 304 482 304H414L395 210H530Q515 134 448 134ZM319 210L338 304H244L225 210H319Z" />
<glyph unicode="$" glyph-name="dollar" horiz-adv-x="664" d="M250 395H145Q120 395 120 356Q120 318 145 318H250V395ZM362 120H469Q494 120 494 159Q494 198 469 198H362V120ZM362 318H469Q533 318 575 270Q614 224 614 159Q614 94 575 48Q533 0 469 0H368V-89Q246
-89 246 0H25Q25 120 138 120H250V198H145Q81 198 40 246Q0 291 0 356Q0 421 40 468T145 515H246V627Q368 627 368 515H589Q589 395 476 395H362V318Z" />
<glyph unicode="%" glyph-name="percent" horiz-adv-x="525" d="M192 395H49Q49 515 192 515V395ZM437 455L120 0L37 65L355 515L437 455ZM425 0T281 0V120H425Q425 0 281 0Z" />
<glyph unicode="&amp;" glyph-name="ampersand" horiz-adv-x="603" d="M553 142Q553 84 518 44Q478 0 410 0H337V-91H216V0H145Q76 0 36 44Q0 84 0 141Q0 221 63 261Q9 302 9 374Q9 432 45 471Q85 515 153 515H216V604H337V515H400Q468 515 508 470Q544 430 544
372V355H426Q426 395 400 395H153Q128 395 128 356Q128 317 153 317H389V198H145Q119 198 119 159Q119 120 145 120H410Q434 120 434 159H553V142Z" />
<glyph unicode="&apos;" glyph-name="quotesingle" horiz-adv-x="194" d="M144 514Q85 253 0 253V514H144Z" />
<glyph unicode="(" glyph-name="parenleft" horiz-adv-x="273" d="M223 -119L168 -120Q98 -121 49 -75T0 43V472Q0 542 49 588T168 635H223Q223 515 168 515Q120 515 120 472V43Q120 0 168 0Q223 0 223 -119Z" />
<glyph unicode=")" glyph-name="parenright" horiz-adv-x="273" d="M223 43Q223 -28 174 -74T55 -120L0 -119Q0 0 55 0Q103 0 103 43V472Q103 515 55 515Q0 515 0 635H55Q125 635 174 589T223 472V43Z" />
<glyph unicode="*" glyph-name="asterisk" horiz-adv-x="276" d="M226 308L186 267L112 341L40 267L0 308L70 379L2 423V490L84 437V515H142V437L222 486V418L156 379L226 308Z" />
<glyph unicode="+" glyph-name="plus" horiz-adv-x="504" d="M454 197T370 197H286V30Q166 30 166 114V197H0Q0 318 83 318H166V484Q286 484 286 401V318H454Q454 197 370 197Z" />
<glyph unicode="," glyph-name="comma" horiz-adv-x="194" d="M144 120Q146 -141 0 -141V120H144Z" />
<glyph unicode="-" glyph-name="hyphen" horiz-adv-x="503" d="M453 197T358 197H0Q0 318 106 318H453Q453 197 358 197Z" />
<glyph unicode="." glyph-name="period" horiz-adv-x="194" d="M93 129T112 110T131 63Q131 36 112 17T66 -2Q38 -2 19 17T0 63Q0 90 19 109T66 129Q93 129 112 110Z" />
<glyph unicode="/" glyph-name="slash" horiz-adv-x="525" d="M475 515L120 0H0L355 515H475Z" />
<glyph unicode="0" glyph-name="zero" horiz-adv-x="552" d="M502 163Q502 93 454 47T335 0H168Q98 0 49 46T0 163V352Q0 422 49 468T168 515H335Q405 515 453 469T502 352V163ZM382 163V352Q382 395 335 395H168Q120 395 120 352V163Q120 120 168 120H335Q382
120 382 163Z" />
<glyph unicode="1" glyph-name="one" horiz-adv-x="258" d="M208 0T88 0V395Q-28 395 -28 515H208V101Q208 0 88 0Z" />
<glyph unicode="2" glyph-name="two" horiz-adv-x="594" d="M544 356Q544 291 505 246Q463 198 399 198H262Q204 198 178 186Q141 168 133 120H571Q571 0 460 0H1L0 61Q-4 318 262 318H399Q425 318 425 357Q425 395 399 395H125Q0 395 0 515H399Q463 515 505 467Q544
421 544 356Z" />
<glyph unicode="3" glyph-name="three" horiz-adv-x="604" d="M-1 120H411Q437 120 437 159Q437 198 411 198H259Q153 198 153 317H401Q427 317 427 356Q427 395 401 395H118Q-1 395 -1 515H401Q470 515 510 471Q546 431 546 374Q546 301 493 261Q556 222 556
142Q556 84 519 44Q479 0 411 0H120Q-1 0 -1 120Z" />
<glyph unicode="4" glyph-name="four" horiz-adv-x="613" d="M587 104T522 104H458V0H337V104H0L1 221L458 677V224H587Q587 104 522 104ZM337 224V400L151 224H337Z" />
<glyph unicode="5" glyph-name="five" horiz-adv-x="553" d="M1 120T102 120H335Q383 120 383 163V188Q383 230 335 230H119Q0 230 0 340V515H408Q408 395 316 395H120V350H335Q405 350 454 304T503 188V163Q503 93 454 47T335 0H1Q1 120 102 120Z" />
<glyph unicode="6" glyph-name="six" horiz-adv-x="553" d="M503 163Q503 93 454 47T335 0H168Q98 0 49 46T0 163V351Q0 421 49 468T168 515H453Q453 395 351 395H168Q120 395 120 351V344Q143 350 168 350H335Q405 350 454 304T503 188V163ZM383 163V188Q383
230 335 230H168Q120 230 120 188V163Q120 120 168 120H335Q383 120 383 163Z" />
<glyph unicode="7" glyph-name="seven" horiz-adv-x="563" d="M513 515L511 397L216 0H54L361 395H168Q51 395 51 515H513Z" />
<glyph unicode="8" glyph-name="eight" horiz-adv-x="604" d="M491 261Q554 222 554 142Q554 84 518 44Q477 0 409 0H145Q77 0 36 44Q0 84 0 142Q0 222 62 261Q9 301 9 373Q9 431 45 471Q85 515 153 515H400Q468 515 508 471Q544 431 544 373Q544 301 491 261ZM400
317Q426 317 426 356Q426 395 400 395H153Q128 395 128 356Q128 317 153 317H400ZM409 120Q435 120 435 159Q435 198 409 198H145Q119 198 119 159Q119 120 145 120H409Z" />
<glyph unicode="9" glyph-name="nine" horiz-adv-x="552" d="M502 163Q502 93 454 47T335 0H24Q24 120 151 120H335Q382 120 382 163V164H168Q97 164 49 210T0 326V351Q0 421 49 468T168 515H335Q405 515 453 468T502 351V163ZM382 284V351Q382 395 335 395H168Q120
395 120 351V326Q120 284 168 284H382Z" />
<glyph unicode=":" glyph-name="colon" horiz-adv-x="194" d="M88 327T105 310T123 267Q123 242 106 224T63 206Q38 206 21 224T3 267Q3 292 20 309T63 327Q88 327 105 310ZM83 117T100 100T118 58Q118 33 101 16T59 -1Q35 -1 18 16T0 58Q0 82 17 99T59 117Q83
117 100 100Z" />
<glyph unicode=";" glyph-name="semicolon" horiz-adv-x="194" d="M144 120Q144 -141 0 -141V120H144ZM99 327T119 307T139 259Q139 231 119 211T71 191Q42 191 23 211T3 259Q3 287 22 307T71 327Q99 327 119 307Z" />
<glyph unicode="&lt;" glyph-name="less" horiz-adv-x="525" d="M529 0H356L178 127Q-38 253 178 384L356 514H532L179 253L529 0Z" />
<glyph unicode="=" glyph-name="equal" horiz-adv-x="503" d="M453 283T355 283H0Q0 403 113 403H453Q453 283 355 283ZM453 111T353 111H0Q0 231 109 231H453Q453 111 353 111Z" />
<glyph unicode="&gt;" glyph-name="greater" horiz-adv-x="525" d="M355 253L2 514H178L356 384Q572 253 356 127L178 0H5L355 253Z" />
<glyph unicode="?" glyph-name="question" horiz-adv-x="569" d="M262 0H118V120H262V0ZM121 198H118Q118 318 246 318H374Q400 318 400 357Q400 395 374 395H150Q30 395 30 515H374Q438 515 480 467Q519 421 519 356Q519 291 480 246Q438 198 374 198H262V147H121V198Z" />
<glyph unicode="@" glyph-name="at" horiz-adv-x="459" d="M118 254T118 290V314Q117 352 156 353H287V372Q287 385 278 385L145 384Q148 398 158 409Q171 425 192 425H278Q300 425 313 409T327 372V289Q327 254 289 254H158Q118 254 118 290ZM287 292V313H157V292H287ZM437
266Q437 217 404 184T322 151H115Q67 151 34 184T0 266V400Q0 449 33 482T115 515H322Q370 515 403 482T437 400V266ZM376 245V416Q376 454 338 454H100Q62 454 62 416V245Q62 206 100 206H338Q376 206 376 245Z" />
<glyph unicode="A" glyph-name="A" horiz-adv-x="681" d="M0 0T0 110V182Q-1 295 117 298H511V356Q511 395 485 395L84 393Q92 435 121 468Q161 515 225 515H485Q550 515 590 468T631 356V107Q631 0 516 0L120 -1Q0 0 0 110ZM511 114V178H120V114H511Z" />
<glyph unicode="B" glyph-name="B" horiz-adv-x="681" d="M499 120Q525 120 525 159Q525 198 499 198H120V120H499ZM161 516L490 515Q558 515 598 471Q634 431 634 373Q634 301 581 261Q644 222 644 142Q644 84 607 44Q567 0 499 0H195V-1H117Q1 -1 0 111V318L490
317Q516 317 516 356Q516 395 490 395L161 394Q1 396 0 516H161Z" />
<glyph unicode="C" glyph-name="C" horiz-adv-x="616" d="M370 121V122L568 123Q560 81 531 48Q491 1 427 1H370V2L169 1Q99 1 50 47T1 164V353Q1 423 50 469T169 516H567L566 515Q558 474 529 441Q489 394 425 394H368V396H169Q121 396 121 353V164Q121 121 169
121H370Z" />
<glyph unicode="D" glyph-name="D" horiz-adv-x="614" d="M397 515Q467 515 515 469T564 352V163Q564 93 516 47T397 0H0V351H120V120H397Q443 120 443 163V352Q443 395 397 395H147Q32 395 0 515H397Z" />
<glyph unicode="E" glyph-name="E" horiz-adv-x="599" d="M440 396L439 395H432Q420 393 350 395H120V318H507Q499 276 470 243Q430 196 366 199L150 198H120V120L348 121L546 122Q538 80 509 47Q469 0 405 0H120Q0 0 0 120V394Q0 515 117 515H548Q540 473 511
440Q482 406 440 396Z" />
<glyph unicode="F" glyph-name="F" horiz-adv-x="586" d="M120 0T0 0V394Q0 515 117 515H548Q540 473 511 440Q482 406 440 396L439 395H432Q420 393 350 395H120V318H507Q499 276 470 243Q430 196 366 199L120 198V99Q120 0 0 0Z" />
<glyph unicode="G" glyph-name="G" horiz-adv-x="616" d="M566 0T448 0H168Q98 0 49 46T0 163V352Q0 422 49 468T168 515H531Q531 395 400 395H168Q120 395 120 352V163Q120 120 168 120H446V198H374Q267 198 267 318H445Q566 318 566 207V120Q566 0 448 0Z" />
<glyph unicode="H" glyph-name="H" horiz-adv-x="599" d="M549 0Q428 0 428 99V198H120V0Q0 0 0 100V515Q120 515 120 417V318H428V515Q549 515 549 417V0Z" />
<glyph unicode="I" glyph-name="I" horiz-adv-x="170" d="M120 0Q0 0 0 100V515Q120 515 120 416V0Z" />
<glyph unicode="J" glyph-name="J" horiz-adv-x="457" d="M407 163Q407 93 358 47T239 0H-16Q-16 120 112 120H239Q286 120 286 163V415Q286 515 407 515V163Z" />
<glyph unicode="K" glyph-name="K" horiz-adv-x="593" d="M120 100Q120 0 0 0V415Q0 515 120 515V100ZM174 318L361 515H525L279 257L539 0H375L177 197Q116 257 174 318Z" />
<glyph unicode="L" glyph-name="L" horiz-adv-x="565" d="M0 515Q121 515 121 415V163Q121 120 168 120H296Q423 120 423 0H168Q98 0 49 46T0 163V515Z" />
<glyph unicode="M" glyph-name="M" horiz-adv-x="718" d="M668 0T548 0V314L334 91L120 314V103Q120 0 0 0V416Q0 515 126 515L334 280L543 515Q668 515 668 419V100Q668 0 548 0Z" />
<glyph unicode="N" glyph-name="N" horiz-adv-x="599" d="M549 0T429 0L120 347V101Q120 0 0 0V416Q0 515 120 515L429 171V417Q429 515 549 515V99Q549 0 429 0Z" />
<glyph unicode="O" glyph-name="O" horiz-adv-x="688" d="M638 163Q638 93 589 47T470 0H168Q98 0 49 46T0 163V352Q0 422 49 468T168 515H470Q540 515 589 469T638 352V163ZM518 163V352Q518 395 470 395H168Q120 395 120 352V163Q120 120 168 120H470Q518 120 518 163Z" />
<glyph unicode="P" glyph-name="P" horiz-adv-x="629" d="M433 288Q459 288 459 341Q459 395 433 395H113Q0 395 0 515H433Q500 515 541 460Q579 410 579 341Q579 272 541 223Q500 168 433 168H120V0H0V289L433 288Z" />
<glyph unicode="Q" glyph-name="Q" horiz-adv-x="689" d="M168 0Q98 0 49 46T0 163V352Q0 422 49 468T168 515H471Q541 515 590 469T639 352V163Q639 110 611 70L699 -39H551L309 259L465 257L519 184V352Q519 395 471 395H168Q120 395 120 352V163Q120 120 168
120H365L463 -1L168 0Z" />
<glyph unicode="R" glyph-name="R" horiz-adv-x="695" d="M452 169H453L604 0H440L291 168H120V0H0V289L433 288Q459 288 459 341Q459 395 433 395H113Q0 395 0 515H433Q500 515 541 460Q579 410 579 341Q579 272 541 223Q506 176 452 169Z" />
<glyph unicode="S" glyph-name="S" horiz-adv-x="664" d="M614 159Q614 94 575 48Q533 0 469 0H25Q25 120 153 120H469Q494 120 494 159Q494 198 469 198H146Q82 198 40 246Q0 291 0 356Q0 421 41 468T146 515H590Q590 395 477 395H146Q121 395 121 356Q121 318
146 318H469Q533 318 575 270Q614 224 614 159Z" />
<glyph unicode="T" glyph-name="T" horiz-adv-x="627" d="M584 395T468 395H352V103Q352 0 232 0V395H0Q0 515 104 515H584Q584 395 468 395Z" />
<glyph unicode="U" glyph-name="U" horiz-adv-x="682" d="M632 160Q632 95 591 48T486 1H146Q81 1 41 48T0 160V515Q120 515 120 415V160Q120 121 146 121H486Q511 121 511 160V515Q632 515 632 415V160Z" />
<glyph unicode="V" glyph-name="V" horiz-adv-x="629" d="M595 515L333 44Q284 -49 231 44L-32 515H102L283 196L461 515H595Z" />
<glyph unicode="W" glyph-name="W" horiz-adv-x="835" d="M801 515L616 46Q561 -46 512 46L393 320L274 46Q222 -48 169 46L-16 515H112L223 221L327 449Q393 598 457 449L559 218L674 515H801Z" />
<glyph unicode="X" glyph-name="X" horiz-adv-x="606" d="M140 0H-16L182 242L263 153L140 0ZM-10 515H146L278 355L410 515H566L356 261L572 0H416L-10 515Z" />
<glyph unicode="Y" glyph-name="Y" horiz-adv-x="680" d="M376 198V0H256V198L0 515H139L317 296L510 515H630L376 198Z" />
<glyph unicode="Z" glyph-name="Z" horiz-adv-x="601" d="M551 0T445 0L1 -1Q0 120 91 192L351 395H100Q0 395 0 515H541Q539 397 455 329L194 120H551Q551 0 445 0Z" />
<glyph unicode="[" glyph-name="bracketleft" horiz-adv-x="273" d="M223 -119L168 -120Q98 -121 49 -75T0 43V472Q0 542 49 588T168 635H223V515H168Q120 515 120 472V43Q120 0 168 0H223V-119Z" />
<glyph unicode="\" glyph-name="backslash" horiz-adv-x="525" d="M475 0H355L0 515H120L475 0Z" />
<glyph unicode="]" glyph-name="bracketright" horiz-adv-x="273" d="M223 43Q223 -28 174 -74T55 -120L0 -119V0H55Q103 0 103 43V472Q103 515 55 515H0V635H55Q125 635 174 589T223 472V43Z" />
<glyph unicode="_" glyph-name="underscore" horiz-adv-x="503" d="M453 197H0V318H453V197Z" />
<glyph unicode="a" glyph-name="a" horiz-adv-x="681" d="M0 0T0 110V182Q-1 295 117 298H511V356Q511 395 485 395L84 393Q92 435 121 468Q161 515 225 515H485Q550 515 590 468T631 356V107Q631 0 516 0L120 -1Q0 0 0 110ZM511 114V178H120V114H511Z" />
<glyph unicode="b" glyph-name="b" horiz-adv-x="694" d="M499 120Q525 120 525 159Q525 198 499 198H120V120H499ZM161 516L490 515Q558 515 598 471Q634 431 634 373Q634 301 581 261Q644 222 644 142Q644 84 607 44Q567 0 499 0H195V-1H117Q1 -1 0 111V318L490
317Q516 317 516 356Q516 395 490 395L161 394Q1 396 0 516H161Z" />
<glyph unicode="c" glyph-name="c" horiz-adv-x="616" d="M370 121V122L568 123Q560 81 531 48Q491 1 427 1H370V2L169 1Q99 1 50 47T1 164V353Q1 423 50 469T169 516H567L566 515Q558 474 529 441Q489 394 425 394H368V396H169Q121 396 121 353V164Q121 121 169
121H370Z" />
<glyph unicode="d" glyph-name="d" horiz-adv-x="614" d="M397 515Q467 515 515 469T564 352V163Q564 93 516 47T397 0H0V351H120V120H397Q443 120 443 163V352Q443 395 397 395H147Q32 395 0 515H397Z" />
<glyph unicode="e" glyph-name="e" horiz-adv-x="599" d="M440 396L439 395H432Q420 393 350 395H120V318H507Q499 276 470 243Q430 196 366 199L150 198H120V120L348 121L546 122Q538 80 509 47Q469 0 405 0H120Q0 0 0 120V394Q0 515 117 515H548Q540 473 511
440Q482 406 440 396Z" />
<glyph unicode="f" glyph-name="f" horiz-adv-x="583" d="M120 0T0 0V394Q0 515 117 515H548Q540 473 511 440Q482 406 440 396L439 395H432Q420 393 350 395H120V318H507Q499 276 470 243Q430 196 366 199L120 198V99Q120 0 0 0Z" />
<glyph unicode="g" glyph-name="g" horiz-adv-x="616" d="M566 0T448 0H168Q98 0 49 46T0 163V352Q0 422 49 468T168 515H531Q531 395 400 395H168Q120 395 120 352V163Q120 120 168 120H446V198H374Q267 198 267 318H445Q566 318 566 207V120Q566 0 448 0Z" />
<glyph unicode="h" glyph-name="h" horiz-adv-x="684" d="M549 0Q428 0 428 99V198H120V0Q0 0 0 100V515Q120 515 120 417V318H428V515Q549 515 549 417V0Z" />
<glyph unicode="i" glyph-name="i" horiz-adv-x="170" d="M120 0Q0 0 0 100V515Q120 515 120 416V0Z" />
<glyph unicode="j" glyph-name="j" horiz-adv-x="473" d="M407 163Q407 93 358 47T239 0H-16Q-16 120 112 120H239Q286 120 286 163V415Q286 515 407 515V163Z" />
<glyph unicode="k" glyph-name="k" horiz-adv-x="624" d="M120 100Q120 0 0 0V415Q0 515 120 515V100ZM174 318L361 515H525L279 257L539 0H375L177 197Q116 257 174 318Z" />
<glyph unicode="l" glyph-name="l" horiz-adv-x="565" d="M0 515Q121 515 121 415V163Q121 120 168 120H296Q423 120 423 0H168Q98 0 49 46T0 163V515Z" />
<glyph unicode="m" glyph-name="m" horiz-adv-x="718" d="M668 0T548 0V314L334 91L120 314V103Q120 0 0 0V416Q0 515 126 515L334 280L543 515Q668 515 668 419V100Q668 0 548 0Z" />
<glyph unicode="n" glyph-name="n" horiz-adv-x="599" d="M549 0T429 0L120 347V101Q120 0 0 0V416Q0 515 120 515L429 171V417Q429 515 549 515V99Q549 0 429 0Z" />
<glyph unicode="o" glyph-name="o" horiz-adv-x="688" d="M638 163Q638 93 589 47T470 0H168Q98 0 49 46T0 163V352Q0 422 49 468T168 515H470Q540 515 589 469T638 352V163ZM518 163V352Q518 395 470 395H168Q120 395 120 352V163Q120 120 168 120H470Q518 120 518 163Z" />
<glyph unicode="p" glyph-name="p" horiz-adv-x="694" d="M433 288Q459 288 459 341Q459 395 433 395H113Q0 395 0 515H433Q500 515 541 460Q579 410 579 341Q579 272 541 223Q500 168 433 168H120V0H0V289L433 288Z" />
<glyph unicode="q" glyph-name="q" horiz-adv-x="689" d="M168 0Q98 0 49 46T0 163V352Q0 422 49 468T168 515H471Q541 515 590 469T639 352V163Q639 110 611 70L699 -39H551L309 259L465 257L519 184V352Q519 395 471 395H168Q120 395 120 352V163Q120 120 168
120H365L463 -1L168 0Z" />
<glyph unicode="r" glyph-name="r" horiz-adv-x="695" d="M452 169H453L604 0H440L291 168H120V0H0V289L433 288Q459 288 459 341Q459 395 433 395H113Q0 395 0 515H433Q500 515 541 460Q579 410 579 341Q579 272 541 223Q506 176 452 169Z" />
<glyph unicode="s" glyph-name="s" horiz-adv-x="664" d="M614 159Q614 94 575 48Q533 0 469 0H25Q25 120 153 120H469Q494 120 494 159Q494 198 469 198H146Q82 198 40 246Q0 291 0 356Q0 421 41 468T146 515H590Q590 395 477 395H146Q121 395 121 356Q121 318
146 318H469Q533 318 575 270Q614 224 614 159Z" />
<glyph unicode="t" glyph-name="t" horiz-adv-x="620" d="M584 395T468 395H352V103Q352 0 232 0V395H0Q0 515 104 515H584Q584 395 468 395Z" />
<glyph unicode="u" glyph-name="u" horiz-adv-x="682" d="M632 160Q632 95 591 48T486 1H146Q81 1 41 48T0 160V515Q120 515 120 415V160Q120 121 146 121H486Q511 121 511 160V515Q632 515 632 415V160Z" />
<glyph unicode="v" glyph-name="v" horiz-adv-x="635" d="M595 515L333 44Q284 -49 231 44L-32 515H102L283 196L461 515H595Z" />
<glyph unicode="w" glyph-name="w" horiz-adv-x="826" d="M801 515L616 46Q561 -46 512 46L393 320L274 46Q222 -48 169 46L-16 515H112L223 221L327 449Q393 598 457 449L559 218L674 515H801Z" />
<glyph unicode="x" glyph-name="x" horiz-adv-x="597" d="M140 0H-16L182 242L263 153L140 0ZM-10 515H146L278 355L410 515H566L356 261L572 0H416L-10 515Z" />
<glyph unicode="y" glyph-name="y" horiz-adv-x="680" d="M376 198V0H256V198L0 515H139L317 296L510 515H630L376 198Z" />
<glyph unicode="z" glyph-name="z" horiz-adv-x="601" d="M551 0T445 0L1 -1Q0 120 91 192L351 395H100Q0 395 0 515H541Q539 397 455 329L194 120H551Q551 0 445 0Z" />
<glyph unicode="|" glyph-name="bar" horiz-adv-x="171" d="M121 -143T0 -143V558Q0 657 121 657V-41Q121 -143 0 -143Z" />
</font>
</defs>
</svg>
