<svg xmlns="http://www.w3.org/2000/svg" viewBox="0 0 663.15968 344.58616"><defs><style>.cls-1{fill:#034ea2;fill-rule:evenodd;}</style></defs><title>logo_ivia</title><g id="Layer_2" data-name="Layer 2"><g id="Camada_1" data-name="Camada 1"><path class="cls-1" d="M320.85789,277.66259l5.2134-28.5498h-4.6484l-5.27,28.5498Zm4.0787-33.3867h0a3.14583,3.14583,0,0,0,2.2973-.9248,3.55777,3.55777,0,0,0,.9331-2.3799,3.42914,3.42914,0,0,0-.3574-1.581,2.67145,2.67145,0,0,0-.9834-1.0811,2.75371,2.75371,0,0,0-1.4927-.4053,2.87239,2.87239,0,0,0-1.5117.4356,3.182,3.182,0,0,0-1.0937,1.167,3.8406,3.8406,0,0,0-.4546,1.7021,3.66727,3.66727,0,0,0,.332,1.5811,2.48321,2.48321,0,0,0,2.3311,1.4863Zm8.8989,33.3867h0l2.4912-13.8632a17.91,17.91,0,0,1,1.5215-4.7491,14.59661,14.59661,0,0,1,2.3701-3.53809,10.45134,10.45134,0,0,1,2.7676-2.2128,5.6764,5.6764,0,0,1,2.6914-.7666,4.50059,4.50059,0,0,1,2.5498.6601,3.53123,3.53123,0,0,1,1.36031,1.75,7.07839,7.07839,0,0,1,.39459,2.5449,17.38574,17.38574,0,0,1-.10259,1.8692c-.06441.6299-.14261,1.2177-.23631,1.789l-3.0039,16.5166h4.6484l3.0596-16.6943c.1406-.78809.2627-1.5811.3584-2.38869a19.46846,19.46846,0,0,0,.1494-2.2109,10.26574,10.26574,0,0,0-.6221-3.7451,6.20458,6.20458,0,0,0-3.873-3.7676,7.6983,7.6983,0,0,0-2.4727-.3916,10.57522,10.57522,0,0,0-3.8535.7275,11.579,11.579,0,0,0-3.4551,2.1221,14.391,14.391,0,0,0-2.833,3.4014h-.11519l.68069-5.6026h-4.1934c-.1426,1.1807-.3125,2.4571-.5176,3.8438-.22069,1.38569-.4736,2.8789-.7851,4.4736l-3.628,20.2324Zm41.1367-29.1982h0a13.16549,13.16549,0,0,0-4.9961.9726,14.19257,14.19257,0,0,0-4.1924,2.6856,16.93674,16.93674,0,0,0-3.2119,4,19.92586,19.92586,0,0,0-2.0576,4.9443,21.31522,21.31522,0,0,0-.7285,5.5049,14.255,14.255,0,0,0,.708,4.543,11.09329,11.09329,0,0,0,2.0781,3.7353,9.42455,9.42455,0,0,0,3.3623,2.5264,10.92531,10.92531,0,0,0,4.5615.9336,13.11722,13.11722,0,0,0,5.1299-1.0225,14.39622,14.39622,0,0,0,4.2305-2.7597,17.55977,17.55977,0,0,0,3.1816-4.0528,20.57445,20.57445,0,0,0,2.002-4.8857,20.34119,20.34119,0,0,0,.6992-5.2695,14.78682,14.78682,0,0,0-.6436-4.39361,11.41973,11.41973,0,0,0-1.9541-3.79489,9.45715,9.45715,0,0,0-3.3525-2.666,11.25312,11.25312,0,0,0-4.8164-1.001Zm-.50979,3.8926h0a5.92143,5.92143,0,0,1,3.07819.7754,5.77668,5.77668,0,0,1,1.9755,1.9668,9.09092,9.09092,0,0,1,1.0479,2.5859,11.219,11.219,0,0,1,.3027,2.6348,17.14544,17.14544,0,0,1-.4834,4.02139,18.25332,18.25332,0,0,1-1.3486,3.8243,14.86942,14.86942,0,0,1-2.0898,3.2138,9.59263,9.59263,0,0,1-2.6807,2.211,6.53675,6.53675,0,0,1-3.1445.8271,5.89372,5.89372,0,0,1-3.4375-1.043,6.63286,6.63286,0,0,1-2.2305-2.8291,10.60433,10.60433,0,0,1-.794-4.1494,17.97512,17.97512,0,0,1,.4541-3.9736,18.51146,18.51146,0,0,1,1.3028-3.792,14.15531,14.15531,0,0,1,2.0517-3.2168,9.549,9.549,0,0,1,2.712-2.2295,6.95192,6.95192,0,0,1,3.28411-.8271Zm15.47069-3.2442h0l4.7588,28.5498h4.5908l15.2403-28.5498h-5.1543l-8.3301,16.6338q-.7779,1.60845-1.334,2.8321c-.3574.8056-.6699,1.5234-.9219,2.1425-.2558.6182-.48429,1.1895-.6914,1.6905h-.16889c-.03911-.7862-.13281-1.751-.29491-2.8897-.169-1.1396-.3487-2.5176-.5557-4.1299l-2.3799-16.2793Zm46.0664,28.5498h-4.4179c.00781-.8759.0644-1.9472.1904-3.2236.11041-1.2812.2617-2.6562.4316-4.1514h-.1123a18.36955,18.36955,0,0,1-3.2031,4.7286,10.70358,10.70358,0,0,1-3.6074,2.5371,9.90684,9.90684,0,0,1-3.8438.7568,7.46387,7.46387,0,0,1-4.2119-1.2373,7.89481,7.89481,0,0,1-2.7021-3.3428,11.99986,11.99986,0,0,1-.9619-4.8574,22.36218,22.36218,0,0,1,3.2402-11.4941,19.64307,19.64307,0,0,1,3.8994-4.5987,17.34439,17.34439,0,0,1,5.2803-3.14651,18.29007,18.29007,0,0,1,6.5635-1.16889,24.93541,24.93541,0,0,1,2.6826.1455c.8877.0889,1.73731.2178,2.5478.374.81251.169,1.5401.3438,2.1924.541l-2.832,14.9248c-.3028,1.6602-.5381,3.3018-.7207,4.9151-.1778,1.6211-.3096,3.1357-.377,4.5508-.0654,1.4257-.07319,2.6738-.0381,3.747Zm-2.9443-16.2812h0l1.585-8.6113a6.14743,6.14743,0,0,0-1.2559-.295,13.78418,13.78418,0,0,0-1.9726-.1181,10.35088,10.35088,0,0,0-4.0899.8564,12.65932,12.65932,0,0,0-3.5576,2.3477,15.72664,15.72664,0,0,0-2.8184,3.4795,18.24971,18.24971,0,0,0-1.8515,4.2685,17.30254,17.30254,0,0,0-.6592,4.6797,11.2186,11.2186,0,0,0,.2246,2.3291,6.42586,6.42586,0,0,0,.7676,2.0264,3.97046,3.97046,0,0,0,1.4443,1.414,4.52363,4.52363,0,0,0,2.2666.5411,5.89827,5.89827,0,0,0,3.0117-.9444,11.49509,11.49509,0,0,0,2.89851-2.664,18.12718,18.12718,0,0,0,2.43839-4.0782,23.909,23.909,0,0,0,1.5684-5.2314Zm28.2754,11.3271h0c-.4727.2246-1.0098.459-1.624.6963a12.53092,12.53092,0,0,1-4.7227.8946,7.04775,7.04775,0,0,1-3.75-.9639,5.8423,5.8423,0,0,1-2.2842-2.6543,9.67753,9.67753,0,0,1-.7675-3.9902,16.57257,16.57257,0,0,1,2.03221-7.8965,13.89694,13.89694,0,0,1,2.40819-3.1934,10.76779,10.76779,0,0,1,3.2295-2.1914,9.83744,9.83744,0,0,1,3.9482-.81741,10.35148,10.35148,0,0,1,2.6817.333,9.981,9.981,0,0,1,1.9648.72851l1.3613-3.833a6.29938,6.29938,0,0,0-1.2861-.5693,13.37775,13.37775,0,0,0-1.9834-.5127,14.54991,14.54991,0,0,0-2.457-.2158,15.52527,15.52527,0,0,0-5.5313,1.0117,16.19047,16.19047,0,0,0-4.6308,2.7822,17.9347,17.9347,0,0,0-3.53709,4.1592,19.47557,19.47557,0,0,0-2.26961,5.1113,20.891,20.891,0,0,0-.8037,5.6944,13.91532,13.91532,0,0,0,.5488,3.9316,10.47488,10.47488,0,0,0,1.7002,3.4004,8.72126,8.72126,0,0,0,2.9395,2.459,10.82833,10.82833,0,0,0,4.2754,1.1211l-2.8897,4.1875a6.49755,6.49755,0,0,1,2.8047.7764,1.75692,1.75692,0,0,1,.9365,1.5244,1.9929,1.9929,0,0,1-1.2295,1.8759,2.846,2.846,0,0,1-1.208.2471,5.37273,5.37273,0,0,1-1.54-.2187,5.31153,5.31153,0,0,1-1.4082-.6065l-1.0742,2.5342a4.14917,4.14917,0,0,0,.9717.4941,8.05154,8.05154,0,0,0,1.3222.3731,8.43072,8.43072,0,0,0,1.502.1367,7.94042,7.94042,0,0,0,2.2773-.335,6.37238,6.37238,0,0,0,1.9531-.9814,4.84744,4.84744,0,0,0,1.3702-1.5947,4.58757,4.58757,0,0,0,.5205-2.1631,3.86212,3.86212,0,0,0-.8526-2.4658,4.12706,4.12706,0,0,0-2.209-1.3682l1.7579-2.416a14.52731,14.52731,0,0,0,2.4277-.3936,18.92461,18.92461,0,0,0,2.0586-.6504c.6123-.2451,1.1133-.4609,1.5185-.6689l-.4521-3.7725Zm27.3662,4.9541h0c-.0371-1.0732-.0273-2.3213.0381-3.747.0654-1.4151.1992-2.9297.376-4.5508.1816-1.6133.4179-3.2549.7207-4.9151l2.832-14.9248c-.6504-.1972-1.3779-.372-2.1914-.541-.8086-.1562-1.6631-.2851-2.5479-.374a24.92418,24.92418,0,0,0-2.6835-.1455,18.29,18.29,0,0,0-6.5635,1.16889,17.3394,17.3394,0,0,0-5.2793,3.14651,19.6374,19.6374,0,0,0-3.8975,4.5987,22.30243,22.30243,0,0,0-3.2412,11.4941,11.9684,11.9684,0,0,0,.9619,4.8574,7.89084,7.89084,0,0,0,2.70021,3.3428,7.46658,7.46658,0,0,0,4.21489,1.2373,9.919,9.919,0,0,0,3.8427-.7568,10.71266,10.71266,0,0,0,3.6075-2.5371,18.44426,18.44426,0,0,0,3.2021-4.7286h.1113c-.1689,1.4952-.3213,2.8702-.4326,4.1514-.123,1.2764-.1797,2.3477-.1885,3.2236Zm-2.9453-16.2812h0a23.64553,23.64553,0,0,1-1.5684,5.2314,18.04892,18.04892,0,0,1-2.4365,4.0782,11.5761,11.5761,0,0,1-2.8974,2.664,5.90575,5.90575,0,0,1-3.0147.9444,4.53176,4.53176,0,0,1-2.2666-.5411,3.99662,3.99662,0,0,1-1.4453-1.414,6.47151,6.47151,0,0,1-.7637-2.0264,11.15034,11.15034,0,0,1-.22649-2.3291,17.342,17.342,0,0,1,.66009-4.6797,18.09357,18.09357,0,0,1,1.8535-4.2685,15.65739,15.65739,0,0,1,2.8145-3.4795,12.68384,12.68384,0,0,1,3.5595-2.3477,10.34763,10.34763,0,0,1,4.0899-.8564,13.78914,13.78914,0,0,1,1.9717.1181,6.11388,6.11388,0,0,1,1.25581.295l-1.58591,8.6113Zm-6.5723-17.2227h0a6.749,6.749,0,0,1,.5645-1.9072,1.19968,1.19968,0,0,1,1.0781-.748,2.69022,2.69022,0,0,1,1.2354.333,8.6861,8.6861,0,0,1,1.1445.7275,8.53382,8.53382,0,0,0,1.5195.8086,4.94663,4.94663,0,0,0,1.8223.374,3.49422,3.49422,0,0,0,3.0146-1.4668,9.05672,9.05672,0,0,0,1.3506-4.2002h-2.664a8.30618,8.30618,0,0,1-.377,1.5059,1.63394,1.63394,0,0,1-.53029.7656,1.32574,1.32574,0,0,1-.79391.209,2.55038,2.55038,0,0,1-1.1133-.3057,9.50365,9.50365,0,0,1-1.1514-.6972c-.3896-.2373-.7558-.4522-1.0966-.6504a5.55791,5.55791,0,0,0-1.0772-.4737,4.36291,4.36291,0,0,0-1.2832-.17481,3.30041,3.30041,0,0,0-2.126.76761,5.43224,5.43224,0,0,0-1.4746,2.084,10.90024,10.90024,0,0,0-.7607,3.0488Zm32.0713,4.3057h0a13.15311,13.15311,0,0,0-4.99508.9726,14.17282,14.17282,0,0,0-4.19342,2.6856,16.96268,16.96268,0,0,0-3.2128,4,20.002,20.002,0,0,0-2.0577,4.9443,21.32286,21.32286,0,0,0-.7275,5.5049,14.22711,14.22711,0,0,0,.708,4.543,11.12573,11.12573,0,0,0,2.0772,3.7353,9.44832,9.44832,0,0,0,3.36421,2.5264,10.92252,10.92252,0,0,0,4.55958.9336,13.10745,13.10745,0,0,0,5.1308-1.0225,14.3573,14.3573,0,0,0,4.2305-2.7597,17.58634,17.58634,0,0,0,3.1816-4.0528,20.67252,20.67252,0,0,0,2.7012-10.1552,14.85176,14.85176,0,0,0-.6435-4.39361,11.42153,11.42153,0,0,0-1.9541-3.79489,9.45838,9.45838,0,0,0-3.3526-2.666,11.25932,11.25932,0,0,0-4.8164-1.001Zm-.5107,3.8926h0a5.92458,5.92458,0,0,1,3.0791.7754,5.74888,5.74888,0,0,1,1.9746,1.9668,9.06179,9.06179,0,0,1,1.0478,2.5859,11.32518,11.32518,0,0,1,.3028,2.6348,17.296,17.296,0,0,1-.4805,4.02139,18.14785,18.14785,0,0,1-1.3516,3.8243,14.82555,14.82555,0,0,1-2.0878,3.2138,9.65159,9.65159,0,0,1-2.6817,2.211,6.54144,6.54144,0,0,1-3.1435.8271,5.89354,5.89354,0,0,1-3.4395-1.043,6.6479,6.6479,0,0,1-2.2305-2.8291,10.55277,10.55277,0,0,1-.791-4.1494,17.96685,17.96685,0,0,1,.4522-3.9736,18.38968,18.38968,0,0,1,1.3017-3.792,14.15561,14.15561,0,0,1,2.0518-3.2168,9.5987,9.5987,0,0,1,2.7109-2.2295,6.95928,6.95928,0,0,1,3.2852-.8271Zm43.916,20.0547h0a15.73541,15.73541,0,0,1-1.9453.9238,14.44255,14.44255,0,0,1-2.45608.7275,15.21268,15.21268,0,0,1-2.96482.2959,7.143,7.143,0,0,1-3.7227-.9433,5.958,5.958,0,0,1-2.3984-2.8897,8.44645,8.44645,0,0,1-.4697-1.8105,14.632,14.632,0,0,1-.1905-2.0059,8.641,8.641,0,0,1,.0948-1.6123,54.63756,54.63756,0,0,0,5.789-.1758,29.28391,29.28391,0,0,0,5.0166-.8447,13.85093,13.85093,0,0,0,3.9365-1.6934,7.5934,7.5934,0,0,0,2.57722-2.69139,7.72481,7.72481,0,0,0,.92278-3.8564,7.56325,7.56325,0,0,0-.92278-3.74321,6.62894,6.62894,0,0,0-2.71972-2.63669,9.23527,9.23527,0,0,0-4.4004-.9912,11.78273,11.78273,0,0,0-4.9483,1.0801,14.23485,14.23485,0,0,0-4.1347,2.9013,18.70573,18.70573,0,0,0-3.1582,4.18749,21.26133,21.26133,0,0,0-2.0088,4.9541,20.735,20.735,0,0,0-.71,5.2207,15.4012,15.4012,0,0,0,.6162,4.4629,10.45711,10.45711,0,0,0,1.876,3.6592,8.64144,8.64144,0,0,0,3.25,2.4658,11.32761,11.32761,0,0,0,4.6846.9141,19.65239,19.65239,0,0,0,6.6299-1.1416,14.67957,14.67957,0,0,0,2.4365-1.0986l-.6797-3.6582Zm-.3418-16.5157h0a3.92186,3.92186,0,0,1-1.01858,2.753,6.42118,6.42118,0,0,1-2.79592,1.6806,18.5801,18.5801,0,0,1-4.1923.8272,46.59277,46.59277,0,0,1-5.1954.166,16.35819,16.35819,0,0,1,1.2832-3.3037,13.00251,13.00251,0,0,1,1.9952-2.8906,9.34841,9.34841,0,0,1,2.6054-2.0538,6.77914,6.77914,0,0,1,3.127-.7773,5.27854,5.27854,0,0,1,2.2002.4248,3.30226,3.30226,0,0,1,1.4629,1.2188A3.48107,3.48107,0,0,1,554.314,255.896Zm-120.8125,42.5049-.9512,5.3076H428.687l-.6689,3.833h3.8574l-2.6289,14.4512c-.1943,1.0254-.3447,1.958-.457,2.8154a20.70016,20.70016,0,0,0-.15719,2.4952,6.55276,6.55276,0,0,0,.56729,2.7529,4.56708,4.56708,0,0,0,1.84771,2.0058,6.38912,6.38912,0,0,0,3.291.7862,14.32543,14.32543,0,0,0,1.98049-.1377,6.68356,6.68356,0,0,0,1.60251-.3945l.22359-3.8331a6.05871,6.05871,0,0,1-1.0087.1866c-.3643.0293-.75489.0498-1.17189.0498a2.46552,2.46552,0,0,1-1.961-.7471,2.95172,2.95172,0,0,1-.61521-2.0264,17.40549,17.40549,0,0,1,.1504-2.2197c.1006-.7578.2422-1.5254.4092-2.3213l2.4609-13.8633h6.4932l.72651-3.833h-6.49211l1.2343-6.8427-4.8691,1.5351Zm29.04491,28.6084h0a15.7446,15.7446,0,0,1-1.92281.9219,14.07012,14.07012,0,0,1-2.4239.7285,14.97882,14.97882,0,0,1-2.9277.2949,7.003,7.003,0,0,1-3.6768-.9424,5.933,5.933,0,0,1-2.3681-2.8906,8.30979,8.30979,0,0,1-.4649-1.8105,14.31752,14.31752,0,0,1-.1884-2.0049,8.71354,8.71354,0,0,1,.0918-1.6113,53.49156,53.49156,0,0,0,5.7177-.1797,28.32833,28.32833,0,0,0,4.95411-.8438,13.64875,13.64875,0,0,0,3.89069-1.6914,7.54585,7.54585,0,0,0,2.5429-2.6924,7.81868,7.81868,0,0,0,.9141-3.8554,7.64491,7.64491,0,0,0-.9141-3.7452,6.55648,6.55648,0,0,0-2.6845-2.6347,9.01883,9.01883,0,0,0-4.3457-.9922,11.51783,11.51783,0,0,0-4.8887,1.0811,14.07677,14.07677,0,0,0-4.083,2.9013,18.59606,18.59606,0,0,0-3.1182,4.1865,21.36232,21.36232,0,0,0-1.9834,4.9541,20.82559,20.82559,0,0,0-.7012,5.2217,15.64333,15.64333,0,0,0,.6045,4.4629,10.6139,10.6139,0,0,0,1.8555,3.6582,8.54578,8.54578,0,0,0,3.2109,2.4668,11.08923,11.08923,0,0,0,4.627.9131,19.17723,19.17723,0,0,0,6.5469-1.1406,14.41356,14.41356,0,0,0,2.4052-1.1016l-.66989-3.6543Zm-.33791-16.5176h0a3.95446,3.95446,0,0,1-1.0078,2.7539,6.31572,6.31572,0,0,1-2.7598,1.6807,18.03757,18.03757,0,0,1-4.1406.8252,44.77134,44.77134,0,0,1-5.1318.166,16.47462,16.47462,0,0,1,1.2715-3.3027,12.93641,12.93641,0,0,1,1.9668-2.8897,9.21365,9.21365,0,0,1,2.5771-2.0537,6.61362,6.61362,0,0,1,3.085-.7783,5.17614,5.17614,0,0,1,2.1728.4238,3.2638,3.2638,0,0,1,1.4444,1.2198,3.50528,3.50528,0,0,1,.5224,1.955Zm25.0127,16.752h0a16.33143,16.33143,0,0,1-1.6211.7285,13.14679,13.14679,0,0,1-2.0898.6094,12.67131,12.67131,0,0,1-2.5547.2529,6.849,6.849,0,0,1-3.70019-.9512,5.81368,5.81368,0,0,1-2.26071-2.6367,9.90933,9.90933,0,0,1-.7539-4.0215,16.589,16.589,0,0,1,2.0039-7.8447,13.65671,13.65671,0,0,1,2.3798-3.1826,10.6391,10.6391,0,0,1,3.1895-2.1943,9.63569,9.63569,0,0,1,3.89841-.8155,10.13164,10.13164,0,0,1,2.64939.335,9.864,9.864,0,0,1,1.9395.7256l1.3447-3.8916a7.27176,7.27176,0,0,0-1.2793-.5293,14.81686,14.81686,0,0,0-1.9775-.4932,13.93825,13.93825,0,0,0-2.3965-.2139,14.91187,14.91187,0,0,0-5.4658,1.0098,15.66565,15.66565,0,0,0-4.5713,2.7627,18.05782,18.05782,0,0,0-3.4951,4.1397,19.55219,19.55219,0,0,0-2.2403,5.1025,20.94374,20.94374,0,0,0-.7919,5.6816,13.86973,13.86973,0,0,0,.6435,4.2862,10.1331,10.1331,0,0,0,1.9404,3.5107,8.88786,8.88786,0,0,0,3.24321,2.3682,11.77509,11.77509,0,0,0,4.58109.8662,20.67134,20.67134,0,0,0,3.3388-.2852,16.774,16.774,0,0,0,2.6504-.6894,11.14837,11.14837,0,0,0,1.84671-.7979l-.45121-3.832Zm10.1319,5.0146h0l2.4638-13.8623a17.9549,17.9549,0,0,1,1.5-4.749,14.57772,14.57772,0,0,1,2.3438-3.54,10.27747,10.27747,0,0,1,2.7314-2.211,5.54506,5.54506,0,0,1,2.65632-.7675,4.41954,4.41954,0,0,1,2.51948.6601,3.53148,3.53148,0,0,1,1.3438,1.749,7.24856,7.24856,0,0,1,.3886,2.5469,17.375,17.375,0,0,1-.1006,1.8682c-.06728.6289-.1416,1.2187-.23428,1.7871l-2.96492,16.5185h4.58992l3.02048-16.6943c.1367-.7861.2607-1.5801.35352-2.3867a19.53072,19.53072,0,0,0,.14838-2.2129,10.37668,10.37668,0,0,0-.6142-3.7481,6.45806,6.45806,0,0,0-1.6026-2.4355,6.33847,6.33847,0,0,0-2.22258-1.3281,7.426,7.426,0,0,0-2.44242-.3926,10.33427,10.33427,0,0,0-3.8047.7266,11.40006,11.40006,0,0,0-3.4121,2.124,14.39885,14.39885,0,0,0-2.80079,3.4004h-.11231l.6729-5.6026H497.6324c-.14071,1.1797-.30671,2.458-.51371,3.8438-.2139,1.3857-.4658,2.8799-.7744,4.4746l-3.5821,20.2314Zm40.6289-29.1982h0a12.84716,12.84716,0,0,0-4.93558.9736,14.02918,14.02918,0,0,0-4.14162,2.6836,16.97522,16.97522,0,0,0-3.1709,4.002,20.09249,20.09249,0,0,0-2.0332,4.9433,21.66259,21.66259,0,0,0-.7178,5.5059,14.43168,14.43168,0,0,0,.6983,4.543,11.18847,11.18847,0,0,0,2.0527,3.7343,9.34256,9.34256,0,0,0,3.3213,2.5284,10.73,10.73,0,0,0,4.5039.9316,12.88038,12.88038,0,0,0,5.0654-1.0205,14.10641,14.10641,0,0,0,4.1778-2.7627,17.39113,17.39113,0,0,0,3.1435-4.0508,20.85482,20.85482,0,0,0,2.668-10.1562,15.02016,15.02016,0,0,0-.6348-4.3946,11.41274,11.41274,0,0,0-1.93058-3.7929,9.33286,9.33286,0,0,0-3.30962-2.6651,10.95281,10.95281,0,0,0-4.7568-1.0029Zm-.5049,3.8936h0a5.54189,5.54189,0,0,1,4.9902,2.7412,9.12637,9.12637,0,0,1,1.03612,2.5859,11.58233,11.58233,0,0,1,.29988,2.6348,17.33517,17.33517,0,0,1-.4786,4.0214,18.14654,18.14654,0,0,1-1.3339,3.8223,14.8145,14.8145,0,0,1-2.0586,3.2149,9.59736,9.59736,0,0,1-2.6504,2.2128,6.41317,6.41317,0,0,1-3.1075.8272,5.7867,5.7867,0,0,1-3.3935-1.042,6.61529,6.61529,0,0,1-2.2022-2.832,10.63131,10.63131,0,0,1-.78218-4.1475,18.22385,18.22385,0,0,1,.44528-3.9736,18.6054,18.6054,0,0,1,1.2881-3.793,14.172,14.172,0,0,1,2.0254-3.2168,9.52931,9.52931,0,0,1,2.6787-2.2305,6.79688,6.79688,0,0,1,3.2432-.8251Zm19.02832,25.3046h0l7.55468-41.8808h-4.6465l-7.5537,41.8808Zm23.50488-29.1982h0a12.8277,12.8277,0,0,0-4.9346.9736,13.98526,13.98526,0,0,0-4.1426,2.6836,16.8438,16.8438,0,0,0-3.1689,4.002,20.13617,20.13617,0,0,0-2.0371,4.9433,21.70365,21.70365,0,0,0-.7178,5.5059,14.40342,14.40342,0,0,0,.7022,4.543,11.08386,11.08386,0,0,0,2.0527,3.7343,9.32642,9.32642,0,0,0,3.3193,2.5284,10.727,10.727,0,0,0,4.50392.9316,12.87264,12.87264,0,0,0,5.06448-1.0205,14.14094,14.14094,0,0,0,4.1797-2.7627,17.431,17.431,0,0,0,3.1406-4.0508,20.82615,20.82615,0,0,0,2.6699-10.1562,14.92562,14.92562,0,0,0-.63668-4.3946,11.43147,11.43147,0,0,0-1.93072-3.7929,9.30729,9.30729,0,0,0-3.3076-2.6651,10.95243,10.95243,0,0,0-4.7568-1.0029Zm-.50388,3.8936h0a5.554,5.554,0,0,1,4.99018,2.7412,9.20746,9.20746,0,0,1,1.0342,2.5859,11.46578,11.46578,0,0,1,.2988,2.6348,17.3865,17.3865,0,0,1-.4765,4.0214,18.31173,18.31173,0,0,1-1.334,3.8223,14.8145,14.8145,0,0,1-2.0586,3.2149,9.62859,9.62859,0,0,1-2.6514,2.2128,6.40866,6.40866,0,0,1-3.1064.8272,5.77515,5.77515,0,0,1-3.3926-1.042,6.62211,6.62211,0,0,1-2.2022-2.832,10.65092,10.65092,0,0,1-.7861-4.1475,18.0555,18.0555,0,0,1,.4502-3.9736,18.6006,18.6006,0,0,1,1.2861-3.793,14.1442,14.1442,0,0,1,2.0254-3.2168,9.53468,9.53468,0,0,1,2.6768-2.2305,6.81121,6.81121,0,0,1,3.24612-.8251Zm13.48528,35.6259h0a9.1199,9.1199,0,0,0,2.1172,1.044,15.54576,15.54576,0,0,0,2.7979.706,19.76505,19.76505,0,0,0,3.2011.2559,18.27273,18.27273,0,0,0,3.2071-.2735,14.68954,14.68954,0,0,0,3.2666-.9658,11.61633,11.61633,0,0,0,2.9824-1.8857,14.12868,14.12868,0,0,0,3.3672-5.0928,37.02075,37.02075,0,0,0,2.0615-7.708L620.19,305.065a17.08122,17.08122,0,0,0-2.5098-.9922,23.02768,23.02768,0,0,0-3.04-.7295,18.29431,18.29431,0,0,0-3.17778-.2832,15.69706,15.69706,0,0,0-5.80472,1.0811,15.93079,15.93079,0,0,0-4.7646,2.9199,18.66985,18.66985,0,0,0-3.5791,4.3154,20.80975,20.80975,0,0,0-2.252,5.25,21.22077,21.22077,0,0,0-.7802,5.7197,13.077,13.077,0,0,0,.5205,3.6885,9.77668,9.77668,0,0,0,1.5664,3.165,7.501,7.501,0,0,0,2.584,2.2207,7.8042,7.8042,0,0,0,3.6084.8379,9.53157,9.53157,0,0,0,5.1855-1.5156,13.203,13.203,0,0,0,4.21682-4.5596h.11128l-.8925,4.3047a20.71575,20.71575,0,0,1-1.5391,4.8457,10.19963,10.19963,0,0,1-2.2022,3.1289,7.46562,7.46562,0,0,1-2.7626,1.669,9.70466,9.70466,0,0,1-3.2354.5029,15.83752,15.83752,0,0,1-2.7402-.2353,14.94614,14.94614,0,0,1-2.4649-.6592,9.36078,9.36078,0,0,1-1.956-.9951l-1.2901,3.8349Zm20.3711-25.0674h0a17.18162,17.18162,0,0,1-1.27538,4.0313,16.61264,16.61264,0,0,1-2.11912,3.4785,10.76942,10.76942,0,0,1-2.6768,2.4277,5.5911,5.5911,0,0,1-2.9394.9151,5.016,5.016,0,0,1-2.5625-.6211,4.535,4.535,0,0,1-1.61618-1.6016,7.01176,7.01176,0,0,1-.82032-2.2119,10.86326,10.86326,0,0,1-.2041-2.4072,16.898,16.898,0,0,1,.5429-4.207,17.59387,17.59387,0,0,1,1.5449-3.9356,14.48826,14.48826,0,0,1,2.4161-3.2822,10.94672,10.94672,0,0,1,3.1738-2.252,8.973,8.973,0,0,1,3.7939-.8349,11.042,11.042,0,0,1,2.6104.3154,9.70221,9.70221,0,0,1,1.8662.6279l-1.7344,9.5576Zm14.6065,14.7461h0l5.1494-28.5498h-4.5899l-5.205,28.5498Zm4.0273-33.3886h0a3.06889,3.06889,0,0,0,2.2686-.9229,3.59108,3.59108,0,0,0,.9248-2.3808,3.474,3.474,0,0,0-.3545-1.5801,2.66008,2.66008,0,0,0-.9707-1.0821,2.70952,2.70952,0,0,0-1.4737-.4023,2.79685,2.79685,0,0,0-1.4931.4316,3.19764,3.19764,0,0,0-1.0801,1.169,3.85335,3.85335,0,0,0-.4492,1.7021,3.729,3.729,0,0,0,.3281,1.583,2.547,2.547,0,0,0,.9043,1.0811,2.50286,2.50286,0,0,0,1.3955.4014Zm26.4717,33.3886h0c-.0361-1.0722-.0283-2.3222.03912-3.747.06438-1.4141.19528-2.9307.372-4.5508.17778-1.6143.41018-3.2539.708-4.9141l2.79888-14.9258c-.6426-.1972-1.3604-.373-2.1631-.54-.80178-.1572-1.6426-.2852-2.5176-.374a24.07214,24.07214,0,0,0-2.6514-.1465,17.856,17.856,0,0,0-6.4814,1.1689,17.09488,17.09488,0,0,0-5.2129,3.1455,19.551,19.551,0,0,0-3.8506,4.6006,22.00082,22.00082,0,0,0-2.37988,5.5469,22.27273,22.27273,0,0,0-.82132,5.9463,12.10089,12.10089,0,0,0,.94932,4.8584,7.89729,7.89729,0,0,0,2.66788,3.3408,7.28182,7.28182,0,0,0,4.16312,1.2383,9.702,9.702,0,0,0,3.79488-.7568,10.628,10.628,0,0,0,3.5625-2.5352,18.5678,18.5678,0,0,0,3.1631-4.7305h.1113c-.1669,1.4942-.3183,2.8702-.4267,4.1504-.124,1.2754-.1797,2.3477-.1885,3.2246Zm-2.9102-16.2812h0a23.68565,23.68565,0,0,1-1.5478,5.2305,18.18071,18.18071,0,0,1-2.4053,4.0781,11.50667,11.50667,0,0,1-2.8633,2.667,5.75372,5.75372,0,0,1-2.9756.9414,4.43319,4.43319,0,0,1-2.2392-.5381,3.97428,3.97428,0,0,1-1.4268-1.416,6.49718,6.49718,0,0,1-.7549-2.0264,11.14552,11.14552,0,0,1-.2236-2.3291,17.49,17.49,0,0,1,.6533-4.6787,18.24782,18.24782,0,0,1,1.8272-4.2695,15.74633,15.74633,0,0,1,2.7812-3.4805,12.57674,12.57674,0,0,1,3.5127-2.3467,10.06584,10.06584,0,0,1,4.041-.8554,13.64224,13.64224,0,0,1,1.9493.1171,5.75192,5.75192,0,0,1,1.2392.295Z"/><path class="cls-1" d="M48.272.1665h54.4209L54.4068,187.5122H0ZM339.15379,187.5122H393.69L441.96149.1665h-54.5323ZM120.51169,0,168.7984,187.3345l68.68749.1777L368.53469.1665h-61.1738l-96.7544,138.2149L174.91849,0ZM608.76808,187.5122h54.3916L614.898.1665,546.36578,0,415.28959,187.3345h61.2129l96.7402-138.3706ZM648.03368.1768a15.13216,15.13216,0,0,1,5.2666,1.1777,16.25,16.25,0,0,1,5.2852,3.5772,13.86907,13.86907,0,0,1,3.3857,5.2612,14.74961,14.74961,0,0,1,1.1885,6.13039,14.67565,14.67565,0,0,1-1.1885,6.12011,14.02141,14.02141,0,0,1-3.3857,5.27589,19.51392,19.51392,0,0,1-5.4424,3.55171,19.98068,19.98068,0,0,1-5.2852,1.2027V30.26129a9.77206,9.77206,0,0,0,4.417-1.02149,12.77834,12.77834,0,0,0,4.7539-3.0674,10.99891,10.99891,0,0,0,3.0635-4.4067,13.66888,13.66888,0,0,0,1.0108-5.2608,14.754,14.754,0,0,0-1.0108-5.6201,12.46785,12.46785,0,0,0-3.0635-4.4326,11.7269,11.7269,0,0,0-4.4209-3.0562,15.81284,15.81284,0,0,0-4.75-1.1875v0h-.8457a14.0201,14.0201,0,0,0-5.2754,1.0215,11.57534,11.57534,0,0,0-4.4209,3.0557,13.7478,13.7478,0,0,0-3.2304,4.5991,16.08883,16.08883,0,0,0-1.0088,5.43849,14.34422,14.34422,0,0,0,1.0088,5.26561,13.521,13.521,0,0,0,3.0381,4.5835,12.163,12.163,0,0,0,4.6132,3.0674,13.6947,13.6947,0,0,0,5.2754,1.02149h.8457V32.4737h-.8457a17.95881,17.95881,0,0,1-6.1289-1.2027,13.9723,13.9723,0,0,1-5.2656-3.7295,17.53414,17.53414,0,0,1-3.5771-5.0981,20.42574,20.42574,0,0,1-1.1739-5.9277v-.3985a16.5299,16.5299,0,0,1,1.3399-6.0757,18.47725,18.47725,0,0,1,3.5781-5.291,14.11674,14.11674,0,0,1,5.0986-3.396,14.88423,14.88423,0,0,1,5.9229-1.1777h1.2275Zm-.1758,8.8433,2.5664.8398a2.43139,2.43139,0,0,1,1.1729,2.3901l-1.1729,2.2085a7.16876,7.16876,0,0,1-2.5664.6773v2.8637l3.2286,7.1519h3.8964l-4.0722-8.32811a5.27613,5.27613,0,0,0,3.0654-1.68749,5.45549,5.45549,0,0,0,1.2139-3.23,3.9094,3.9094,0,0,0-2.0469-3.7441,9.02225,9.02225,0,0,0-5.2852-1.3643V9.0201Zm-7.3076-2.2227v18.354h3.4112V17.334h3.3857l.5107.6655V15.1358h-3.8964V9.0201h3.8964V6.7974h-7.3076Z"/></g></g></svg>