<svg xmlns="http://www.w3.org/2000/svg" viewBox="0 0 823.44882 221.82856"><defs><style>.cls-1{fill:#f26f21;}.cls-2{fill:#6d6d66;}</style></defs><title>logo_morphus</title><g id="Layer_2" data-name="Layer 2"><g id="Layer_1-2" data-name="Layer 1"><path class="cls-1" d="M168.77989,110.82511c-8.54127,5.46951-16.723,7.56631-20.28025,5.92282-.56049-.259-2.1861-1.04727-2.1861-5.8652v-.084c0-4.813,1.62787-5.6024,2.1906-5.86212a7.1154,7.1154,0,0,1,2.9833-.53879,23.759,23.759,0,0,1,7.76642,1.61891,48.86963,48.86963,0,0,1,9.526,4.80836Zm-115.8933-.09693c8.56138-5.48538,16.93738-7.5864,20.51246-5.93422.56272.25972,2.35134,1.04953,2.35134,5.86122v.084c0,4.80076-1.79758,5.59346-2.36252,5.85473-3.58623,1.65688-11.94884-.41757-20.50129-5.86569Zm128.26192,57.571V145.46448a6.36408,6.36408,0,0,0-12.72816,0v22.83475H145.48287a6.36408,6.36408,0,1,0,0,12.72816h22.93748V206.285c-11.165-4.40349-32.32057-13.59678-45.16933-23.60289a48.35767,48.35767,0,0,1-4.14-3.59964,64.47123,64.47123,0,0,0,8.39394-15.51716c2.92077-8.04107,3.14181-15.09965.66094-20.47-3.88321-8.40506-12.58748-9.631-17.4264-9.631h-.08265c-4.83892,0-13.53648,1.22592-17.41969,9.62651-2.47866,5.36593-2.24416,12.43118.67658,20.46111a64.56172,64.56172,0,0,0,8.46761,15.56631c-1.25051,1.17233-2.53893,2.33125-4.04621,3.50358C85.49747,192.619,64.58537,201.81,53.42031,206.22694V181.02739H76.26177a6.36408,6.36408,0,1,0,0-12.72816H53.42031V145.46448a6.36408,6.36408,0,0,0-12.72816,0v22.83475H15.2693c4.41243-10.94173,13.61245-32.2536,23.61856-45.10459a46.36832,46.36832,0,0,1,3.63535-4.12213,64.64738,64.64738,0,0,0,15.57972,8.42517,35.95436,35.95436,0,0,0,12.11855,2.36475,20.29114,20.29114,0,0,0,8.5055-1.71273c8.414-3.88765,9.75157-12.57857,9.75157-17.41056v-.084c0-4.83717-1.33531-13.53185-9.74039-17.41571-5.3704-2.48131-12.50042-2.24953-20.53926.66969a64.88156,64.88156,0,0,0-15.66679,8.50777,52.74483,52.74483,0,0,1-3.61973-4.13644c-10.00161-12.8427-19.20831-33.81624-23.623-44.9813H40.69215V76.24068a6.36408,6.36408,0,1,0,12.72816,0V53.29919H76.26177a6.36408,6.36408,0,1,0,0-12.72816H53.42031V15.25808c11.16505,4.407,32.16651,13.61128,45.0242,23.62369a45.8343,45.8343,0,0,1,4.06854,3.63955,64.78657,64.78657,0,0,0-8.44526,15.56544c-2.9163,8.058-3.153,15.19028-.6677,20.57071,3.88771,8.41443,12.56739,9.7,17.39966,9.7h.08483c4.83674,0,13.532-1.28444,17.41525-9.69016,2.48087-5.36975,2.24863-12.472-.6699-20.51175a64.85966,64.85966,0,0,0-8.51224-15.65948,55.15918,55.15918,0,0,1,4.24049-3.59288c12.83313-9.99452,33.89714-19.18939,45.06217-23.60918V40.571H145.48287a6.36408,6.36408,0,1,0,0,12.72816h22.93748V76.24068a6.36408,6.36408,0,1,0,12.72816,0V53.29919h25.14593c-4.399,11.16505-13.59678,32.233-23.60733,45.08894a47.81032,47.81032,0,0,1-3.60411,4.086,64.68672,64.68672,0,0,0-15.50383-8.41332c-8.03884-2.91968-15.046-3.15549-20.41417-.67484-8.405,3.88321-9.57962,12.575-9.57962,17.4128v.084c0,4.84025,1.17459,13.53782,9.57518,17.41882a19.6471,19.6471,0,0,0,8.33356,1.70155,35.68351,35.68351,0,0,0,12.08058-2.37819,64.709,64.709,0,0,0,15.5641-8.46756c1.15668,1.2393,2.30893,2.635,3.48349,4.14445,9.99272,12.83087,19.17489,34.05568,23.59626,44.99741Zm-65.62594-9.0794a49.08238,49.08238,0,0,1-4.80771,9.54833c-5.47088-8.54347-7.56768-16.77885-5.92192-20.33825.259-.56046,1.045-2.23748,5.86386-2.23748h.08265c4.81212,0,5.60262,1.67923,5.86165,2.242.99812,2.16154.59622,6.17425-1.07853,10.78545ZM110.81314,52.87243c5.48426,8.56095,7.58332,16.88246,5.9331,20.45642-.26127.5618-1.0495,2.30045-5.86165,2.30045h-.08483c-4.801,0-5.59594-1.746-5.85495-2.31029-1.65693-3.58533.41754-11.89615,5.86833-20.44658Zm101.95039,98.12546c-4.7005-10.47285-12.00243-25.14149-20.1038-35.54508-1.30857-1.6837-2.615-3.23026-3.92789-4.66007a60.30824,60.30824,0,0,0,3.99707-4.61363c8.10355-10.40626,15.39889-25.10085,20.09045-35.59554,2.79126-6.24417,4.87016-11.44639,6.12284-14.71108.853-2.225,1.39569-3.7374,1.69935-4.61431.65431-1.88574,1.08745-3.13156.82179-4.83537a6.3837,6.3837,0,0,0-2.67514-4.26862l-.0447-.00289a7.76622,7.76622,0,0,0-4.591-1.58028H181.14851V7.36371a7.713,7.713,0,0,0-1.62117-4.53439l-.07591-.05092A6.42169,6.42169,0,0,0,175.15068.08761c-1.70605-.26479-2.96321.16971-4.84789.82713-.87532.3048-2.38931.84812-4.60894,1.70425-3.258,1.25514-8.452,3.33878-14.68652,6.13544C140.53454,13.45313,125.86361,20.755,115.46,28.85709q-2.45518,1.91019-4.66923,3.99151a58.33366,58.33366,0,0,0-4.60444-4.00939C95.78052,20.736,81.08951,13.43591,70.59659,8.73873,64.35313,5.94371,59.15244,3.86122,55.89,2.60646,53.66371,1.7512,52.15193,1.20837,51.2766.90357,49.38972.24751,48.14368-.1859,46.43766.07895a6.38972,6.38972,0,0,0-4.26058,2.66239l.05135.03707a7.71229,7.71229,0,0,0-1.53629,4.5853V40.571H7.36667a7.7449,7.7449,0,0,0-4.5442,1.53585l-.03794.01319a6.36825,6.36825,0,0,0-2.693,4.27374c-.268,1.71537-.09153,2.64031,2.53,9.44249,1.25492,3.25776,3.33834,8.44815,6.13631,14.68363,4.69821,10.47662,12.0002,25.1482,20.10157,35.55269,1.2661,1.62651,2.60367,3.18133,3.997,4.663a58.33559,58.33559,0,0,0-4.01045,4.61006c-8.10137,10.40356-15.40331,25.09232-20.09933,35.58079-2.79576,6.24128-4.87912,11.43971-6.1341,14.70216-.85523,2.22407-1.39784,3.7358-1.70379,4.61112-.65652,1.88694-1.08971,3.13292-.824,4.84121A6.38864,6.38864,0,0,0,2.76,179.35042l.04239.05806a7.647,7.647,0,0,0,4.56429,1.61891H40.69215V214.1541a7.83933,7.83933,0,0,0,1.47152,4.53526l-.00671.04915a6.40586,6.40586,0,0,0,5.24537,2.77117,11.6081,11.6081,0,0,0,3.8408-.90662c.87532-.30595,2.38261-.84853,4.60223-1.70382,3.258-1.255,8.44744-3.33834,14.68428-6.13631,10.475-4.69824,25.1437-12.0002,35.54952-20.1038,1.67476-1.304,3.22-2.61038,4.65356-3.93454a60.76268,60.76268,0,0,0,4.61788,4.00157c10.40583,8.10361,25.09684,15.3966,35.58749,20.08813,6.24128,2.79129,11.44195,4.87247,14.70437,6.12519,2.22631.853,3.73806,1.3956,4.61344,1.69929a11.55929,11.55929,0,0,0,3.84077.90215,6.5084,6.5084,0,0,0,.99591-.07815,6.37757,6.37757,0,0,0,4.27619-2.68629l.11389-.04917a7.71884,7.71884,0,0,0,1.66584-4.5732V181.02739h33.00394a7.817,7.817,0,0,0,4.53967-1.56308l.04465-.04691a6.40427,6.40427,0,0,0,2.693-4.28737c.26577-1.715.08935-2.64838-2.53225-9.44786-1.25492-3.25577-3.33834-8.44973-6.134-14.68428Z"/><path class="cls-2" d="M814.64407,113.77539c5.81924,4.763,8.65292,11.14719,8.65292,19.46739,0,7.63912-2.89844,14.08134-8.39609,18.58984-5.16275,4.23153-12.24585,6.5181-20.50581,6.5181-8.21515,0-15.29165-2.20842-20.499-6.57394a22.96273,22.96273,0,0,1-8.42068-17.92887h-.10718v-3.30262c0-2.98555,2.25089-4.73622,5.43511-4.73622h2.36478c3.01,0,4.92827,1.60777,4.92827,4.73622v2.17941c0,4.59555,1.55417,8.12815,4.667,10.5063,2.72873,2.08565,6.8218,3.23344,11.567,3.23344,6.36185,0,10.89034-1.735,13.45613-5.15825a13.79816,13.79816,0,0,0,2.46525-8.251v-.33047c0-9.35185-6.88663-12.2659-18.12092-16.24964-11.47989-4.07075-25.76222-9.13523-25.76222-27.94385,0-7.63247,2.80686-14.0702,8.11255-18.61217,5.02875-4.30746,11.8729-6.58515,19.771-6.58515,7.70836,0,14.74016,2.367,19.76662,6.66553a23.19027,23.19027,0,0,1,8.068,18.20348v3.28478c0,3.057-1.97624,5.29225-5.04663,5.29225H814.6776c-3.14186,0-5.09575-2.23525-5.09575-5.29225V87.50848c-.4466-4.15566-2.00306-7.21261-4.84786-9.34515a17.511,17.511,0,0,0-10.5845-3.04362A18.50626,18.50626,0,0,0,783.402,78.15883c-3.24,2.33354-4.859,5.82371-4.859,10.37238v.32825a12.04034,12.04034,0,0,0,5.33906,10.32991c3.27592,2.43393,7.87589,4.08863,12.77287,5.84152l.64314.23c5.79018,2.07448,12.353,4.42805,17.346,8.51447ZM341.25422,70.20709h-.002c-4.6239-4.24269-11.06435-6.7303-18.62265-6.7303a26.7675,26.7675,0,0,0-14.58422,3.80509,21.29351,21.29351,0,0,0-6.85648,6.9536c-4.28249-6.93575-11.87293-10.86584-21.27412-10.86584-7.67731,0-14.16332,2.2799-18.77114,6.60521-4.96556,4.66032-7.58264,11.46874-7.58264,19.70635v61.774a4.99525,4.99525,0,0,0,5.269,5.1694h2.36317a4.84521,4.84521,0,0,0,5.096-5.1694V90.8312c0-5.529,1.34629-9.66674,4.0862-12.29941,2.36966-2.27771,5.73616-3.43214,10.02579-3.43214,11.9685,0,14.47055,8.55462,14.47055,15.73155v61.0974a4.80264,4.80264,0,0,0,4.66722,4.696h3.49936a4.74529,4.74529,0,0,0,4.56159-4.821V90.8312c0-5.46867,1.382-9.60421,4.20006-12.29494,2.39-2.27992,5.79668-3.43661,10.17183-3.43661,4.31351,0,7.71595,1.15668,10.10571,3.43661,2.7216,2.5992,4.10494,6.73471,4.10494,12.29494v60.624a4.9543,4.9543,0,0,0,5.19444,5.1694h2.85066a4.82876,4.82876,0,0,0,4.68307-4.75631V89.68119c0-8.27555-2.71087-14.78478-7.65632-19.47411Zm74.20119,23.58059c0-15.42787-9.267-18.668-17.04012-18.668-5.13145,0-9.19108,1.38448-12.06719,4.11545-3.37631,3.20437-5.05889,8.10137-5.05889,14.55252v34.00878c0,6.48465,1.66918,11.38164,5.012,14.55472,2.87609,2.72881,6.94687,4.11326,12.152,4.11326,3.06368,0,7.45158-.55157,10.93058-3.18654,4.01942-3.04355,6.0716-8.25319,6.0716-15.48144V93.78768ZM398.52248,63.3339c8.50109,0,15.803,2.61706,21.02378,7.56989,5.4709,5.19175,8.414,12.93587,8.414,22.39264v34.99351c0,9.506-2.95427,17.27009-8.44529,22.45745-5.19843,4.91039-12.5071,7.50511-21.04387,7.50511-8.64174,0-15.98388-2.59252-21.22233-7.49847-5.67988-5.319-8.68775-13.08543-8.68775-22.46408V93.29642c0-9.31388,3.00676-17.06021,8.68418-22.39932,5.25986-4.94836,12.6221-7.56321,21.27725-7.56321Zm68.75665,14.95668c-4.0328,3.0503-6.047,8.26664-6.047,15.4971v20.633h14.08582c7.0496,0,11.79254-1.38444,14.89643-3.99711,3.20216-2.693,4.73623-7.31308,4.95954-14.59719V93.78768c0-7.23046-2.05215-12.4468-6.085-15.4971-3.48575-2.63717-7.86248-3.19093-10.915-3.19093s-7.40912.55376-10.89484,3.19093Zm24.22367,45.01083,15.86555,26.46115a4.43939,4.43939,0,0,1,.34389,4.55315,4.58472,4.58472,0,0,1-4.07527,2.30891h-3.20884c-2.74656,0-4.45261-1.03165-5.52444-3.29593l-15.9102-27.69158c-.74361.02459-1.54749.172-2.43846.172H461.23212v25.53c0,2.95871-2.02536,5.28553-4.734,5.28553h-2.36475a5.12627,5.12627,0,0,1-5.40608-5.1694V93.29642c0-9.35182,2.99892-17.1093,8.62389-22.43953,5.18057-4.90815,12.5361-7.5007,21.22252-7.5007,8.54127,0,15.83876,2.59255,21.01933,7.5007,5.42846,5.14487,8.38944,12.90458,8.38944,22.43953,0,0,.11609,3.584.10492,3.86759-.527,13.733-6.01569,22.30108-16.58458,26.13739Zm84.95271-29.51373c0-15.44572-9.238-18.688-16.98879-18.688-3.05921,0-7.43812.55376-10.92161,3.19093-4.02389,3.04809-6.03139,8.26217-6.03139,15.4971v20.633h13.77543c7.14119,0,11.9377-1.38444,15.05276-3.99932,3.2624-2.73547,4.8903-7.48953,5.1136-14.595V93.78768Zm12.592-.18757s-.06477,3.62641-.06926,3.84974h0c-.37957,9.60193-3.211,16.59349-8.41621,21.26943-5.27216,4.73844-12.80631,7.0898-23.03575,7.0898H542.51371v25.30669a5.54989,5.54989,0,0,1-5.3972,5.50886H535.1046a5.02583,5.02583,0,0,1-5.319-5.1694V93.29642c0-9.40765,2.95653-17.10709,8.548-22.38146,5.20066-4.90595,12.51157-7.43591,21.13766-7.43591A30.99519,30.99519,0,0,1,580.495,71.10029h.00221c5.4709,5.13593,8.55024,12.97829,8.55024,22.49982Zm70.39788-28.08235h-2.42725c-2.85827,0-5.08681,1.85341-5.08681,4.571v44.332H617.76621V70.13117c0-3.06148-1.88694-4.61341-4.97739-4.61341h-2.36249c-3.1218,0-5.165,1.64349-5.165,4.61341v81.32405a5.184,5.184,0,0,0,5.03545,5.1694h2.65279a5.19236,5.19236,0,0,0,5.03987-5.1694V125.80907h34.16507v25.64615a4.83315,4.83315,0,0,0,5.031,5.1694h2.36472a4.84952,4.84952,0,0,0,5.10916-5.1694V70.13117c0-2.74212-2.33572-4.61341-5.2141-4.61341Zm82.34-.22327h-2.53215c-3.07486,0-5.3704,1.92709-5.3704,4.83668v57.66529c0,6.5695-1.65023,11.46871-4.88362,14.56147-2.84938,2.72426-6.92233,4.10651-12.0962,4.10651-3.057,0-7.40917-.55157-10.89934-3.18873-4.03948-3.04812-6.0626-8.25546-6.0626-15.47925V70.13117c0-3.19769-1.87129-4.83668-4.91486-4.83668h-2.36254c-3.15075,0-5.45076,1.87794-5.45076,4.83668v58.15876c0,9.00574,2.78009,16.56449,8.02766,21.85673,5.25652,5.30339,12.77281,8.10583,21.725,8.10583,8.56574,0,15.93921-2.61487,21.22478-7.55875,5.62271-5.25875,8.644-13.00505,8.644-22.4038V70.13117c0-3.05474-2.08565-4.83668-5.04892-4.83668Z"/><path class="cls-2" d="M782.76967,181.85763h-2.67285a4.87634,4.87634,0,0,1,.52249-3.06366,3.0617,3.0617,0,0,1,2.80686-1.389,7.53963,7.53963,0,0,1,2.4876.49574,8.103,8.103,0,0,0,2.4876.52471,2.09768,2.09768,0,0,0,1.02939-.19871.86.86,0,0,0,.41084-.81278l1.29521-.009,1.2951-.009a4.38422,4.38422,0,0,1-.5292,3.1441,3.01124,3.01124,0,0,1-2.597,1.063,7.17423,7.17423,0,0,1-2.51666-.52928,7.304,7.304,0,0,0-2.58126-.52917,1.47332,1.47332,0,0,0-1.0585.40413,1.27774,1.27774,0,0,0-.37966.90882ZM258.54886,193.20134c-.02055-.22551-.03083-.46-.03083-.6833a5.72308,5.72308,0,0,1,.03083-.623,3.21558,3.21558,0,0,1,1.26141-2.26647,6.17531,6.17531,0,0,1,3.85194-1.04066,17.5259,17.5259,0,0,1,3.82024.43325,22.69074,22.69074,0,0,1,3.7193,1.19913v-3.87649a17.01253,17.01253,0,0,0-3.40422-1.12318,19.73912,19.73912,0,0,0-4.13532-.38856,11.39852,11.39852,0,0,0-6.90134,1.85338,6.66211,6.66211,0,0,0-2.64543,5.127,6.73189,6.73189,0,0,0-.02254.7302c.00423.27016.01875.57607.03931.94456.26727,5.26539,3.72331,6.21441,7.20012,6.69009,3.47654.47338,6.97388.47338,7.32333,3.84074a2.94769,2.94769,0,0,1,.04827.63421c-.004.21437-.02347.42873-.044.6319a3.28153,3.28153,0,0,1-1.51911,2.4943,8.67574,8.67574,0,0,1-4.788,1.05845,23.74657,23.74657,0,0,1-4.38073-.39969,27.77707,27.77707,0,0,1-4.1878-1.07184v3.91893a28.83755,28.83755,0,0,0,8.57073,1.30625c3.41295,0,6.02087-.68325,7.81709-1.93821a6.84594,6.84594,0,0,0,2.94446-5.36818c.02055-.22331.0293-.46887.03306-.719.00357-.25007.00226-.50464.00226-.75025-.41111-5.24534-3.877-6.17431-7.33233-6.65438-3.45558-.48014-6.90069-.50913-7.2707-3.95914Zm25.60437,7.02059v8.87847h12.72816v3.79611H279.91051V185.65378h16.52428v3.79611H284.15323v7.59225h10.71845v3.1396l-5.35923.0201-5.35923.02009ZM318.9882,208.1v-7.93166h3.79612v10.66711a31.383,31.383,0,0,1-3.96158,1.21472,22.26477,22.26477,0,0,1-4.95661.54037c-3.86512,0-6.62937-.96911-8.458-2.91177-1.8286-1.945-2.72178-4.86349-2.845-8.76233-.02055-.77494-.03664-1.48054-.04244-2.18388s-.00134-1.40906.01922-2.18395c.12324-3.87874,1.00619-6.80841,2.83458-8.76678,1.82863-1.95837,4.60268-2.94979,8.5091-2.94979a20.74581,20.74581,0,0,1,4.60043.43319,16.94528,16.94528,0,0,1,3.40714,1.19907v3.96144a15.32,15.32,0,0,0-3.63088-1.25052,21.00321,21.00321,0,0,0-4.39253-.42424c-2.426,0-4.11319.65426-5.21429,1.95386-1.10135,1.30182-1.61673,3.25124-1.69888,5.84376-.04111.77489-.06945,1.48049-.07752,2.18395-.0078.70334.00493,1.40893.046,2.18388.0824,2.63267.6011,4.57094,1.706,5.8527,1.10468,1.28177,2.79552,1.90253,5.22145,1.90253a23.86848,23.86848,0,0,0,2.86831-.163,18.50983,18.50983,0,0,0,2.2694-.40864Zm26.79613-5.75447V185.65378h4.24272v16.69174c0,3.47009-.69513,6.219-2.233,8.10138-1.5381,1.88237-3.91915,2.89618-7.29077,2.89618h-.53458c-3.454,0-6.07536-1.01381-7.83319-2.89618s-2.65215-4.63129-2.65215-8.10138V185.65378h4.24272v16.69174a7.62947,7.62947,0,0,0,1.6,5.09577,5.76827,5.76827,0,0,0,4.56025,1.88237h.53458a4.70376,4.70376,0,0,0,4.16212-1.88237,8.89606,8.89606,0,0,0,1.20135-5.09577Zm22.25041-2.62377h-7.06593V189.44989h7.02484c2.03539,0,3.28944.3372,4.05537.98921a3.86222,3.86222,0,0,1,1.12565,2.88734c0,.30591.01028.6207.01541.94006s.00514.6453-.01541.97135a4.97106,4.97106,0,0,1-1.18216,3.29812c-.77106.76814-2.00457,1.18578-3.95777,1.18578Zm9.41615-4.76525c.02077-.36845.031-.623.031-.87759s-.01026-.50912-.031-.87532a7.534,7.534,0,0,0-2.23056-5.5044c-1.47-1.31076-3.77268-2.0454-7.22669-2.0454H356.72608V212.8965h4.24272v-9.602h7.06593a.708.708,0,0,0,.34945-.12953,1.0196,1.0196,0,0,1,.3497-.16078l2.50812,4.67154,2.50833,4.67368,2.28214-.05134,2.28212-.0514-2.79616-5.05778-2.79618-5.05778a6.3888,6.3888,0,0,0,3.52079-2.731,9.54724,9.54724,0,0,0,1.20783-4.4437Zm12.45885,8.338,2.0343-6.32833,2.03648-6.3261,2.03427,6.3261,2.0365,6.32833h-8.14155Zm2.05439-17.64076-4.78981,13.62134L382.3845,212.8965h4.399l1.0294-3.01456,1.02718-3.01456h10.27856l1.02944,3.01456,1.02718,3.01456h4.68706l-4.89248-13.62138-4.89253-13.62134h-4.11322Zm36.44273,19.713v-19.713h4.24275V212.8965h-3.34952l-6.81068-9.78729-6.81068-9.785V212.8965H411.436V185.65378h3.34952l6.81068,9.85649,6.81066,9.85653Zm18.00477,16.01513,1.37554-3.34952,1.37778-3.34952h3.78271l-1.56087,3.34952-1.56313,3.34952h-3.412Zm4.77421-12.71027a18.14368,18.14368,0,0,0,3.76485-.33049,28.18085,28.18085,0,0,0,3.60182-.97581v3.91893a28.84907,28.84907,0,0,1-3.36067.94456,18.33312,18.33312,0,0,1-4.02839.36169c-4.07075,0-6.80172-.96911-8.55242-2.95427-1.74844-1.98511-2.51658-4.984-2.6595-9.04589-.02012-.61187-.04244-1.23482-.05362-1.85783s-.01115-1.24608.009-1.85789c.14289-4.04176.92223-7.05188,2.68853-9.05264,1.76632-1.99856,4.51958-2.99,8.61048-2.99a16.54748,16.54748,0,0,1,4.00824.4399,17.10665,17.10665,0,0,1,3.33837,1.23486v3.91895a16.053,16.053,0,0,0-3.56832-1.25052,17.29328,17.29328,0,0,0-3.80282-.42424c-2.69305,0-4.38117.72569-5.42178,2.10344s-1.43358,3.40762-1.53629,6.02023c-.02232.61182-.04465,1.23482-.05583,1.85789-.01338.623-.01562,1.246.00444,1.85783.10271,2.63271.50916,4.65357,1.56534,6.01573,1.054,1.3621,2.75556,2.06555,5.44858,2.06555Zm19.44281-5.37712,2.03648-6.32833,2.03427-6.3261,2.03653,6.3261,2.03424,6.32833h-8.14152Zm2.05657-17.64076-4.78977,13.62134-4.792,13.62138h4.40123l1.02718-3.01456,1.02721-3.01456h10.28076l1.02721,3.01456,1.02939,3.01456h4.68712l-4.89474-13.62138-4.89253-13.62134h-4.111Zm47.06071,15.76283a10.01739,10.01739,0,0,1-1.42908,5.57134c-.987,1.34432-2.59926,2.11245-5.18954,2.11245h-5.89513V189.44989h5.89513c2.59029,0,4.20254.67435,5.18954,1.936.98695,1.25942,1.34648,3.10836,1.42908,5.45527.04247.89766.06256,1.60326.06256,2.30222,0,.7012-.02009,1.39559-.06256,2.27322Zm-6.61862-15.76283H502.98942V212.8965H513.1273c4.0708,0,6.71242-.97806,8.376-2.894,1.66587-1.91591,2.35584-4.76971,2.51887-8.52561.04244-.87763.0625-1.59437.0625-2.31787s-.02006-1.44925-.0625-2.34917c-.163-3.776-.853-6.565-2.51887-8.40947-1.66358-1.8445-4.3052-2.74661-8.376-2.74661Zm22.77892,17.64076,2.03432-6.32833,2.0365-6.3261,2.03424,6.3261,2.0365,6.32833h-8.14158Zm2.05662-17.64076-4.792,13.62134L528.381,212.8965h4.40126l1.02721-3.01456,1.02718-3.01456h10.28076l1.02723,3.01456,1.02718,3.01456h4.68932l-4.89477-13.62138-4.89253-13.62134h-4.111Zm30.23053,27.24272V185.65378h4.24272V212.8965h-4.24272Zm29.92232-7.52971v-19.713h4.24275V212.8965h-3.354l-6.80842-9.78729-6.80848-9.785V212.8965h-4.24269V185.65378h3.345l6.81292,9.85649,6.81292,9.85653Zm12.95149,7.52971V185.65378h17.64073v3.79611h-13.398v8.48543h10.7184v3.79615H615.3099v11.165h-4.24272ZM652.0474,201.325c-.10271,2.53-.59625,4.36777-1.69716,5.57134-1.09857,1.20364-2.80462,1.7753-5.33464,1.7753-2.55008,0-4.265-.57166-5.37482-1.7753-1.11209-1.20357-1.61452-3.04131-1.73729-5.57134-.04241-.92-.06253-1.75509-.06253-2.59247s.02012-1.67476.06253-2.59259c.12277-2.53.6252-4.37892,1.73729-5.59144,1.1098-1.21477,2.82474-1.79753,5.37482-1.79753,2.53,0,4.23607.58276,5.33464,1.79753,1.10091,1.21252,1.59445,3.06141,1.69716,5.59144.04012.91783.06248,1.75521.06248,2.59259s-.02235,1.6725-.06248,2.59247Zm-7.0318-16.493c-3.9256,0-6.69233.94008-8.51668,2.8225s-2.70862,4.70941-2.87386,8.48541c-.04023.91783-.06035,1.75521-.06035,2.59259s.02012,1.6725.06035,2.59247c.16524,3.79611,1.0495,6.61194,2.87386,8.481,1.82435,1.86683,4.59108,2.78454,8.51668,2.78454,3.90559,0,6.65215-.91771,8.46538-2.78454,1.81547-1.869,2.69973-4.68487,2.8828-8.481.04247-.92.06253-1.75509.06253-2.59247s-.02006-1.67476-.06253-2.59259c-.18307-3.776-1.06733-6.603-2.8828-8.48541-1.81323-1.88243-4.55979-2.8225-8.46538-2.8225Zm29.8107,14.8897H668.009V189.44989h6.7771c2.03435,0,3.28928.3372,4.05524.98921a3.864,3.864,0,0,1,1.12545,2.88734c0,.30591.01107.6207.01559.94006s.00442.6453-.01559.97135a4.97219,4.97219,0,0,1-1.18133,3.29812c-.77256.76814-2.00518,1.18578-3.95912,1.18578Zm9.41659-4.76525c.02017-.36845.03129-.623.03129-.87759s-.01112-.50912-.03129-.87532a7.5347,7.5347,0,0,0-2.23072-5.5044c-1.46934-1.31076-3.77153-2.0454-7.2261-2.0454H663.54288V212.8965h4.24278v-9.602h7.04064a.71689.71689,0,0,0,.35054-.12953,1.00646,1.00646,0,0,1,.34836-.16078l2.50772,4.67154,2.5099,4.67368,2.28208-.05134,2.28224-.0514-2.79573-5.05778-2.798-5.05778a6.39,6.39,0,0,0,3.52146-2.731,9.54162,9.54162,0,0,0,1.208-4.4437Zm19.818,5.86165,4.07077-7.58112,4.07072-7.58326h3.81629V212.8965h-4.01942v-19.981l-3.16863,6.306-3.16645,6.306h-3.16645l-3.40082-6.24575-3.39869-6.24344V212.8965h-4.01942V185.65378h4.24049l4.07083,7.58326,4.07077,7.58112Zm26.287,2.47639,2.0343-6.32833,2.03648-6.3261,2.0343,6.3261,2.03648,6.32833h-8.14155Zm2.05436-17.64076-4.7898,13.62134-4.78985,13.62138h4.39908l1.02939-3.01456,1.02721-3.01456h10.28079l1.02721,3.01456,1.02715,3.01456h4.68709L741.408,199.27512l-4.89251-13.62134h-4.11324Zm28.66966,23.01788a17.52407,17.52407,0,0,0,3.709-.33049,36.74249,36.74249,0,0,0,3.71353-.97581v3.91893a28.51519,28.51519,0,0,1-3.39193.94456,18.73977,18.73977,0,0,1-4.05965.36169c-4.07077,0-6.81739-.96911-8.58368-2.95427-1.76406-1.98511-2.54785-4.984-2.693-9.04589-.02006-.61187-.04465-1.23482-.0603-1.85783-.01336-.62307-.01788-1.24608.00224-1.85789.14294-4.04176.9155-7.05188,2.67514-9.05264,1.75964-1.99856,4.5062-2.99,8.59709-2.99a17.11554,17.11554,0,0,1,4.06412.4399,13.689,13.689,0,0,1,3.22669,1.23486v3.91895a16.0796,16.0796,0,0,0-3.53711-1.25052,16.91006,16.91006,0,0,0-3.77153-.42424c-2.693,0-4.36555.72569-5.39052,2.10344s-1.40239,3.40762-1.505,6.02023c-.0223.61182-.04018,1.23482-.04912,1.85789s-.00894,1.246.01118,1.85783c.10266,2.63271.51807,4.65357,1.57875,6.01573s2.77115,2.06555,5.46417,2.06555Zm20.87384-5.37712,2.03648-6.32833,2.0343-6.3261,2.03648,6.3261,2.03424,6.32833h-8.14149Zm2.05665-17.64076-4.78985,13.62134-4.79214,13.62138h4.40136l1.0271-3.01456,1.0295-3.01456h10.27856l1.02715,3.01456,1.02939,3.01456h4.68714l-4.89256-13.62138-4.89474-13.62134h-4.1109ZM819.06768,201.325c-.10271,2.53-.5962,4.36777-1.69487,5.57134-1.10086,1.20364-2.80686,1.7753-5.33464,1.7753-2.55008,0-4.26736-.57166-5.37711-1.7753s-1.61446-3.04131-1.73734-5.57134c-.04012-.92-.06248-1.75509-.06248-2.59247s.02235-1.67476.06248-2.59259c.12288-2.53.62754-4.37892,1.73734-5.59144,1.10975-1.21477,2.827-1.79753,5.37711-1.79753,2.52778,0,4.23378.58276,5.33464,1.79753,1.09868,1.21252,1.59217,3.06141,1.69487,5.59144.04241.91783.06248,1.75521.06248,2.59259s-.02006,1.6725-.06248,2.59247Zm4.31866-5.18506c-.18541-3.776-1.06968-6.603-2.88285-8.48541-1.81547-1.88243-4.55979-2.8225-8.46532-2.8225-3.92789,0-6.69233.94008-8.51673,2.8225s-2.70862,4.70941-2.87386,8.48541c-.04018.91783-.06253,1.75521-.06253,2.59259s.02235,1.6725.06253,2.59247c.16524,3.79611,1.0495,6.61194,2.87386,8.481,1.82441,1.86683,4.58885,2.78454,8.51673,2.78454,3.90553,0,6.64986-.91771,8.46532-2.78454,1.81318-1.869,2.69744-4.68487,2.88285-8.481.04018-.92.06248-1.75509.06248-2.59247s-.0223-1.67476-.06248-2.59259Zm-67.14668,25.68859,1.3778-3.34952,1.37775-3.34952h3.78271l-1.56311,3.34952-1.56087,3.34952h-3.41428Z"/></g></g></svg>