<svg xmlns="http://www.w3.org/2000/svg" viewBox="0 0 839.44882 213.97902"><defs><style>.cls-1{fill:#53caea;}.cls-1,.cls-2,.cls-3,.cls-4{fill-rule:evenodd;}.cls-2{fill:#00a8e8;}.cls-3{fill:#9cc946;}.cls-4{fill:#26457b;}</style></defs><title>logo_riomar</title><g id="Layer_2" data-name="Layer 2"><g id="Layer_1-2" data-name="Layer 1"><path class="cls-1" d="M0,50.54494A126.36659,126.36659,0,0,1,29.40654,36.03416a107.45292,107.45292,0,0,1,30.94652-5.89322,89.67545,89.67545,0,0,1,50.87684,13.8298c14.08149,8.73606,27.51139,18.46421,41.01539,28.02957,13.25208,9.40246,26.5489,18.58271,41.77047,24.50553,25.5419,9.90585,50.43242,7.71438,74.77527-4.24964,3.82013-1.85087,7.49228-3.89424,12.0083-6.2337-1.49547,4.50133-2.62086,8.514-4.10143,12.33421-10.94233,28.59221-30.41354,48.04862-60.605,55.46691-25.91221,6.33735-49.75145.85878-71.81392-13.5188-13.96288-9.16551-26.0602-20.52243-37.89091-32.14585C93.01739,95.06957,80.04637,81.52117,65.0173,70.29755c-11.99361-8.98787-24.935-16.00636-39.81589-18.87892A69.52569,69.52569,0,0,0,3.19813,50.32284c-1.03637.1629-2.16176.1629-3.19813.2221"/><path class="cls-2" d="M346.08345,24.387c-6.02663,1.83607-11.96424,3.43525-17.739,5.523-12.645,4.35334-22.56564,12.54151-31.34621,22.38816-9.35806,10.48334-19.50081,20.0487-32.11642,26.5341-29.16976,14.92548-63.86254,11.66793-90.55942-9.01747a3.56877,3.56877,0,0,1-.6516-.82919c3.90915-.50339,7.7442-.87358,11.49023-1.377C202.38173,65.40241,216.5667,57.303,229.01942,45.487c6.66309-6.32261,13.1782-12.9561,20.6262-18.24223,15.103-10.57213,32.51611-12.9857,50.50653-11.97882,15.192.74039,29.92484,4.02754,44.43561,8.49917a12.38724,12.38724,0,0,1,1.4957.62189"/><path class="cls-3" d="M70.59228,16.39124c16.55414-10.37964,33.87828-15.22157,52.94958-13.267,14.06658,1.45108,27.40768,6.0412,41.01539,9.284,12.7191,3.12425,25.52721,4.76783,38.52782,1.51027A70.23216,70.23216,0,0,0,226.28762,2.94655C227.3685,2.147,228.49366,1.39188,230.389,0c-.385,4.66412-.3258,8.69166-1.06619,12.57111C224.96973,35.34427,205.48361,53.0238,182.62177,55.837c-14.24439,1.76208-27.18559-1.79156-39.38661-8.46957-10.05395-5.53782-19.7821-11.78632-29.73234-17.60543-9.74306-5.67112-19.93031-10.37975-31.19844-12.11212-3.71643-.56269-7.46268-.81439-11.7121-1.25869"/><path class="cls-4" d="M598.95838,129.00563h-14.659c-.1037-1.09568-.1629-2.10257-.1629-3.0798q-.0444-48.92972,0-97.85932a33.92806,33.92806,0,0,1,.1925-4.07194c.66629-5.25641,3.36126-8.588,8.86936-9.23956a75.71672,75.71672,0,0,1,15.10318-.0444c5.00472.4739,8.33615,3.73134,9.68364,8.49928,1.73248,6.4262,3.19836,12.9709,4.605,19.4563,3.96835,18.24223,7.90687,36.54365,11.86031,54.78588.11862.65149.39991,1.24378.75531,2.56156,2.56144-11.65313,4.93061-22.62506,7.34407-33.6415,2.90238-13.1782,5.71552-26.47479,8.66218-39.653,2.11748-9.07677,5.98212-12.17143,15.26608-12.45272,2.88724-.074,5.80431.0296,8.69155.2073,6.826.39979,10.42426,4.01275,10.97193,10.80914.02982.65149.02982,1.377.02982,2.04337q.0444,49.64023.0296,99.29548v2.26547H671.06828V24.92746c.0296-2.10257.31089-4.63464-2.36917-4.81233-2.56167-.19238-3.02055,2.384-3.42045,4.32375Q658.771,53.49013,652.33746,82.51179q-4.9087,22.41042-9.96516,44.76147a8.57986,8.57986,0,0,1-.66629,1.85087c-3.93875,0-7.92179.074-11.90482-.1185-.6812-.0296-1.67329-1.33257-1.89538-2.13216-3.71643-16.2432-7.32938-32.48645-10.957-48.71491-3.95344-17.76844-7.84768-35.522-11.87522-53.27549-.44419-2.08777-.75508-5.138-3.64255-4.76794-2.75417.3258-2.44305,3.31686-2.47265,5.53782V129.00563ZM396.54863,76.75481c3.62764,0,6.85559-.1777,10.02413.0296a13.21915,13.21915,0,0,1,10.97215,7.1222c.94758,1.688,1.70266,3.45005,2.47265,5.212,5.12334,12.46752,10.18725,24.89052,15.39938,37.31358.35517.844,1.21418,2.13216,1.89516,2.17662,4.57544.16284,9.15065.074,14.08149.074-.41459-1.12528-.66629-1.74722-.90329-2.35426-5.15271-12.58591-10.39444-25.21632-15.45835-37.87622-2.20627-5.37492-4.76794-10.37975-9.69855-13.82969-.05942-.04451,0-.3258,0-.5331.88838-.3702,1.80636-.63669,2.69474-1.02168,7.1963-2.81336,12.89691-7.35909,13.81489-15.39927a117.25719,117.25719,0,0,0,.5183-21.14438c-.57749-9.34315-5.24173-16.12475-14.67367-18.80481a31.47329,31.47329,0,0,0-8.52888-1.43628c-11.91951-.28129-23.85393-.2073-35.78834-.28129a7.90224,7.90224,0,0,0-1.5549.35529v112.0888h14.73309V76.75481m-.63669-20.67059c.44419-7.31458.51807-14.68847,1.40645-21.95866.8737-7.50719,6.26341-12.26022,14.08149-12.55631,5.908-.2221,12.05281,2.30986,14.40729,10.24633a48.57,48.57,0,0,1,.48847,26.38611c-1.92475,7.50708-7.46268,11.14963-14.76247,12.038-4.42723.5183-8.899.3406-13.3411.5183-1.61386.074-1.95458-.77-1.95458-2.14707.0592-4.16073.0592-8.32147.0592-12.5118-.13308,0-.26638-.01491-.38477-.01491M562.53606,87.09751c-.62178-8.86936-.96249-16.52454-1.67306-24.165-1.05128-10.97193-7.86259-19.1009-17.93123-21.36636a52.13417,52.13417,0,0,0-9.50628-.78479c-14.65876-.44419-24.52021,8.32147-26.0306,22.81755a202.33818,202.33818,0,0,0,.07411,44.70222c1.18459,9.72815,5.43423,17.81278,15.39916,20.98148,4.35334,1.377,9.31355,1.49547,13.9927,1.52513,12.24531.0592,21.35168-7.211,23.36545-19.18986,1.42137-8.46957,1.65837-17.14644,2.30975-24.52033m-13.05958-1.12539c-.79959,9.66907-1.31789,19.30831-2.53207,28.91807-.77,6.27815-6.85559,11.16443-12.6599,11.16443-5.81922.05925-12.12692-4.81228-12.823-11.06072A244.48544,244.48544,0,0,1,519.67,86.32752a290.0891,290.0891,0,0,1,1.73226-29.53984c.622-5.49342,4.50133-9.136,9.77266-10.86834,6.35221-2.08777,14.61448,3.00575,15.66576,10.46854,1.22909,8.38066,1.43628,16.95394,2.05828,25.4679.0592,1.36228,0,2.72457,0,4.07194.17759,0,.32557.0444.57749.0444M818.88182,87.219c8.73606-3.40554,12.51191-6.826,13.22271-13.0005a83.72383,83.72383,0,0,0,.385-15.651c-.6812-11.47543-8.06977-15.60656-17.41293-16.05076-9.28418-.47379-18.59774-.2221-27.926-.2814a7.80518,7.80518,0,0,0-1.51039.2814v86.45788h11.62353V89.21792c10.54242-1.25858,14.15537.78479,17.96082,10.00955,3.77585,9.19505,7.55148,18.41981,11.41612,27.60012.39991.918,1.392,2.11742,2.19136,2.17662,3.40577.2221,6.85582.07405,10.61676.07405-.4591-1.16973-.75531-2.01377-1.06619-2.79851-3.52393-8.58807-7.07769-17.176-10.58693-25.74931-1.96926-4.88633-3.56844-10.06875-8.91387-13.3115m-22.31394-2.62086c.48847-10.20194.63669-19.708,1.49547-29.15485.45888-5.10842,4.59013-8.23267,10.06863-8.79537a10.29281,10.29281,0,0,1,10.86845,6.9297,34.456,34.456,0,0,1,.39968,22.26966,10.98914,10.98914,0,0,1-9.35806,7.77368c-4.16062.63669-8.39557.63669-13.47418.97718m-82.5563,44.4046c2.44305-10.26119,4.87142-20.35953,7.43309-30.97618h27.99986c.3258,1.43628.60709,2.384.82919,3.33166,1.99909,8.41026,3.983,16.92434,6.0856,25.37905.20741.90324,1.18459,2.20627,1.925,2.26547,3.24287.22215,6.53.07405,9.96516.07405-.1037-.81439-.237-1.40662-.3258-1.91007q-9.1284-36.78049-18.257-73.487c-2.90215-11.72712-5.18231-13.4744-17.02793-12.9857-4.76794.1925-8.15879,2.25067-9.669,6.9-.4591,1.39188-.88838,2.769-1.24378,4.16073-4.51625,17.93134-8.92856,35.84777-13.3707,53.80859-1.93966,7.72929-3.86464,15.50286-5.80431,23.43939h11.46063m8.83977-36.91379c3.58313-15.16226,7.06278-29.82125,10.58693-44.43573.26638-.93278,1.40668-1.61386,2.11725-2.41345.6516.90318,1.62878,1.688,1.89538,2.69486C740.42717,60.0171,743.29973,72.1143,746.187,84.256c.60709,2.458,1.155,4.84193,1.82127,7.83288h-25.1569M471.3282,128.98049H483.4106V42.567H471.3282Z"/><path class="cls-4" d="M414.0386,196.33742c.2221-3.0354.50339-5.61181.50339-8.23267.08879-7.93653,7.81808-10.972,14.1852-9.743,5.6265,1.08094,8.48437,4.20519,8.70646,9.9059.20718,5.41931.20718,10.82388-.0296,16.22846-.31111,5.75991-4.69383,9.284-11.13483,9.47646-6.24873.17764-10.82394-3.3168-11.54965-9.07672-.32557-2.93175-.45888-5.95235-.681-8.55842m5.21213-.28135c.2221,3.3168.42928,6.5743.74017,9.87631a5.89556,5.89556,0,0,0,5.80431,5.68586c3.08.16284,5.93761-1.73242,6.07091-4.99q.5331-10.74981,0-21.38128c-.1629-3.2279-3.03546-4.96032-6.17439-4.91587a5.94621,5.94621,0,0,0-5.67123,5.597c-.37008,3.3908-.51807,6.7668-.76977,10.12794m-31.89885-9.61563c0-4.98992-.28152-9.6245.07388-14.22948.26661-3.47965,2.54676-5.16762,6.20422-5.21207,2.85764-.08879,5.7302-.0444,8.67687-.0444v-2.62086H381.814v48.65577h5.21213V189.62394h14.30336c-.07388-1.14013-.10348-2.01372-.148-3.1835H387.35189M665.5378,192.7008c-.37008-10.23159-1.24378-11.63827-8.18817-12.6303,1.21418-.93289,1.82127-1.82127,2.48756-1.86573a9.7727,9.7727,0,0,1,10.572,9.00267,159.08211,159.08211,0,0,1,.05942,16.80589c-.39991,6.63355-5.43422,10.46854-12.15651,9.87625-6.9001-.68109-10.49814-4.07188-10.55756-9.9947-.08879-7.27019,3.12425-10.76463,10.40935-11.19408,2.41368-.11845,4.81222,0,7.37389,0m-12.58579,11.12v1.73242c.25169,3.64255,2.66515,6.04126,6.0856,6.05606a5.952,5.952,0,0,0,6.13011-5.71546c.28129-2.90221.39968-5.77477.42928-8.70652a2.37633,2.37633,0,0,0-1.05128-1.93972c-5.9819-2.10257-11.59371,2.10262-11.59371,8.57322M527.58865,192.70526c.26661-9.8466-1.18459-11.75672-7.52188-13.11895.63669-.48864,1.24378-1.33263,1.92475-1.39188,5.04923-.35534,9.891,3.06505,10.33524,8.11423a100.97787,100.97787,0,0,1,.28152,18.19777c-.4887,6.24856-5.41954,9.72821-11.68273,9.4024-8.41049-.39974-12.64521-6.07086-10.63144-14.185,1.03637-4.30884,4.48642-6.7372,10.12783-7.01855,2.32489-.11845,4.63464,0,7.16671,0m.4591,2.90215c-9.68386-1.96932-14.8368,3.02066-12.61562,11.66793a5.88512,5.88512,0,0,0,5.84882,4.33843c2.591,0,5.38972-1.73242,5.7302-4.02749.5479-4.02749.69588-8.06977,1.0366-11.97887m51.01149,1.64663c.31089,3.55364.42951,6.67795.88838,9.8466.385,2.60606,2.23587,3.84985,4.76794,4.41248.74039.1481,1.31789.88844,2.01377,1.36223-.85878.26655-1.73248.90324-2.53207.82924-6.55939-.74039-9.43195-3.5537-9.891-10.26125a106.80319,106.80319,0,0,1,0-14.76258c.6812-8.11423,6.69269-12.09726,14.70327-10.14274,4.99,1.21413,7.9367,4.35323,8.04018,8.60282.17781,5.89321-3.33143,9.68375-9.57993,10.08355-2.59127.1333-5.21213.02965-8.41049.02965m.11862-6.6928c-.05942,4.605-.02982,4.63464,4.01263,4.38289a22.83813,22.83813,0,0,0,3.71643-.59229c3.68706-.93284,5.53793-4.26438,4.93084-8.67687a6.18155,6.18155,0,0,0-6.23381-5.33052c-3.598.13325-5.7598,2.50236-6.1152,6.7964-.11862,1.33263-.2221,2.68006-.31089,3.4204m52.47443,22.15268c.16267-2.33946.19227-2.45791-1.85087-2.45791H617.15621c.66629-1.39188,1.08088-2.30992,1.55467-3.19836,3.96835-7.211,8.04018-14.36273,11.90482-21.633,1.0366-1.96932,1.49547-4.20519,2.38386-6.9-7.01849,0-13.22248-.0444-19.3971.0444-.5183.02965-1.066,1.14013-1.58427,1.74722a4.64989,4.64989,0,0,1,.57749.62189h14.37747c-.7108,1.40668-1.18459,2.51722-1.77676,3.5981-3.95344,7.1074-8.04018,14.18509-11.89013,21.33688-1.08088,1.96932-1.46588,4.33843-2.26547,6.84079H631.6523M483.01973,164.2877c0,13.25225-.25192,26.312.07388,39.431.14821,5.49336,4.96044,9.29876,10.49814,9.15071.72548,0,1.43628-.75514,2.14707-1.16973-6.056-1.86573-7.53679-3.65735-7.62558-9.669-.0592-4.294-.0296-8.54368,0-12.80806.0296-6.14491,1.33257-7.77368,7.24059-9.21-.25169-2.08777-.25169-2.08777-7.29978-.918v-14.807h-5.03432m71.968.03705h-4.87142v48.68531h4.87142ZM467.01191,177.691c-4.842.88844-9.25436,1.71763-13.78552,2.56161v32.7086h5.138v-3.4204c.02982-7.16654-.0592-14.28873.1037-21.45527.11862-5.834,3.00586-8.23267,8.54379-7.38869V177.691"/></g></g></svg>