<svg xmlns="http://www.w3.org/2000/svg" viewBox="0 0 712.1966 338.20448"><defs><style>.cls-1{fill:#ef7d00;}.cls-1,.cls-2,.cls-3,.cls-4{fill-rule:evenodd;}.cls-2{fill:#1d1d1b;}.cls-3{fill:#fbb800;}.cls-4{fill:#e0570a;}</style></defs><title>logo_saoluiz</title><g id="Layer_2" data-name="Layer 2"><g id="cdr_layer2"><path class="cls-1" d="M343.8826,41.34022l10.496,7.036,9.55,10.046s12.451,13.036-3.982,19.615c0,0-6.594,3.161-17.31-.147-11.439-3.665-20.956-7.461-20.956-7.461l-10.211,1.257-5.806-6.821c-.364-.599-2.657-24.748-2.657-24.748l2.841-8.069c.479-.483,8.501-6.296,8.501-6.296l9.968-1.737c.242.239,13.635,9.544,13.635,9.544C338.3146,34.03822,343.8826,41.34022,343.8826,41.34022Zm-41.356-23.338c3.964-.623,15.724-4.412,21.98-3.484a24.26577,24.26577,0,0,1,5.292.693c1.084.355-1.324-.354-5.292-.693a34.32958,34.32958,0,0,0-5.889.272,35.7492,35.7492,0,0,1,7.938.919,17.76008,17.76008,0,0,1,4.211.579,25.04516,25.04516,0,0,1,15.198,9.775,33.59727,33.59727,0,0,1,4.006,7.311c-3.163-7.075-9.333-14.495-18.6-16.489l.602.237a24.53119,24.53119,0,0,1,11.579,7.271,9.01266,9.01266,0,0,1,1.331,1.676l-1.331-1.676a30.66254,30.66254,0,0,0-4.829-3.821,21.41438,21.41438,0,0,0-3.617-2.024c-1.084-.475-2.049-1.071-3.133-1.426-.601-.117-1.324-.353-2.046-.469l-.601.003h0c.965.475,5.66,1.893,9.041,4.76,3.501,2.746,5.685,6.46,6.531,7.417,1.211,1.677,3.142,3.109,4.236,5.267a7.154,7.154,0,0,0,.972,1.918,3.989,3.989,0,0,1,.725.717c.97,1.558,2.063,3.595,3.871,4.547,1.206.715,3.025,3.831,3.506,3.708,1.438-.729.359-.242,2.649.947.362.239,1.443.113,1.925.351,1.569,1.073,2.169.95,3.977,1.782,2.772,1.427,2.538,2.51,5.309,3.697.361.119,3.622,3.106,3.622,3.106,1.818,2.635,3.51,4.429,3.041,6.595,2.178,2.633.512,5.768-.197,8.176-.707,2.528-1.064,3.251-3.1,4.704a5.795,5.795,0,0,1-1.436,1.21c-.479.243-1.317.848-1.917,1.212l.121.12a.93117.93117,0,0,1-1.082-.115c-.24.122.724.598.603.478-.242-.359-.601.003-.961.005-.84.365-1.318.849-2.157,1.214-.718.605-1.92.611-2.638,1.336.002.241-.723-.357-.722-.116l-.597.724a11.16,11.16,0,0,0,.608,1.199c.848,1.198.496,2.882,1.583,3.838.362.239,2.161-.492,3.484-.379.241.119.123.6.246,1.081,1.079-.487,1.562-.129,1.325.473a1.45879,1.45879,0,0,0,.6-.123,3.1142,3.1142,0,0,0,.244.6c3.001-.738,5.392-3.155,8.988-5.097a12.79892,12.79892,0,0,0,.829-2.289c-.002-.36.717-.845.837-.966-.125-.72-.607-.958-.969-1.317,1.555-1.331,4.179-5.311,2.252-5.902.593-1.566-.132-2.163-.141-3.966a16.56759,16.56759,0,0,0-1.969-8.524c-.85-1.558-1.699-2.996-2.669-4.434a13.67848,13.67848,0,0,0-1.21-1.556,41.452,41.452,0,0,0-14.486-11.462c-5.664-2.614-7.832-3.324-10.384-8.479-3.03-4.792-6.422-9.702-11.611-13.401a32.00567,32.00567,0,0,0-17.221-5.918,60.57956,60.57956,0,0,0-21.381,3.12Zm50.548,100.943s9.911-12.195,10.151-12.316l-5.103-10.07s-10.142-8.48-10.745-8.838l-11.681-3.784s-30.898-1.036-31.619-.912l-7.79,4.369,2.815,9.361s-3.681,8.434-7.23,19.152a21.83745,21.83745,0,0,0,2.019,17.9c11.768,20.011,28.655,8.501,28.655,8.501l12.696-8.603,7.88-10.019S352.4746,119.30822,353.0746,118.94522Zm12.687-32.524c1.944,3.836,10.904,15.808,11.538,22.056a18.10656,18.10656,0,0,1,.509,5.286,31.34072,31.34072,0,0,0-.509-5.286,35.90258,35.90258,0,0,0-2.317-6.118,22.62583,22.62583,0,0,1,1.125,7.927,17.73451,17.73451,0,0,1,.504,4.325c.035,6.611-4.144,11.803-10.141,14.359a34.19391,34.19391,0,0,1-9.961,2.938c9.846-1.976,19.194-7.315,19.262-16.932l-.116.722c-.456,4.691-3.321,8.432-7.394,10.978a17.42944,17.42944,0,0,1-2.157,1.214l2.157-1.214a13.49424,13.49424,0,0,0,4.183-4.47,15.1953,15.1953,0,0,0,2.145-3.497c.235-1.083.831-1.928,1.066-3.011-.004-.721.113-1.323.109-2.044l-.124-.721h0c-.476.965-1.292,5.657-4.4,8.799-3.108,3.262-8.148,4.852-9.347,5.58-2.037,1.092-3.831,2.785-6.591,3.641-1.081.246-2.043.131-2.762.616.001.12-.358.363-.717.725-2.161.613-5.041,1.47-5.872,3.397-.836,1.087-5.036,2.431-4.672,3.031,1.453,1.915.363.478-.826,2.889-.239.242.25,1.682-.109,2.044-1.314,1.57-.829,2.409-1.781,4.217-1.306,3.012-2.991,2.54-4.418,5.433a21.4939,21.4939,0,0,1-3.827,3.627c-3.598,1.582-5.873,3.156-9.365,2.093-3.597,1.823-8.419-.796-12.153-2.218-3.975-1.542-5.06-2.137-7.478-4.769a16.2895,16.2895,0,0,1-2.055-2.032c-.364-.599-1.451-1.675-1.936-2.394l-.24.001c-.242-.239-.364-.599.114-1.202-.242-.239-.838.725-.598.724.36-.242-.124-.72-.246-1.201-.607-.958-1.331-1.555-1.938-2.634-1.087-.956-1.094-2.278-2.181-3.234-.361.002.357-.723-.004-.841l-1.087-.836c-.6.124-1.199.488-1.56.489-1.559.73-3.967-.098-5.163.99-.24.241.975,2.519.862,3.842-.119.361-.841.125-1.562.128.848,1.318.369,1.681-.473,1.445.121.24.363.599.363.599-.24.002-.961.126-.961.126,1.462,3.598,5.207,6.944,8.357,11.615a23.42753,23.42753,0,0,0,3.494,1.424,8.91809,8.91809,0,0,1,1.57,1.434c.962-.005,1.199-.608,1.798-.971,2.176,2.272,8.448,6.325,9.038,4.279,2.53.948,3.368.342,6.015.809a29.34145,29.34145,0,0,0,12.5-.308,31.8493,31.8493,0,0,0,6.239-2.197c.719-.364,1.559-.609,2.158-.973,6.712-3.642,11.613-8.837,13.985-14.74,2.613-5.904,3.081-8.311,10.284-10.032,6.358-2.439,12.834-5.238,16.895-10.188,4.302-4.712,4.866-11.566,3.514-17.209-2.944-11.043-9.116-18.703-10.933-21.338Zm-148.484-27.813c-1.343-3.84-8.257-15.463-7.204-20.998a11.66406,11.66406,0,0,1,.816-4.692,23.05252,23.05252,0,0,0-.816,4.692,25.834,25.834,0,0,0,.75,5.525,19.81174,19.81174,0,0,1,.924-7.097,12.73354,12.73354,0,0,1,.581-3.729c1.654-5.418,7.282-9.415,13.885-11.013a59.5724,59.5724,0,0,1,10.329-1.618c-10.092.895-20.771,4.559-23.134,12.264l.237-.602c1.663-3.735,5.614-6.641,10.173-8.349a20.73246,20.73246,0,0,1,2.52-.855l-2.52.855a24.09007,24.09007,0,0,0-5.272,3.274,16.45217,16.45217,0,0,0-2.99,2.781c-.476.844-1.314,1.449-1.911,2.294-.117.602-.474,1.205-.591,1.806l.003.601h0c.717-.725,2.74-4.702,6.694-7.007,3.834-2.425,9.238-3.416,10.677-3.904,2.281-.614,4.198-1.826,7.08-2.322a16.92351,16.92351,0,0,0,2.764-.255,2.56137,2.56137,0,0,1,.838-.486c2.162-.372,4.925-.747,6-2.075.957-.847,5.04-1.59,4.797-1.949-1.209-1.436-.362-.359,1.072-1.929.119-.242-.127-1.202.233-1.444,1.317-.969,1.073-1.569,2.028-2.776,1.553-1.811,2.998-1.458,4.43-3.269a27.41631,27.41631,0,0,1,3.596-2.063c3.122-.618,5.16-1.47,8.051-.524,2.999-.978,6.857,1.045,9.868,2.231,3.012,1.186,3.976,1.662,5.909,3.454a9.52946,9.52946,0,0,1,1.57,1.434c.243.36,1.209,1.196,1.572,1.675l.241-.001a.58006.58006,0,0,1-.117.721c.122.24.599-.363.479-.363-.36.122.123.48.125.841.484.599,1.087,1.076,1.572,1.795.845.716.971,1.677,1.816,2.394.24-.121-.238.362.003.481l.844.596c.601-.003.961-.245,1.321-.247,1.2-.367,3.248.343,4.206-.263.239-.242-.851-1.799-.856-2.64.119-.241.722-.004,1.323-.007-.727-.958-.367-1.08.356-.843-.122-.24-.243-.48-.243-.48.12-.001.721-.004.721-.004-1.336-2.517-4.233-4.785-6.774-7.897a24.54724,24.54724,0,0,0-2.65-1.068c-.482-.238-1.087-.835-1.328-.954-.721-.117-.96.245-1.32.367-1.691-1.553-6.635-4.412-7.229-3.206-1.928-.711-2.527-.347-4.694-.937a31.58347,31.58347,0,0,0-10.221-.666,25.62328,25.62328,0,0,0-5.284.869c-.6.124-1.321.248-1.801.371-6.121,1.836-11.033,4.867-13.898,8.609-3.225,3.864-4.057,5.551-11.025,6.31-6.725,1.358-13.567,3.078-18.957,6.713a16.6507,16.6507,0,0,0-7.979,13.986c.175,10.217,5.144,17.763,6.601,20.4Zm35.631-35.652c2.517-1.336,7.187-4.727,13.064-7.042,5.637-2.435,13.686-3.44,18.145-1.3a14.87823,14.87823,0,0,1,6.394,4.293c.607,1.199-.732-1.919-6.394-4.293a20.02955,20.02955,0,0,0-9.502-.91c4.687-.266,9.142,1.153,11.316,2.944a13.43136,13.43136,0,0,1,4.467,3.702c6.527,6.697,3.561,14.046.231,20.675-1.188,2.531-3.441,8.433-3.303,11.678-.156-6.611,3.184-11.557,4.96-16.616,2.016-5.059,2.349-10.23-2.004-15.015a3.64284,3.64284,0,0,1,.605.839c3.994,5.027,2.581,10.444.204,15.505a19.142,19.142,0,0,1-1.188,2.771l1.188-2.771a23.6965,23.6965,0,0,0,1.765-7.102,10.7708,10.7708,0,0,0-.387-4.806c-.367-1.2-1.094-2.398-1.582-3.597q-.906-1.077-1.814-2.154a3.81123,3.81123,0,0,0-.725-.598l.001.121c.366.959,4.961,6.104,3.305,11.161-1.294,5.176-4.99,10.845-5.34,12.891a22.55708,22.55708,0,0,0-.185,10.339c.369,1.44.375,2.642,1.342,3.719,2.99,1.329.601.979-.831,1.807-1.319.608-6.136-.928-6.254-.447-.471,1.806-.117.482-3.481.86-.481.003-1.678.851-2.52.735-2.886-.105-3.725.38-7.089.639-5.047.267-6.015-.809-10.701-.424-.6.124-7.818-.919-7.818-.919-5.178-1.776-8.91-2.717-11.571-5.708-4.697-1.778-7.972-7.29-8.592-10.773-.74-3.602,1.175-5.055,3.931-6.752a7.90042,7.90042,0,0,1,1.916-1.333c.6-.123,1.315-1.329,2.395-1.696l.123.481c.36-.123.959-.366,1.319-.488.36-.123.362.118.362.238.002.241-.005-.962.596-.965,1.561-.369,2.762-.616,4.323-.864,1.32-.488,3.009.705,4.449.336a1.59811,1.59811,0,0,1,.358-.602c.36-.123.84-.245,1.32-.368.239-.362-.004-.842.235-1.083-.247-1.081,2.031-2.175,1.545-3.254-.242-.239-3.729-.461-5.414-.813-.362-.238.358-.603.716-.965-2.163.012-2.405-.228-1.686-.712-.481.002-.962.005-.962.005.12-.121-1.081.246-1.081.246-5.519,1.833-9.845,2.096-14.52,4.526-.958.726-2.636,1.697-3.231,2.782a17.03949,17.03949,0,0,1-1.555,1.45c-.115.963-.599.364-.235.963-3.833,2.545-3.906,11.321-1.506,10.587.856,2.76,2.18,3.113,3.875,5.388a33.50592,33.50592,0,0,0,11.469,9.074c2.651,1.188,5.302,2.376,8.071,3.323a26.18241,26.18241,0,0,0,2.89.826,89.76718,89.76718,0,0,0,28.623,2.611,67.34322,67.34322,0,0,0,12.849-2.473,22.29647,22.29647,0,0,0,2.998-1.218l.72-.244.36-.243.24-.001.12-.121h0c1.041-7.458.229-2.044.46-3.729h0v-.12l-.846-.837a7.86294,7.86294,0,0,1-2.065-3.955c-1.237-6.605,3.295-13.241,4.58-20.1,1.646-6.98-2.844-14.89-10.919-18.813-9.154-3.437-16.832-.511-21.51,1.317a48.96308,48.96308,0,0,0-9.828,5.462Zm-9.942,96.218s15.813,12.297,16.054,12.536l12.844-3.435s10.17-8.83,10.768-9.434l3.668-10.838s-1.712-27.879-2.076-28.478l-5.807-7.061-10.812,1.38s-9.998-4.033-22.04-7.935c-11.438-3.425-19.715-.255-19.715-.255-21.72,7.088-10.099,22.172-10.099,22.172l9.442,12.21,11.707,8.833S242.4816,118.45522,242.9666,119.17422Zm43.257,19.242c-5.042,1.349-20.629,8.645-29.047,7.969a24.13721,24.13721,0,0,1-7.095-.443c-1.444-.353,1.806.471,7.095.443a35.49229,35.49229,0,0,0,8.047-1.125,40.34069,40.34069,0,0,1-10.46-.425,31.124,31.124,0,0,1-5.772-.45,24.82274,24.82274,0,0,1-18.585-13.604,38.25432,38.25432,0,0,1-3.542-10.439c2.339,10.205,9.128,20.988,21.521,23.085l-.964-.356a23.40362,23.40362,0,0,1-14.117-9.901,28.51579,28.51579,0,0,1-1.576-2.516l1.576,2.516a21.71982,21.71982,0,0,0,5.678,5.259,24.63127,24.63127,0,0,0,4.583,2.86,27.57856,27.57856,0,0,0,3.856,1.782,22.60735,22.60735,0,0,0,2.768.587l.962-.006-.121.001c-1.085-.715-7.345-2.485-11.454-6.55-4.108-3.825-6.18-9.223-7.029-10.661-1.335-2.276-3.51-4.308-4.366-7.189-.367-1.079-.252-2.042-.736-2.76a2.77942,2.77942,0,0,1-.846-.837c-.853-2.159-1.71-5.04-3.88-6.11-1.447-.954-2.912-5.033-3.632-4.789-2.157,1.094-.479.243-3.252-1.184-.361-.239-1.923-.11-2.406-.468-1.69-1.314-2.65-1.068-4.7-2.139-3.254-1.665-2.66-2.991-5.795-4.657a29.03529,29.03529,0,0,1-3.867-3.826c-1.339-3.238-2.914-5.393-1.486-8.166-1.82-3.115,1.286-6.738,3.195-9.513,1.787-2.895,2.505-3.62,5.501-5.199a9.6334,9.6334,0,0,1,2.156-1.454c.6-.243,1.918-.972,2.638-1.216l-.001-.24a1.21648,1.21648,0,0,1,1.203.234c.24-.122-.724-.598-.603-.478.122.36.72-.124,1.201-.127a29.25877,29.25877,0,0,0,2.878-1.217c1.078-.727,2.521-.615,3.479-1.341-.001-.24.723.357.842.116l.958-.727a4.31507,4.31507,0,0,0-.488-1.319c-.727-1.199.225-2.886-.742-3.843-.362-.238-2.762.496-4.205.263-.362-.118-.004-.601-.007-1.202-1.44.489-1.802.13-1.445-.473l-.72.244c-.001-.24-.004-.721-.004-.721-3.842.742-7.436,3.165-12.474,5.115-.477.604-1.193,1.69-1.67,2.414a7.25623,7.25623,0,0,1-1.557,1.09c.004.721.607.958.85,1.438-2.517,1.456-7.182,5.808-5.014,6.518-1.313,1.81-.588,2.527-1.418,4.575a17.1943,17.1943,0,0,0-.546,10.221,27.10561,27.10561,0,0,0,1.832,5.519,9.33369,9.33369,0,0,0,.852,1.919,35.70422,35.70422,0,0,0,15.706,14.701c6.869,3.329,9.639,4.276,11.481,11.479,2.801,6.716,6.205,13.91,12.484,19.166,6.04,5.617,15.067,7.732,22.518,7.452a72.05209,72.05209,0,0,0,28.328-7.605Z"/><path class="cls-2" d="M27.5265,337.90322l1.8524-13.233c.5823-3.489,1.2797-7.94,2.096-12.633l-.1202.001c-1.7805,4.217-3.6799,8.675-5.4643,12.17l-6.5409,13.138-5.2889.028-1.1515-12.976c-.3792-3.484-.6435-7.93-.7869-12.257l-.1202.001c-.9384,4.332-1.8743,9.146-2.5768,12.635l-3.1746,13.24L0,338.05122l7.8816-32.138,9.1354-.049,1.1476,12.255c.1363,3.005.5162,6.609.5349,10.095l.2404-.002a90.02137,90.02137,0,0,1,4.2726-10.24l5.8248-12.172,9.3763-.051-4.1557,32.118Zm41.6761-6.594a14.50453,14.50453,0,0,1-6.603,1.598,5.45941,5.45941,0,0,1-4.457-1.78,4.98412,4.98412,0,0,1-.734-2.4c9.377.19,15.135-2.004,15.104-7.894-.023-4.327-3.403-6.954-8.091-6.929-8.535.046-13.544,7.405-13.506,14.497.033,6.131,3.419,9.839,10.15,9.803a21.1208,21.1208,0,0,0,8.645-1.849Zm-3.181-10.441c-.007-1.202-.973-2.039-2.535-2.03-3.126.017-4.914,2.671-5.384,4.837,5.29.092,7.931-.644,7.919-2.807Zm59.23,16.511a52.08613,52.08613,0,0,1,.906-10.463l2.218-12.273a27.55029,27.55029,0,0,0-7.699-1.04c-11.419.061-16.544,8.383-16.501,16.316.026,4.808,2.928,8.038,7.015,8.016,2.765-.015,5.763-1.353,7.906-5.211l.12-.001c-.111,1.684-.223,3.367-.215,4.69Zm-4.547-18.487c-.481.002-1.082-.115-1.803-.111-4.448.024-7.664,5.45-7.641,9.778.012,2.284.982,3.841,2.905,3.831,2.044-.011,4.556-2.309,5.607-8.084Zm36.61,12.425a11.74376,11.74376,0,0,1-4.563.986c-2.524.014-4.577-1.658-4.594-4.904-.023-4.327,2.959-8.55,7.888-8.577a7.60379,7.60379,0,0,1,3.128.585l1.655-5.298a15.57074,15.57074,0,0,0-4.812-.696c-8.775.047-15.111,6.572-15.067,14.866.033,6.011,4.138,9.475,9.908,9.444a16.22767,16.22767,0,0,0,6.605-1.238Zm24.435,6.24c7.933-.043,13.79-6.325,13.745-14.739-.029-5.409-3.658-9.597-10.029-9.563-8.173.044-13.787,6.686-13.744,14.739.031,5.77,4.018,9.595,9.908,9.564Zm.814-5.173c3.726-.02,5.74-5.56,5.719-9.527-.012-2.164-.866-4.443-3.63-4.428-3.967.021-5.98,5.802-5.96,9.408.015,2.764,1.467,4.56,3.751,4.547Zm24.659,3.233a13.56919,13.56919,0,0,0,7.102,1.765c6.131.088,10.683-2.942,10.654-8.231-.017-3.245-2.672-5.154-5.323-6.342-1.808-.952-2.773-1.668-2.779-2.63-.007-1.322,1.192-2.05,2.995-2.059a10.971,10.971,0,0,1,4.693.936l1.537-4.816a11.66526,11.66526,0,0,0-5.897-1.171c-6.01.032-10.2,3.18-10.174,8.109.015,2.884,2.189,4.796,4.841,6.104,2.169,1.07,3.015,1.907,3.021,2.989.007,1.202-1.07,2.17-2.993,2.18a14.198,14.198,0,0,1-6.019-1.651Zm36.882-26.523-.818,4.332-3.005.016-.934,5.294,3.005-.016-1.754,9.145a21.38328,21.38328,0,0,0-.457,4.33c.016,3.005,1.95,5.039,6.157,5.016a12.323,12.323,0,0,0,3.964-.502l.813-5.414a10.28066,10.28066,0,0,1-1.923.131,1.71176,1.71176,0,0,1-1.933-1.913,13.61363,13.61363,0,0,1,.344-3.007l1.521-7.822,4.928-.026,1.054-5.295-5.049.027,1.169-6.257Zm39.33,4.117-1.986,10.829c-.817,4.572-3.205,7.47-5.61,7.483-1.682.009-2.29-1.19-2.298-2.632a14.72911,14.72911,0,0,1,.344-3.127l2.217-12.514-6.851.037-2.335,12.995a20.59011,20.59011,0,0,0-.457,4.33c.023,4.447,2.318,6.478,6.044,6.459,2.765-.015,5.523-1.352,7.911-4.37l.12-.001-.46,3.849,6.13-.033c.349-2.165.696-4.692,1.282-7.58l2.8-15.762Zm25.367,23.184,1.867-10.468c.817-4.572,3.204-7.831,5.608-7.843,1.683-.009,2.17,1.19,2.179,2.753a19.68477,19.68477,0,0,1-.227,2.645l-2.455,12.876,6.611-.036,1.987-10.589c.816-4.692,3.084-7.709,5.368-7.722,1.562-.008,2.289,1.07,2.298,2.753a11.62787,11.62787,0,0,1-.345,2.766l-2.216,12.754,6.611-.035,2.452-13.597a25.34742,25.34742,0,0,0,.459-3.969c-.021-3.967-2.197-6.239-5.803-6.22a9.48138,9.48138,0,0,0-7.91,4.49c-.252-2.162-1.947-4.437-5.553-4.417a9.69192,9.69192,0,0,0-8.03,4.37h0l.34-3.848-5.89.031c-.23,2.045-.577,4.571-1.162,7.579l-2.8,15.762Zm62.231-6.704a13.63915,13.63915,0,0,1-6.482,1.597,5.30428,5.30428,0,0,1-4.458-1.779,4.99816,4.99816,0,0,1-.734-2.4c9.378.19,15.136-2.005,15.104-7.895-.023-4.327-3.523-6.953-8.211-6.928-8.414.045-13.544,7.405-13.506,14.497.033,6.131,3.539,9.838,10.15,9.803a20.34473,20.34473,0,0,0,8.645-1.85Zm-3.061-10.442c-.006-1.202-.972-2.038-2.535-2.03-3.125.017-4.914,2.671-5.383,4.837,5.289.092,7.93-.643,7.918-2.807Zm25.213,16.694,4.322-23.344-6.851.037-4.323,23.343Zm1.662-26.334a3.44491,3.44491,0,0,1-3.506-3.588,4.07666,4.07666,0,0,1,4.186-4.109,3.41119,3.41119,0,0,1,3.745,3.466,4.13354,4.13354,0,0,1-4.305,4.23Zm50.715,20.163a11.90482,11.90482,0,0,1-4.683.987c-2.524.013-4.577-1.659-4.594-4.904-.023-4.328,2.959-8.551,7.887-8.577a7.60663,7.60663,0,0,1,3.129.584l1.655-5.298a14.74528,14.74528,0,0,0-4.692-.696c-8.895.048-15.231,6.573-15.187,14.867.032,6.01,4.138,9.474,9.908,9.443a15.83515,15.83515,0,0,0,6.604-1.237Zm24.315,6.24c7.933-.042,13.79-6.324,13.745-14.738-.029-5.41-3.658-9.597-9.909-9.564-8.294.045-13.908,6.686-13.864,14.74.03,5.769,4.018,9.595,9.908,9.563Zm.814-5.173c3.726-.02,5.86-5.561,5.839-9.527-.012-2.164-.986-4.443-3.75-4.428-3.967.021-5.859,5.801-5.84,9.407.015,2.765,1.347,4.561,3.751,4.548Zm32.119,4.516,1.867-10.468c.817-4.572,3.204-7.831,5.608-7.843,1.562-.009,2.17,1.19,2.178,2.753a9.98782,9.98782,0,0,1-.346,2.646l-2.335,12.875,6.611-.036,1.867-10.588c.936-4.693,3.204-7.71,5.488-7.723,1.562-.008,2.289,1.07,2.298,2.753a11.62787,11.62787,0,0,1-.345,2.766l-2.216,12.754,6.611-.035,2.452-13.597a24.28484,24.28484,0,0,0,.339-3.968c-.021-3.967-2.077-6.24-5.683-6.221a9.83087,9.83087,0,0,0-8.03,4.491c-.132-2.163-1.827-4.438-5.433-4.419a9.69554,9.69554,0,0,0-8.03,4.371h0l.34-3.848-5.89.031c-.23,2.045-.577,4.571-1.162,7.579l-2.8,15.762Zm63.943-23.663,3.972,23.299,6.972-.037,12.856-23.389-7.693.041-4.633,10.242c-1.186,2.892-1.898,4.698-2.49,6.384l-.24.002c-.13-1.803-.379-3.484-.635-6.368l-1.137-10.211Zm43.401,23.568c8.054-.043,13.79-6.324,13.745-14.739-.029-5.409-3.658-9.596-9.909-9.563-8.294.045-13.908,6.686-13.865,14.74.032,5.769,4.019,9.595,10.029,9.562Zm.814-5.173c3.726-.02,5.86-5.561,5.839-9.528-.012-2.163-.986-4.442-3.75-4.427-3.967.021-5.859,5.801-5.84,9.407.015,2.765,1.347,4.561,3.751,4.548Zm42.545-1.43a11.73407,11.73407,0,0,1-4.562.986c-2.525.014-4.577-1.658-4.595-4.904-.023-4.327,2.96-8.55,7.768-8.576a7.78987,7.78987,0,0,1,3.249.584l1.654-5.298a15.56567,15.56567,0,0,0-4.812-.696c-8.775.047-15.111,6.572-15.066,14.866.032,6.011,4.138,9.474,9.787,9.444a16.86361,16.86361,0,0,0,6.725-1.238Zm27.018-27.672-5.73,7.363,4.808-.026,2.743-4.101.12-.001,1.825,4.077,4.448-.024-3.646-7.313Zm6.423,32.061a20.74352,20.74352,0,0,1-8.645,1.849c-6.611.035-10.117-3.672-10.15-9.803-.038-7.091,5.092-14.452,13.506-14.497,4.688-.025,8.068,2.602,8.091,6.929.031,5.89-5.727,8.084-14.984,7.894a4.99816,4.99816,0,0,0,.734,2.4c.848,1.197,2.414,1.79,4.458,1.779a13.63915,13.63915,0,0,0,6.482-1.597Zm-3.569-15.488c-.006-1.202-.973-2.038-2.535-2.03a5.82077,5.82077,0,0,0-5.504,4.838c5.41.091,8.051-.644,8.039-2.808Z"/><path class="cls-2" d="M14.7229,259.11622a74.07232,74.07232,0,0,0,37.9197,10.135c13.222-.071,25.329-6.387,25.263-18.768-.05-9.255-7.053-14.988-21.88-22.842-16.997-8.924-33.2935-21.699-33.405-42.494-.1733-32.335,27.848-52.319,62.947-52.507,19.353-.104,30.795,4.162,37.786,7.611l-10.665,28.666a64.37969,64.37969,0,0,0-29.847-6.692c-15.987.086-24.239,7.943-24.192,16.838.051,9.496,9.819,15.214,23.442,22.714,19.649,10.232,31.859,23.27,31.963,42.502.192,35.821-29.28,54.37-64.74,54.56-22.2385-.121-38.4969-5.804-45.8589-11.294Zm208.8727,36.144c-.559-14.542,1.722-37.513,4.526-52.554l11.333-61.006a134.40322,134.40322,0,0,0-38.496-5.563c-57.216.307-83.196,42.398-82.985,81.704.131,24.402,14.522,40.552,35.557,40.44,13.583-.073,28.574-6.645,39.409-26.056l.481-.003c-.436,8.417-1.114,16.475-1.319,23.207Zm-22.733-92.196a45.96142,45.96142,0,0,0-9.02-.914c-22.118.119-38.199,27.372-38.083,49.129.061,11.419,4.552,19.328,14.168,19.277,10.217-.055,23.256-11.905,28.392-40.542Zm82.127,94.523c40.028-.215,69.19-31.625,68.962-74.057-.143-26.805-18.409-48.104-49.782-47.936-41.59.223-69.538,33.791-69.323,74.059.155,28.848,20.092,48.095,49.903,47.935Zm4.186-26.348c18.512-.099,29.183-27.564,29.077-47.277-.059-11.059-4.927-22.212-18.51-22.139-19.834.106-29.657,28.768-29.56,46.919.073,13.583,6.973,22.561,18.753,22.498Zm64.917,23.333,96.042-.515,5.609-30.082-61.785.331,24.062-130.793-34.258.183Zm187.372-117.605-9.927,54.146c-4.203,23.222-16.268,37.351-27.928,37.414-8.534.045-11.692-5.948-11.732-13.401a96.56289,96.56289,0,0,1,1.6-15.515l11.566-62.449-34.258.184-12.032,65.096a106.78266,106.78266,0,0,0-2.289,21.529c.118,22.117,11.354,32.635,30.226,32.534,13.944-.075,27.972-6.641,39.791-21.97l.482.237-2.063,18.884,30.412-.163c1.627-10.467,3.482-23.219,6.167-38.019l14.363-78.692Zm51.471,116.324,21.372-116.715-34.137.183-21.613,116.716Zm6.545-124.569c-10.097.054-17.468-6.999-17.526-17.817-.066-12.381,9.626-20.727,20.805-20.787,10.818-.058,18.428,6.753,18.487,17.812.07,13.102-9.866,20.728-21.526,20.791Zm-1.737,124.543,96.884-.519,5.38-27.917-54.933.295.238-.482c10.531-8.712,17.825-16.083,28.224-27.078l36.81-39.866,3.85-21.657-90.994.487-5.379,27.917,49.884-.267-.238.482a319.36638,319.36638,0,0,0-28.224,27.077l-37.767,40.713Zm-381.405-132.586c-21.143,2.397-40.883-2.546-54.277-12.091,10.298,15.091,29.7,24.243,50.844,21.966,16.099-1.769,29.879-9.897,38.473-21.122A86.79311,86.79311,0,0,1,214.3386,160.67922Z"/><path class="cls-3" d="M247.0386,26.83422l8.145-5.453,12.589-6.078s10.79-5.347,20.324,1.574c0,0,12.309,9.07,4.694,23.655-8.567,16.274-3.307,10.837-3.307,10.837l2.091,9.004-12.003,3.19-27.898-1.774-13.966-4.132-13.538-13.992c-.123-.6,4.391-10.602,4.391-10.602l16.564-4.656Z"/><path class="cls-4" d="M352.0836,46.22522a79.22843,79.22843,0,0,1,9.179,8.125c3.507,3.948,9.313,10.648,7.189,17.992-3.09,6.628-12.811,9.565-22.44,7.333-9.266-1.994-18.908-6.751-26.961-6.467a10.31006,10.31006,0,0,0-4.681,1.347l-.958.607h0c-2.166-.349,4.693.816-4.933-.936h0l-.122-.239-.242-.36-.604-.598c-.606-.838-1.332-1.795-1.818-2.634a42.18114,42.18114,0,0,1-5.098-31.708,13.90041,13.90041,0,0,1,.71-2.047,28.79481,28.79481,0,0,1,2.736-5.424,21.36433,21.36433,0,0,1,8.616-7.138c2.279-.974,2.515-1.817,5.518-2.193-1.21-1.557,8.769-1.129,12.269,1.496.48-.122.002.241,1.084.355.482.238,1.327.835,1.929,1.072a16.51134,16.51134,0,0,1,3.739,2.384c3.745,3.345,4.963,6.464,8.111,10.534,0,0,.845.837.605.839l.244.72c-.724-.598-1.084-.475-.475,1.084-.602-.237-1.206-.835-1.324-.474-.114,1.203.38,3.725.02,3.847-1.2.367-2.892-1.427-4.335-1.419-.361-.119-.841.004-1.323-.234a6.76614,6.76614,0,0,0-.727-.958c-.242-.239-.482-.237-.723-.356-.607-1.079.349-2.166-.498-3.243-.487-1.079-1.093-2.038-1.7-3.116-.242-.36-1.685-.472-1.325-.474.241-.001.361-.002.24-.242a5.0197,5.0197,0,0,1-.727-.958l.48-.122c-.605-.718-2.17-1.311-2.533-1.67a4.16689,4.16689,0,0,0-1.691-1.433c-2.535-2.03-4.466-3.462-8.431-3.08-3.966.141-9.605,1.974-11.031,5.108-2.997,1.578-3.584,4.106-4.887,7.719a28.67951,28.67951,0,0,0-.09,5.65c.98,3.361-.219,4.088.884,7.929.615,2.641,1.339,3.238,1.592,5.521.124.721,1.211,1.676,1.333,2.036.856,2.64-.829,2.289,1.458,2.878.602.117-.58,3.849.388,5.046,2.029,2.008.739,3.362,2.288.829,1.198-.727,2.762-.616,4.444-.745a48.63023,48.63023,0,0,1,13.11,1.372c2.527.468,10.721,4.27,17.823,6.035,6.982,2.007,12.734-1.39,14.176-1.518h0c-.119.241-.359.362-.598.604-.839.365-1.558.85-2.398,1.215a32.92362,32.92362,0,0,1-4.442.986,22.17405,22.17405,0,0,1-6.252-.207,56.11007,56.11007,0,0,1-9.869-2.352l-3.854-1.421c1.324.473,2.649.947,3.854,1.421,7.226,2.606,14.689,4.49,20.563,1.573a1.80168,1.80168,0,0,0,.84-.365c-5.151,3.273-12.248,2.35-19.353-.017-6.984-2.126-13.974-5.574-22.152-6.252,4.089.339,11.916,2.821,15.409,4.245,9.276,3.677,19.873,7.226,27.299,2.258a9.839,9.839,0,0,0,3.828-3.507c1.674-1.691,2.496-5.302.912-9.26a10.98751,10.98751,0,0,1,1.245,7.927c-1.778,4.697-5.62,5.559-4.06,5.07a8.57064,8.57064,0,0,0,4.06-5.07c1.663-3.616-1.739-10.329-6.212-15.113-4.474-4.905-9.664-8.844-11.959-10.875Zm-13.14,82.772c-2.513,2.057-7.055,7.01-13.284,11.01-6.229,4.121-15.472,6.454-21.016,3.719a17.17831,17.17831,0,0,1-7.723-5.608c-.851-1.799.855,2.64,7.723,5.608a17.89954,17.89954,0,0,0,11.301.3c-5.404.991-10.823-.783-13.48-3.053a15.83621,15.83621,0,0,1-5.556-5.019c-7.741-8.853-4.189-19.09-.509-27.644,1.426-3.133,3.672-10.238,3.532-13.963.281,7.571-3.413,13.721-5.301,20.343-2.368,6.624-2.69,13.958,2.392,20.182-.242-.36-.364-.719-.606-1.079-4.725-6.826-3.081-14.168-.474-21.033.355-1.084.829-2.289,1.304-3.493l-1.304,3.493a35.918,35.918,0,0,0-1.871,9.626c-.11,2.044-.337,4.45.515,6.488a49.69992,49.69992,0,0,0,1.83,4.919,25.50593,25.50593,0,0,0,2.179,2.873,5.4571,5.4571,0,0,0,.846.837l-.001-.12c-.368-1.44-5.935-8.382-4.049-15.365,1.406-6.859,5.453-14.333,5.8-16.739.822-3.611.682-7.337-.064-12.021-.49-1.68-.497-3.002-1.465-4.199-4.287-1.153-2.185-.252.711-1.927,1.318-.728,6.375.807,6.372.326.471-1.925.117-.601,3.601-.981.361-.002,1.438-.849,2.4-.854,2.885.105,3.603-.5,6.848-.758,4.806-.386,5.893.69,10.339.305a61.98031,61.98031,0,0,1,7.337.802c5.178,1.656,8.789,2.598,11.691,5.708,4.697,1.778,8.694,7.406,10.037,11.245,1.464,4.079.031,5.77-2.241,7.946a6.29921,6.29921,0,0,1-1.555,1.571c-.599.244-1.072,1.689-2.031,2.295l-.123-.601a11.25506,11.25506,0,0,0-1.199.608c-.36.122-.361.002-.482-.238-.122-.36.247,1.201-.354,1.204a26.32826,26.32826,0,0,1-4.081,1.224c-1.318.728-3.248-.464-4.567.024a1.71138,1.71138,0,0,1-.237.723c-.36.122-.84.365-1.32.488-.117.481.126,1.081.007,1.322.369,1.441-1.787,3.015-1.058,4.333.362.359,3.848.34,5.653.691.482.118-.236.723-.474,1.325,2.163-.252,2.525.107,1.808.832.48-.123,1.081-.247,1.081-.247-.119.241.959-.365.959-.365,5.155-2.673,9.478-3.417,13.427-6.804.717-.845,2.152-2.175,2.505-3.499.238-.603.835-1.327,1.073-1.809-.126-1.081.358-.483-.006-1.082,2.988-3.141.772-12.866-1.146-12.015-1.459-2.997-2.663-3.351-4.719-5.744a42.16023,42.16023,0,0,0-12.07-9.071,71.73973,71.73973,0,0,0-7.83-3.204c-.964-.355-1.927-.59-2.769-.826a78.62515,78.62515,0,0,0-27.42-2.257,52.30422,52.30422,0,0,0-12.727,2.712c-1.08.247-2.039.853-3.119,1.219l-.719.365-.36.122-.24.121-.119.121h0c-1.038,8.3-.349,2.286-.579,4.09h0l.12.12.726.837a9.8324,9.8324,0,0,1,2.308,4.436c1.363,7.686-3.64,16.127-5.155,25.03-1.992,9.627,3.236,20.658,13.239,25.413,11.081,4.148,19.588-1.067,24.74-4.099a47.975,47.975,0,0,0,9.931-8.588Zm-108.319-24.903c-2.298-2.632-7.974-7.41-12.333-13.397-4.358-5.626-6.564-13.548-3.461-17.652a12.96215,12.96215,0,0,1,6.342-5.443c1.921-.491-2.883.376-6.342,5.443a11.83379,11.83379,0,0,0-.793,9.02c-.745-4.443,1.276-8.662,3.911-10.479a15.48019,15.48019,0,0,1,5.509-3.756c9.71-5.1,20.909-1.314,30.666,2.48,3.614,1.424,12.043,4.143,16.372,4.36-8.899-.553-16.131-4.241-23.596-6.485-7.466-2.484-15.405-3.523-22.238-.121a2.03458,2.03458,0,0,1,1.2-.367c7.436-3.045,15.501-1.044,23.209,1.799a26.39884,26.39884,0,0,1,3.975,1.421l-3.975-1.421a63.28726,63.28726,0,0,0-10.712-2.587c-2.285-.228-4.932-.695-7.093-.202a46.43128,46.43128,0,0,0-5.404.99c-1.08.367-2.039.853-3.119,1.339-.359.122-.599.364-.959.486h.121c1.562-.009,9.236-3.656,16.821-1.413,7.703,1.762,16.259,5.803,19.027,6.389a47.4748,47.4748,0,0,0,14.191,1.246c1.802-.129,3.486-.018,4.685-.626,2.091-3.752.946-1.244,2.408.829.968,1.197-.452,5.291.149,5.408,2.407.468.722.117,1.46,3.118.122.36,1.33,1.435,1.333,2.156.134,2.524.859,3.241,1.476,6.243,1.106,4.442-.332,5.291.652,9.493.363.479-.083,6.852-.203,6.973-1.778,4.698-2.601,8.068-6.314,10.492-2.021,4.338-9.216,7.502-14.021,8.129-5.285.75-7.579-1.041-10.478-3.79a7.89724,7.89724,0,0,1-2.053-1.793c-.364-.599-2.171-1.31-2.778-2.389l.601-.003c-.122-.36-.607-1.079-.729-1.439-.242-.239-.001-.24.239-.361.48-.003-1.443.007-1.566-.593a43.60878,43.60878,0,0,1-1.586-4.199c-.848-1.318.586-2.888-.023-4.327a2.23092,2.23092,0,0,1-.842-.236c-.243-.48-.486-.839-.729-1.318a9.38324,9.38324,0,0,0-1.684-.232c-1.682.129-3.497-2.145-5.057-1.656-.48.243-.462,3.609-.934,5.174-.118.482-.844-.356-1.566-.592.371,2.041-.108,2.284-.954,1.447a6.18935,6.18935,0,0,1,.126,1.081c-.241-.119.607,1.079.607,1.079,3.275,5.512,4.139,9.835,8.372,14.5,1.206.835,2.898,2.509,4.464,3.102.843.356,1.81,1.192,2.533,1.549,1.322-.007.603.477,1.323.233,4.227,3.704,17.088,3.394,15.753,1.118,3.842-.862,4.196-2.187,7.312-3.886a30.64564,30.64564,0,0,0,10.882-10.637,39.85888,39.85888,0,0,0,3.326-7.35,11.21191,11.21191,0,0,0,.827-2.649,51.25788,51.25788,0,0,0-.013-24.883,41.73413,41.73413,0,0,0-4.507-11.155,20.59082,20.59082,0,0,0-1.817-2.635l-.485-.718-.242-.36-.121-.119-.121-.12h0c-9.867-1.75-2.767-.466-4.934-.935h0l.001.12-1.079.487a10.42879,10.42879,0,0,1-5.042,1.349c-8.653.287-18.536-4.588-28.525-6.699-10.351-2.468-22.355.481-27.847,7.602-5.003,8.442.448,16.226,3.718,20.896a49.25825,49.25825,0,0,0,9.671,10.046Z"/><path class="cls-2" d="M57.8186,113.67622a12.51529,12.51529,0,0,0,7.224,2.125c3.846-.021,7.44-2.324,7.418-6.411-.013-2.524-1.466-4.44-5.082-6.344-4.34-2.261-6.759-5.012-6.778-8.618-.033-6.131,5.235-10.126,11.485-10.159a12.53142,12.53142,0,0,1,6.982,1.765l-1.544,3.495a10.72915,10.72915,0,0,0-5.899-1.652c-4.207.023-6.717,2.801-6.702,5.566.015,2.885,1.707,4.438,5.323,6.342,4.219,2.261,6.517,4.894,6.54,9.101.032,5.89-4.511,10.602-12.204,10.643-3.487-.101-6.858-1.165-8.187-2.36Zm46.536-19.483-2.337,12.634c-.933,5.294-4.88,8.922-7.885,8.938-2.885.015-3.976-1.662-3.99-4.186a13.57692,13.57692,0,0,1,.462-3.609l2.451-13.716-4.087.022-2.691,13.838a32.1682,32.1682,0,0,0-.458,4.209c.03,5.53,3.404,7.074,6.529,7.058,3.245-.018,6.48-2.079,8.627-5.216h.12l-.577,4.571,3.727-.02c.229-2.045.577-4.451,1.044-7.098l3.272-17.448Zm13.046,34.429,1.987-10.588h0a10.32107,10.32107,0,0,0,5.295,1.173c8.174-.044,14.261-8.25,14.214-16.905-.023-4.447-2.21-8.763-7.499-8.735a10.76874,10.76874,0,0,0-8.747,5.216l-.121.001.576-4.691-3.846.02a86.79335,86.79335,0,0,1-1.275,8.782l-4.791,25.75Zm2.569-14.078a8.14934,8.14934,0,0,0,4.816,1.297c5.409-.029,9.82-6.784,9.786-13.155-.013-2.524-1.112-5.644-4.718-5.624-3.246.017-7.433,3.766-8.598,10.624Zm43.031-.591a14.08644,14.08644,0,0,1-6.482,1.718,5.57294,5.57294,0,0,1-5.547-3.336,10.78208,10.78208,0,0,1-.506-4.686c9.016.192,16.34-1.53,16.305-8.021-.019-3.486-2.558-6.237-7.246-6.212-7.933.043-13.298,8.366-13.258,15.819.029,5.409,2.818,9.841,9.309,9.807a18.60638,18.60638,0,0,0,8.163-1.967Zm-.316-14.183c-.011-2.043-1.58-3.116-3.743-3.105-3.967.021-6.951,4.004-8.012,7.857,6.611-.036,11.775-.905,11.755-4.752Zm14.404,18.555,1.985-10.829c1.052-5.655,4.273-10.12,7.88-10.14.48-.002.842.116,1.202.114l.7-4.091a3.70659,3.70659,0,0,0-1.203-.113c-3.246.017-5.877,2.556-7.421,5.93h-.12c.23-1.924.461-3.608.572-5.412l-3.727.02c-.228,2.285-.571,5.532-1.155,8.781l-2.8,15.762Zm238.404,6.415,2.425-18.404c.344-3.248,1.159-8.18,1.742-11.549l-.241.001c-1.544,3.494-3.445,7.591-5.229,11.087l-9.997,18.806-3.245.017-2.623-18.377c-.502-3.965-.884-7.929-1.143-11.414l-.12.001c-.705,3.129-1.759,8.303-2.463,11.553l-4.589,18.416-3.967.021,8.713-34.065,5.289-.028,2.869,19.578a72.11371,72.11371,0,0,1,.767,8.531l.241-.002a88.05771,88.05771,0,0,1,3.921-8.555l10.352-19.65,5.53-.029-4.145,34.04Zm33.633-4.628a13.62167,13.62167,0,0,1-6.602,1.719,5.41012,5.41012,0,0,1-5.427-3.337,8.78952,8.78952,0,0,1-.506-4.565c9.016.072,16.219-1.65,16.185-8.021-.019-3.606-2.558-6.357-7.246-6.332-7.813.042-13.298,8.366-13.258,15.819.029,5.409,2.937,9.841,9.428,9.806a18.01451,18.01451,0,0,0,8.044-1.967Zm-.317-14.182c-.01-1.923-1.579-3.117-3.863-3.105-3.967.021-6.95,4.004-7.891,7.856,6.611.085,11.775-.905,11.755-4.631Zm15.967,18.546,1.986-10.829c1.051-5.655,4.273-10,7.759-10.019.481-.002.962-.005,1.202-.006l.82-4.092a4.09555,4.09555,0,0,0-1.203-.113c-3.366.018-5.876,2.555-7.541,5.93l-.12.001c.35-1.925.461-3.609.693-5.293l-3.727.02c-.228,2.285-.571,5.533-1.155,8.661l-2.921,15.763Zm33.514-4.387a13.0021,13.0021,0,0,1-5.642,1.353c-4.087.022-6.144-2.492-6.165-6.458-.032-5.89,3.901-12.162,10.272-12.196a9.0325,9.0325,0,0,1,4.212.939l1.184-3.372a12.62058,12.62058,0,0,0-5.054-1.055c-8.895.048-14.984,7.773-14.939,16.188.028,5.289,3.176,9.479,9.427,9.446a14.65546,14.65546,0,0,0,7.083-1.601Zm30.795,4.042a60.07845,60.07845,0,0,1,.901-11.304l2.456-12.755a21.32084,21.32084,0,0,0-6.617-.926c-10.577.057-16.78,9.105-16.734,17.64.025,4.568,2.688,8.039,7.015,8.016,3.486-.019,6.842-1.84,9.459-6.902l.121-.001c-.227,2.525-.456,4.811-.448,6.253Zm-1.316-21.269a7.93626,7.93626,0,0,0-2.887-.345c-6.371.034-11.504,6.673-11.468,13.404.015,2.765.99,5.404,4.236,5.387,3.486-.019,7.548-4.609,8.716-11.106Zm34.781-14.732-2.102,11.672a11.71961,11.71961,0,0,0-4.452-.818c-8.534.046-14.982,8.134-14.935,16.789.027,5.049,2.572,8.882,7.259,8.856,3.607-.019,6.601-1.958,8.867-5.456l.12-.001-.696,4.812,3.847-.021a62.25331,62.25331,0,0,1,1.04-7.699l5.259-28.156Zm-2.803,15.282a7.08587,7.08587,0,0,0-3.973-1.061c-5.89.032-10.424,6.307-10.389,12.798.016,3.005.993,6.005,4.6,5.985,3.245-.017,7.072-3.644,8.125-9.179Zm17.419,20.462,4.557-24.427-4.207.023-4.557,24.426Zm3.451-28.989a2.404,2.404,0,0,1-2.418-2.631,2.95237,2.95237,0,0,1,2.868-3.021,2.52451,2.52451,0,0,1,2.659,2.631,2.97481,2.97481,0,0,1-2.989,3.021Zm13.618,28.897,2.22-11.912c1.049-6.016,5.358-9.645,8.242-9.661,2.885-.015,3.856,1.783,3.869,4.187a27.38836,27.38836,0,0,1-.223,3.246l-2.569,14.078,4.087-.022,2.688-14.319a22.37624,22.37624,0,0,0,.46-3.969c-.027-5.048-3.402-6.713-6.287-6.698-3.606.02-6.841,1.96-9.106,5.458h0l.575-4.811-3.726.02c-.35,2.045-.698,4.331-1.164,7.098l-3.153,17.327Zm32.575-.174,2.218-12.273c1.053-5.415,5.119-9.284,8.365-9.301,2.644-.014,3.736,1.783,3.747,3.947a26.15449,26.15449,0,0,1-.222,3.487l-2.689,14.078,4.207-.022,2.688-14.319a23.52261,23.52261,0,0,0,.339-4.089c-.026-4.928-3.281-6.594-6.046-6.579a10.62125,10.62125,0,0,0-8.749,4.855l-.12.001,2.921-15.643-4.207.023-6.659,35.857Zm38.348.395c8.174-.044,13.541-7.886,13.5-15.459-.027-5.169-3.06-10.201-9.671-10.166-7.933.043-13.543,7.526-13.5,15.58.03,5.529,3.42,10.078,9.551,10.046Zm.463-3.368c4.928-.027,8.62-6.417,8.59-12.067-.016-2.885-1.359-6.845-5.807-6.821-5.168.028-8.62,6.418-8.59,12.067.021,3.967,2.201,6.84,5.686,6.821Zm20.563,1.572a10.9771,10.9771,0,0,0,6.14,1.65c5.169-.027,9.24-2.934,9.212-8.103-.015-2.765-1.829-4.919-4.482-6.467-2.29-1.19-3.498-2.265-3.508-4.068-.011-2.044,1.903-3.737,4.428-3.75a7.61128,7.61128,0,0,1,4.213,1.179l1.185-3.252a10.34493,10.34493,0,0,0-5.055-1.175c-5.289.029-8.878,3.293-8.855,7.621.014,2.524,1.588,4.679,4.361,6.227,2.652,1.428,3.5,2.626,3.511,4.549.011,2.164-1.782,3.976-4.667,3.992a11.00929,11.00929,0,0,1-5.297-1.534Z"/></g></g></svg>