<svg xmlns="http://www.w3.org/2000/svg" viewBox="0 0 761.56041 198.90075"><defs><style>.cls-1{fill:#1d71b8;}</style></defs><title>logo_unifor</title><g id="Layer_2" data-name="Layer 2"><g id="Layer_1-2" data-name="Layer 1"><path class="cls-1" d="M24.13232,52.95282H29.282c6.11143,0,10.36974.82377,12.75767,2.50439,2.41094,1.6763,3.63293,4.49407,3.63293,8.45766q0,6.1373-3.69331,8.67188c-2.4325,1.695-6.73968,2.55469-12.95607,2.55469H24.13232Zm77.16277,46.99088c-4.6019-5.18558-6.88633-11.85051-6.88633-19.9272,0-7.92,2.32468-14.55617,6.997-19.83807a23.653,23.653,0,0,1,35.28127.02731q7.08615,7.96169,7.10772,19.81076c0,8.00625-2.31892,14.61224-7.00421,19.88839a22.67938,22.67938,0,0,1-17.70461,7.851,22.6028,22.6028,0,0,1-17.79087-7.81218M99.718,34.25911A49.841,49.841,0,0,0,83.42658,45.00552,48.73209,48.73209,0,0,0,72.36246,60.94039c-.6685,1.626-1.25362,3.27926-1.74961,4.94118.01006-.38817.01006-.8022.01006-1.1918a36.83643,36.83643,0,0,0-2.72433-14.42966,28.07271,28.07271,0,0,0-7.966-10.79384A26.25559,26.25559,0,0,0,49.09992,34.17q-6.41549-1.544-22.17281-1.52677H0V127.039H24.13232V95.89388h9.027c7.95449,0,13.7137-.47013,17.35957-1.36291a25.50584,25.50584,0,0,0,9.41371-4.45237A25.78874,25.78874,0,0,0,67.9187,79.52771c.25734-.62682.519-1.26081.7332-1.9092-.03451.79214-.05463,1.59434-.05463,2.398a47.71241,47.71241,0,0,0,14.82931,35.02968A49.89361,49.89361,0,0,0,99.718,125.78685a51.61042,51.61042,0,0,0,38.66693,0,52.10243,52.10243,0,0,0,16.49986-10.74066,47.61281,47.61281,0,0,0,10.883-15.93487,48.97806,48.97806,0,0,0-10.883-54.1058,49.99,49.99,0,0,0-16.428-10.74641,51.64916,51.64916,0,0,0-38.73881,0m81.11917,4.658q-9.07872,8.54394-9.0586,22.08079c0,6.94815,1.92357,12.45147,5.73045,16.45529,3.85145,3.97366,10.39994,7.23425,19.621,9.7185,6.73824,1.80136,11.08569,3.56248,12.98769,5.27471,1.91927,1.68636,2.8523,4.12174,2.8523,7.25437a8.71461,8.71461,0,0,1-3.32385,7.03728,12.73218,12.73218,0,0,1-8.46629,2.77177,21.98832,21.98832,0,0,1-11.1015-3.25052,46.36606,46.36606,0,0,1-11.35022-9.71993L167.1177,115.6845a51.60813,51.60813,0,0,0,15.60709,10.53075,46.81463,46.81463,0,0,0,17.94326,3.3296q16.45818,0,26.32042-9.13481,9.8637-9.11323,9.8608-24.14526a31.364,31.364,0,0,0-1.74816-10.78667,23.25554,23.25554,0,0,0-5.095-8.35991q-4.95557-5.09358-20.71216-9.33606c-.45-.13945-.8554-.2444-1.14725-.33355q-7.28453-1.9365-9.8148-4.07284a7.01194,7.01194,0,0,1-2.56763-5.683,6.91535,6.91535,0,0,1,2.9069-5.70026,12.286,12.286,0,0,1,7.56058-2.21254,23.67077,23.67077,0,0,1,9.11612,1.89913,34.27412,34.27412,0,0,1,9.0011,5.63844l8.05513-18.50969a48.55269,48.55269,0,0,0-13.26372-6.36014,51.87986,51.87986,0,0,0-14.80344-2.08746q-14.444,0-23.49977,8.55686M119.592,0,107.87376,22.56242h9.92694L137.725,0ZM293.864,32.64276h25.67923V78.5583c0,6.74544.18975,11.58887.51758,14.5461a27.15649,27.15649,0,0,0,1.76683,7.36938,10.55225,10.55225,0,0,0,5.14824,5.52918,22.09006,22.09006,0,0,0,17.88283,0,10.97579,10.97579,0,0,0,5.17413-5.52918,28.1744,28.1744,0,0,0,1.77977-7.36938q.49384-4.43584.50463-14.5461V32.64276h25.603V82.56071q0,15.52012-1.8977,22.90314a30.89945,30.89945,0,0,1-6.30694,12.62828,29.29876,29.29876,0,0,1-13.281,8.5842c-5.61541,1.93651-12.46726,2.8681-20.51085,2.8681-8.07382,0-14.91847-.93159-20.54253-2.8681a29.66727,29.66727,0,0,1-13.304-8.5842,32.00655,32.00655,0,0,1-6.30984-12.62828c-1.24355-4.92249-1.90345-12.55639-1.90345-22.90314V32.64276Zm92.4737,94.39584V32.64276h24.81663L453.92,91.16357V32.64276h24.66426V127.0386H453.91137L411.13566,68.32945V127.0386ZM488.37894,32.64276h26.00271v94.39439H488.37894ZM524.0153,127.0386V32.64276h57.848v20.682H549.1094V69.68946h30.87346V89.95021H549.1094v37.0884ZM681.66322,80.01607a47.98972,47.98972,0,0,1-14.64817,35.02968,51.8227,51.8227,0,0,1-16.50274,10.74209,51.562,51.562,0,0,1-38.641,0,49.39124,49.39124,0,0,1-16.27271-10.74209,48.28725,48.28725,0,0,1-11.10723-15.99092,50.21431,50.21431,0,0,1,0-38.10626,48.45622,48.45622,0,0,1,11.10723-15.94349,49.35836,49.35836,0,0,1,16.27271-10.74639,51.52493,51.52493,0,0,1,38.74023,0,50.13919,50.13919,0,0,1,16.40355,10.74639,48.25037,48.25037,0,0,1,14.64817,35.011m-50.44554,27.73938a22.69508,22.69508,0,0,0,17.70317-7.851c4.68244-5.27471,7.02721-11.8807,7.02721-19.88839q0-11.84548-7.11632-19.81076a23.63868,23.63868,0,0,0-35.30428-.02731q-6.9999,7.90993-6.997,19.83807c0,8.07671,2.2902,14.74307,6.88489,19.92865a22.66806,22.66806,0,0,0,17.80236,7.81073m55.46151,19.28316V32.64276h26.89549q15.80037,0,22.029,1.429a29.2401,29.2401,0,0,1,10.73917,4.86355,25.68885,25.68885,0,0,1,7.8208,9.87662,31.44811,31.44811,0,0,1,2.73876,13.23353q0,10.97-5.36529,17.82538c-3.58411,4.56021-8.83866,7.60371-15.69767,9.12044l25.72091,38.04729H732.451L710.8,90.07959v36.959ZM710.8,77.24572h4.783q8.33039,0,12.14523-2.82927c2.54317-1.89626,3.83568-4.87362,3.83568-8.90335,0-4.73847-1.18757-8.09683-3.59411-10.11384-2.35925-2.00695-6.39754-2.97449-12.01589-2.97449H710.8ZM252.00984,80.01578a10.63643,10.63643,0,1,0,10.64-10.64719,10.64118,10.64118,0,0,0-10.64,10.64719"/><path class="cls-1" d="M145.72123,144.56766a17.54277,17.54277,0,0,1,1.79417-.09919,16.82562,16.82562,0,0,1,1.79131.09919,5.87611,5.87611,0,0,1,1.14725.2631l.60668.42123.16245.55924v40.78745l-.16245.55637-.60668.37235a4.65127,4.65127,0,0,1-1.14725.23434,16.55329,16.55329,0,0,1-1.79131.07763,17.11984,17.11984,0,0,1-1.79417-.07763,4.50365,4.50365,0,0,1-1.1343-.23434l-.61962-.37235-.17252-.55637V145.81123l.17252-.55924.61962-.42123a5.66777,5.66777,0,0,1,1.1343-.2631m14.81091,13.20449a15.35848,15.35848,0,0,1,1.79131-.08051,15.11682,15.11682,0,0,1,1.81.08051,4.20564,4.20564,0,0,1,1.14007.23578l.58367.38241.184.54775v27.66031l-.184.55781-.58367.37091a4.56987,4.56987,0,0,1-1.14007.23434,16.91522,16.91522,0,0,1-1.81.07763,17.23047,17.23047,0,0,1-1.79131-.07763,4.83834,4.83834,0,0,1-1.13143-.23434l-.59661-.37091-.16678-.55781V158.93808l.16678-.54775.59661-.38241a4.42886,4.42886,0,0,1,1.13143-.23578m5.06052-13.61451c.44567-.02875.979-.05031,1.62885-.05031a14.02583,14.02583,0,0,1,2.16364.12795,3.22982,3.22982,0,0,1,1.09692.34217l.31341.55924-.29759.63543-5.70746,7.20548-.48592.51755-.59661.312a3.70987,3.70987,0,0,1-.92729.18689,13.38635,13.38635,0,0,1-1.406.069,10.3473,10.3473,0,0,1-1.64611-.10783,1.61861,1.61861,0,0,1-.841-.28321l-.18115-.49743.30334-.71595,4.20512-7.10772.51323-.59662.72457-.391a6.35429,6.35429,0,0,1,1.14007-.20559m16.62723,36.8335a4.07594,4.07594,0,0,0,2.536.77345,4.97391,4.97391,0,0,0,1.498-.23721,5.542,5.542,0,0,0,1.4779-.76339,9.95184,9.95184,0,0,0,1.54259-1.38014c.51755-.56787,1.11561-1.26225,1.73667-2.09465v-9.19087A18.02526,18.02526,0,0,0,187.969,164.878a5.05589,5.05589,0,0,0-3.06649-1.09549,3.94071,3.94071,0,0,0-2.46556.75333,5.07217,5.07217,0,0,0-1.69356,2.01557,11.08094,11.08094,0,0,0-.93591,2.848,17.14955,17.14955,0,0,0-.335,3.21314,20.52836,20.52836,0,0,0,.2832,3.37559,11.01685,11.01685,0,0,0,.87409,2.93567,5.624,5.624,0,0,0,1.59,2.06734m10.67165-36.325a16.607,16.607,0,0,1,3.59841,0,4.83921,4.83921,0,0,1,1.12281.2559l.58942.42842.184.54774v40.69975l-.15814.5765-.50316.3853a3.21606,3.21606,0,0,1-.94023.2214c-.40973.04025-.91722.05894-1.50521.05894-.61675,0-1.13575-.01869-1.52248-.05894a3.748,3.748,0,0,1-.97042-.2214l-.52617-.3853-.15669-.5765v-3.06506a17.35145,17.35145,0,0,1-4.25832,3.57255,10.68052,10.68052,0,0,1-10.01895.05031,10.32,10.32,0,0,1-3.4-3.298,14.91724,14.91724,0,0,1-1.87469-4.86355,26.088,26.088,0,0,1-.60956-5.844,27.85706,27.85706,0,0,1,.75476-6.64768,15.8038,15.8038,0,0,1,2.1881-5.0332,10.22146,10.22146,0,0,1,3.60706-3.19589,10.66311,10.66311,0,0,1,4.94263-1.09692,8.54405,8.54405,0,0,1,4.0139.93878,14.081,14.081,0,0,1,3.56248,2.76891v-14.986l.15814-.54774.57937-.42842a5.50645,5.50645,0,0,1,1.14295-.2559m19.37918,22.316a11.85818,11.85818,0,0,0-.4313,2.743h11.08139a8.52121,8.52121,0,0,0-1.23782-5.16978,4.79468,4.79468,0,0,0-4.15192-1.88044,5.11675,5.11675,0,0,0-2.46556.5693,4.85374,4.85374,0,0,0-1.71225,1.49515,7.12039,7.12039,0,0,0-1.08253,2.24274m-.17251-8.7294a15.65021,15.65021,0,0,1,11.25387-.06038,10.61126,10.61126,0,0,1,3.86008,2.82929,11.62938,11.62938,0,0,1,2.20824,4.29712,19.98863,19.98863,0,0,1,.68719,5.40412V171.965a3.02759,3.02759,0,0,1-.59519,2.10328,2.11219,2.11219,0,0,1-1.6691.67568H211.83942a11.98521,11.98521,0,0,0,.40686,3.2117,6.49934,6.49934,0,0,0,1.26369,2.4555,5.69582,5.69582,0,0,0,2.23985,1.53828,9.376,9.376,0,0,0,3.285.53912,16.86128,16.86128,0,0,0,3.42446-.31485,17.57146,17.57146,0,0,0,2.54609-.64694c.70875-.243,1.30824-.44854,1.78986-.6455a3.03151,3.03151,0,0,1,1.13718-.30334l.44854.12651.28323.37379.17251.79214c.02876.34216.04313.76339.04313,1.28381,0,.45717-.01437.84965-.01437,1.16163l-.0992.82377-.16821.5765-.32346.46a4.021,4.021,0,0,1-1.04662.57937,20.36971,20.36971,0,0,1-2.178.73175,23.39868,23.39868,0,0,1-3.03918.59951,22.53568,22.53568,0,0,1-3.666.2904,18.4478,18.4478,0,0,1-6.133-.946,10.69022,10.69022,0,0,1-4.39345-2.82211,11.62854,11.62854,0,0,1-2.64384-4.77442,23.69216,23.69216,0,0,1-.88271-6.76412,22.00081,22.00081,0,0,1,.93736-6.6448,13.83779,13.83779,0,0,1,2.64526-5.0217,11.18343,11.18343,0,0,1,4.22381-3.15132m35.78976-.85338a4.66735,4.66735,0,0,0-1.65331.82378,10.98917,10.98917,0,0,0-1.74386,1.60585,22.50415,22.50415,0,0,0-1.94513,2.5432v-3.43454l-.13228-.54775-.496-.38241a2.954,2.954,0,0,0-.94885-.23578,11.72831,11.72831,0,0,0-1.567-.07907,11.3217,11.3217,0,0,0-1.52967.07907,3.66256,3.66256,0,0,0-.979.23578l-.53337.38241-.14663.54775V186.598l.17106.55781.59519.37091a4.88449,4.88449,0,0,0,1.17168.23434,16.47589,16.47589,0,0,0,1.78124.07907,16.90346,16.90346,0,0,0,1.79563-.07907,4.58142,4.58142,0,0,0,1.1343-.23434l.60811-.37091.16389-.55781V169.352c.56932-.91147,1.09118-1.66479,1.54836-2.29017a8.423,8.423,0,0,1,1.3902-1.488,5.258,5.258,0,0,1,1.28383-.83384,3.1353,3.1353,0,0,1,1.23638-.26309l.98334.11789.7979.21709.66563.25014.54054.0992.47155-.1452.31341-.55924a7.24664,7.24664,0,0,0,.17541-1.1228c.04168-.47155.06612-1.0768.06612-1.83156,0-.7332-.02444-1.33126-.04455-1.76111a4.35063,4.35063,0,0,0-.07908-.98191l-.12508-.50606-.2487-.35365-.50461-.28466-.81372-.25446-.92152-.14521-.83529-.03882a5.96638,5.96638,0,0,0-1.64609.22283m15.55014,9.58278a11.20265,11.20265,0,0,0-.44137,2.743h11.08139a8.32549,8.32549,0,0,0-1.245-5.16978,4.76627,4.76627,0,0,0-4.14328-1.88044,5.12639,5.12639,0,0,0-4.20512,2.06446,7.16306,7.16306,0,0,0-1.0466,2.24274m-.18258-8.7294a15.66089,15.66089,0,0,1,11.2582-.06038,10.469,10.469,0,0,1,3.84139,2.82929,11.65571,11.65571,0,0,1,2.21111,4.29712,19.69544,19.69544,0,0,1,.70875,5.40412V171.965a3.15551,3.15551,0,0,1-.59519,2.10328,2.12316,2.12316,0,0,1-1.65905.67568h-16.024a11.9747,11.9747,0,0,0,.41691,3.2117,6.0278,6.0278,0,0,0,1.25219,2.4555,5.646,5.646,0,0,0,2.25137,1.53828,9.18642,9.18642,0,0,0,3.285.53912,16.43814,16.43814,0,0,0,3.39-.31485,16.89292,16.89292,0,0,0,2.57052-.64694c.71882-.243,1.31544-.44854,1.79131-.6455a2.97642,2.97642,0,0,1,1.1501-.30334l.437.12651.28178.37379.17108.79214c.02014.34216.03883.76339.03883,1.28381,0,.45717,0,.84965-.01869,1.16163l-.10352.82377-.17538.5765-.29759.46a4.19917,4.19917,0,0,1-1.05812.57937,18.32873,18.32873,0,0,1-2.17229.73175,23.35367,23.35367,0,0,1-3.04493.59951,22.4613,22.4613,0,0,1-3.64012.2904,18.43176,18.43176,0,0,1-6.16174-.946,10.87929,10.87929,0,0,1-4.40351-2.82211,11.85905,11.85905,0,0,1-2.62945-4.77442,23.276,23.276,0,0,1-.86547-6.76412,22.495,22.495,0,0,1,.90715-6.6448,14.25108,14.25108,0,0,1,2.64958-5.0217,11.32852,11.32852,0,0,1,4.23675-3.15132m28.94-.44136a9.97629,9.97629,0,0,0-3.37273,1.83156,7.72152,7.72152,0,0,0-2.11477,2.83791,8.69351,8.69351,0,0,0-.75908,3.65019,9.06188,9.06188,0,0,0,.565,3.33821,7.49983,7.49983,0,0,0,1.43477,2.39943,9.11342,9.11342,0,0,0,2.03858,1.67918,21.36368,21.36368,0,0,0,2.32181,1.19611c.80076.35223,1.58429.67426,2.3333.96754a20.14975,20.14975,0,0,1,2.03426.923,4.54219,4.54219,0,0,1,1.43477,1.16449,2.42225,2.42225,0,0,1,.54919,1.61448,3.22865,3.22865,0,0,1-.29472,1.4089,2.52289,2.52289,0,0,1-.8554,1.02791,4.75308,4.75308,0,0,1-1.36289.63832,7.12222,7.12222,0,0,1-1.77837.20414,9.46171,9.46171,0,0,1-2.84941-.4126,20.1732,20.1732,0,0,1-2.21254-.85109c-.6182-.31341-1.13575-.60668-1.57567-.86977a1.83478,1.83478,0,0,0-.9546-.36229l-.44135.07619-.28323.4543a4.81712,4.81712,0,0,0-.18977.85827c-.03738.37235-.06037.84246-.06037,1.44052a8.66736,8.66736,0,0,0,.18113,2.06447,2.21112,2.21112,0,0,0,.51038,1.02935,4.15526,4.15526,0,0,0,1.025.69295,11.99774,11.99774,0,0,0,1.76975.73608,17.33636,17.33636,0,0,0,2.40661.58368,17.1176,17.1176,0,0,0,2.8178.2444,15.64557,15.64557,0,0,0,4.52283-.61675,10.32248,10.32248,0,0,0,3.62717-1.81718,8.00991,8.00991,0,0,0,2.375-3.00611,9.79783,9.79783,0,0,0,.84533-4.16055,8.14417,8.14417,0,0,0-.58224-3.25914,7.11234,7.11234,0,0,0-1.46785-2.3678,8.35087,8.35087,0,0,0-2.05008-1.68636,21.80114,21.80114,0,0,0-2.36349-1.19181c-.80508-.3436-1.58142-.65556-2.35919-.95028a15.0125,15.0125,0,0,1-2.086-.93016,5.01343,5.01343,0,0,1-1.46353-1.1458,2.38158,2.38158,0,0,1-.57218-1.603,2.734,2.734,0,0,1,.25014-1.176l.7102-.94741a3.33174,3.33174,0,0,1,1.18605-.62681,6.24248,6.24248,0,0,1,1.74961-.21709,8.78852,8.78852,0,0,1,2.52595.33354,13.80759,13.80759,0,0,1,1.92644.70588,12.195,12.195,0,0,1,1.4204.70588l.8137.30048.40254-.10639.2904-.41116.14952-.83384a12.96517,12.96517,0,0,0,.0417-1.36721,9.9924,9.9924,0,0,0-.0417-1.19467l-.10927-.79358-.16244-.56644-.40686-.46a4.21945,4.21945,0,0,0-.933-.57074,10.20766,10.20766,0,0,0-1.59291-.60526,13.094,13.094,0,0,0-2.08888-.45141,13.23215,13.23215,0,0,0-2.41668-.184,14.42866,14.42866,0,0,0-4.45814.63543m41.68079,23.17917a3.97678,3.97678,0,0,0,2.53027.77346,5.01064,5.01064,0,0,0,1.48795-.23721,5.21865,5.21865,0,0,0,1.46928-.76339,9.29584,9.29584,0,0,0,1.54979-1.38014c.52617-.56644,1.11706-1.26081,1.75968-2.09321v-9.1923a18.94043,18.94043,0,0,0-3.05642-3.2189,5.02132,5.02132,0,0,0-3.06219-1.09692,4.046,4.046,0,0,0-2.48857.75333,5.41039,5.41039,0,0,0-1.68349,2.01558,11.07677,11.07677,0,0,0-.933,2.848,16.25822,16.25822,0,0,0-.29329,3.21458,22.50385,22.50385,0,0,0,.23865,3.39428,11.27889,11.27889,0,0,0,.85827,2.91555,5.5651,5.5651,0,0,0,1.6231,2.06733m-3.666-22.71768a10.79451,10.79451,0,0,1,4.98431-1.09691,9.04393,9.04393,0,0,1,2.09178.22283,6.97477,6.97477,0,0,1,2.00837.80364,13.59607,13.59607,0,0,1,2.0846,1.488c.70873.60669,1.51526,1.37152,2.375,2.25136v-3.00467l.161-.54631.51613-.38241a3.20312,3.20312,0,0,1,.97184-.23578,14.09679,14.09679,0,0,1,3.009,0,2.93545,2.93545,0,0,1,.96175.23578l.50033.38241.14377.54631v38.65254l-.16821.55637-.59519.41261a4.22805,4.22805,0,0,1-1.11706.25734,19.15543,19.15543,0,0,1-3.60131,0,4.89961,4.89961,0,0,1-1.1386-.25734l-.58944-.41261-.13513-.55637V184.43516c-.71882.66563-1.42038,1.27087-2.08746,1.78124a12.88428,12.88428,0,0,1-1.98108,1.245,10.20876,10.20876,0,0,1-2.07883.69439,11.032,11.032,0,0,1-2.23266.2214,9.39552,9.39552,0,0,1-4.92826-1.222,10.00882,10.00882,0,0,1-3.31376-3.298,15.50705,15.50705,0,0,1-1.87037-4.86212,28.49151,28.49151,0,0,1-.58657-5.84547,25.71062,25.71062,0,0,1,.77919-6.64766,15.377,15.377,0,0,1,2.21973-5.03176,10.16864,10.16864,0,0,1,3.61713-3.19733m46.71987-.50073a4.14746,4.14746,0,0,0-1.12571.23578l-.60379.38241-.15527.54775v18.40042a17.09608,17.09608,0,0,1-3.05359,3.15132,4.67716,4.67716,0,0,1-2.82782,1.09692,4.15809,4.15809,0,0,1-1.96957-.45143,3.839,3.839,0,0,1-1.38017-1.27231,5.72565,5.72565,0,0,1-.82087-1.97676,15.36532,15.36532,0,0,1-.253-3.31808V158.93808l-.17255-.54775-.60523-.38241a4.46184,4.46184,0,0,0-1.1415-.23578,20.07923,20.07923,0,0,0-3.59267,0,3.98157,3.98157,0,0,0-1.13141.23578l-.60813.38241-.16532.54775v16.92109a23.78561,23.78561,0,0,0,.49595,5.29917,10.65671,10.65671,0,0,0,1.6188,3.73644,7.83752,7.83752,0,0,0,2.97594,2.536,9.97771,9.97771,0,0,0,4.55591.946,9.33665,9.33665,0,0,0,4.6738-1.26081,17.21959,17.21959,0,0,0,4.45092-3.70913v3.19158l.12508.55781.50318.37092a3.28235,3.28235,0,0,0,.96035.23433,13.12013,13.12013,0,0,0,1.57278.07763,12.29327,12.29327,0,0,0,1.511-.07763,3.63055,3.63055,0,0,0,.98338-.23433l.51468-.37092.15092-.55781V158.93808l-.174-.54775-.59659-.38241a4.23965,4.23965,0,0,0-1.11851-.23578,20.12863,20.12863,0,0,0-3.597,0m19.37632,9.21a11.48772,11.48772,0,0,0-.427,2.743h11.06125a8.3072,8.3072,0,0,0-1.2378-5.16978,4.787,4.787,0,0,0-4.15337-1.88044,5.01261,5.01261,0,0,0-2.44832.5693,5.09694,5.09694,0,0,0-1.73524,1.49515,6.59645,6.59645,0,0,0-1.05954,2.24274m-.17681-8.7294a13.79337,13.79337,0,0,1,5.61256-1.07679,14.14787,14.14787,0,0,1,5.65139,1.01641,10.5536,10.5536,0,0,1,3.84139,2.82929,11.63325,11.63325,0,0,1,2.19815,4.29712,19.31815,19.31815,0,0,1,.70733,5.40412V171.965a3.09386,3.09386,0,0,1-.59519,2.10328,2.15028,2.15028,0,0,1-1.67627.67568H395.87954a11.94391,11.94391,0,0,0,.39249,3.2117,6.15259,6.15259,0,0,0,1.27663,2.4555,5.38873,5.38873,0,0,0,2.23119,1.53828,9.3063,9.3063,0,0,0,3.28792.53912,16.55432,16.55432,0,0,0,3.40721-.31485,16.288,16.288,0,0,0,2.54177-.64694c.72457-.243,1.3298-.44854,1.79276-.6455a3.1471,3.1471,0,0,1,1.15729-.30334l.43562.12651.30045.37379.16676.79214c.01439.34216.02444.76339.02444,1.28381,0,.45717,0,.84965-.01,1.16163l-.092.82377-.16821.5765-.31484.46a4.29731,4.29731,0,0,1-1.061.57937,18.162,18.162,0,0,1-2.17661.73175,22.928,22.928,0,0,1-3.045.59951,22.24343,22.24343,0,0,1-3.63435.2904,18.24948,18.24948,0,0,1-6.14452-.946,10.74879,10.74879,0,0,1-4.415-2.82211,11.81728,11.81728,0,0,1-2.64816-4.77442,24.36841,24.36841,0,0,1-.86115-6.76412,23.11585,23.11585,0,0,1,.91722-6.6448,14.13641,14.13641,0,0,1,2.64961-5.0217,11.3609,11.3609,0,0,1,4.23963-3.15132m40.93553-7.77163a3.97212,3.97212,0,0,0-1.16309.243l-.59519.43129-.14807.55781v6.1675h-3.13406l-.50463.15671-.37376.50892a2.922,2.922,0,0,0-.1898.96754,8.91256,8.91256,0,0,0-.1006,1.51815,7.35136,7.35136,0,0,0,.2904,2.44543c.19265.49168.483.72458.84821.72458h3.16424v14.18381a17.329,17.329,0,0,0,.50748,4.4035,7.23252,7.23252,0,0,0,1.567,3.08376,5.98713,5.98713,0,0,0,2.67115,1.81287,11.46083,11.46083,0,0,0,3.8227.588,13.34662,13.34662,0,0,0,1.64324-.08913,10.83672,10.83672,0,0,0,1.49227-.276,5.94683,5.94683,0,0,0,1.21771-.39248l.78784-.52617a2.52155,2.52155,0,0,0,.41833-1.0308,13.429,13.429,0,0,0,.0791-3.51073,3.46548,3.46548,0,0,0-.15816-.89277l-.23578-.41979-.345-.11932-.45286.11932-.61963.2444-.84965.2444a4.82974,4.82974,0,0,1-1.04375.09632,2.55248,2.55248,0,0,1-2.42383-1.1228,6.75689,6.75689,0,0,1-.68579-3.3986V164.202h5.74484c.381,0,.6757-.2329.86834-.72458a7.49412,7.49412,0,0,0,.28035-2.44543,13.153,13.153,0,0,0-.07906-1.51815,3.78445,3.78445,0,0,0-.20129-.96754l-.37521-.50892-.51613-.15671h-5.72185v-6.1675l-.18256-.55781-.59664-.43129a3.53731,3.53731,0,0,0-1.12426-.243,15.87774,15.87774,0,0,0-1.79706-.069,15.57348,15.57348,0,0,0-1.78552.069m29.41694,6.91824a5.005,5.005,0,0,0-1.64613.82378,9.40324,9.40324,0,0,0-1.74529,1.60585,23.32475,23.32475,0,0,0-1.95663,2.5432v-3.43454l-.128-.54775-.49309-.38241a3.04418,3.04418,0,0,0-.96035-.23578,11.61845,11.61845,0,0,0-1.567-.07907,10.995,10.995,0,0,0-1.50811.07907,3.52949,3.52949,0,0,0-.99053.23578l-.51758.38241-.15667.54775V186.598l.18256.55781.60528.37091a4.468,4.468,0,0,0,1.13286.23434,17.00688,17.00688,0,0,0,1.79416.07907,17.36222,17.36222,0,0,0,1.8028-.07907,4.46151,4.46151,0,0,0,1.12426-.23434l.59519-.37091.18256-.55781V169.352a25.7945,25.7945,0,0,1,1.54834-2.29017,8.43092,8.43092,0,0,1,1.39452-1.488,4.72073,4.72073,0,0,1,1.28238-.83384,3.09222,3.09222,0,0,1,1.2249-.26309l.98623.11789.79788.21709.6656.25014.54346.0992.4744-.1452.29759-.55924a4.82862,4.82862,0,0,0,.1826-1.1228,17.7031,17.7031,0,0,0,.07906-1.83156c0-.7332-.01869-1.33126-.06327-1.76111-.01579-.42267-.03593-.75477-.069-.98191l-.12938-.50606-.24008-.35365-.52188-.28466-.80938-.25446-.91-.14521-.831-.03882a5.92994,5.92994,0,0,0-1.65328.22283m15.1227,24.45034a4.00782,4.00782,0,0,0,2.89828,1.0006,5.23562,5.23562,0,0,0,2.88249-.84246,12.19465,12.19465,0,0,0,2.6683-2.44544v-4.70972h-2.83651a13.69121,13.69121,0,0,0-3.055.276,5.13589,5.13589,0,0,0-2.06587.84965,3.42079,3.42079,0,0,0-1.16594,1.32983,4.57686,4.57686,0,0,0-.36516,1.82149,3.597,3.597,0,0,0,1.03941,2.72m.73466-24.39111a19.09353,19.09353,0,0,1,3.37558-.28321,19.77119,19.77119,0,0,1,5.30632.61675,8.78892,8.78892,0,0,1,3.59411,1.96814,7.47511,7.47511,0,0,1,2.06447,3.38565,17.1285,17.1285,0,0,1,.6757,4.92251v18.62614l-.32488.68719a1.85581,1.85581,0,0,1-.92156.35223,12.46864,12.46864,0,0,1-1.86317.10495,12.60168,12.60168,0,0,1-1.93649-.10495,1.708,1.708,0,0,1-.86834-.35223l-.24587-.68719v-2.201a11.75619,11.75619,0,0,1-3.69187,2.848,10.48644,10.48644,0,0,1-4.61773,1.03654,12.226,12.226,0,0,1-3.82989-.58512,8.50129,8.50129,0,0,1-3.03916-1.70505,7.26729,7.26729,0,0,1-1.98685-2.81922,10.03977,10.03977,0,0,1-.71018-3.90609,9.19294,9.19294,0,0,1,.89278-4.19649,7.44989,7.44989,0,0,1,2.69559-2.94717,13.125,13.125,0,0,1,4.42078-1.72231,30.202,30.202,0,0,1,6.17466-.55781h2.55041v-1.67341a9.25379,9.25379,0,0,0-.24731-2.27148,3.66472,3.66472,0,0,0-.81942-1.626,3.445,3.445,0,0,0-1.5239-.9776,8.35146,8.35146,0,0,0-2.39084-.30335,12.318,12.318,0,0,0-3.31951.4313,20.82574,20.82574,0,0,0-2.5734.95747c-.75331.35223-1.36429.68575-1.866.95891a2.622,2.622,0,0,1-1.21771.45143l-.5765-.23434-.42842-.61531a4.238,4.238,0,0,1-.23288-.99916,8.06935,8.06935,0,0,1-.09345-1.29245,5.55614,5.55614,0,0,1,.14377-1.51815,2.215,2.215,0,0,1,.565-1.00778,4.87875,4.87875,0,0,1,1.4448-.98911,14.53528,14.53528,0,0,1,2.40953-1.00635,19.28772,19.28772,0,0,1,3.01187-.76484m33.16049.949a17.00533,17.00533,0,0,0-4.44522,3.72063v-3.19014l-.13373-.54774-.4859-.38242a2.87863,2.87863,0,0,0-.96179-.23577,11.66052,11.66052,0,0,0-1.56558-.08051,11.37686,11.37686,0,0,0-1.534.08051,3.41344,3.41344,0,0,0-.96035.23577l-.55206.38242-.13083.54774v27.66031l.174.55781.59808.37092a4.78847,4.78847,0,0,0,1.13286.23433,21.03779,21.03779,0,0,0,3.61136,0,4.58066,4.58066,0,0,0,1.12856-.23433l.58654-.37092.19124-.55781V168.19653a16.69077,16.69077,0,0,1,2.996-3.16,4.907,4.907,0,0,1,2.86524-1.07823,3.98678,3.98678,0,0,1,1.95807.46149,3.62348,3.62348,0,0,1,1.38732,1.26225,6.66838,6.66838,0,0,1,.818,1.96813,14.84835,14.84835,0,0,1,.25591,3.15852v15.78966l.18111.55781.57795.37092a4.49226,4.49226,0,0,0,1.153.23433,17.52742,17.52742,0,0,0,1.81285.07763,17.18981,17.18981,0,0,0,1.78846-.07763,4.38758,4.38758,0,0,0,1.11991-.23433l.5808-.37092.19265-.55781V169.49759a22.60715,22.60715,0,0,0-.51323-5.12952,10.54713,10.54713,0,0,0-1.62455-3.758,8.16852,8.16852,0,0,0-2.98743-2.51588,10.44535,10.44535,0,0,0-9.21527.3134m26.42477-.5962a9.958,9.958,0,0,0-3.35259,1.83156,7.61548,7.61548,0,0,0-2.122,2.83791,8.89149,8.89149,0,0,0-.74616,3.65019,9.1777,9.1777,0,0,0,.53771,3.33821,7.87783,7.87783,0,0,0,1.4333,2.39943,9.05391,9.05391,0,0,0,2.05152,1.67918,19.29556,19.29556,0,0,0,2.31893,1.19611q1.21407.52834,2.33762.96754a17.08679,17.08679,0,0,1,2.02419.923,4.79071,4.79071,0,0,1,1.44054,1.16449,2.40885,2.40885,0,0,1,.54052,1.61448,3.33141,3.33141,0,0,1-.27746,1.4089,2.6748,2.6748,0,0,1-.86975,1.02791,4.33769,4.33769,0,0,1-1.35429.63832,7.1524,7.1524,0,0,1-1.78986.20414,9.54675,9.54675,0,0,1-2.85375-.4126,19.42727,19.42727,0,0,1-2.1924-.85109c-.62967-.31341-1.14435-.60668-1.57278-.86977a1.96729,1.96729,0,0,0-.9503-.36229l-.44422.07619-.2904.4543a3.79043,3.79043,0,0,0-.17106.85827,8.96054,8.96054,0,0,0-.06616,1.44052,9.18846,9.18846,0,0,0,.17826,2.06447,2.07534,2.07534,0,0,0,.48739,1.02935,4.71264,4.71264,0,0,0,1.04371.69295,11.57559,11.57559,0,0,0,1.75968.73608,16.82547,16.82547,0,0,0,2.40519.58368,17.20677,17.20677,0,0,0,2.825.2444,15.83029,15.83029,0,0,0,4.52717-.61675,9.88052,9.88052,0,0,0,3.61855-1.81718,7.9228,7.9228,0,0,0,2.3793-3.00611,9.56437,9.56437,0,0,0,.84246-4.16055,8.72635,8.72635,0,0,0-.55061-3.25914,7.50449,7.50449,0,0,0-1.50236-2.3678,8.77757,8.77757,0,0,0-2.05152-1.68636,19.92125,19.92125,0,0,0-2.375-1.19181c-.77779-.3436-1.557-.65556-2.34627-.95028a14.9907,14.9907,0,0,1-2.08456-.93016,4.9872,4.9872,0,0,1-1.46208-1.1458,2.31193,2.31193,0,0,1-.56215-1.603,2.81721,2.81721,0,0,1,.23578-1.176l.70878-.94741a3.33107,3.33107,0,0,1,1.19323-.62681,6.21589,6.21589,0,0,1,1.76113-.21709,8.75087,8.75087,0,0,1,2.52163.33354,15.94512,15.94512,0,0,1,1.94228.70588,10.96189,10.96189,0,0,1,1.383.70588,2.16666,2.16666,0,0,0,.83382.30048l.40973-.10639.28035-.41116.14233-.83384a11.63854,11.63854,0,0,0,.06037-1.36721,8.99453,8.99453,0,0,0-.06037-1.19467l-.10209-.79358-.16821-.56644-.39534-.46a4.06741,4.06741,0,0,0-.93446-.57074,11.72708,11.72708,0,0,0-1.58717-.60526,13.39771,13.39771,0,0,0-2.109-.45141,13.05089,13.05089,0,0,0-2.39654-.184,14.56954,14.56954,0,0,0-4.48255.63543m25.29078-12.86175a6.80788,6.80788,0,0,0-2.87964,2.11621,9.1328,9.1328,0,0,0-1.67053,3.53086,20.41387,20.41387,0,0,0-.51758,4.95269v2.33043h-3.27208l-.52183.15814-.3652.50748a4.64528,4.64528,0,0,0-.1912.969,12.32211,12.32211,0,0,0-.08911,1.51815,7.62421,7.62421,0,0,0,.28031,2.44543c.20129.49024.50893.72458.85685.72458h3.30227v22.39564l.15816.55781.58224.37092a4.54714,4.54714,0,0,0,1.13286.23433,21.05462,21.05462,0,0,0,3.6128,0,4.18539,4.18539,0,0,0,1.12711-.23433l.5808-.37092.20849-.55781V164.2026h4.79454c.37521,0,.64981-.23434.85251-.72458a7.02851,7.02851,0,0,0,.29619-2.44543,13.21931,13.21931,0,0,0-.07476-1.51815,4.49335,4.49335,0,0,0-.22143-.969l-.3781-.50748-.4744-.15814h-4.79454v-2.5547a15.09427,15.09427,0,0,1,.138-2.24272,4.588,4.588,0,0,1,.59089-1.49659,2.40114,2.40114,0,0,1,.9474-.8324,3.44988,3.44988,0,0,1,1.38732-.26309,5.1432,5.1432,0,0,1,1.15014.10638l.89278.22428.60523.24583.46291.11789.33353-.11789.25736-.41117a2.15274,2.15274,0,0,0,.161-.81946,11.90151,11.90151,0,0,0,.07906-1.43908,13.64935,13.64935,0,0,0-.07906-1.52821,4.28413,4.28413,0,0,0-.17685-.98767l-.33783-.57937a2.42942,2.42942,0,0,0-.78928-.43848,9.96123,9.96123,0,0,0-1.63745-.43129,11.10806,11.10806,0,0,0-2.168-.197,10.91646,10.91646,0,0,0-4.15188.7145M588.258,181.438a6.13817,6.13817,0,0,0,3.0593.69725,6.31559,6.31559,0,0,0,2.92561-.63687,5.217,5.217,0,0,0,2.0127-1.84882,8.97026,8.97026,0,0,0,1.18322-2.917,18.48434,18.48434,0,0,0,.3824-3.955,20.57656,20.57656,0,0,0-.31484-3.73788,8.546,8.546,0,0,0-1.0495-3.00612,5.24906,5.24906,0,0,0-1.95663-1.99545,6.16844,6.16844,0,0,0-3.07944-.70444,6.38443,6.38443,0,0,0-2.89833.63544,5.49321,5.49321,0,0,0-2.02419,1.86893,9.67761,9.67761,0,0,0-1.19467,2.9443,17.80519,17.80519,0,0,0-.40684,3.9262,19.13088,19.13088,0,0,0,.34072,3.75082,9.36674,9.36674,0,0,0,1.04226,2.99318,5.24693,5.24693,0,0,0,1.97821,1.9854m-2.88389-23.126a16.095,16.095,0,0,1,6.32849-1.13573,17.20306,17.20306,0,0,1,6.11864.98766,10.81161,10.81161,0,0,1,4.29425,2.97736,12.397,12.397,0,0,1,2.51588,4.79311,23.41194,23.41194,0,0,1,.82377,6.54991,21.34184,21.34184,0,0,1-.89568,6.43922,13.73965,13.73965,0,0,1-2.6711,5.0332,11.80244,11.80244,0,0,1-4.51568,3.2577,16.11936,16.11936,0,0,1-6.33138,1.16305,16.92066,16.92066,0,0,1-6.10135-1.03511,10.81718,10.81718,0,0,1-4.30579-2.97593,12.61437,12.61437,0,0,1-2.53023-4.80461,23.5055,23.5055,0,0,1-.83526-6.52117,21.48454,21.48454,0,0,1,.91577-6.45646,13.8006,13.8006,0,0,1,2.69124-5.03463,11.97842,11.97842,0,0,1,4.49843-3.23759m37.62058-.91262a4.96616,4.96616,0,0,0-1.65618.82378,9.79739,9.79739,0,0,0-1.73239,1.60585,24.62689,24.62689,0,0,0-1.96382,2.5432v-3.43454l-.12938-.54775-.483-.38241a3.08472,3.08472,0,0,0-.96465-.23578,11.48377,11.48377,0,0,0-1.55268-.07907,11.06268,11.06268,0,0,0-1.521.07907,3.43935,3.43935,0,0,0-.99628.23578l-.51758.38241-.15812.54775V186.598l.1926.55781.57509.37091a4.86393,4.86393,0,0,0,1.1501.23434,20.42808,20.42808,0,0,0,3.59126,0,4.416,4.416,0,0,0,1.12851-.23434l.61677-.37091.18115-.55781V169.352c.55346-.91147,1.06095-1.66479,1.5325-2.29017a8.75323,8.75323,0,0,1,1.38877-1.488,5.28614,5.28614,0,0,1,1.28383-.83384,3.15107,3.15107,0,0,1,1.25074-.26309l.96179.11789.81227.21709.64981.25014.53767.0992.49459-.1452.299-.55924a5.36417,5.36417,0,0,0,.17111-1.1228c.046-.47155.046-1.0768.046-1.83156V159.7413c-.03018-.42267-.046-.75477-.082-.98191l-.13513-.50606-.24152-.35365-.53192-.28466-.808-.25446-.91577-.14521-.83237-.03882a5.86419,5.86419,0,0,0-1.64179.22283m39.98571.05923a9.707,9.707,0,0,0-2.22838.89278,13.17533,13.17533,0,0,0-2.22114,1.57422,19.03937,19.03937,0,0,0-2.31748,2.30167,10.32046,10.32046,0,0,0-1.2321-2.08746,7.81758,7.81758,0,0,0-1.75823-1.59435,7.91015,7.91015,0,0,0-2.32178-1.02792,11.24743,11.24743,0,0,0-2.91267-.34216,9.14543,9.14543,0,0,0-4.53147,1.23207,17.53237,17.53237,0,0,0-4.33738,3.72206v-3.19156l-.15957-.54775-.48739-.38241a2.82917,2.82917,0,0,0-.946-.23578,11.69791,11.69791,0,0,0-1.567-.08051,11.13359,11.13359,0,0,0-1.5282.08051,3.45282,3.45282,0,0,0-.98048.23578l-.542.38241-.13223.54775v27.66031l.17826.55781.60953.37091a4.27715,4.27715,0,0,0,1.12281.23434,17.30824,17.30824,0,0,0,1.81434.07763,16.6097,16.6097,0,0,0,1.77692-.07763,4.55548,4.55548,0,0,0,1.14005-.23434l.611-.37091.16821-.55781V168.19637a17.47543,17.47543,0,0,1,2.91842-3.15994,4.48029,4.48029,0,0,1,2.72-1.0768,3.61719,3.61719,0,0,1,1.84738.46,3.28845,3.28845,0,0,1,1.291,1.26225,6.30065,6.30065,0,0,1,.75476,1.96814,11.63713,11.63713,0,0,1,.25157,2.53313v16.415l.16676.55781.60958.37091a4.90363,4.90363,0,0,0,1.13141.23434,17.66518,17.66518,0,0,0,1.82584.07763,16.58187,16.58187,0,0,0,1.75533-.07763,4.23742,4.23742,0,0,0,1.12281-.23434l.61677-.37091.16246-.55781V168.19637a18.70294,18.70294,0,0,1,2.95146-3.15994,4.38119,4.38119,0,0,1,2.69129-1.0768,3.66081,3.66081,0,0,1,1.87182.46,3.49494,3.49494,0,0,1,1.28523,1.26225,5.88242,5.88242,0,0,1,.76629,1.96814,11.92883,11.92883,0,0,1,.24438,2.53313v16.415l.174.55781.59089.37091a4.61675,4.61675,0,0,0,1.12281.23434,17.9557,17.9557,0,0,0,1.84593.07763,16.86782,16.86782,0,0,0,1.79131-.07763,4.1411,4.1411,0,0,0,1.10267-.23434l.59949-.37091.18115-.55781V168.88214a20.43627,20.43627,0,0,0-.47875-4.51421,10.93816,10.93816,0,0,0-1.55264-3.758,8.286,8.286,0,0,0-2.917-2.51588,9.35373,9.35373,0,0,0-4.41929-.91866,8.45928,8.45928,0,0,0-2.24272.28321m25.56608,24.39111a3.9916,3.9916,0,0,0,2.90833,1.0006,5.27944,5.27944,0,0,0,2.8638-.84246,12.15542,12.15542,0,0,0,2.65391-2.44544v-4.70972h-2.82067a13.78554,13.78554,0,0,0-3.07654.276,5.19683,5.19683,0,0,0-2.06017.84965,3.52846,3.52846,0,0,0-1.16159,1.32983,4.55308,4.55308,0,0,0-.34072,1.82149,3.56172,3.56172,0,0,0,1.03366,2.72m.72027-24.39111a19.265,19.265,0,0,1,3.38563-.28321,19.52474,19.52474,0,0,1,5.28048.61675,8.90789,8.90789,0,0,1,3.61855,1.96814,7.62669,7.62669,0,0,1,2.06447,3.38565,16.95441,16.95441,0,0,1,.64117,4.92251v18.62614l-.2904.68719a1.8971,1.8971,0,0,1-.92727.35223,12.63825,12.63825,0,0,1-1.88906.10495,13.00131,13.00131,0,0,1-1.93078-.10495,1.51264,1.51264,0,0,1-.82662-.35223l-.24152-.68719v-2.201a12.21783,12.21783,0,0,1-3.712,2.848,10.54883,10.54883,0,0,1-4.612,1.03654,12.23488,12.23488,0,0,1-3.83853-.58512,8.51456,8.51456,0,0,1-3.04205-1.70505,7.50505,7.50505,0,0,1-2.00405-2.81922,9.99247,9.99247,0,0,1-.69583-3.90609,9.139,9.139,0,0,1,.91147-4.19649,7.66045,7.66045,0,0,1,2.6726-2.94717,13.03011,13.03011,0,0,1,4.43943-1.72231,29.87836,29.87836,0,0,1,6.14018-.55781h2.5619v-1.67341a8.72089,8.72089,0,0,0-.25017-2.27148,3.55522,3.55522,0,0,0-.81227-1.626,3.38884,3.38884,0,0,0-1.5239-.9776,8.305,8.305,0,0,0-2.38935-.30335,11.98342,11.98342,0,0,0-3.30372.4313,18.94471,18.94471,0,0,0-2.5662.95747c-.77345.35223-1.40886.68575-1.88331.95891a2.65631,2.65631,0,0,1-1.23635.45143l-.5679-.23434-.40829-.61531a3.60977,3.60977,0,0,1-.24152-.99916,6.694,6.694,0,0,1-.09345-1.29245,6.62416,6.62416,0,0,1,.128-1.51815,2.43322,2.43322,0,0,1,.57215-1.00778,5.28786,5.28786,0,0,1,1.45348-.98911,14.7107,14.7107,0,0,1,2.41094-1.00635,19.54625,19.54625,0,0,1,3.00612-.76484m52.57687,0a10.03,10.03,0,0,0-2.20543.89278,14.17278,14.17278,0,0,0-2.24413,1.57422,22.57474,22.57474,0,0,0-2.31748,2.30167,8.51061,8.51061,0,0,0-1.21626-2.08746,7.64407,7.64407,0,0,0-1.75968-1.59435,7.97887,7.97887,0,0,0-2.33038-1.02792,11.03546,11.03546,0,0,0-2.92417-.34216,9.13056,9.13056,0,0,0-4.50414,1.23207,18.12856,18.12856,0,0,0-4.36041,3.72206v-3.19156l-.13513-.54775-.48454-.38241a2.849,2.849,0,0,0-.9589-.23578,11.5212,11.5212,0,0,0-1.56558-.08051,10.823,10.823,0,0,0-1.50662.08051,3.199,3.199,0,0,0-.982.23578l-.552.38241-.13223.54775v27.66031l.16672.55781.61247.37091a4.54371,4.54371,0,0,0,1.12132.23434,17.4096,17.4096,0,0,0,1.82.07763,17.12225,17.12225,0,0,0,1.78705-.07763,4.67939,4.67939,0,0,0,1.1343-.23434l.611-.37091.15952-.55781V168.19637a17.74275,17.74275,0,0,1,2.92566-3.15994,4.41271,4.41271,0,0,1,2.69989-1.0768,3.63362,3.63362,0,0,1,1.86752.46,3.43984,3.43984,0,0,1,1.301,1.26225,6.55228,6.55228,0,0,1,.749,1.96814,11.20556,11.20556,0,0,1,.25166,2.53313v16.415l.17391.55781.61528.37091a4.543,4.543,0,0,0,1.12281.23434,17.182,17.182,0,0,0,1.78986.07763,16.74841,16.74841,0,0,0,1.78275-.07763,4.543,4.543,0,0,0,1.12281-.23434l.61818-.37091.161-.55781V168.19637a19.06083,19.06083,0,0,1,2.95286-3.15994,4.37489,4.37489,0,0,1,2.69129-1.0768,3.55563,3.55563,0,0,1,3.15714,1.7223,6.56517,6.56517,0,0,1,.7734,1.96814,12.43088,12.43088,0,0,1,.23867,2.53313v16.415l.17251.55781.57071.37091a4.79381,4.79381,0,0,0,1.153.23434,17.54953,17.54953,0,0,0,1.84312.07763,16.77179,16.77179,0,0,0,1.76828-.07763,4.03714,4.03714,0,0,0,1.10982-.23434l.60528-.37091.1783-.55781V168.88214a20.80565,20.80565,0,0,0-.45865-4.51421,10.81236,10.81236,0,0,0-1.58568-3.758,8.00586,8.00586,0,0,0-2.90548-2.51588,9.32377,9.32377,0,0,0-4.41218-.91866,8.73469,8.73469,0,0,0-2.26712.28321"/></g></g></svg>