<svg xmlns="http://www.w3.org/2000/svg" viewBox="0 0 793.44882 97.57955"><defs><style>.cls-1{fill:#1b2451;fill-rule:evenodd;}</style></defs><title>logo_jangadeiro</title><g id="Layer_2" data-name="Layer 2"><g id="Camada_1" data-name="Camada 1"><path class="cls-1" d="M0,71.17888A7.08961,7.08961,0,0,1,3.29292,65.672a43.44763,43.44763,0,0,0,9.1437,3.66993,30.19266,30.19266,0,0,0,7.32584,1.01963,16.43574,16.43574,0,0,0,4.941-.66447,12.30783,12.30783,0,0,0,3.5787-1.73526,8.16883,8.16883,0,0,0,2.26968-2.39307,6.12226,6.12226,0,0,0,.90839-2.653,6.98605,6.98605,0,0,0-2.09976-5.14841,16.2851,16.2851,0,0,0-6.19258-3.51493L16.80653,52.0073Q9.53108,49.462,5.89791,46.0397a10.851,10.851,0,0,1-3.6356-8.20443A11.477,11.477,0,0,1,3.733,32.07355a13.60339,13.60339,0,0,1,4.0746-4.43611,20.28611,20.28611,0,0,1,6.1113-2.85074,27.3963,27.3963,0,0,1,7.69771-1.02323,44.66009,44.66009,0,0,1,16.74917,3.36381,7.62132,7.62132,0,0,1-2.60225,5.9149,44.75545,44.75545,0,0,0-7.86748-2.4474,33.34876,33.34876,0,0,0-6.50668-.71563q-5.20554,0-7.8664,2.1431a6.20943,6.20943,0,0,0-2.659,4.895,5.69908,5.69908,0,0,0,2.0379,4.64182,21.47608,21.47608,0,0,0,6.44812,3.20745l6.67929,2.34581Q40.06042,52.10947,40.0625,61.89881a11.96512,11.96512,0,0,1-5.77133,10.60147q-5.771,3.77518-15.61667,3.77285A37.58581,37.58581,0,0,1,0,71.17888ZM768.0994,33.03961q-9.96364,0-9.96123,16.71862,0,16.62206,9.96123,16.619,10.07289,0,10.07108-16.619,0-16.72229-10.07108-16.71862Zm17.3134-4.28441q8.04024,7.23819,8.036,21.003a33.85553,33.85553,0,0,1-1.69793,11.063,23.14622,23.14622,0,0,1-4.92252,8.41168,21.53445,21.53445,0,0,1-7.97644,5.35353,28.9599,28.9599,0,0,1-10.75253,1.885,28.4895,28.4895,0,0,1-10.69536-1.885,21.65309,21.65309,0,0,1-7.92466-5.35353,23.225,23.225,0,0,1-4.92131-8.41168,33.96659,33.96659,0,0,1-1.69944-11.063q0-12.33489,6.56657-19.52437,6.56341-7.18987,18.6742-7.18964,10.63411,0,17.3134,5.711Zm-81.82507,1.834a11.81066,11.81066,0,0,1,1.868-3.87188A11.839,11.839,0,0,1,708.3402,23.658q9.17078,1.017,12.56306,9.17638,4.30228-9.07647,14.37444-9.07735a29.98539,29.98539,0,0,1,6.78929.71517,21.51914,21.51914,0,0,1-3.61979,12.4398,24.668,24.668,0,0,0-5.21027-.71218q-6.56434,0-10.63365,6.31932V75.04416a49.03486,49.03486,0,0,1-7.304.5147,53.644,53.644,0,0,1-7.52314-.5147V41.0916q0-7.2386-4.18839-10.50241ZM678.91526,4.79294a16.83664,16.83664,0,0,1,7.469-1.32711,21.18187,21.18187,0,0,1,4.586.4059,7.61791,7.61791,0,0,1,2.54644.97192,3.00192,3.00192,0,0,1,1.01978,2.08922,21.57747,21.57747,0,0,1,.227,3.16275q-.34046,5.19672-1.41831,5.70963-1.07816.51176-7.07224,1.01963-6.33858-.19977-7.41508-1.52983-1.07728-1.32583-1.074-5.19943a12.00952,12.00952,0,0,1,1.13145-5.30267ZM696.00742,34.7684V75.04552a29.3757,29.3757,0,0,1-3.56471.409c-1.24676.06651-2.51244.10384-3.795.10384-1.28226,0-2.54767-.03733-3.78986-.10384a33.04066,33.04066,0,0,1-3.67912-.409v-35.481q0-5.60416-5.09438-5.61028h-1.46917a16.07067,16.07067,0,0,1-.67994-4.68956,17.51323,17.51323,0,0,1,.67994-4.68969q2.60289-.20814,4.81-.35667c1.46948-.1052,2.73485-.15291,3.79017-.15291h1.92216q5.0938,0,7.98365,2.85391a10.554,10.554,0,0,1,2.88628,7.84912ZM648.1301,32.62921q-8.82764,0-9.50251,12.03208h18.7859V43.4388A12.601,12.601,0,0,0,655.15,35.58349q-2.26922-2.95029-7.01987-2.95427Zm21.84673,21.41432H638.73868q.33861,5.60375,2.88536,8.81788,2.54916,3.21464,8.88727,3.21241,6.55934,0,15.04988-3.469a14.09892,14.09892,0,0,1,4.1887,8.05454Q660.692,76.47713,648.019,76.47255q-11.99628,0-18.16492-6.6751-6.16881-6.68214-6.16746-19.83333a36.06124,36.06124,0,0,1,1.58657-11.06636,23.76591,23.76591,0,0,1,4.63837-8.45939,20.80933,20.80933,0,0,1,7.469-5.456A24.82941,24.82941,0,0,1,647.455,23.04469a30.24478,30.24478,0,0,1,10.184,1.57766,20.96961,20.96961,0,0,1,7.469,4.48863,18.58457,18.58457,0,0,1,4.5848,6.88382,23.93866,23.93866,0,0,1,1.52665,8.66649,33.229,33.229,0,0,1-.33679,4.84364q-.34088,2.295-.90571,4.5386ZM593.695,65.563q5.88434,0,10.18516-5.09725V36.604a27.14713,27.14713,0,0,0-4.75306-2.19084,13.1643,13.1643,0,0,0-4.18537-.76649,8.056,8.056,0,0,0-7.07406,4.18282q-2.66248,4.17837-2.659,12.33941,0,7.94949,2.37485,11.67029,2.37579,3.7289,6.11148,3.72378Zm-1.35541-42.11095a28.17332,28.17332,0,0,1,11.54056,2.7519V.71575L604.67266,0h5.66025q4.40843,0,6.22494,1.83546,1.80555,1.83379,1.81111,6.422V60.46577q0,6.22027,3.16559,8.46241a11.881,11.881,0,0,1-1.86468,3.87521,11.07722,11.07722,0,0,1-3.00094,3.05633q-7.3558-.607-10.64117-6.01529A22.096,22.096,0,0,1,589.847,76.47329a18.468,18.468,0,0,1-8.54594-1.88681,17.3187,17.3187,0,0,1-6.16653-5.30283,23.96552,23.96552,0,0,1-3.739-8.30815,44.72174,44.72174,0,0,1-1.24281-11.0123,32.80584,32.80584,0,0,1,1.75542-11.114A25.364,25.364,0,0,1,576.6627,30.541a20.49347,20.49347,0,0,1,15.67687-7.089ZM537.67145,66.37767a15.67593,15.67593,0,0,0,10.63966-4.4841V53.01984q-1.81184-.09908-3.50722-.20062c-1.13083-.06651-2.22647-.10369-3.28327-.10369q-4.98048,0-7.58213,1.6844-2.60289,1.68451-2.60484,5.5564a6.37334,6.37334,0,0,0,1.69972,4.74042,6.28525,6.28525,0,0,0,4.63809,1.68092Zm28.52164,2.54961a13.57989,13.57989,0,0,1-2.03624,3.87518,12.87731,12.87731,0,0,1-2.94376,3.05768q-7.35622-.81153-10.75074-5.80955-7.35941,6.42208-16.07389,6.42134a21.6852,21.6852,0,0,1-7.7507-1.27323,16.06347,16.06347,0,0,1-5.54528-3.41315,13.77208,13.77208,0,0,1-3.28327-4.895,15.594,15.594,0,0,1-1.07576-5.71221A16.28494,16.28494,0,0,1,518.376,53.6843a14.70086,14.70086,0,0,1,4.64167-5.35356,22.27631,22.27631,0,0,1,7.01627-3.26176,32.5082,32.5082,0,0,1,8.769-1.12029q6.1137,0,9.50821.30264V41.49811q0-7.74319-8.37315-7.74589-5.66357,0-17.20743,3.56622-3.16411-3.15889-3.84494-9.48068A68.75714,68.75714,0,0,1,543.673,23.2471q8.48722,0,13.91843,4.28441,5.43241,4.27907,5.42939,12.95012V61.38368q0,5.40508,3.17222,7.5436Zm-70.96263-8.46152V37.31964q-4.87164-4.079-9.39142-4.08061a7.74912,7.74912,0,0,0-7.01929,4.28468q-2.48911,4.27838-2.48954,12.23452,0,7.95378,2.321,11.6763,2.318,3.72441,6.054,3.72064a14.19965,14.19965,0,0,0,10.52528-4.68941ZM498.514,28.03958q3.16319-3.76593,9.39444-4.38208a11.74278,11.74278,0,0,1,3.05633,3.05935,9.91851,9.91851,0,0,1,1.80929,3.77331q-3.17308,2.44329-3.16769,8.46106V67.40032a56.75009,56.75009,0,0,1-1.58987,14.6819,22.08252,22.08252,0,0,1-4.75306,9.28022,16.82183,16.82183,0,0,1-7.97555,4.84034,41.13953,41.13953,0,0,1-11.26242,1.37676,57.57209,57.57209,0,0,1-20.48229-3.46238,15.01149,15.01149,0,0,1,1.07514-5.30446,12.78124,12.78124,0,0,1,2.65783-4.48848,37.27432,37.27432,0,0,0,15.27954,3.16288q12.67083,0,12.67472-12.13413v-3.9801A23.52529,23.52529,0,0,1,481.309,75.96174q-9.96405,0-14.9924-7.03325-5.04368-7.037-5.03721-19.37312A32.76928,32.76928,0,0,1,463.033,38.44147a25.405,25.405,0,0,1,4.75306-8.31132,20.90688,20.90688,0,0,1,6.95906-5.25028,19.96692,19.96692,0,0,1,8.48935-1.83565q9.27962,0,15.27954,4.99535ZM456.41227,40.99167V63.21855q0,6.52638,2.37488,9.686a13.64745,13.64745,0,0,1-8.716,2.85571q-4.86036,0-6.67494-1.9884-1.81049-1.98859-1.80809-6.269V43.7407q0-4.58454-1.24522-6.4218-1.24932-1.8331-4.6417-1.834-5.99858,0-11.20525,4.892v34.6677a29.63461,29.63461,0,0,1-3.56471.41132c-1.24374.06651-2.51062.1019-3.78986.1019q-1.92927,0-3.79347-.1019a29.62712,29.62712,0,0,1-3.56474-.41132v-50.47l.67966-.71532h5.65846q6.34126,0,7.922,6.1202,8.2556-6.42208,16.411-6.42451,8.14815,0,12.05347,4.74042,3.90948,4.73937,3.90452,12.69624Zm-82.61788,25.386a15.681,15.681,0,0,0,10.63833-4.4841V53.01984q-1.80985-.09908-3.5104-.20062c-1.131-.06651-2.225-.10369-3.28358-.10369q-4.978,0-7.58031,1.6844-2.60289,1.68451-2.60515,5.5564a6.37568,6.37568,0,0,0,1.69975,4.74042,6.29832,6.29832,0,0,0,4.64136,1.68092Zm28.522,2.54961a13.66646,13.66646,0,0,1-2.03658,3.87518,12.8185,12.8185,0,0,1-2.94675,3.05768q-7.354-.81153-10.75105-5.80955-7.35622,6.42208-16.07071,6.42134a21.70994,21.70994,0,0,1-7.75372-1.27323,16.09411,16.09411,0,0,1-5.54543-3.41315,13.73385,13.73385,0,0,1-3.28-4.895,15.50472,15.50472,0,0,1-1.07576-5.71221,16.28445,16.28445,0,0,1,1.6394-7.49407,14.72275,14.72275,0,0,1,4.643-5.35356,22.303,22.303,0,0,1,7.01491-3.26176,32.52839,32.52839,0,0,1,8.77017-1.12029q6.11393,0,9.50883.30264V41.49811q0-7.74319-8.37784-7.74589-5.65927,0-17.19856,3.56622-3.17313-3.15889-3.85021-9.48068a68.768,68.768,0,0,1,24.78522-4.59065q8.487,0,13.9216,4.28441,5.43014,4.27907,5.43392,12.95012V61.38368q0,5.40508,3.16951,7.5436ZM328.41087,4.79294a16.837,16.837,0,0,1,7.47077-1.32711,20.36731,20.36731,0,0,1,4.527.4059,6.84687,6.84687,0,0,1,2.48923,1.02009,3.357,3.357,0,0,1,1.07261,2.09492,16.538,16.538,0,0,1,.28551,3.10887q-.56756,5.40033-1.92352,5.91506a30.02765,30.02765,0,0,1-6.56522.8142q-6.11194-.19977-7.30072-1.47851-1.18921-1.27729-1.18832-5.25075a12.03468,12.03468,0,0,1,1.13265-5.30267ZM345.61423,34.7684V72.598a56.19374,56.19374,0,0,1-.73668,9.73876,17.3496,17.3496,0,0,1-2.83074,7.08429,15.922,15.922,0,0,1-5.827,4.89512,37.69806,37.69806,0,0,1-9.73441,3.15958,10.57216,10.57216,0,0,1-4.074-8.15672,25.04563,25.04563,0,0,0,4.1315-2.08743,9.49571,9.49571,0,0,0,2.66082-2.54764,10.0797,10.0797,0,0,0,1.4725-3.36563,19.94175,19.94175,0,0,0,.45241-4.541V39.56448q0-5.60416-5.20864-5.61028h-2.49074a16.08894,16.08894,0,0,1-.67679-4.68956,17.52817,17.52817,0,0,1,.67679-4.68969q2.944-.20814,5.32148-.35667c1.5837-.1052,3.016-.15291,4.30037-.15291h2.03654a10.36406,10.36406,0,0,1,7.69771,2.85391,10.6786,10.6786,0,0,1,2.82892,7.84912ZM303.986,61.69415V51.49605q-2.70469-.4007-5.63349-.56062-2.92952-.153-6.19575-.15291-6.42457,0-9.8026,2.70372a8.63385,8.63385,0,0,0-3.379,7.0846,9.45234,9.45234,0,0,0,2.36553,6.78131,8.4178,8.4178,0,0,0,6.42483,2.49573,19.50744,19.50744,0,0,0,8.50439-2.08743,23.45552,23.45552,0,0,0,7.71608-6.0663Zm11.31676,10.19779a6.88127,6.88127,0,0,1-3.84587,3.87053,10.03567,10.03567,0,0,1-7.01805-7.13709q-8.71955,7.65128-17.09065,7.64865a20.74006,20.74006,0,0,1-7.46911-1.2225,15.32012,15.32012,0,0,1-5.26279-3.263,13.61211,13.61211,0,0,1-3.16893-4.68941A14.80472,14.80472,0,0,1,270.372,61.492a16.091,16.091,0,0,1,1.52816-7.19143,14.45045,14.45045,0,0,1,4.18553-5.1481,18.42822,18.42822,0,0,1,6.28409-3.05815,28.65329,28.65329,0,0,1,7.80776-1.01947,84.35123,84.35123,0,0,1,13.80843.91443V40.86555q0-10.47063-10.18682-10.47877-7.80616,0-18.44726,4.2862a7.25445,7.25445,0,0,1-2.94182-5.91474q12.22315-4.79041,22.18146-4.79325,17.54085,0,17.542,17.03076v21.003a16.91046,16.91046,0,0,0,.73714,6.06916,9.12807,9.12807,0,0,0,2.43209,3.824ZM222.72814,42.42487q0-6.1205-1.75514-8.77288-1.75945-2.6469-5.71714-2.64984a17.28243,17.28243,0,0,0-7.97931,2.14313,21.75965,21.75965,0,0,0-7.07042,5.81257V75.05079a29.02371,29.02371,0,0,1-8.37737,0V25.39337l.67981-.71276h3.17056c1.81107,0,3.01462.42532,3.62175,1.27638a7.06654,7.06654,0,0,1,.90525,4.0251v1.53119q7.1271-7.347,16.52235-7.3424,9.3934,0,12.78744,7.64683,9.28257-7.64587,18.336-7.64683,7.13162,0,10.63967,4.33255,3.507,4.33686,3.50737,11.3723V65.36406q0,5.813,1.35812,8.66664a7.96054,7.96054,0,0,1-5.3167,1.63321q-4.30635,0-4.30456-4.99535V42.32328q0-6.11643-1.75239-8.72261-1.75676-2.59295-5.717-2.59852a17.66873,17.66873,0,0,0-7.92195,2.04108,23.28351,23.28351,0,0,0-7.2417,5.70919V75.05079a29.005,29.005,0,0,1-8.37466,0V42.42487Zm-71.755,4.0746h27.05065V45.17495q0-7.03614-3.26959-11.318-3.2704-4.28088-9.8053-4.28142a11.87606,11.87606,0,0,0-9.97387,4.58766q-3.54831,4.58879-4.00189,12.33624ZM186.05832,52.312H150.97313q.56751,17.33659,14.59988,17.3334a37.34688,37.34688,0,0,0,16.41071-4.28169,8.452,8.452,0,0,1,3.05482,5.1993,38.89,38.89,0,0,1-20.82377,5.711,23.26733,23.26733,0,0,1-10.0729-1.99019A18.22653,18.22653,0,0,1,147.294,68.7831a23.3883,23.3883,0,0,1-3.90424-8.31431,41.69513,41.69513,0,0,1-1.244-10.49911,34.866,34.866,0,0,1,1.5265-10.60714,23.75291,23.75291,0,0,1,4.47313-8.26059,20.73837,20.73837,0,0,1,7.0736-5.40171,21.99355,21.99355,0,0,1,9.44878-1.93767,24.53785,24.53785,0,0,1,9.33711,1.68452,19.0271,19.0271,0,0,1,11.148,11.51874,24.936,24.936,0,0,1,1.46948,8.61877,34.24815,34.24815,0,0,1-.16857,3.51656c-.11136,1.1218-.244,2.19442-.39551,3.21087Zm-46.62667-27.327a12.59316,12.59316,0,0,1,0,5.813l-14.37293-.10384V64.95591q0,4.28379,4.41263,4.2832h8.6004a8.2886,8.2886,0,0,1,.794,3.46749,5.8041,5.8041,0,0,1-.22981,2.14131,92.74636,92.74636,0,0,1-10.74969.61373q-10.977,0-10.97513-8.469V30.69423l-8.03617.10384a12.55,12.55,0,0,1,0-5.813l8.03617.1052V14.38092a6.51464,6.51464,0,0,1,.90389-3.923q.90141-1.1728,3.50753-1.17436h3.05454l.6816.61191V25.1905l14.37293-.20543ZM64.50791,71.17888A7.09053,7.09053,0,0,1,67.805,65.672a43.43167,43.43167,0,0,0,9.141,3.66993,30.21934,30.21934,0,0,0,7.327,1.01963,16.41062,16.41062,0,0,0,4.93953-.66447,12.33944,12.33944,0,0,0,3.58021-1.73526,8.17046,8.17046,0,0,0,2.26968-2.39307,6.19769,6.19769,0,0,0,.91021-2.653,6.98975,6.98975,0,0,0-2.10278-5.14841,16.26406,16.26406,0,0,0-6.19285-3.51493L81.317,52.0073Q74.04244,49.462,70.40851,46.0397a10.857,10.857,0,0,1-3.63575-8.20443,11.46169,11.46169,0,0,1,1.47262-5.76171A13.52539,13.52539,0,0,1,72.32,27.63744a20.2564,20.2564,0,0,1,6.10948-2.85074,27.36135,27.36135,0,0,1,7.69624-1.02323,44.66591,44.66591,0,0,1,16.74917,3.36381,7.6172,7.6172,0,0,1-2.6038,5.9149,44.68891,44.68891,0,0,0-7.86462-2.4474,33.37572,33.37572,0,0,0-6.50622-.71563q-5.206,0-7.86807,2.1431a6.2063,6.2063,0,0,0-2.65783,4.895,5.69864,5.69864,0,0,0,2.0367,4.64182,21.46185,21.46185,0,0,0,6.45068,3.20745l6.67855,2.34581q14.02847,4.99717,14.034,14.78651a11.9647,11.9647,0,0,1-5.774,10.60147q-5.77079,3.77518-15.6183,3.77285a37.60622,37.60622,0,0,1-18.674-5.09426ZM48.55124,7.54826a10.81981,10.81981,0,0,1,5.20531-1.01346c2.18782,0,3.69579.30086,4.52716.91443q1.24478.91792,1.24389,3.87355,0,2.958-1.35827,3.92622a7.75616,7.75616,0,0,1-4.41278.97191,10.35666,10.35666,0,0,1-4.35708-.7695q-1.63915-.76484-1.64239-4.12863a7.77006,7.77006,0,0,1,.79416-3.77451ZM59.642,32.023V75.05153a24.47222,24.47222,0,0,1-4.189.30446,24.41472,24.41472,0,0,1-4.18537-.30446V35.69562q0-2.85708-1.01843-3.87792a5.07793,5.07793,0,0,0-3.62176-1.02006H45.60914a7.26269,7.26269,0,0,1-.45284-2.74872,8.12964,8.12964,0,0,1,.45284-2.85841q2.1437-.20361,3.5092-.35384a19.54509,19.54509,0,0,1,2.14926-.15605h.90525a7.41,7.41,0,0,1,5.48841,1.98852A7.25562,7.25562,0,0,1,59.642,32.023Z"/></g></g></svg>