<?xml version="1.0" encoding="UTF-8"?>
<svg width="469px" height="676px" viewBox="0 0 469 676" version="1.1" xmlns="http://www.w3.org/2000/svg" xmlns:xlink="http://www.w3.org/1999/xlink">
    <!-- Generator: Sketch 44.1 (41455) - http://www.bohemiancoding.com/sketch -->
    <title>il_presenters</title>
    <desc>Created with Sketch.</desc>
    <defs></defs>
    <g id="Desktop" stroke="none" stroke-width="1" fill="none" fill-rule="evenodd">
        <g id="Apresentadores" transform="translate(-177.000000, -348.000000)">
            <g id="il_presenters" transform="translate(177.000000, 348.000000)">
                <path d="M377.29312,587.829001 C376.215165,616.54153 383.771479,649.174926 391.169583,672.754365 C391.887433,675.03849 392.412833,677.402802 392.813082,679.765934 C397.808514,709.241411 387.474073,705.100034 417.606058,709.530317 C422.729003,710.28501 426.484727,713.066761 430.281775,715.91101 C436.316201,720.429735 442.950408,719.794142 449.633024,718.583095 C452.772437,718.013538 454.521015,715.742384 454.532822,712.426452 C454.543448,709.926531 453.948388,707.860559 451.319027,706.655409 C424.980548,694.579142 421.790367,669.140093 421.896627,646.032338 C421.986359,626.356077 421.409009,606.606705 419.686405,587.278311 C416.297871,549.254756 419.109056,511.594398 421.068975,473.794893 C421.567219,464.196142 423.315798,454.426405 422.135124,445.030478 C420.078389,428.678404 427.783469,418.865037 441.121544,412.321613 C449.471272,408.225045 452.63784,401.123856 454.54699,393.10996 C460.889571,366.475194 464.907405,339.438318 468.195583,312.274088 C469.025597,305.418174 468.854399,298.669568 466.233302,292.428022 C455.083016,265.8758 449.124154,237.73047 440.513497,210.405867 C435.337422,193.973607 423.752647,184.631923 407.003604,180.929211 C400.524064,179.496473 394.004382,178.173402 387.887309,174.896384 C374.059254,167.492138 372.117045,160.004169 379.294363,145.721604 C386.432719,131.514509 394.003201,117.20954 394.011466,100.566201 C394.01973,85.5383777 380.998075,67.7606414 367.896135,65.0154457 C354.894551,62.2902966 333.142992,64.6168735 325.701203,85.886244 C312.075042,124.828401 333.869106,149.375969 328.212496,158.196443 C323.201715,166.009874 315.166047,168.547529 306.776177,170.989668 C296.257551,174.052071 285.036424,174.517858 275.194325,180.178055 C257.405107,190.410041 246.205233,205.690215 244.67626,225.779199 C243.286606,244.054561 235.781061,259.965611 229.647459,276.437964 C225.62254,287.248941 224.961363,297.733277 226.694593,308.844952 C231.379508,338.893525 241.828474,367.192152 252.579692,395.420028 C256.145328,404.782938 264.614304,408.904269 272.492942,412.928905 C278.447082,415.970082 279.399886,420.445175 279.418777,425.606568 C279.546289,462.007532 281.99855,498.664385 278.372699,534.703332 C276.51786,553.133171 271.265041,571.360185 270.164653,590.760511 C269.116214,609.23398 272.262711,627.332461 267.071287,645.903804 C265.286107,652.289214 260.320192,677.174035 264.002714,686.169032 C267.46209,694.619235 265.508074,704.535193 257.505465,712.213015 C255.188982,714.435822 251.159341,716.490001 252.595041,720.238703 C254.113388,724.200841 258.526748,724.297536 262.422972,724.929591 C284.303225,728.476648 287.618558,724.90129 295.601096,701.59307 C309.782173,660.178114 306.044159,616.357574 314.491882,574.440276 C323.320963,530.62799 328.290421,485.660081 346.158743,443.957399 C347.563745,440.68038 349.381984,437.760662 353.129443,437.553121 C356.476654,437.367986 355.927641,440.496424 356.502629,442.713335 C368.838313,490.307339 376.533947,538.865936 377.29312,587.829001" id="Fill-1" fill="#9B9B9B"></path>
                <path d="M130.966199,0 C136.098199,1.3 141.253199,2.519 146.359199,3.914 C163.686199,8.648 172.991199,21.521 174.007199,41.074 C174.405199,48.731 175.932199,56.323 176.643199,63.972 C177.327199,71.339 177.617199,78.798 172.579199,85.048 C166.149199,93.025 166.238199,102.958 164.816199,112.227 C163.800199,118.846 172.686199,128.202 180.988199,130.519 C200.424199,135.942 219.769199,141.936 239.508199,145.935 C253.142199,148.697 260.407199,155.625 264.971199,168.416 C269.449199,180.965 271.350199,193.73 273.242199,206.717 C276.223199,227.167 279.504199,247.591 283.406199,267.883 C290.485199,304.687 290.269199,341.354 283.215199,378.106 C280.495199,392.278 278.373199,406.566 275.953199,420.951 C273.610199,421.266 271.681199,421.523 269.837199,421.77 C269.595199,422.331 269.291199,422.726 269.266199,423.137 C268.421199,437.142 266.862199,451.157 267.035199,465.151 C267.154199,474.845 269.672199,484.508 271.113199,494.186 C275.861199,526.062 283.084199,557.806 284.796199,589.845 C287.678199,643.817 287.193199,697.977 287.749199,752.062 C287.816199,758.594 285.626199,765.163 284.357199,771.691 C283.046199,778.437 281.852199,785.227 280.073199,791.854 C279.157199,795.269 276.892199,798.299 275.622199,801.648 C275.077199,803.087 274.843199,805.382 275.619199,806.455 C279.355199,811.625 283.633199,816.399 287.422199,821.534 C290.135199,825.212 293.119199,828.963 294.673199,833.166 C297.485199,840.772 294.267199,845.903 286.420199,848.231 C284.104199,848.918 281.065199,849.229 279.740199,850.847 C273.698199,858.225 265.867199,855.906 258.256199,855.738 C247.740199,855.507 237.216199,855.681 225.881199,855.681 C226.331199,847.697 226.779199,839.744 227.237199,831.629 C226.528199,828.247 225.729199,824.35 224.889199,820.46 C223.540199,814.21 227.759199,806.099 218.683199,802.336 C217.696199,801.927 217.590199,799.54 216.948199,798.128 C207.926199,778.258 205.361199,757.082 204.907199,735.624 C204.165199,700.534 203.863199,665.435 203.500199,630.338 C203.445199,624.992 203.943199,619.63 204.383199,614.291 C205.487199,600.867 205.104199,587.919 199.227199,575.152 C189.297199,553.58 180.533199,531.472 171.066199,509.682 C169.208199,505.404 166.381199,501.549 164.000199,497.498 C163.304199,497.718 162.608199,497.937 161.912199,498.157 C161.912199,504.925 161.971199,511.693 161.902199,518.46 C161.484199,559.587 160.615199,600.715 160.774199,641.839 C160.854199,662.573 161.311199,683.513 164.268199,703.974 C167.398199,725.633 173.373199,746.916 178.734199,768.204 C182.046199,781.355 178.753199,793.788 176.486199,806.429 C176.344199,807.222 175.692199,807.979 175.136199,808.633 C162.739199,823.229 168.120199,839.482 169.122199,855.421 C154.604199,855.421 138.466199,855.445 122.327199,855.401 C118.693199,855.392 115.016199,854.723 111.434199,855.093 C102.237199,856.044 98.9391987,849.883 96.6911987,842.945 C94.6141987,836.538 96.5741987,831.152 101.357199,826.005 C117.167199,808.988 117.464199,782.515 104.150199,763.759 C100.595199,758.751 100.726199,750.7 100.328199,743.978 C99.7221987,733.723 100.624199,723.377 99.9961987,713.124 C98.8661987,694.657 97.2131987,676.219 95.5181987,657.793 C94.3141987,644.702 93.9951987,631.34 90.9781987,618.646 C83.9011987,588.872 75.4161987,559.434 67.5841987,529.838 C66.9121987,527.3 66.6231987,524.603 66.5651987,521.971 C66.4221987,515.536 66.5181987,509.096 66.5181987,502.826 C52.8201987,499.563 37.3341987,503.672 27.1451987,492.209 C18.0291987,481.954 11.2921987,469.944 14.3061987,454.609 C8.16619866,454.86 7.83419866,451.025 7.46019866,446.78 C5.42419866,423.682 2.71819866,400.631 1.22019866,377.5 C-0.191801339,355.712 -0.749801339,334.015 1.61019866,312.013 C4.82019866,282.093 4.37719866,251.799 6.28019866,221.715 C7.27619866,205.978 9.50019866,190.271 12.1701987,174.721 C12.7891987,171.115 16.8761987,167.02 20.4201987,165.187 C36.8041987,156.713 53.5841987,149.008 70.1711987,140.923 C77.1721987,137.51 84.1211987,133.974 90.9591987,130.246 C98.7491987,125.998 100.511199,120.875 97.5521987,112.405 C95.1481987,105.526 92.8071987,98.624 90.3541987,91.762 C89.9911987,90.748 89.3571987,89.374 88.5151987,89.061 C82.0601987,86.66 80.0421987,81.257 79.8121987,75.303 C79.5981987,69.781 80.4751987,64.208 80.9911987,58.669 C81.4471987,53.782 82.5761987,48.905 82.5281987,44.033 C82.3271987,23.387 90.9931987,9.017 111.021199,2.239 C112.396199,1.774 113.585199,0.759 114.860199,0 L130.966199,0 Z" id="Fill-1" fill="#4A4A4A"></path>
            </g>
        </g>
    </g>
</svg>