<?xml version="1.0" encoding="UTF-8"?>
<svg width="364px" height="345px" viewBox="0 0 364 345" version="1.1" xmlns="http://www.w3.org/2000/svg" xmlns:xlink="http://www.w3.org/1999/xlink">
    <!-- Generator: Sketch 44.1 (41455) - http://www.bohemiancoding.com/sketch -->
    <title>X</title>
    <desc>Created with Sketch.</desc>
    <defs></defs>
    <g id="Desktop" stroke="none" stroke-width="1" fill="none" fill-rule="evenodd">
        <g id="2017" transform="translate(-538.000000, -340.000000)" fill="#E30613">
            <g id="X" transform="translate(538.000000, 340.000000)">
                <path d="M231.376721,0.000482517483 L181.048297,87.160028 L132.118019,0.000482517483 L0.00168741722,0.000482517483 L120.733979,176.326846 L242.761966,176.326846 L363.461714,0.000482517483 L231.376721,0.000482517483 Z M236.357012,8.62186364 L347.107025,8.62186364 L238.215581,167.703052 L125.281568,167.703052 L16.3575815,8.62186364 L127.071436,8.62186364 L180.943436,104.588559 L236.357012,8.62186364 Z" id="Fill-1"></path>
                <path d="M120.734702,167.996182 L0,344.322545 L125.281086,176.618769 L238.213894,176.618769 L363.460026,344.322545 L242.763894,167.996182 L120.734702,167.996182 Z M132.118742,344.322545 L181.047815,257.163 L231.322,344.222423 L180.944159,239.734469 L132.118742,344.322545 Z" id="Fill-2"></path>
            </g>
        </g>
    </g>
</svg>