
<svg version="1.1" id="Camada_1" xmlns="http://www.w3.org/2000/svg" xmlns:xlink="http://www.w3.org/1999/xlink" x="0px" y="0px"
	 viewBox="0 0 26 33" style="enable-background:new 0 0 26 33;" xml:space="preserve">
	<style type="text/css">
		.stface0{clip-path:url(#SVGID_2_); fill: #fff;}
		.stface1{clip-path:url(#SVGID_4_);}
		.stface2{clip-path:url(#SVGID_6_);}
		.stface3{clip-path:url(#SVGID_8_);}
		.stface4{clip-path:url(#SVGID_10_);}
		.stface5{clip-path:url(#SVGID_12_);}
	</style>
	<g>
		<defs>
			<path id="SVGID_1_" d="M10,29h4.5V17h4.1l0.4-4.1h-4.5v-2.1c0-0.6,0.1-1.1,0.3-1.3c0.2-0.2,0.6-0.4,1.4-0.4H19V5h-4.1
				C13,5,11.7,5.4,11,6.3c-0.7,0.9-1,2.3-1,4.1v2.4H7V17h3V29z"/>
		</defs>
		<clipPath id="SVGID_2_">
			<use xlink:href="#SVGID_1_"  style="overflow:visible;"/>
		</clipPath>
		<g class="stface0">
			<defs>
				<rect id="SVGID_3_" x="-1375" y="-428" width="1440" height="1024"/>
			</defs>
			<clipPath id="SVGID_4_">
				<use xlink:href="#SVGID_3_"  style="overflow:visible;"/>
			</clipPath>
			<rect x="2" class="stface1" width="22" height="34"/>
		</g>
	</g>
	<g>
		<defs>
			<path id="SVGID_5_" d="M-38,34.3V23.8c0,0,0.1-0.1,0.1-0.1c0.5-3.3,3.2-5.6,6.5-5.6c3,0,5.9,0,8.9,0c0.3,0,0.6,0,0.9,0.1
				c3.2,0.4,5.7,3.2,5.7,6.5c0,2.9,0,5.9,0,8.8c0,0.3,0,0.7-0.1,1c-0.4,2.5-1.8,4.2-4.1,5.1c-0.5,0.2-1.1,0.3-1.6,0.4h-10.5
				c-0.1,0-0.1-0.1-0.2-0.1c-2.5-0.4-4.2-1.8-5.2-4.1C-37.8,35.3-37.9,34.8-38,34.3 M-27,20c-1.4,0-2.9,0-4.3,0c-0.4,0-0.7,0-1.1,0.1
				c-2.2,0.5-3.6,2.2-3.6,4.5c0,2.9,0,5.9,0,8.8c0,0.3,0,0.7,0.1,1c0.5,2.2,2.2,3.6,4.5,3.6c2.9,0,5.9,0,8.8,0c0.3,0,0.6,0,1-0.1
				c2.2-0.4,3.6-2.2,3.6-4.5c0-3,0-5.9,0-8.9c0-0.3,0-0.6-0.1-1c-0.5-2.2-2.2-3.6-4.5-3.6C-24,20-25.5,20-27,20 M-27,35
				c-3.3,0-6-2.7-6-6c0-3.3,2.7-6,6-6c3.3,0,6,2.7,6,6C-21,32.3-23.7,35-27,35 M-23,29c0-2.2-1.8-4-4-4c-2.2,0-4,1.8-4,4
				c0,2.2,1.8,4,4,4C-24.8,33-23,31.2-23,29 M-20.2,23.1c0-0.5-0.4-0.9-0.9-0.9c-0.5,0-0.9,0.4-0.9,0.9c0,0.5,0.4,0.9,0.9,0.9
				C-20.6,24-20.2,23.6-20.2,23.1"/>
		</defs>
		<clipPath id="SVGID_6_">
			<use xlink:href="#SVGID_5_"  style="overflow:visible;"/>
		</clipPath>
		<g class="stface2">
			<defs>
				<rect id="SVGID_7_" x="-1415" y="-487" width="1440" height="1024"/>
			</defs>
			<clipPath id="SVGID_8_">
				<use xlink:href="#SVGID_7_"  style="overflow:visible;"/>
			</clipPath>
			<rect x="-43" y="13" class="stface3" width="32" height="32"/>
		</g>
	</g>
	<g>
		<defs>
			<path id="SVGID_9_" d="M64.7,40.4V32l7.3,4.2L64.7,40.4z M76.1,28.3c-6.3-0.4-12-0.4-17,0c-0.8,0.1-1.5,0.5-2,1.3
				c-0.5,0.8-0.9,1.6-1,2.5c-0.2,2.8-0.2,5.6,0,8.4c0.1,0.8,0.4,1.7,1,2.5c0.5,0.8,1.2,1.2,2,1.4c6.1,0.4,11.8,0.4,17,0
				c0.8-0.2,1.5-0.6,2-1.4c0.5-0.8,0.9-1.6,1-2.4c0.2-2.8,0.2-5.7,0-8.6c-0.1-0.9-0.4-1.7-0.9-2.4C77.7,28.7,77,28.3,76.1,28.3z"/>
		</defs>
		<clipPath id="SVGID_10_">
			<use xlink:href="#SVGID_9_"  style="overflow:visible;"/>
		</clipPath>
		<g class="stface4">
			<defs>
				<rect id="SVGID_11_" x="-1320" y="-547" width="1440" height="1024"/>
			</defs>
			<clipPath id="SVGID_12_">
				<use xlink:href="#SVGID_11_"  style="overflow:visible;"/>
			</clipPath>
			<rect x="51" y="23" class="stface5" width="33.2" height="26.6"/>
		</g>
	</g>
</svg>
