
<svg version="1.1" id="Camada_1" xmlns="http://www.w3.org/2000/svg" xmlns:xlink="http://www.w3.org/1999/xlink" x="0px" y="0px" viewBox="0 0 26 33" style="enable-background:new 0 0 26 33;" xml:space="preserve">
  <style type="text/css">
    .stinsta0{clip-path:url(#SVGIDINST_2_); fill: #fff;}
    .stinsta1{clip-path:url(#SVGIDINST_4_);}
    .stinsta2{clip-path:url(#SVGIDINST_6_);}
    .stinsta3{clip-path:url(#SVGIDINST_8_);}
  </style>
  <g>
    <defs>
      <path id="SVGIDINST_1_" d="M2,22.3V11.8c0,0,0.1-0.1,0.1-0.1C2.5,8.3,5.2,6,8.5,6c3,0,5.9,0,8.9,0c0.3,0,0.6,0,0.9,0.1
        c3.2,0.4,5.7,3.2,5.7,6.5c0,2.9,0,5.9,0,8.8c0,0.3,0,0.7-0.1,1c-0.4,2.5-1.8,4.2-4.1,5.1c-0.5,0.2-1.1,0.3-1.6,0.4H7.7
        c-0.1,0-0.1-0.1-0.2-0.1c-2.5-0.4-4.2-1.8-5.2-4.1C2.2,23.3,2.1,22.8,2,22.3 M13,8c-1.4,0-2.9,0-4.3,0C8.3,8,7.9,8,7.6,8.1
        C5.4,8.6,4,10.3,4,12.6c0,2.9,0,5.9,0,8.8c0,0.3,0,0.7,0.1,1C4.6,24.6,6.3,26,8.6,26c2.9,0,5.9,0,8.8,0c0.3,0,0.6,0,1-0.1
        c2.2-0.4,3.6-2.2,3.6-4.5c0-3,0-5.9,0-8.9c0-0.3,0-0.6-0.1-1C21.4,9.4,19.7,8,17.4,8C16,8,14.5,8,13,8 M13,23c-3.3,0-6-2.7-6-6
        c0-3.3,2.7-6,6-6c3.3,0,6,2.7,6,6C19,20.3,16.3,23,13,23 M17,17c0-2.2-1.8-4-4-4c-2.2,0-4,1.8-4,4c0,2.2,1.8,4,4,4
        C15.2,21,17,19.2,17,17 M19.8,11.1c0-0.5-0.4-0.9-0.9-0.9c-0.5,0-0.9,0.4-0.9,0.9c0,0.5,0.4,0.9,0.9,0.9
        C19.4,12,19.8,11.6,19.8,11.1"/>
    </defs>
    <clipPath id="SVGIDINST_2_">
      <use xlink:href="#SVGIDINST_1_"  style="overflow:visible;"/>
    </clipPath>
    <g class="stinsta0">
      <defs>
        <rect id="SVGIDINST_3_" x="-1375" y="-499" width="1440" height="1024"/>
      </defs>
      <clipPath id="SVGIDINST_4_">
        <use xlink:href="#SVGIDINST_3_"  style="overflow:visible;"/>
      </clipPath>
      <rect x="-3" y="1" class="stinsta1" width="32" height="32"/>
    </g>
  </g>
  <g>
    <defs>
      <path id="SVGIDINST_5_" d="M64.7,40.4V32l7.3,4.2L64.7,40.4z M76.1,28.3c-6.3-0.4-12-0.4-17,0c-0.8,0.1-1.5,0.5-2,1.3
        c-0.5,0.8-0.9,1.6-1,2.5c-0.2,2.8-0.2,5.6,0,8.4c0.1,0.8,0.4,1.7,1,2.5c0.5,0.8,1.2,1.2,2,1.4c6.1,0.4,11.8,0.4,17,0
        c0.8-0.2,1.5-0.6,2-1.4c0.5-0.8,0.9-1.6,1-2.4c0.2-2.8,0.2-5.7,0-8.6c-0.1-0.9-0.4-1.7-0.9-2.4C77.7,28.7,77,28.3,76.1,28.3z"/>
    </defs>
    <clipPath id="SVGIDINST_6_">
      <use xlink:href="#SVGIDINST_5_"  style="overflow:visible;"/>
    </clipPath>
    <g class="stinsta2">
      <defs>
        <rect id="SVGIDINST_7_" x="-1320" y="-547" width="1440" height="1024"/>
      </defs>
      <clipPath id="SVGIDINST_8_">
        <use xlink:href="#SVGIDINST_7_"  style="overflow:visible;"/>
      </clipPath>
      <rect x="51" y="23" class="stinsta3" width="33.2" height="26.6"/>
    </g>
  </g>
</svg>
