<?xml version="1.0" encoding="UTF-8"?>
<svg width="204px" height="24px" viewBox="0 0 204 24" version="1.1" xmlns="http://www.w3.org/2000/svg" xmlns:xlink="http://www.w3.org/1999/xlink">
    <!-- Generator: Sketch 44.1 (41455) - http://www.bohemiancoding.com/sketch -->
    <title>logo_tedx_fortaleza_horizontal_black</title>
    <desc>Created with Sketch.</desc>
    <defs></defs>
    <g id="Desktop" stroke="none" stroke-width="1" fill="none" fill-rule="evenodd">
        <g id="Apresentadores" transform="translate(-64.000000, -55.000000)" fill="#000000">
            <g id="logo_tedx_fortaleza_horizontal_black" transform="translate(64.000000, 55.000000)">
                <path d="M74.5212227,-4.28571428e-05 L72.5184845,3.46838571 L70.5734436,-4.28571428e-05 L65.3178584,-4.28571428e-05 L70.1199853,7.01781429 L65.133227,14.3532429 L70.3858204,14.3532429 L72.5184845,10.7236714 L74.7062815,14.3532429 L79.9610119,14.3532429 L74.9733988,7.01781429 L79.7742435,-4.28571428e-05 L74.5212227,-4.28571428e-05 Z M49.3113386,6.01195714 L51.5931609,6.01195714 C56.7756628,6.01195714 57.234677,10.0868143 57.234677,11.5499571 C57.234677,13.7382429 56.580774,17.3566714 52.1141464,17.3566714 L49.3113386,17.3566714 L49.3113386,6.01195714 Z M42.1414844,23.3241 L52.5077703,23.3241 C60.6225784,23.3241 64.4036764,18.7915286 64.4036764,11.6485286 C64.4036764,5.78267143 61.6624124,0.0445285714 53.9070373,0.0445285714 L42.1414844,0.0445285714 L42.1414844,23.3241 Z M21.3195886,0.0449571429 L21.3195886,23.3236714 L40.937961,23.3236714 L40.937961,17.3571 L28.4890154,17.3571 L28.4890154,14.4552429 L40.9349693,14.4552429 L40.9349693,8.91124286 L28.4890154,8.91124286 L28.4890154,6.01238571 L40.9349693,6.01238571 L40.9349693,0.0449571429 L21.3195886,0.0449571429 Z M20.2058166,0.0449571429 L20.2058166,6.01238571 L13.686019,6.01238571 L13.686019,23.3236714 L6.52129348,23.3236714 L6.52129348,6.01238571 L0.000213693793,6.01238571 L0.000213693793,0.0449571429 L20.2058166,0.0449571429 Z" id="TEDx"></path>
                <path d="M200.752834,13.8431571 C200.450244,14.2113 199.992084,14.4603 199.376646,14.5901571 C198.761636,14.7200143 198.076106,14.8173 197.320912,14.8820143 L195.248082,15.0770143 C194.643756,15.1421571 194.03943,15.2343 193.435104,15.3530143 C192.830778,15.4721571 192.285431,15.6727286 191.800347,15.9534429 C191.314407,16.2354429 190.920355,16.6194429 190.618192,17.1063 C190.315602,17.5931571 190.165162,18.2265857 190.165162,19.0057286 C190.165162,20.2395857 190.553657,21.1541571 191.330648,21.7490143 C192.107638,22.3447286 193.176107,22.6421571 194.536054,22.6421571 C195.938741,22.6421571 197.050803,22.3880143 197.87096,21.8793 C198.691117,21.3705857 199.317239,20.7864429 199.748901,20.1260143 C200.180562,19.4660143 200.4558,18.8274429 200.574614,18.2103 C200.693,17.5931571 200.752834,17.1765857 200.752834,16.9601571 L200.752834,13.8431571 Z M200.752834,20.0124429 L200.688299,20.0124429 C200.493837,20.5104429 200.212616,20.9810143 199.846345,21.4245857 C199.478792,21.8685857 199.031317,22.2637286 198.502211,22.6095857 C197.973105,22.9563 197.374335,23.2267286 196.705046,23.4213 C196.036185,23.6163 195.301933,23.7135857 194.503573,23.7135857 C192.733334,23.7135857 191.363129,23.3291571 190.391677,22.5611571 C189.420225,21.7927286 188.934713,20.6077286 188.934713,19.0057286 C188.934713,18.0315857 189.129174,17.2361571 189.517669,16.6194429 C189.905737,16.0027286 190.396806,15.5154429 190.990874,15.1584429 C191.584088,14.8010143 192.242265,14.5468714 192.965405,14.3951571 C193.688972,14.2443 194.385187,14.1354429 195.054048,14.0707286 L196.964898,13.9078714 C197.849163,13.8431571 198.545805,13.7407286 199.052686,13.5997286 C199.559996,13.4591571 199.943362,13.2645857 200.202359,13.0155857 C200.460929,12.7665857 200.623336,12.4473 200.688299,12.0577286 C200.752834,11.6681571 200.784888,11.1808714 200.784888,10.5963 C200.784888,10.1415857 200.698556,9.71987143 200.526319,9.3303 C200.3528,8.94072857 200.083545,8.59444286 199.716419,8.29144286 C199.349721,7.98801429 198.874893,7.75015714 198.291937,7.57701429 C197.709407,7.40387143 196.996952,7.3173 196.154999,7.3173 C194.66598,7.3173 193.461602,7.68544286 192.544856,8.42087143 C191.626827,9.15715714 191.125502,10.2718714 191.039169,11.7654429 L189.809148,11.7654429 C189.895053,9.92558571 190.483138,8.54601429 191.573404,7.62544286 C192.663242,6.70615714 194.212095,6.24587143 196.219962,6.24587143 C198.227401,6.24587143 199.689494,6.64058571 200.607095,7.43087143 C201.524696,8.22115714 201.983283,9.25444286 201.983283,10.5311571 L201.983283,20.2395857 C201.983283,20.4778714 201.988412,20.7161571 201.999096,20.9540143 C202.009781,21.1923 202.047819,21.4083 202.112782,21.6033 C202.177744,21.7983 202.285446,21.9551571 202.436314,22.0738714 C202.587182,22.1930143 202.803013,22.2525857 203.083806,22.2525857 C203.299637,22.2525857 203.602227,22.2200143 203.990723,22.1553 L203.990723,23.1941571 C203.666763,23.2807286 203.331691,23.3240143 202.987217,23.3240143 C202.489737,23.3240143 202.096541,23.2593 201.805063,23.1290143 C201.513584,22.9991571 201.292197,22.8264429 201.14133,22.6095857 C200.990034,22.3935857 200.887034,22.1385857 200.833611,21.8467286 C200.779332,21.5544429 200.752834,21.2355857 200.752834,20.8888714 L200.752834,20.0124429 Z M187.607247,22.2525857 L187.607247,23.3240143 L174.396697,23.3240143 L174.396697,22.1553 L185.567326,7.70687143 L175.271132,7.70687143 L175.271132,6.63544286 L187.089253,6.63544286 L187.089253,7.80415714 L175.886142,22.2525857 L187.607247,22.2525857 Z M171.8063,14.0707286 C171.762707,13.1613 171.611412,12.3011571 171.351987,11.4890143 C171.092563,10.6777286 170.708342,9.9633 170.199751,9.34658571 C169.690732,8.72944286 169.074012,8.23744286 168.349162,7.8693 C167.623458,7.50115714 166.796036,7.3173 165.865613,7.3173 C164.8698,7.3173 163.993228,7.50672857 163.235897,7.88558571 C162.477712,8.26401429 161.839195,8.76201429 161.320346,9.37872857 C160.80107,9.99587143 160.400608,10.7158714 160.119387,11.5383 C159.838166,12.3611571 159.664219,13.2050143 159.599684,14.0707286 L171.8063,14.0707286 Z M159.567202,15.1421571 L159.567202,15.3367286 C159.567202,16.3108714 159.696701,17.2421571 159.95698,18.1288714 C160.216404,19.0168714 160.600625,19.7964429 161.109217,20.4671571 C161.617808,21.1378714 162.256325,21.6680143 163.024768,22.0575857 C163.792783,22.4475857 164.685596,22.6421571 165.703206,22.6421571 C167.370017,22.6421571 168.68979,22.2041571 169.664234,21.3273 C170.637823,20.4504429 171.308394,19.2328714 171.677229,17.6741571 L172.907678,17.6741571 C172.539698,19.6224429 171.746894,21.1164429 170.527129,22.1553 C169.307793,23.1941571 167.694405,23.7135857 165.686965,23.7135857 C164.456089,23.7135857 163.382491,23.4915857 162.465317,23.0480143 C161.547716,22.6048714 160.781838,21.9984429 160.1664,21.2300143 C159.551389,20.4615857 159.092375,19.5525857 158.790212,18.5025857 C158.487621,17.4525857 158.337181,16.3220143 158.337181,15.1095857 C158.337181,13.9408714 158.493177,12.8205857 158.806452,11.7491571 C159.1193,10.6777286 159.588999,9.73615714 160.214694,8.92444286 C160.84039,8.1123 161.623364,7.46301429 162.562334,6.97615714 C163.501305,6.4893 164.607384,6.24587143 165.880999,6.24587143 C167.046912,6.24587143 168.077344,6.4623 168.973576,6.89515714 C169.868525,7.32844286 170.619018,7.91772857 171.223344,8.66472857 C171.82767,9.4113 172.286684,10.2774429 172.599959,11.2623 C172.91238,12.2471571 173.069231,13.3023 173.069231,14.4277286 C173.069231,14.5361571 173.063675,14.6604429 173.052563,14.8010143 C173.041878,14.9420143 173.036749,15.0560143 173.036749,15.1421571 L159.567202,15.1421571 Z M153.965433,23.3240143 L155.196309,23.3240143 L155.196309,0.141728571 L153.965433,0.141728571 L153.965433,23.3240143 Z M148.526499,13.8431571 C148.223908,14.2113 147.765749,14.4603 147.150311,14.5901571 C146.5353,14.7200143 145.849343,14.8173 145.094149,14.8820143 L143.021747,15.0770143 C142.417421,15.1421571 141.812667,15.2343 141.208768,15.3530143 C140.604015,15.4721571 140.059096,15.6727286 139.574011,15.9534429 C139.088071,16.2354429 138.693593,16.6194429 138.391857,17.1063 C138.089266,17.5931571 137.938399,18.2265857 137.938399,19.0057286 C137.938399,20.2395857 138.327321,21.1541571 139.104312,21.7490143 C139.881303,22.3447286 140.949344,22.6421571 142.309719,22.6421571 C143.712405,22.6421571 144.82404,22.3880143 145.644624,21.8793 C146.464781,21.3705857 147.090476,20.7864429 147.522565,20.1260143 C147.954227,19.4660143 148.229037,18.8274429 148.348278,18.2103 C148.466237,17.5931571 148.526499,17.1765857 148.526499,16.9601571 L148.526499,13.8431571 Z M148.526499,20.0124429 L148.461536,20.0124429 C148.267074,20.5104429 147.986281,20.9810143 147.619582,21.4245857 C147.252456,21.8685857 146.804554,22.2637286 146.275876,22.6095857 C145.74677,22.9563 145.148,23.2267286 144.479138,23.4213 C143.809849,23.6163 143.075597,23.7135857 142.277237,23.7135857 C140.506998,23.7135857 139.136366,23.3291571 138.165341,22.5611571 C137.193462,21.7927286 136.70795,20.6077286 136.70795,19.0057286 C136.70795,18.0315857 136.902411,17.2361571 137.290906,16.6194429 C137.679402,16.0027286 138.170043,15.5154429 138.764111,15.1584429 C139.357753,14.8010143 140.01593,14.5468714 140.739069,14.3951571 C141.462209,14.2443 142.157996,14.1354429 142.827713,14.0707286 L144.738135,13.9078714 C145.622827,13.8431571 146.319042,13.7407286 146.826351,13.5997286 C147.333233,13.4591571 147.716599,13.2645857 147.976023,13.0155857 C148.23502,12.7665857 148.396573,12.4473 148.461536,12.0577286 C148.526499,11.6681571 148.55898,11.1808714 148.55898,10.5963 C148.55898,10.1415857 148.47222,9.71987143 148.299556,9.3303 C148.126464,8.94072857 147.856782,8.59444286 147.490084,8.29144286 C147.122958,7.98801429 146.64813,7.75015714 146.065601,7.57701429 C145.482644,7.40387143 144.770617,7.3173 143.928663,7.3173 C142.439217,7.3173 141.235266,7.68544286 140.31852,8.42087143 C139.400492,9.15715714 138.898739,10.2718714 138.812834,11.7654429 L137.581957,11.7654429 C137.66829,9.92558571 138.256375,8.54601429 139.346641,7.62544286 C140.436906,6.70615714 141.985759,6.24587143 143.993199,6.24587143 C146.001065,6.24587143 147.462731,6.64058571 148.380332,7.43087143 C149.297506,8.22115714 149.756948,9.25444286 149.756948,10.5311571 L149.756948,20.2395857 C149.756948,20.4778714 149.761649,20.7161571 149.772761,20.9540143 C149.783446,21.1923 149.821056,21.4083 149.886019,21.6033 C149.950982,21.7983 150.058683,21.9551571 150.209551,22.0738714 C150.360846,22.1930143 150.577104,22.2525857 150.857471,22.2525857 C151.072874,22.2525857 151.375464,22.2200143 151.76396,22.1553 L151.76396,23.1941571 C151.440427,23.2807286 151.105355,23.3240143 150.760454,23.3240143 C150.263402,23.3240143 149.869778,23.2593 149.578727,23.1290143 C149.287249,22.9991571 149.065434,22.8264429 148.914994,22.6095857 C148.763271,22.3935857 148.660698,22.1385857 148.607275,21.8467286 C148.552997,21.5544429 148.526499,21.2355857 148.526499,20.8888714 L148.526499,20.0124429 Z M135.218931,7.70687143 L131.592975,7.70687143 L131.592975,19.3627286 C131.592975,20.0343 131.667768,20.5644429 131.819491,20.9540143 C131.970358,21.3431571 132.202002,21.6410143 132.515278,21.8467286 C132.828125,22.0524429 133.205936,22.1767286 133.648709,22.2200143 C134.090628,22.2637286 134.603921,22.2740143 135.186877,22.2525857 L135.186877,23.3240143 C134.560327,23.3673 133.950445,23.3613 133.357658,23.3077286 C132.76359,23.2537286 132.24004,23.0917286 131.787009,22.8208714 C131.333551,22.5504429 130.971981,22.1445857 130.702299,21.6033 C130.43219,21.0624429 130.318505,20.3154429 130.362526,19.3627286 L130.362526,7.70687143 L127.286618,7.70687143 L127.286618,6.63544286 L130.362526,6.63544286 L130.362526,1.4403 L131.592975,1.4403 L131.592975,6.63544286 L135.218931,6.63544286 L135.218931,7.70687143 Z M120.033423,10.3365857 L120.13044,10.3365857 C120.281308,9.79572857 120.556546,9.28701429 120.95658,8.81044286 C121.35576,8.33472857 121.841273,7.9233 122.413117,7.57701429 C122.984962,7.23115714 123.621769,6.96587143 124.323967,6.78115714 C125.024883,6.59772857 125.753579,6.51672857 126.5092,6.53815714 L126.5092,7.77158571 C125.862135,7.68544286 125.1219,7.75015714 124.291486,7.96658571 C123.459789,8.18301429 122.666985,8.65958571 121.911364,9.39501429 C121.608774,9.71987143 121.345076,10.0335857 121.118133,10.3365857 C120.891617,10.6400143 120.702285,10.9751571 120.551844,11.3433 C120.400122,11.7114429 120.281308,12.1224429 120.195403,12.5767286 C120.109071,13.0314429 120.05522,13.5731571 120.033423,14.2001571 L120.033423,23.3240143 L118.803402,23.3240143 L118.803402,6.63544286 L120.033423,6.63544286 L120.033423,10.3365857 Z M101.869451,14.9797286 C101.869451,15.9757286 102.009634,16.9331571 102.290427,17.8533 C102.570794,18.7734429 102.981086,19.5903 103.520876,20.3043 C104.060239,21.0187286 104.729528,21.5870143 105.528316,22.0091571 C106.327103,22.4313 107.244277,22.6421571 108.280692,22.6421571 C109.316679,22.6421571 110.233853,22.4313 111.032641,22.0091571 C111.831001,21.5870143 112.50029,21.0187286 113.040507,20.3043 C113.579443,19.5903 113.989735,18.7734429 114.270529,17.8533 C114.550895,16.9331571 114.691506,15.9757286 114.691506,14.9797286 C114.691506,13.9845857 114.550895,13.0267286 114.270529,12.1061571 C113.989735,11.1864429 113.579443,10.3691571 113.040507,9.65472857 C112.50029,8.94072857 111.831001,8.37244286 111.032641,7.9503 C110.233853,7.52815714 109.316679,7.3173 108.280692,7.3173 C107.244277,7.3173 106.327103,7.52815714 105.528316,7.9503 C104.729528,8.37244286 104.060239,8.94072857 103.520876,9.65472857 C102.981086,10.3691571 102.570794,11.1864429 102.290427,12.1061571 C102.009634,13.0267286 101.869451,13.9845857 101.869451,14.9797286 L101.869451,14.9797286 Z M100.639429,14.9797286 C100.639429,13.7895857 100.806538,12.6693 101.141182,11.6193 C101.475827,10.5697286 101.966468,9.64401429 102.614387,8.84301429 C103.262307,8.04244286 104.060239,7.40944286 105.010322,6.94401429 C105.959977,6.47858571 107.050243,6.24587143 108.280692,6.24587143 C109.511141,6.24587143 110.600979,6.47858571 111.550634,6.94401429 C112.50029,7.40944286 113.299504,8.04244286 113.946997,8.84301429 C114.594061,9.64401429 115.08513,10.5697286 115.420202,11.6193 C115.754419,12.6693 115.921955,13.7895857 115.921955,14.9797286 C115.921955,16.1703 115.754419,17.2961571 115.420202,18.3564429 C115.08513,19.4171571 114.594061,20.3424429 113.946997,21.1323 C113.299504,21.9230143 112.50029,22.5504429 111.550634,23.0154429 C110.600979,23.4808714 109.511141,23.7135857 108.280692,23.7135857 C107.050243,23.7135857 105.959977,23.4808714 105.010322,23.0154429 C104.060239,22.5504429 103.262307,21.9230143 102.614387,21.1323 C101.966468,20.3424429 101.475827,19.4171571 101.141182,18.3564429 C100.806538,17.2961571 100.639429,16.1703 100.639429,14.9797286 L100.639429,14.9797286 Z M85.0004627,0.141728571 L99.5064248,0.141728571 L99.5064248,1.37558571 L86.4249455,1.37558571 L86.4249455,10.6614429 L98.211013,10.6614429 L98.211013,11.8953 L86.4249455,11.8953 L86.4249455,23.3240143 L85.0004627,23.3240143 L85.0004627,0.141728571 Z" id="Fortaleza"></path>
            </g>
        </g>
    </g>
</svg>