<?xml version="1.0" encoding="UTF-8"?>
<svg width="71px" height="32px" viewBox="0 0 71 32" version="1.1" xmlns="http://www.w3.org/2000/svg" xmlns:xlink="http://www.w3.org/1999/xlink">
    <!-- Generator: Sketch 44.1 (41455) - http://www.bohemiancoding.com/sketch -->
    <title>logo_tedx_fortaleza_vertical_dark</title>
    <desc>Created with Sketch.</desc>
    <defs></defs>
    <g id="Mobile" stroke="none" stroke-width="1" fill="none" fill-rule="evenodd">
        <g id="2017" transform="translate(-64.000000, -16.000000)">
            <g id="logo_tedx_fortaleza_vertical_dark" transform="translate(64.000000, 16.000000)">
                <path d="M44.1607246,-2.53968254e-05 L42.9739167,2.05533968 L41.8212999,-2.53968254e-05 L38.7068791,-2.53968254e-05 L41.5525839,4.15870476 L38.5974678,8.5056254 L41.7101158,8.5056254 L42.9739167,6.35476825 L44.2703891,8.5056254 L47.3843033,8.5056254 L44.4286808,4.15870476 L47.2736258,-2.53968254e-05 L44.1607246,-2.53968254e-05 Z M29.221534,3.56264127 L30.573725,3.56264127 C33.6448372,3.56264127 33.9168456,5.97737143 33.9168456,6.84441905 C33.9168456,8.14118095 33.5293476,10.2854349 30.8824571,10.2854349 L29.221534,10.2854349 L29.221534,3.56264127 Z M24.9727315,13.8216889 L31.1157157,13.8216889 C35.9244909,13.8216889 38.1651416,11.1357206 38.1651416,6.90283175 C38.1651416,3.42676825 36.5406888,0.0263873016 31.944911,0.0263873016 L24.9727315,0.0263873016 L24.9727315,13.8216889 Z M12.6338303,0.0266412698 L12.6338303,13.8214349 L24.2595324,13.8214349 L24.2595324,10.2856889 L16.8823795,10.2856889 L16.8823795,8.56606984 L24.2577596,8.56606984 L24.2577596,5.28073651 L16.8823795,5.28073651 L16.8823795,3.56289524 L24.2577596,3.56289524 L24.2577596,0.0266412698 L12.6338303,0.0266412698 Z M11.9738172,0.0266412698 L11.9738172,3.56289524 L8.11023346,3.56289524 L8.11023346,13.8214349 L3.86447021,13.8214349 L3.86447021,3.56289524 L0.000126633359,3.56289524 L0.000126633359,0.0266412698 L11.9738172,0.0266412698 Z" id="TEDx" fill="#E30613"></path>
                <path d="M68.593998,25.8971429 C68.4146851,26.1153016 68.1431832,26.2628571 67.7784791,26.3398095 C67.4140283,26.4167619 67.0077885,26.4744127 66.5602662,26.5127619 L65.3319226,26.6283175 C64.9738035,26.6669206 64.6156844,26.7215238 64.2575652,26.791873 C63.8994461,26.8624762 63.5762778,26.9813333 63.28882,27.1476825 C63.0008558,27.3147937 62.7673439,27.5423492 62.5882843,27.8308571 C62.4089715,28.1193651 62.3198216,28.4947302 62.3198216,28.9564444 C62.3198216,29.687619 62.550041,30.2295873 63.0104799,30.5820952 C63.4709188,30.9351111 64.1040856,31.1113651 64.9099803,31.1113651 C65.7412017,31.1113651 66.4002017,30.9607619 66.8862205,30.6593016 C67.3722393,30.3578413 67.7432751,30.0116825 67.9990744,29.6203175 C68.2548738,29.2292063 68.4179776,28.8507937 68.4883857,28.4850794 C68.5585406,28.1193651 68.593998,27.8725079 68.593998,27.744254 L68.593998,25.8971429 Z M68.593998,29.5530159 L68.5557547,29.5530159 C68.4405183,29.848127 68.2738688,30.1269841 68.0568193,30.3898413 C67.8390099,30.6529524 67.5738396,30.8871111 67.2602954,31.0920635 C66.9467512,31.2975238 66.5919246,31.4577778 66.1953089,31.5730794 C65.7989465,31.6886349 65.3638343,31.7462857 64.890732,31.7462857 C63.8417013,31.7462857 63.0297282,31.5184762 62.4540529,31.0633651 C61.8783777,30.608 61.5906667,29.9057778 61.5906667,28.9564444 C61.5906667,28.3791746 61.7059031,27.9078095 61.9361225,27.5423492 C62.1660887,27.1768889 62.4570921,26.888127 62.8091329,26.6765714 C63.1606671,26.4647619 63.5506978,26.3141587 63.9792251,26.224254 C64.4080057,26.1348571 64.8205771,26.0703492 65.2169396,26.032 L66.3492951,25.9354921 C66.8733039,25.8971429 67.2861286,25.8364444 67.586503,25.7528889 C67.8871306,25.6695873 68.1143108,25.5542857 68.2677904,25.4067302 C68.4210168,25.2591746 68.5172582,25.0699683 68.5557547,24.8391111 C68.593998,24.608254 68.612993,24.3194921 68.612993,23.9730794 C68.612993,23.703619 68.5618331,23.4537143 68.4597666,23.2228571 C68.3569403,22.992 68.1973823,22.7867937 67.9798262,22.6072381 C67.7625233,22.4274286 67.481144,22.2864762 67.1356882,22.183873 C66.7904857,22.0812698 66.3682901,22.0299683 65.8693546,22.0299683 C64.9869734,22.0299683 64.2732678,22.248127 63.7300107,22.6839365 C63.1859937,23.120254 62.8889119,23.7808254 62.837752,24.6659048 L62.1088504,24.6659048 C62.159757,23.575619 62.508252,22.7580952 63.1543354,22.2125714 C63.8001655,21.6678095 64.7180041,21.3950476 65.9078512,21.3950476 C67.0974449,21.3950476 67.9638704,21.6289524 68.507634,22.0972698 C69.0513977,22.5655873 69.3231528,23.1779048 69.3231528,23.9344762 L69.3231528,29.687619 C69.3231528,29.8288254 69.326192,29.9700317 69.3325237,30.1109841 C69.3388554,30.2521905 69.3613961,30.3801905 69.3998927,30.495746 C69.4383892,30.6113016 69.5022124,30.704254 69.5916156,30.7746032 C69.6810187,30.8452063 69.8089184,30.8805079 69.9753146,30.8805079 C70.1032143,30.8805079 70.2825272,30.8612063 70.5127466,30.8228571 L70.5127466,31.4384762 C70.3207704,31.4897778 70.1222093,31.5154286 69.9180764,31.5154286 C69.6232739,31.5154286 69.3902685,31.4770794 69.2175406,31.399873 C69.0448127,31.3229206 68.9136206,31.2205714 68.8242174,31.0920635 C68.734561,30.9640635 68.6735237,30.8129524 68.6418654,30.64 C68.6097005,30.4667937 68.593998,30.2778413 68.593998,30.072381 L68.593998,29.5530159 Z M60.8040203,30.8805079 L60.8040203,31.5154286 L52.975546,31.5154286 L52.975546,30.8228571 L59.5951782,22.2608254 L53.4937297,22.2608254 L53.4937297,21.6259048 L60.497061,21.6259048 L60.497061,22.3184762 L53.8581805,30.8805079 L60.8040203,30.8805079 Z M51.4404965,26.032 C51.4146633,25.4930794 51.3250068,24.9833651 51.1712739,24.5020952 C51.017541,24.0213333 50.7898543,23.5979683 50.4884669,23.2325079 C50.1868262,22.8667937 49.8213623,22.5752381 49.391822,22.3570794 C48.9617751,22.1389206 48.4714507,22.0299683 47.9200891,22.0299683 C47.3299776,22.0299683 46.8105276,22.1422222 46.361739,22.3667302 C45.9124438,22.5909841 45.5340633,22.8860952 45.2265975,23.2515556 C44.9188785,23.6172698 44.6815676,24.0439365 44.5149181,24.5313016 C44.3482686,25.0189206 44.245189,25.5189841 44.2069457,26.032 L51.4404965,26.032 Z M44.1876975,26.6669206 L44.1876975,26.7822222 C44.1876975,27.3594921 44.2644373,27.9113651 44.4186767,28.4368254 C44.5724096,28.9630476 44.8000964,29.4250159 45.1014838,29.8224762 C45.4028712,30.2199365 45.7812517,30.5340952 46.2366252,30.7649524 C46.6917455,30.9960635 47.2208197,31.1113651 47.8238477,31.1113651 C48.8115879,31.1113651 49.5936756,30.8518095 50.1711237,30.3321905 C50.7480653,29.8125714 51.1454407,29.0910476 51.3640099,28.1673651 L52.0931648,28.1673651 C51.8751021,29.3219048 51.4052924,30.2072381 50.6824692,30.8228571 C49.9598992,31.4384762 49.0038174,31.7462857 47.8142236,31.7462857 C47.0848155,31.7462857 46.4486095,31.6147302 45.9050991,31.351873 C45.3613354,31.0892698 44.9074815,30.7299048 44.5427774,30.2745397 C44.1783266,29.8191746 43.9063181,29.2805079 43.7272586,28.6582857 C43.5479457,28.0360635 43.4587959,27.3660952 43.4587959,26.647619 C43.4587959,25.9550476 43.5512382,25.2911746 43.7368827,24.656254 C43.9222739,24.0213333 44.2006141,23.4633651 44.5713965,22.9823492 C44.942179,22.5010794 45.4061636,22.1163175 45.9625906,21.8278095 C46.5190176,21.5393016 47.1744719,21.3950476 47.9292067,21.3950476 C48.6201183,21.3950476 49.2307443,21.5233016 49.7618447,21.7798095 C50.2921852,22.0365714 50.7369215,22.3857778 51.0950407,22.8284444 C51.4531598,23.2708571 51.7251682,23.784127 51.9108128,24.367746 C52.0959507,24.9513651 52.1888996,25.5766349 52.1888996,26.2435556 C52.1888996,26.3078095 52.1856071,26.3814603 52.1790222,26.4647619 C52.1726905,26.5483175 52.1696513,26.615873 52.1696513,26.6669206 L44.1876975,26.6669206 Z M40.8681306,31.5154286 L41.5975387,31.5154286 L41.5975387,17.7777778 L40.8681306,17.7777778 L40.8681306,31.5154286 Z M37.6450584,25.8971429 C37.4657455,26.1153016 37.1942436,26.2628571 36.8295395,26.3398095 C36.4650887,26.4167619 36.0585956,26.4744127 35.6110733,26.5127619 L34.382983,26.6283175 C34.0248639,26.6669206 33.6664915,26.7215238 33.3086256,26.791873 C32.9502532,26.8624762 32.6273381,26.9813333 32.3398804,27.1476825 C32.0519162,27.3147937 31.818151,27.5423492 31.6393447,27.8308571 C31.4600318,28.1193651 31.3706287,28.4947302 31.3706287,28.9564444 C31.3706287,29.687619 31.6011014,30.2295873 32.0615403,30.5820952 C32.5219792,30.9351111 33.1548927,31.1113651 33.9610407,31.1113651 C34.7922621,31.1113651 35.4510088,30.9607619 35.9372809,30.6593016 C36.4232997,30.3578413 36.7940822,30.0116825 37.0501348,29.6203175 C37.3059342,29.2292063 37.4687847,28.8507937 37.5394461,28.4850794 C37.6093477,28.1193651 37.6450584,27.8725079 37.6450584,27.744254 L37.6450584,25.8971429 Z M37.6450584,29.5530159 L37.6065618,29.5530159 C37.4913255,29.848127 37.3249292,30.1269841 37.1076264,30.3898413 C36.8900703,30.6529524 36.6246468,30.8871111 36.3113558,31.0920635 C35.9978116,31.2975238 35.642985,31.4577778 35.2466225,31.5730794 C34.8500069,31.6886349 34.4148946,31.7462857 33.9417924,31.7462857 C32.8927617,31.7462857 32.0805353,31.5184762 31.5051133,31.0633651 C30.9291848,30.608 30.6414738,29.9057778 30.6414738,28.9564444 C30.6414738,28.3791746 30.7567102,27.9078095 30.9869296,27.5423492 C31.2171491,27.1768889 31.5078993,26.888127 31.85994,26.6765714 C32.2117275,26.4647619 32.6017582,26.3141587 33.0302855,26.224254 C33.4588128,26.1348571 33.871131,26.0703492 34.2679999,26.032 L35.4001022,25.9354921 C35.9243643,25.8971429 36.3369358,25.8364444 36.6375634,25.7528889 C36.9379377,25.6695873 37.1651179,25.5542857 37.3188508,25.4067302 C37.4723305,25.2591746 37.5680653,25.0699683 37.6065618,24.8391111 C37.6450584,24.608254 37.6643066,24.3194921 37.6643066,23.9730794 C37.6643066,23.703619 37.6128935,23.4537143 37.5105737,23.2228571 C37.4080007,22.992 37.2481894,22.7867937 37.0308866,22.6072381 C36.8133305,22.4274286 36.5319511,22.2864762 36.1867486,22.183873 C35.8412928,22.0812698 35.4193504,22.0299683 34.920415,22.0299683 C34.0377805,22.0299683 33.3243282,22.248127 32.781071,22.6839365 C32.2370541,23.120254 31.939719,23.7808254 31.8888124,24.6659048 L31.1594043,24.6659048 C31.2105641,23.575619 31.5590591,22.7580952 32.2051425,22.2125714 C32.8512259,21.6678095 33.7690645,21.3950476 34.9586583,21.3950476 C36.1485053,21.3950476 37.0146775,21.6289524 37.5584411,22.0972698 C38.1019515,22.5655873 38.3742132,23.1779048 38.3742132,23.9344762 L38.3742132,29.687619 C38.3742132,29.8288254 38.3769992,29.9700317 38.3835841,30.1109841 C38.3899158,30.2521905 38.4122032,30.3801905 38.4506998,30.495746 C38.4891963,30.6113016 38.5530195,30.704254 38.6424227,30.7746032 C38.7320791,30.8452063 38.8602321,30.8805079 39.026375,30.8805079 C39.1540215,30.8805079 39.3333343,30.8612063 39.5635537,30.8228571 L39.5635537,31.4384762 C39.3718308,31.4897778 39.1732697,31.5154286 38.9688835,31.5154286 C38.6743343,31.5154286 38.4410756,31.4770794 38.268601,31.399873 C38.0958731,31.3229206 37.9644277,31.2205714 37.8752778,31.0920635 C37.7853681,30.9640635 37.7245841,30.8129524 37.6929258,30.64 C37.6607609,30.4667937 37.6450584,30.2778413 37.6450584,30.072381 L37.6450584,29.5530159 Z M29.7590926,22.2608254 L27.6103777,22.2608254 L27.6103777,29.168 C27.6103777,29.5659683 27.6546994,29.880127 27.7446091,30.1109841 C27.8340123,30.3415873 27.9712828,30.5180952 28.1569273,30.64 C28.3423186,30.7619048 28.5662063,30.8355556 28.8285907,30.8612063 C29.0904684,30.8871111 29.3946418,30.8932063 29.7400976,30.8805079 L29.7400976,31.5154286 C29.3688086,31.5410794 29.007397,31.5375238 28.656116,31.5057778 C28.3040753,31.4737778 27.9938236,31.3777778 27.7253608,31.2172698 C27.4566448,31.0570159 27.2423812,30.8165079 27.0825699,30.495746 C26.9225053,30.1752381 26.8551364,29.7325714 26.8812229,29.168 L26.8812229,22.2608254 L25.0584623,22.2608254 L25.0584623,21.6259048 L26.8812229,21.6259048 L26.8812229,18.5473016 L27.6103777,18.5473016 L27.6103777,21.6259048 L29.7590926,21.6259048 L29.7590926,22.2608254 Z M20.7602728,23.8191746 L20.8177644,23.8191746 C20.9071675,23.4986667 21.0702713,23.1972063 21.3073289,22.9147937 C21.5438801,22.6328889 21.831591,22.3890794 22.1704619,22.183873 C22.5093328,21.9789206 22.8867002,21.8217143 23.3028174,21.712254 C23.7181748,21.6035556 24.1499946,21.5555556 24.5977701,21.568254 L24.5977701,22.2991746 C24.2143243,22.248127 23.7756664,22.2864762 23.2835691,22.4147302 C22.7907121,22.5429841 22.3209023,22.8253968 21.8731268,23.2612063 C21.693814,23.4537143 21.5375484,23.639619 21.4030638,23.8191746 C21.2688324,23.9989841 21.1566352,24.1975873 21.0674854,24.415746 C20.9775757,24.6339048 20.9071675,24.8774603 20.8562609,25.1466667 C20.805101,25.416127 20.7731894,25.7371429 20.7602728,26.1086984 L20.7602728,31.5154286 L20.0313712,31.5154286 L20.0313712,21.6259048 L20.7602728,21.6259048 L20.7602728,23.8191746 Z M9.99643734,26.5706667 C9.99643734,27.1608889 10.0795088,27.728254 10.2459051,28.2735238 C10.412048,28.8187937 10.6551841,29.3028571 10.9750599,29.7259683 C11.2946825,30.1493333 11.6912982,30.4860952 12.1646537,30.736254 C12.6380092,30.9864127 13.1815196,31.1113651 13.7956914,31.1113651 C14.4096099,31.1113651 14.9531203,30.9864127 15.4264758,30.736254 C15.899578,30.4860952 16.2961937,30.1493333 16.6163228,29.7259683 C16.9356921,29.3028571 17.1788282,28.8187937 17.3452244,28.2735238 C17.5113674,27.728254 17.5946921,27.1608889 17.5946921,26.5706667 C17.5946921,25.9809524 17.5113674,25.4133333 17.3452244,24.8678095 C17.1788282,24.3227937 16.9356921,23.8384762 16.6163228,23.4151111 C16.2961937,22.992 15.899578,22.6552381 15.4264758,22.4050794 C14.9531203,22.1549206 14.4096099,22.0299683 13.7956914,22.0299683 C13.1815196,22.0299683 12.6380092,22.1549206 12.1646537,22.4050794 C11.6912982,22.6552381 11.2946825,22.992 10.9750599,23.4151111 C10.6551841,23.8384762 10.412048,24.3227937 10.2459051,24.8678095 C10.0795088,25.4133333 9.99643734,25.9809524 9.99643734,26.5706667 L9.99643734,26.5706667 Z M9.26753573,26.5706667 C9.26753573,25.8653968 9.36656301,25.2015238 9.56487085,24.5793016 C9.76317869,23.9573333 10.0539289,23.4087619 10.4378812,22.9340952 C10.8218336,22.4596825 11.2946825,22.0845714 11.8576944,21.8087619 C12.4204531,21.5329524 13.0665365,21.3950476 13.7956914,21.3950476 C14.5248462,21.3950476 15.1706764,21.5329524 15.733435,21.8087619 C16.2961937,22.0845714 16.7698024,22.4596825 17.1535015,22.9340952 C17.5369473,23.4087619 17.8279508,23.9573333 18.0265119,24.5793016 C18.2245665,25.2015238 18.323847,25.8653968 18.323847,26.5706667 C18.323847,27.2761905 18.2245665,27.9433651 18.0265119,28.5716825 C17.8279508,29.200254 17.5369473,29.7485714 17.1535015,30.2166349 C16.7698024,30.6852063 16.2961937,31.0570159 15.733435,31.3325714 C15.1706764,31.608381 14.5248462,31.7462857 13.7956914,31.7462857 C13.0665365,31.7462857 12.4204531,31.608381 11.8576944,31.3325714 C11.2946825,31.0570159 10.8218336,30.6852063 10.4378812,30.2166349 C10.0539289,29.7485714 9.76317869,29.200254 9.56487085,28.5716825 C9.36656301,27.9433651 9.26753573,27.2761905 9.26753573,26.5706667 L9.26753573,26.5706667 Z M0,17.7777778 L8.59612566,17.7777778 L8.59612566,18.5089524 L0.844137969,18.5089524 L0.844137969,24.0116825 L7.82847424,24.0116825 L7.82847424,24.7428571 L0.844137969,24.7428571 L0.844137969,31.5154286 L0,31.5154286 L0,17.7777778 Z" id="Fortaleza" fill="#FEFEFE"></path>
            </g>
        </g>
    </g>
</svg>