<?xml version="1.0" encoding="utf-8"?>
<!-- Generator: Adobe Illustrator 21.1.0, SVG Export Plug-In . SVG Version: 6.00 Build 0)  -->
<svg version="1.1" xmlns="http://www.w3.org/2000/svg" xmlns:xlink="http://www.w3.org/1999/xlink" x="0px" y="0px"
	 viewBox="0 0 428 183" style="enable-background:new 0 0 428 183;" xml:space="preserve">
<style type="text/css">
	.st0{fill:#1D1D1B;}
	.st1{fill:#E63A32;}
	.st2{fill:#E20613;}
	.st3{fill:#FFFFFF;}
	.st4{fill:#EE483E;}
	.st5{fill:#EC1C24;}
</style>
<g id="Layer_2">
</g>
<g id="Layer_1">
	<g>
		<g>
			<path class="st4" d="M14.4,163.7l-4-5.7h3.8l2.1,3.2l2.1-3.2h3.7l-4,5.7l4.5,6.4h-3.8l-2.5-3.8l-2.5,3.8H10L14.4,163.7z"/>
			<path class="st0" d="M38.3,163H26.5v-2.5h11.8V163z M38.3,168H26.5v-2.5h11.8V168z"/>
			<path class="st0" d="M47.3,156.1H44v-2.7h3.3V156.1z M44,158h3.3v12.1H44V158z"/>
			<path class="st0" d="M49.5,158h3.2v1.7h0.1c0.8-1.4,2.3-2,3.7-2c3.5,0,4.4,2,4.4,5v7.4h-3.3v-6.8c0-2-0.6-3-2.1-3
				c-1.8,0-2.6,1-2.6,3.5v6.3h-3.3V158z"/>
			<path class="st0" d="M71.5,168.6L71.5,168.6c-0.8,1.3-2.2,1.9-3.7,1.9c-3.6,0-5.4-3.1-5.4-6.5c0-3.2,1.8-6.3,5.3-6.3
				c1.4,0,2.8,0.6,3.6,1.8h0h0v-6.1h3.3v16.7h-3.2V168.6z M68.6,160.2c-2.2,0-2.9,1.9-2.9,3.9c0,1.9,0.9,3.9,2.9,3.9
				c2.2,0,2.9-1.9,2.9-3.9C71.5,162.1,70.8,160.2,68.6,160.2z"/>
			<path class="st0" d="M79.4,164.9c0.1,2.1,1.1,3.1,3,3.1c1.3,0,2.4-0.8,2.6-1.6H88c-0.9,2.8-2.9,4.1-5.7,4.1
				c-3.8,0-6.2-2.6-6.2-6.4c0-3.6,2.5-6.4,6.2-6.4c4.1,0,6.1,3.5,5.9,7.2H79.4z M84.8,162.8c-0.3-1.7-1-2.6-2.6-2.6
				c-2.1,0-2.7,1.6-2.8,2.6H84.8z"/>
			<path class="st0" d="M89.7,158h3.2v1.5h0c0.8-1.3,2.1-1.9,3.6-1.9c3.8,0,5.5,3.1,5.5,6.5c0,3.2-1.8,6.2-5.3,6.2
				c-1.5,0-2.8-0.6-3.6-1.8h0v5.7h-3.3V158z M98.6,164.1c0-1.9-0.8-3.9-2.9-3.9c-2.2,0-2.9,1.9-2.9,3.9c0,2,0.8,3.8,2.9,3.8
				C97.9,167.9,98.6,166.1,98.6,164.1z"/>
			<path class="st0" d="M106.2,164.9c0.1,2.1,1.1,3.1,3,3.1c1.3,0,2.4-0.8,2.6-1.6h2.9c-0.9,2.8-2.9,4.1-5.7,4.1
				c-3.8,0-6.2-2.6-6.2-6.4c0-3.6,2.5-6.4,6.2-6.4c4.1,0,6.1,3.5,5.9,7.2H106.2z M111.6,162.8c-0.3-1.7-1-2.6-2.6-2.6
				c-2.1,0-2.7,1.6-2.8,2.6H111.6z"/>
			<path class="st0" d="M116.4,158h3.2v1.7h0.1c0.8-1.4,2.3-2,3.7-2c3.5,0,4.4,2,4.4,5v7.4h-3.3v-6.8c0-2-0.6-3-2.1-3
				c-1.8,0-2.6,1-2.6,3.5v6.3h-3.3V158z"/>
			<path class="st0" d="M138.5,168.6L138.5,168.6c-0.8,1.3-2.2,1.9-3.7,1.9c-3.6,0-5.4-3.1-5.4-6.5c0-3.2,1.8-6.3,5.4-6.3
				c1.4,0,2.8,0.6,3.6,1.8h0h0v-6.1h3.3v16.7h-3.2V168.6z M135.6,160.2c-2.2,0-2.9,1.9-2.9,3.9c0,1.9,0.9,3.9,2.9,3.9
				c2.2,0,2.8-1.9,2.8-3.9C138.4,162.1,137.7,160.2,135.6,160.2z"/>
			<path class="st0" d="M146.4,164.9c0.1,2.1,1.1,3.1,3,3.1c1.3,0,2.4-0.8,2.6-1.6h2.9c-0.9,2.8-2.9,4.1-5.7,4.1
				c-3.8,0-6.2-2.6-6.2-6.4c0-3.6,2.5-6.4,6.2-6.4c4.1,0,6.1,3.5,5.9,7.2H146.4z M151.8,162.8c-0.3-1.7-1-2.6-2.6-2.6
				c-2.1,0-2.7,1.6-2.8,2.6H151.8z"/>
			<path class="st0" d="M156.6,158h3.2v1.7h0.1c0.8-1.4,2.3-2,3.7-2c3.5,0,4.4,2,4.4,5v7.4h-3.3v-6.8c0-2-0.6-3-2.1-3
				c-1.8,0-2.6,1-2.6,3.5v6.3h-3.3V158z"/>
			<path class="st0" d="M174.2,158h2.4v2.2h-2.4v6c0,1.1,0.3,1.4,1.4,1.4c0.3,0,0.7,0,1-0.1v2.6c-0.6,0.1-1.3,0.1-1.9,0.1
				c-2,0-3.8-0.5-3.8-2.9v-7.1h-2V158h2v-3.6h3.3V158z"/>
			<path class="st0" d="M177.8,153.4h3.3v16.7h-3.3V153.4z"/>
			<path class="st0" d="M189.3,171.6c-0.7,1.9-1.9,2.7-4.2,2.7c-0.7,0-1.4,0-2-0.1v-2.7c0.6,0,1.3,0.1,1.9,0.1
				c1.1-0.1,1.5-1.3,1.1-2.3l-4.3-11.3h3.6l2.7,8.3h0l2.6-8.3h3.4L189.3,171.6z"/>
			<path class="st0" d="M206.9,157.7c3.8,0,6.3,2.5,6.3,6.4c0,3.8-2.5,6.4-6.3,6.4c-3.8,0-6.2-2.5-6.2-6.4
				C200.6,160.2,203.1,157.7,206.9,157.7z M206.9,167.9c2.3,0,2.9-1.9,2.9-3.9c0-1.9-0.7-3.9-2.9-3.9c-2.2,0-2.9,1.9-2.9,3.9
				C204,166,204.7,167.9,206.9,167.9z"/>
			<path class="st0" d="M214.4,158h3.2v2.2h0c0.6-1.5,2.2-2.6,3.9-2.6c0.2,0,0.5,0,0.7,0.1v3.1c-0.3-0.1-0.8-0.1-1.2-0.1
				c-2.4,0-3.3,1.8-3.3,3.9v5.5h-3.3V158z"/>
			<path class="st0" d="M234.6,169.3c0,2-0.7,5.4-6.3,5.4c-2.4,0-5.2-1.1-5.3-3.9h3.3c0.3,1.2,1.3,1.7,2.5,1.7c1.8,0,2.7-1.3,2.7-3
				v-1.6h0c-0.7,1.3-2.2,1.9-3.6,1.9c-3.6,0-5.2-2.8-5.2-6.1c0-3.1,1.8-6,5.2-6c1.6,0,2.8,0.5,3.6,1.9h0V158h3.2V169.3z
				 M231.5,163.9c0-2-0.7-3.7-2.8-3.7c-1.9,0-2.7,1.6-2.7,3.4c0,1.7,0.6,3.6,2.7,3.6C230.5,167.3,231.5,165.6,231.5,163.9z"/>
			<path class="st0" d="M236.2,161.7c0.2-3.1,3-4,5.7-4c2.4,0,5.3,0.5,5.3,3.4v6.3c0,1.1,0.1,2.2,0.4,2.7h-3.4
				c-0.1-0.4-0.2-0.8-0.2-1.2c-1.1,1.1-2.6,1.5-4.1,1.5c-2.3,0-4.1-1.1-4.1-3.6c0-2.7,2.1-3.4,4.1-3.7c2-0.3,3.9-0.2,3.9-1.6
				c0-1.4-1-1.6-2.1-1.6c-1.3,0-2.1,0.5-2.2,1.8H236.2z M243.9,164.2c-0.6,0.5-1.7,0.5-2.8,0.7c-1,0.2-2,0.6-2,1.8
				c0,1.2,1,1.6,2,1.6c2.6,0,2.7-2.1,2.7-2.8V164.2z"/>
			<path class="st0" d="M249.3,158h3.2v1.7h0.1c0.8-1.4,2.3-2,3.7-2c3.5,0,4.4,2,4.4,5v7.4h-3.3v-6.8c0-2-0.6-3-2.1-3
				c-1.8,0-2.6,1-2.6,3.5v6.3h-3.3V158z"/>
			<path class="st0" d="M265.6,156.1h-3.3v-2.7h3.3V156.1z M262.3,158h3.3v12.1h-3.3V158z"/>
			<path class="st0" d="M267.1,167.6l6.3-7.1h-5.8V158h10.2v2.5l-6.3,7.1h6.7v2.5h-11.1V167.6z"/>
			<path class="st0" d="M282.2,164.9c0.1,2.1,1.1,3.1,3,3.1c1.3,0,2.4-0.8,2.6-1.6h2.9c-0.9,2.8-2.9,4.1-5.7,4.1
				c-3.8,0-6.2-2.6-6.2-6.4c0-3.6,2.5-6.4,6.2-6.4c4.1,0,6.1,3.5,5.9,7.2H282.2z M287.6,162.8c-0.3-1.7-1-2.6-2.7-2.6
				c-2.1,0-2.7,1.6-2.8,2.6H287.6z"/>
			<path class="st0" d="M301,168.6L301,168.6c-0.8,1.3-2.2,1.9-3.7,1.9c-3.6,0-5.4-3.1-5.4-6.5c0-3.2,1.8-6.3,5.4-6.3
				c1.4,0,2.8,0.6,3.6,1.8h0h0v-6.1h3.3v16.7H301V168.6z M298.2,160.2c-2.2,0-2.9,1.9-2.9,3.9c0,1.9,0.9,3.9,2.9,3.9
				c2.2,0,2.9-1.9,2.9-3.9C301,162.1,300.3,160.2,298.2,160.2z"/>
			<path class="st0" d="M316.3,156.5h-5v-3.1H325v3.1h-5v13.6h-3.7V156.5z"/>
			<path class="st0" d="M326.4,153.4h12.5v3.1h-8.8v3.6h8.1v2.8h-8.1v4.1h9v3.1h-12.7V153.4z"/>
			<path class="st0" d="M340.7,153.4h7.2c4.3,0,7.6,2.7,7.6,8.3c0,4.8-2.5,8.4-7.6,8.4h-7.2V153.4z M344.3,167h3.3
				c2.1,0,4.2-1.3,4.2-5c0-3.4-1.2-5.5-4.8-5.5h-2.6V167z"/>
			<path class="st0" d="M365.9,164.9c0.1,2.1,1.1,3.1,3,3.1c1.3,0,2.4-0.8,2.6-1.6h2.9c-0.9,2.8-2.9,4.1-5.7,4.1
				c-3.8,0-6.2-2.6-6.2-6.4c0-3.6,2.5-6.4,6.2-6.4c4.1,0,6.1,3.5,5.9,7.2H365.9z M371.3,162.8c-0.3-1.7-1-2.6-2.6-2.6
				c-2.1,0-2.7,1.6-2.8,2.6H371.3z"/>
			<path class="st0" d="M382.4,170.1h-3.7l-4.1-12.1h3.5l2.5,8.3h0l2.6-8.3h3.3L382.4,170.1z"/>
			<path class="st0" d="M389.6,164.9c0.1,2.1,1.1,3.1,3,3.1c1.3,0,2.4-0.8,2.6-1.6h2.9c-0.9,2.8-2.9,4.1-5.7,4.1
				c-3.8,0-6.2-2.6-6.2-6.4c0-3.6,2.5-6.4,6.2-6.4c4.1,0,6.1,3.5,5.9,7.2H389.6z M395,162.8c-0.3-1.7-1-2.6-2.6-2.6
				c-2.1,0-2.7,1.6-2.8,2.6H395z"/>
			<path class="st0" d="M399.9,158h3.2v1.7h0.1c0.8-1.4,2.3-2,3.7-2c3.5,0,4.4,2,4.4,5v7.4h-3.3v-6.8c0-2-0.6-3-2.1-3
				c-1.8,0-2.6,1-2.6,3.5v6.3h-3.3V158z"/>
			<path class="st0" d="M417.5,158h2.4v2.2h-2.4v6c0,1.1,0.3,1.4,1.4,1.4c0.3,0,0.7,0,1-0.1v2.6c-0.6,0.1-1.3,0.1-1.9,0.1
				c-2,0-3.8-0.5-3.8-2.9v-7.1h-2V158h2v-3.6h3.3V158z"/>
		</g>
		<g>
			<g>
				<path class="st5" d="M25.6,26.9H10V12.7h48.3v14.2H42.7v41.3H25.6V26.9z"/>
				<path class="st5" d="M60.9,12.7h46.8v14.2H78.1v6.9h29.7v13.2H78.1V54h29.7v14.3H60.9V12.7z"/>
				<path class="st5" d="M110.7,12.7h28.1c18.5,0,25.1,13.7,25.1,27.7c0,17.1-9,27.9-28.4,27.9h-24.8V12.7z M127.8,54h6.7
					c10.7,0,12.2-8.6,12.2-13.9c0-3.5-1.1-13.2-13.5-13.2h-5.5V54z"/>
			</g>
			<g>
				<g>
					<path class="st5" d="M188.5,46.9l-5.2-8.7l-5.1,8.7h-12.5l11.9-17.5L166,12.6h12.6l4.6,8.3l4.8-8.3h12.6l-11.5,16.8L201,46.9
						H188.5z"/>
				</g>
			</g>
		</g>
		<g>
			<path class="st0" d="M10,81.2h38.4V88H17.5v16.8h27.2v6.6H17.5v25.2H10V81.2z"/>
			<path class="st0" d="M84.8,100.2c3.6,3.5,5.3,8.6,5.3,15.3c0,6.5-1.6,11.9-4.7,16.1c-3.1,4.2-8,6.4-14.6,6.4
				c-5.5,0-9.9-1.9-13.1-5.6c-3.2-3.8-4.9-8.8-4.9-15.1c0-6.8,1.7-12.2,5.1-16.2c3.4-4,8-6,13.8-6C76.8,95,81.2,96.7,84.8,100.2z
				 M80.6,127c1.7-3.4,2.5-7.2,2.5-11.3c0-3.8-0.6-6.8-1.8-9.2c-1.9-3.7-5.1-5.6-9.8-5.6c-4.1,0-7.1,1.6-8.9,4.7
				c-1.9,3.2-2.8,7-2.8,11.4c0,4.3,0.9,7.9,2.8,10.7c1.9,2.9,4.8,4.3,8.9,4.3C75.9,132.1,78.9,130.4,80.6,127z"/>
			<path class="st0" d="M98.6,96.2h6.4v7c0.5-1.4,1.8-3,3.9-4.9c2.1-1.9,4.4-2.9,7.1-2.9c0.1,0,0.3,0,0.6,0c0.3,0,0.8,0.1,1.5,0.2
				v7.2c-0.4-0.1-0.8-0.1-1.1-0.2c-0.4,0-0.7,0-1.1,0c-3.4,0-6.1,1.1-7.9,3.3c-1.8,2.2-2.8,4.7-2.8,7.6v23.2h-6.8V96.2z"/>
			<path class="st0" d="M125.5,84.9h6.9v11.3h6.4v5.5h-6.4V128c0,1.4,0.5,2.4,1.4,2.8c0.5,0.3,1.4,0.4,2.6,0.4c0.3,0,0.7,0,1.1,0
				c0.4,0,0.8-0.1,1.3-0.1v5.4c-0.8,0.2-1.6,0.4-2.4,0.5c-0.8,0.1-1.8,0.2-2.7,0.2c-3.2,0-5.3-0.8-6.4-2.4c-1.1-1.6-1.7-3.7-1.7-6.3
				v-26.7H120v-5.5h5.5V84.9z"/>
			<path class="st0" d="M167.2,112.1c1.6-0.2,2.6-0.9,3.1-2c0.3-0.6,0.5-1.5,0.5-2.6c0-2.3-0.8-4-2.5-5.1c-1.7-1-4-1.6-7.1-1.6
				c-3.5,0-6,0.9-7.5,2.9c-0.8,1.1-1.4,2.6-1.6,4.7h-6.3c0.1-5,1.7-8.5,4.8-10.4c3.1-1.9,6.7-2.9,10.8-2.9c4.7,0,8.6,0.9,11.6,2.7
				c2.9,1.8,4.4,4.6,4.4,8.4v23.3c0,0.7,0.1,1.3,0.4,1.7c0.3,0.4,0.9,0.6,1.8,0.6c0.3,0,0.6,0,1-0.1c0.4,0,0.8-0.1,1.2-0.2v5
				c-1.1,0.3-1.9,0.5-2.4,0.6c-0.6,0.1-1.3,0.1-2.3,0.1c-2.3,0-4-0.8-5.1-2.5c-0.6-0.9-1-2.1-1.2-3.7c-1.4,1.8-3.4,3.4-5.9,4.7
				c-2.6,1.3-5.4,2-8.6,2c-3.7,0-6.8-1.1-9.2-3.4c-2.4-2.3-3.6-5.1-3.6-8.5c0-3.7,1.2-6.6,3.5-8.7c2.3-2.1,5.4-3.3,9.2-3.8
				L167.2,112.1z M152.9,130.4c1.4,1.1,3.1,1.7,5.1,1.7c2.4,0,4.7-0.6,6.9-1.7c3.8-1.8,5.7-4.8,5.7-9V116c-0.8,0.5-1.9,1-3.2,1.3
				c-1.3,0.4-2.6,0.6-3.8,0.8l-4.1,0.5c-2.4,0.3-4.3,0.8-5.5,1.5c-2.1,1.2-3.1,3-3.1,5.6C150.8,127.8,151.5,129.3,152.9,130.4z"/>
			<path class="st0" d="M188.7,81.2h6.8v55.4h-6.8V81.2z"/>
			<path class="st0" d="M230.6,97.3c2.7,1.3,4.7,3.1,6.1,5.2c1.4,2,2.3,4.4,2.7,7.1c0.4,1.9,0.6,4.8,0.6,8.9h-29.4
				c0.1,4.1,1.1,7.4,2.9,9.9c1.8,2.5,4.6,3.7,8.3,3.7c3.5,0,6.3-1.2,8.4-3.5c1.2-1.4,2-2.9,2.5-4.7h6.7c-0.2,1.5-0.8,3.1-1.8,4.9
				s-2.1,3.3-3.3,4.5c-2,2-4.6,3.4-7.6,4.1c-1.6,0.4-3.5,0.6-5.5,0.6c-5,0-9.2-1.8-12.7-5.5c-3.5-3.7-5.2-8.8-5.2-15.4
				c0-6.5,1.7-11.8,5.2-15.8c3.5-4,8.1-6.1,13.7-6.1C225.2,95.3,227.9,95.9,230.6,97.3z M233,113.1c-0.3-2.9-0.9-5.3-1.9-7
				c-1.8-3.3-4.9-4.9-9.2-4.9c-3.1,0-5.7,1.1-7.8,3.4c-2.1,2.2-3.2,5.1-3.3,8.6H233z"/>
			<path class="st0" d="M245.6,131.2l24-28.9h-22.2v-6.1h31.3v5.5l-23.8,28.8h24.5v6.1h-33.8V131.2z"/>
			<path class="st0" d="M308.8,112.1c1.6-0.2,2.6-0.9,3.1-2c0.3-0.6,0.5-1.5,0.5-2.6c0-2.3-0.8-4-2.5-5.1c-1.6-1-4-1.6-7-1.6
				c-3.5,0-6,0.9-7.5,2.9c-0.8,1.1-1.4,2.6-1.6,4.7h-6.3c0.1-5,1.7-8.5,4.8-10.4c3.1-1.9,6.7-2.9,10.8-2.9c4.7,0,8.6,0.9,11.6,2.7
				c2.9,1.8,4.4,4.6,4.4,8.4v23.3c0,0.7,0.2,1.3,0.4,1.7c0.3,0.4,0.9,0.6,1.8,0.6c0.3,0,0.6,0,1-0.1c0.4,0,0.8-0.1,1.2-0.2v5
				c-1.1,0.3-1.9,0.5-2.4,0.6c-0.5,0.1-1.3,0.1-2.3,0.1c-2.3,0-4-0.8-5.1-2.5c-0.5-0.9-0.9-2.1-1.2-3.7c-1.4,1.8-3.4,3.4-5.9,4.7
				c-2.6,1.3-5.5,2-8.6,2c-3.7,0-6.8-1.1-9.2-3.4c-2.4-2.3-3.6-5.1-3.6-8.5c0-3.7,1.2-6.6,3.5-8.7c2.3-2.1,5.4-3.3,9.2-3.8
				L308.8,112.1z M294.5,130.4c1.4,1.1,3.1,1.7,5.1,1.7c2.4,0,4.7-0.6,6.9-1.7c3.8-1.8,5.7-4.8,5.7-9V116c-0.8,0.5-1.9,1-3.2,1.3
				c-1.3,0.4-2.6,0.6-3.8,0.8l-4.1,0.5c-2.5,0.3-4.3,0.8-5.5,1.5c-2.1,1.2-3.1,3-3.1,5.6C292.4,127.8,293.1,129.3,294.5,130.4z"/>
		</g>
	</g>
</g>
</svg>
