
<svg version="1.1" id="Camada_1" xmlns="http://www.w3.org/2000/svg" xmlns:xlink="http://www.w3.org/1999/xlink" x="0px" y="0px"
	 viewBox="0 0 26 33" style="enable-background:new 0 0 26 33;" xml:space="preserve">
<style type="text/css">
	.styout0{clip-path:url(#SVGIDYOUT_2_); fill: #fff;}
	.styout1{clip-path:url(#SVGIDYOUT_4_);}
</style>
<g>
	<defs>
		<path id="SVGIDYOUT_1_" d="M9.7,20.4V12l7.3,4.2L9.7,20.4z M21.1,8.3c-6.3-0.4-12-0.4-17,0c-0.8,0.1-1.5,0.5-2,1.3
			c-0.5,0.8-0.9,1.6-1,2.5c-0.2,2.8-0.2,5.6,0,8.4c0.1,0.8,0.4,1.7,1,2.5c0.5,0.8,1.2,1.2,2,1.4c6.1,0.4,11.8,0.4,17,0
			c0.8-0.2,1.5-0.6,2-1.4c0.5-0.8,0.9-1.6,1-2.4c0.2-2.8,0.2-5.7,0-8.6c-0.1-0.9-0.4-1.7-0.9-2.4C22.7,8.7,22,8.3,21.1,8.3z"/>
	</defs>
	<clipPath id="SVGIDYOUT_2_">
		<use xlink:href="#SVGIDYOUT_1_"  style="overflow:visible;"/>
	</clipPath>
	<g class="styout0">
		<defs>
			<rect id="SVGIDYOUT_3_" x="-1375" y="-567" width="1440" height="1024"/>
		</defs>
		<clipPath id="SVGIDYOUT_4_">
			<use xlink:href="#SVGIDYOUT_3_"  style="overflow:visible;"/>
		</clipPath>
		<rect x="-4" y="3" class="styout1" width="33.2" height="26.6"/>
	</g>
</g>
</svg>
