<svg xmlns="http://www.w3.org/2000/svg" viewBox="0 0 721.44882 271.31807"><defs><style>.cls-1{fill:#609;}</style></defs><title>logo_vivo</title><g id="Layer_2" data-name="Layer 2"><g id="Layer_1-2" data-name="Layer 1"><path class="cls-1" d="M537.69332,177.34491a88.97846,88.97846,0,0,1,20.08877-52.417,89.48985,89.48985,0,0,1,29.02312-23.48365,92.97574,92.97574,0,0,1,55.73424-9.3325,91.36849,91.36849,0,0,1,44.66371,19.08392,89.691,89.691,0,0,1,24.482,29.65684c8.56677,16.52914,11.28189,34.06093,8.9828,52.37107a85.365,85.365,0,0,1-11.8355,33.48724,90.73611,90.73611,0,0,1-29.31907,30.07762,89.8107,89.8107,0,0,1-27.617,11.75011,92.778,92.778,0,0,1-97.27531-35.17788,87.20083,87.20083,0,0,1-13.62073-27.87448C538.74344,197.53484,537.63142,189.4478,537.69332,177.34491Zm128.20716,3.881a36.36311,36.36311,0,1,0-36.16109,36.39946A36.28173,36.28173,0,0,0,665.90048,181.22588ZM437.40391,264.97254c5.87042-1.3756,10.89529-4.31837,14.11973-9.69414,2.36446-3.942,4.75-7.87315,7.023-11.8678,6.25423-10.99152,12.44671-22.01818,18.67767-33.023q11.22789-19.82992,22.48369-39.64407c7.41666-13.0279,14.91331-26.0105,22.28284-39.06489a40.02366,40.02366,0,0,0,4.19472-9.0131c2.20908-8.2685-.69086-17.63558-8.93738-21.92627-5.91286-3.0765-11.8532-6.12072-17.91543-8.88521-10.72251-4.8896-21.42506-1.58988-27.75308,8.255-3.87525,6.029-6.95374,12.58126-10.23808,18.97657-6.21052,12.09316-12.31245,24.24205-18.45727,36.36891q-3.34361,6.59852-6.67535,13.20312c-3.499,6.96642-6.96738,13.94835-10.50259,20.89628-.29037.57071-1.00142,1.29917-1.50057,1.2869-.49563-.0122-1.13617-.78407-1.42978-1.36579-4.49927-8.914-8.92212-17.86658-13.42276-26.7799q-10.84718-21.48234-21.78487-42.91881c-3.46423-6.75063-6.703-13.67938-10.83748-20.00906-6.27452-9.606-17.06394-12.77595-27.71961-7.8269-5.86057,2.72195-11.60141,5.70344-17.37739,8.60542a18.97931,18.97931,0,0,0-8.21208,25.26788c5.55174,10.7749,11.83871,21.17223,17.85011,31.70866,5.283,9.25968,10.65384,18.46926,15.93207,27.7316q9.55117,16.76052,19.01318,33.57182c6.49682,11.47917,13.0901,22.9053,19.44744,34.46123,3.17422,5.7699,7.70462,9.8295,14.00564,11.34318,5.0123,1.20411,10.24164,1.50461,14.84882,2.13437C429.24657,266.13546,433.40838,265.90879,437.40391,264.97254Zm-334.86937,1.92614c5.108-.81661,10.34011-1.18636,15.2931-2.56147,6.377-1.77044,10.69964-6.2213,13.91769-12.10041,6.10942-11.16139,12.6722-22.0738,18.97658-33.12956,7.72064-13.5394,15.36437-27.12262,23.05055-40.68166,8.24416-14.54339,16.54167-29.05679,24.72214-43.63589,2.33121-4.15463,5.42979-7.96019,6.32827-12.82477,1.44591-7.82863-.05943-15.13041-6.87187-19.52186-7.00558-4.516-14.73782-8.0182-22.42593-11.32792-6.84887-2.94843-13.63454-1.64866-19.731,2.6313-4.09593,2.87552-6.67535,7.02955-8.93219,11.36674q-7.6107,14.62627-15.0935,29.319c-5.66251,11.15949-11.23539,22.36446-16.84483,33.55087-3.58084,7.14092-7.14241,14.2916-10.76073,21.41346a8.55246,8.55246,0,0,1-1.5329,1.68447,9.59908,9.59908,0,0,1-1.694-1.73963c-.72992-1.26584-1.22774-2.66277-1.8871-3.97245q-7.73311-15.3604-15.4915-30.708-5.93918-11.77658-11.86622-23.55926c-2.42643-4.81811-4.78594-9.67142-7.29606-14.44553-2.91341-5.54114-5.66691-11.19773-9.00923-16.47529-6.4722-10.21969-17.73754-13.25428-28.64569-8.01453-5.34232,2.5662-10.5041,5.52124-15.90605,7.94747-9.28674,4.171-12.72425,14.73755-9.84323,23.38849,1.14079,3.42549,3.14511,6.58521,4.92421,9.77218q7.74316,13.87056,15.62938,27.66117c4.6485,8.16217,9.37148,16.2819,14.024,24.44182q9.5042,16.66923,18.95055,33.37143c6.37566,11.24842,12.814,22.46233,19.073,33.77541,3.10307,5.60872,7.293,9.7181,13.45691,11.8147,5.02452,1.709,10.19394,1.86991,15.39211,2.01028Zm130.29094-85.52746c0,21.28848-.05273,42.57722.05442,63.86517a43.66842,43.66842,0,0,0,1.228,10.05011c1.83632,7.52044,8.63175,13.71412,16.3282,14.17281a249.12614,249.12614,0,0,0,25.58394.08524c7.08815-.30771,12.13422-4.45062,15.48934-10.52894a24.28327,24.28327,0,0,0,2.69666-12.164c-.03777-4.1369-.10642-8.27375-.10874-12.41068q-.01709-30.43117-.002-60.86236.02043-28.82864.09295-57.65721A24.48106,24.48106,0,0,0,291.22,103.22586,19.6068,19.6068,0,0,0,273.839,92.89525c-7.00247-.17307-14.01852-.22746-21.01715.007a19.25828,19.25828,0,0,0-15.06114,7.51976c-3.63966,4.606-4.9825,9.90311-4.97429,15.68254q.04639,32.6333.01242,65.2667ZM298.60021,35.02848a34.66574,34.66574,0,1,0-34.33289,34.18358A34.47983,34.47983,0,0,0,298.60021,35.02848Z"/></g></g></svg>