<svg xmlns="http://www.w3.org/2000/svg" viewBox="0 0 669.77734 417.51885"><defs><style>.cls-1{fill:#0c0b0c;}.cls-2{fill:#8e0005;}.cls-3{fill:#d20004;}.cls-4{fill:#fd0b06;}</style></defs><title>logo_arx</title><g id="Layer_2" data-name="Layer 2"><g id="Capa_1" data-name="Capa 1"><path class="cls-1" d="M669.77734,328.378H0v-1.95147H669.77734ZM43.79628,392.79515q0-9.8292-4.681-15.3617-4.68129-5.5309-13.23383-5.53131a18.4879,18.4879,0,0,0-14.31895,6.40444q-5.76661,6.404-5.7662,16.5739,0,10.766,5.27672,16.70222,5.276,5.93619,14.51065,5.93615,9.44669,0,15.19126-4.17075v-6.55271A21.4085,21.4085,0,0,1,27.24324,411.646q-6.55366,0-10.29811-3.95664-3.745-3.95791-3.9146-11.23421H43.79628ZM13.1155,390.53979a16.028,16.028,0,0,1,4.25532-9.23385,11.27427,11.27427,0,0,1,8.3828-3.53169,9.93154,9.93154,0,0,1,7.97862,3.36174q2.87259,3.3626,2.9152,9.40379Zm130.26416-17.61616L131.80548,404.7525a28.72855,28.72855,0,0,0-1.36179,5.91537h-.17036a28.476,28.476,0,0,0-1.53174-6.08532l-11.06385-31.65892h-7.65959l16.5106,43.57382h6.851l17.36165-43.57382Zm111.49779,19.87152q0-9.8292-4.68108-15.3617-4.68129-5.5309-13.23375-5.53131a18.48778,18.48778,0,0,0-14.31895,6.40444q-5.76673,6.404-5.76628,16.5739,0,10.766,5.2768,16.70222,5.27586,5.93619,14.51057,5.93615,9.44669,0,15.19126-4.17075v-6.55271A21.40828,21.40828,0,0,1,238.3244,411.646q-6.55378,0-10.29819-3.95664-3.745-3.95791-3.9146-11.23421h30.76584Zm-30.68078-2.25536a16.027,16.027,0,0,1,4.25532-9.23385,11.274,11.274,0,0,1,8.38272-3.53169,9.93184,9.93184,0,0,1,7.97871,3.36174q2.87246,3.3626,2.91519,9.40379Zm139.54079-.68069q0-8.72269-3.78752-13.3404-3.7871-4.61577-10.93594-4.61655-9.36246,0-14.29768,8.25489h-.17044v-7.2334h-6.97848v43.57382h6.97848v-24.8512a14.59081,14.59081,0,0,1,3.42553-9.93621,10.98789,10.98789,0,0,1,8.65981-3.93578q10.12611,0,10.12776,13.872v24.8512h6.97848Zm95.49792,20.25558a7.33766,7.33766,0,0,1-4.55317,1.44635q-3.44671,0-4.93642-1.87212-1.49-1.87249-1.4888-6.25527v-24.553h10.97839v-5.957H448.257V360.02977l-6.97931,2.25536v10.63849h-7.48923v5.957h7.48923v25.78689q0,12.76595,11.44668,12.76636a13.45874,13.45874,0,0,0,6.511-1.3622Zm104.79672,1.12723q5.893-6.27534,5.893-16.70214,0-10.6373-5.468-16.6381-5.46832-5.99985-15.21252-5.99953-10.21268,0-16.21225,6.17038-6,6.16943-6.00035,17.14868,0,10.08411,5.7662,16.19148,5.76538,6.10576,15.425,6.10617Q558.13765,417.51885,564.03209,411.24191Zm-4.89389-29.042q3.638,4.42563,3.63834,12.59559,0,8.08527-3.63834,12.46809-3.638,4.38364-10.40434,4.38241a13.44775,13.44775,0,0,1-10.59523-4.46738q-3.95791-4.469-3.95746-12.21317,0-8.042,3.91494-12.61644a13.27155,13.27155,0,0,1,10.63774-4.57477Q555.49983,377.77425,559.1382,382.19992Zm93.09429,35.31893a27.10546,27.10546,0,0,0,6.51109-.76648,17.42006,17.42006,0,0,0,5.48878-2.34034,12.203,12.203,0,0,0,3.80836-3.95746,10.72689,10.72689,0,0,0,1.4255-5.61628,10.914,10.914,0,0,0-.87231-4.55317,10.30769,10.30769,0,0,0-2.48859-3.38342,17.86631,17.86631,0,0,0-3.915-2.63852A54.41245,54.41245,0,0,0,656.999,391.987q-2.17076-.85023-3.87248-1.57467a13.77588,13.77588,0,0,1-2.89351-1.61712,6.27571,6.27571,0,0,1-1.80884-2.04207,5.97365,5.97365,0,0,1-.61731-2.85108,5.10343,5.10343,0,0,1,.61731-2.48943,5.80689,5.80689,0,0,1,1.74462-1.93624,8.65678,8.65678,0,0,1,2.702-1.25555,12.95111,12.95111,0,0,1,3.53251-.44654,19.74084,19.74084,0,0,1,11.06344,3.14927v-7.06428a25.00824,25.00824,0,0,0-10.12783-1.9571,23.69393,23.69393,0,0,0-6.19115.80819,17.46086,17.46086,0,0,0-5.34051,2.40446,12.45653,12.45653,0,0,0-3.745,3.95746,10.4162,10.4162,0,0,0-1.40382,5.42548,11.8048,11.8048,0,0,0,.74481,4.38323A9.799,9.799,0,0,0,643.616,392.221a15.32824,15.32824,0,0,0,3.65919,2.63861A50.07186,50.07186,0,0,0,652.36,397.1783q2.08529.80946,3.89408,1.553a16.43234,16.43234,0,0,1,3.14853,1.68132,7.84481,7.84481,0,0,1,2.12786,2.14872,5.32,5.32,0,0,1,.78734,2.95765q0,6.12744-9.19132,6.127a20.65077,20.65077,0,0,1-12.55314-4.21246v7.48923A24.72207,24.72207,0,0,0,652.23249,417.51885Z"/><path class="cls-2" d="M516.45114,184.903,423.77055,67.202h55.13832l65.01279,85.925,65.01525-85.925H664.0648L571.579,184.903,664.0648,302.58314H608.93691l-65.01525-85.92222-65.01279,85.92222H423.77055Z"/><path class="cls-3" d="M423.01047,302.58314h54.94671L403.4204,202.92447c38.02641-18.02148,51.19612-40.96534,51.803-69.37993.53718-24.76869-2.89591-49.42548-31.45285-66.34256H280.46106v235.0484h44.43053V212.8129h35.444ZM324.89159,170.27534V105.56567H386.521c19.53155,0,23.70468,8.65931,23.70468,26.00249,0,19.57169-5.91456,28.33527-31.01748,37.02636C369.04906,172.10814,327.33135,170.37641,324.89159,170.27534Z"/><path class="cls-4" d="M167.26751,57.78177l-47.59137,112.039h65.72435l16.06636,43.85082H102.53615l-37.6733,88.91155H2.97772L135.75292,0h60.29369L324.50589,302.58314H266.93742Z"/></g></g></svg>