<svg xmlns="http://www.w3.org/2000/svg" viewBox="0 0 512.48194 512.48194"><defs><style>.cls-1{fill:#fff;}.cls-2{fill:#fcd200;}.cls-3{fill:#207232;}.cls-4{fill:#e41313;}.cls-5{fill:#e52715;}</style></defs><title>logo_santaclara</title><g id="Layer_2" data-name="Layer 2"><g id="Layer_1-2" data-name="Layer 1"><circle class="cls-1" cx="256.24097" cy="256.24097" r="256.24097"/><circle class="cls-2" cx="256.24097" cy="256.24097" r="248.0315"/><path class="cls-3" d="M268.08149,482.56054c99.78765-45.56576,28.01069-108.175,78.5208-161.11689,0,0-42.44667,22.66343-54.44505,49.26174-19.04446,42.22347,10.902,70.52653-24.07575,111.85515Zm58.15083-35.92795c99.78566-45.56383,28.01072-108.1731,78.52086-161.1149,0,0-42.4467,22.66337-54.44707,49.25969-19.04254,42.22347,10.90406,70.52659-24.07379,111.85521Zm60.0018-33.33432c99.78765-45.56383,28.01069-108.1731,78.52083-161.11484,0,0-42.4467,22.66331-54.44707,49.25963-19.04251,42.22347,10.90406,70.52653-24.07376,111.85521ZM244.40045,482.56054c-34.97779-41.32862-5.03128-69.63168-24.07575-111.85515-11.99839-26.59831-54.44505-49.26174-54.44505-49.26174,50.51012,52.94186-21.26684,115.55113,78.5208,161.11689Zm-58.15083-35.92795c-34.97785-41.32862-5.03125-69.63174-24.07379-111.85521-12.00038-26.59632-54.44707-49.25969-54.44707-49.25969,50.51015,52.9418-21.26479,115.55106,78.52086,161.1149Zm-60.0018-33.33432c-34.97782-41.32868-5.03125-69.63174-24.07376-111.85521C90.17368,274.84674,47.727,252.18344,47.727,252.18344c50.51015,52.94174-21.26681,115.551,78.52083,161.11484Z"/><path class="cls-4" d="M256.93231,272.18366a22.6005,22.6005,0,0,1,21.85943,17.162,22.72736,22.72736,0,0,0-14.32141,14.28192,22.456,22.456,0,0,0-14.90019.20147,22.75969,22.75969,0,0,0-14.11994-15.81873,22.59106,22.59106,0,0,1,21.48211-15.82663Zm-62.82653,2.46921A22.56042,22.56042,0,0,1,215.179,289.30614a22.72573,22.72573,0,0,0-17.71708,22.25447,23.05552,23.05552,0,0,0,1.47366,8.1247,22.75465,22.75465,0,1,1-4.82979-45.03243Zm124.27034,0A22.57089,22.57089,0,0,0,297.295,289.30614a22.86779,22.86779,0,0,1,16.24343,30.37916,22.7554,22.7554,0,1,0,4.83768-45.03243ZM288.24388,290.5941a22.78,22.78,0,0,1,0,45.55786,22.39028,22.39028,0,0,1-6.66686-1.01137,23.047,23.047,0,0,0,1.444-8.024A22.76326,22.76326,0,0,0,267.12521,305.348a22.57455,22.57455,0,0,1,21.11867-14.75394Zm-63.55939.52543a22.78306,22.78306,0,0,0,0,45.56383,22.13993,22.13993,0,0,0,6.66093-1.01734,22.9115,22.9115,0,0,1,14.45177-29.79248,22.56524,22.56524,0,0,0-21.1127-14.754Zm31.55252,15.3012a22.42126,22.42126,0,0,1,15.94912,6.67482,22.89087,22.89087,0,0,1-7.31479,37.1467,22.39276,22.39276,0,0,1-24.58346-4.93836,22.93491,22.93491,0,0,1-4.88507-24.82447A22.54874,22.54874,0,0,1,256.237,306.42072Z"/><path class="cls-5" d="M285.93086,208.66252c0-12.05314.04528-24.10664-.04743-36.15907-.0144-1.87066.4669-2.33623,2.31662-2.29818,10.97372.22568,21.966-.41932,32.92356.32753,10.72317.73089,19.61571,7.72227,21.642,17.00371,2.25112,10.31123.1488,19.35183-8.87016,25.87987-.90683.65639-.821,1.02583-.339,1.91782,5.52726,10.22836,11.69473,20.06926,17.92423,29.87459.33444.52641,1.06276,1.052.6978,1.7141-.36672.66534-1.20551.293-1.81078.28519-5.11112-.06594-10.226.27978-15.33443-.20794-4.2539-.4061-7.12333-2.69906-9.128-6.33118-3.06436-5.55222-6.34291-10.99479-9.18681-16.65659-1.4911-2.96856-3.52346-3.97025-6.66069-3.90026-4.74219.10577-4.74213-.00963-4.74555,4.82373-.00315,4.45792.05369,8.91717-.03563,13.37344-.12157,6.06465-3.02745,8.88117-9.06947,8.93011-2.72417.02208-5.45563-.114-8.17054.04625-1.80068.10633-2.15345-.53666-2.14368-2.21622C285.96359,232.9341,285.93086,220.79823,285.93086,208.66252Zm19.38318-13.4282c0,2.47759.01,4.95522-.00563,7.43272-.00514.81736.061,1.48621,1.15415,1.44017,3.78427-.15942,7.6039.41677,11.35209-.45161,4.16436-.9648,6.391-4.51949,6.03295-9.49622-.33211-4.61585-3.02382-7.56844-7.35595-7.79493-3.21276-.16795-6.44-.03969-9.65853-.12567-1.19353-.03188-1.57789.38192-1.54222,1.56347C305.36559,190.27758,305.31356,192.75673,305.314,195.23432Zm48.34884,52.00113c1.37984-3.39432,2.63451-6.58286,3.9658-9.73908q13.727-32.54463,27.44863-65.09147c.667-1.58894,1.44225-2.32043,3.25466-2.20115,2.63112.17315,5.28248.07326,7.92458.03872,6.2682-.082,10.47978,2.92975,12.87453,8.59466q7.26048,17.17487,14.44815,34.38056,6.81064,16.29608,13.55654,32.61921c.15179.36563.27706.74227.46654,1.2537-5.40348,0-10.64518.17784-15.86861-.05469-4.41123-.19635-7.20186-2.90128-8.83123-6.88732-1.33961-3.27726-2.7399-6.53137-3.99653-9.84009a2.26949,2.26949,0,0,0-2.51862-1.73124q-10.77538.11425-21.55245.00177a2.10689,2.10689,0,0,0-2.31692,1.62393c-1.24278,3.22635-2.68763,6.37564-3.904,9.61125-1.88789,5.02209-5.49105,7.42337-10.79156,7.42159C363.21472,247.23424,358.607,247.23545,353.66288,247.23545Zm42.02344-52.23726c-2.41965,6.18011-4.68653,11.97-7.047,17.999,4.3154,0,8.26822-.04844,12.21886.02373,1.593.0291,1.78513-.39659,1.19471-1.84192C399.9086,205.93,397.88968,200.62976,395.68632,194.99819ZM283.24381,247.21037c-4.94768,0-9.88912.13437-14.81977-.03905-4.63517-.163-7.89572-2.53109-9.64963-6.89406-1.32031-3.28439-2.75091-6.526-4.0024-9.83582a2.41,2.41,0,0,0-2.66893-1.86766q-10.6516.13047-21.30555.00115a2.2396,2.2396,0,0,0-2.493,1.72452c-1.29584,3.38183-2.78945,6.68728-4.12231,10.05561-1.829,4.6224-5.30223,6.77679-10.14623,6.859-4.128.07009-8.26194-.06631-12.38515.09523-2.10937.08264-2.04186-.58818-1.3678-2.18427q10.57044-25.0291,21.05732-50.09348c3.19194-7.589,6.45679-15.1476,9.61153-22.752.61776-1.4891,1.36175-2.19078,3.08874-2.07686,2.63121.17356,5.28281.07851,7.92488.0388,6.24373-.09385,10.51828,2.80082,12.92553,8.49865q7.30508,17.29028,14.56189,34.60093,6.62741,15.83394,13.182,31.69834A3.889,3.889,0,0,1,283.24381,247.21037ZM241.521,195.03069c-2.27194,5.74613-4.43942,11.24113-6.61891,16.73135-.54758,1.37936.36657,1.24166,1.2194,1.23935,3.54742-.00966,7.09541-.03846,10.64207.01342,1.342.01963,1.76671-.2186,1.17756-1.66381C245.77389,206.03489,243.72726,200.66963,241.521,195.03069ZM132.12722,170.45a44.26032,44.26032,0,0,0-18.75787-2.34016c-9.92112.76852-18.85534,4.16029-26.1299,11.04144-9.85868,9.32551-13.68427,21.00534-11.95973,34.35079,2.15352,16.66517,11.33513,28.13468,27.13076,33.6555,16.2335,5.67382,30.83822,2.06884,43.54467-9.44935a1.31444,1.31444,0,0,0,.25638-2.0679c-1.26008-1.83289-2.368-3.76954-3.57912-5.63719-3.42947-5.28868-6.54671-5.883-11.97845-2.558-5.16918,3.16432-10.75529,5.27992-16.90067,4.19574a22.59645,22.59645,0,0,1-18.91447-20.16958c-2.11513-17.80864,11.81945-29.04644,28.58641-25.14162,1.692.394,3.51925,1.03492,3.76754,3.08165.34594,2.85169,2.17843,4.12623,4.59413,4.85994a27.10094,27.10094,0,0,0,8.82081.91274c4.80414-.15545,4.80338-.17909,4.80338-5.042l0-1.23832C146.15815,179.04879,141.96927,174.03181,132.12722,170.45Zm68.68171,58.436c-8.9979,0-17.99664-.06476-26.99306.05035-1.98491.02539-2.427-.54961-2.41741-2.459q.11659-23.27841.03329-46.55774c-.01239-6.2499-3.17643-9.486-9.39256-9.65546-3.05208-.08323-6.11079.05769-9.16151-.04766-1.43358-.0495-1.78325.43-1.78079,1.81194.03958,22.20578.00867,44.41167.04429,66.61745.00721,4.5057,2.36548,7.244,6.69956,8.24015a19.54589,19.54589,0,0,0,4.42109.37848c8.08987.00242,16.1824-.11852,24.26822.06192a9.26438,9.26438,0,0,0,7.39077-3.18853c3.99493-4.39262,6.02532-10.05628,9.92628-15.25191Zm70.85078-99.491c-7.423-9.27988-14.90211-18.5158-22.23645-27.86528-2.65045-3.37867-5.78826-5.25455-10.16678-4.9519a38.32974,38.32974,0,0,1-6.18834-.03677c-1.93172-.18073-2.27908.54071-2.27206,2.33381.06867,17.59129.03451,35.18295.04864,52.77449.00215,2.711.10079,5.42186.15482,8.13279,2.92944.59988,5.89676.317,8.83256.22108,5.70586-.18647,8.15672-2.86646,8.167-8.60774.014-7.76341-.0062-15.5269.02033-23.29023.00233-.68827-.31659-1.47076.41125-2.17676q9.67967,12.10919,19.31524,24.16135c5.32335,6.653,12.58089,9.27094,20.76977,10.00238,1.54113.13767,1.91454-.35553,1.9097-1.885-.05687-17.92178-.01325-35.84386-.05215-53.76575-.01047-4.83034-2.56866-7.47611-7.44-7.77162-2.55172-.1548-5.12467.037-7.67578-.12314-1.73485-.10888-2.21116.4331-2.19595,2.17853.08573,9.82743.04129,19.656.04129,29.48417,0,.78182,0,1.56365,0,2.93921C272.3527,130.238,272.0005,129.82108,271.65971,129.395Zm-156.446,7.94146c-2.06919-.25461-3.04948.28332-2.7579,2.62341a30.977,30.977,0,0,1,.02893,5.68873c-.36378,5.93581,2.46957,10.0193,7.57043,12.48146,10.62495,5.12861,21.48862,5.48381,32.19674.40054,6.77479-3.21606,10.97238-8.57739,11.27412-16.423.29837-7.7578-3.51546-13.13166-9.86652-17.04441a67.99529,67.99529,0,0,0-12.12864-5.49707c-3.38919-1.26287-6.87033-2.33012-9.95441-4.28173-1.17428-.74308-2.469-1.59027-2.25858-3.25947.21013-1.66691,1.49367-2.50342,2.92708-3.04886a14.76027,14.76027,0,0,1,10.63322-.00732c.9301.341,1.83341.7626,2.01669,1.94332.38928,2.508,2.22016,3.48094,4.39621,4.11478a23.92748,23.92748,0,0,0,6.61737.71477c5.85978.03512,5.86-.00073,5.85775-5.88941-.00009-.24764-.01331-.49608.00178-.7428.33617-5.49474-2.20769-9.497-6.91705-11.86016-11.68434-5.8631-23.55944-6.19075-34.97425.49337-11.35469,6.64891-11.97051,20.871-1.5678,28.91646,4.146,3.20647,8.96894,5.16576,13.77139,7.13646,3.6516,1.49845,7.44452,2.69106,10.779,4.881,1.32692.87146,2.59523,1.79981,2.30653,3.72736-.26875,1.79449-1.52944,2.66818-2.98934,3.32383-3.34482,1.5022-6.75986,1.07892-10.17906.26555-1.69332-.40282-2.63846-1.19139-2.699-3.189-.088-2.902-1.64229-4.4-4.4635-5.14106-2.04369-.5368-4.10794-.15889-5.85467-.3016A33.14186,33.14186,0,0,1,115.21375,137.3365Zm44.49617,22.68137c2.64525-6.38933,5.08741-12.40083,7.61681-18.37541,6.09886-14.40589,12.2684-28.782,18.31665-43.209a2.517,2.517,0,0,1,2.88781-1.88416c2.30464.13435,4.6237-.00392,6.934.06309,4.74237.13755,8.20054,2.34231,10.06823,6.72152q7.31493,17.15132,14.50311,34.35667c2.837,6.75495,5.55952,13.559,8.4805,20.27706.83625,1.92337.308,2.18166-1.48753,2.119-3.05168-.10654-6.10984-.04787-9.16508-.02813-4.92872.03185-8.30394-2.09015-10.00762-6.85064-.99693-2.78571-1.57193-6.5077-3.62977-7.90729-2.05235-1.39583-5.71883-.44329-8.67812-.47382-3.05506-.03151-6.11371.07264-9.16476-.04243a2.23872,2.23872,0,0,0-2.53284,1.73289c-.90894,2.47007-2.03195,4.86122-2.94644,7.32946a8.72775,8.72775,0,0,1-8.65325,6.1518C168.215,160.08827,164.17474,160.01787,159.70992,160.01787Zm29.68681-28.82554h10.2865l-5.15959-13.00519ZM400.89832,160.0745c-4.65918-.12717-9.09652.20729-13.53131-.21821a8.29154,8.29154,0,0,1-7.30225-5.47405c-1.1402-2.73545-2.331-5.452-3.38032-8.222a1.79275,1.79275,0,0,0-1.98892-1.361q-8.4223.06681-16.84523-.00124a1.9403,1.9403,0,0,0-2.19211,1.45221c-.89972,2.47287-2.06609,4.849-2.95988,7.32372-1.61679,4.47663-4.85487,6.46293-9.47561,6.4738-3.79673.00892-7.59353.00183-11.352.00183-.58285-.65512-.00369-1.13527.188-1.59232q12.6552-30.17567,25.33648-60.34041a2.14155,2.14155,0,0,1,2.38032-1.56455c2.307.10987,4.6231.01151,6.93487.04181,4.92735.06458,8.536,2.21181,10.49548,6.82353q7.14673,16.82072,14.24644,33.66135c2.87527,6.82963,5.69581,13.6823,8.53263,20.52807C400.29223,158.34849,400.54418,159.11289,400.89832,160.0745ZM366.179,118.19674c-1.83676,4.65909-3.44808,8.74636-5.12878,13.00961h10.13968a8.23151,8.23151,0,0,0-.25074-1.04883C369.43772,126.36515,367.92481,122.5773,366.179,118.19674ZM325.92845,96.61727c-8.17414,0-16.34952-.08646-24.52191.03282-4.81207.07022-7.02747,2.4929-7.09916,7.29739-.032,2.14632.07559,4.29773-.0353,6.43879-.07378,1.42446.42592,1.81054,1.81084,1.78662,4.53991-.07842,9.08324.0296,13.62266-.06191,1.53006-.03082,2.00994.44385,1.94787,1.96313-.1112,2.72022-.03131,5.44825-.03128,8.173.00006,11.8899.037,23.78005-.04056,35.66944-.01128,1.72619.41956,2.31733,2.1742,2.17715,1.96911-.15728,3.9606-.01877,5.942-.03943,6.58842-.06867,9.08781-2.59692,9.08889-9.18153.002-12.13761.03833-24.27547-.04014-36.41258-.01174-1.81973.40831-2.51318,2.32164-2.35668,2.13242.17443,4.29083.00578,6.43693.04447a8.92291,8.92291,0,0,0,8.22306-4.56933c1.90567-3.08564,3.71025-6.23669,5.70377-9.26382.99682-1.51369.75824-1.77608-.98088-1.76191-8.17375.06663-16.34838.02964-24.52267.02964ZM417.948,161.24264m4.41291,1.72055-.21527-.26868c-.00787-.01581-.02374-.02368-.03754-.03949-.079-.10077-.2785-.29236-.36346-.37732a5.19778,5.19778,0,0,0-3.81244-1.40448,5.12215,5.12215,0,0,0-3.05591,1.16547l-.4306.39307c-.02368.02966-.05536.05334-.07709.085a5.01726,5.01726,0,0,0-.57288.73285,5.17262,5.17262,0,0,0-.8316,3.06384,5.2997,5.2997,0,0,0,.53137,2.0741,5.14405,5.14405,0,0,0,.64.98767.649.649,0,0,0,.07111.085c.07709.085.15411.18567.23114.26276a5.38962,5.38962,0,0,0,.90271.73285,5.22712,5.22712,0,0,0,5.95575-.19159l.27069-.21729c.15405-.13043.27057-.25488.41681-.40106a5.74741,5.74741,0,0,0,.44049-.53925,1.84775,1.84775,0,0,0,.13037-.1936,4.7009,4.7009,0,0,0,.44836-.84943A5.23223,5.23223,0,0,0,422.36095,162.96319Zm-.36145,6.09595c-.04742.05536-.09283.11652-.13824.162-.02374.02368-.04742.06323-.07117.085a5.00367,5.00367,0,0,1-.70911.64789,4.79142,4.79142,0,0,1-2.67664.966,4.82841,4.82841,0,0,1-2.85638-.7724,5.53165,5.53165,0,0,1-.67957-.52545l-.23108-.23114c-.0296-.0296-.03754-.05334-.06909-.077a3.54212,3.54212,0,0,1-.27069-.33185,4.84185,4.84185,0,0,1,3.65051-7.7395,4.7732,4.7732,0,0,1,2.85437.76447c.13239.085.239.16986.35559.25482.12445.09283.22321.18573.324.27655l.23114.22522c.02368.0296.04736.05334.06909.0849a4.78283,4.78283,0,0,1,1.23456,3.00854A4.85107,4.85107,0,0,1,421.9995,169.05914Zm-1.08051-.36938c-.22327-.43262-.44843-.91064-.66376-1.34326a2.78708,2.78708,0,0,0-.717-1.01929.799.799,0,0,0-.1778-.10669l-.14618-.0553c-.00787-.00787-.02368-.00787-.03156-.01379l-.03168-.00793a1.82283,1.82283,0,0,1,.20154-.077,1.66151,1.66151,0,0,0,.50171-.324,1.71931,1.71931,0,0,0,.324-1.69879c-.30023-.91858-1.34326-1.01733-2.26178-1.01733h-1.64355c-.17578,0-.37726-.00787-.55505,0v5.84711c.06921.01581,1.40454,0,1.51318.00787V166.667a2.96259,2.96259,0,0,1,.38513-.00793.40537.40537,0,0,1,.13831.00793.99188.99188,0,0,1,.37927.09283,1.65315,1.65315,0,0,1,.63214.82568c.10864.21729.20935.43262.316.64795.02368.04736.30225.62616.32391.64789h1.606C420.996,168.83593,420.94267,168.7431,420.919,168.68975Zm-3.048-3.06378c-.1936,0-.46222,0-.64-.00793v-1.49731c.18567-.00793.38513,0,.57086,0,.51752,0,.95612.07709.95612.73285C418.758,165.4403,418.44981,165.626,417.871,165.626Zm-.64-.06125"/></g></g></svg>