<svg xmlns="http://www.w3.org/2000/svg" viewBox="0 0 678.87097 156.94593"><defs><style>.cls-1{fill:#212121;}</style></defs><title>logo_hip</title><g id="Layer_2" data-name="Layer 2"><g id="Layer_1-2" data-name="Layer 1"><path class="cls-1" d="M25.35767,156.94593c-5.64825,0-10.70395-2.21592-15.49808-5.67423-5.42173-3.911-5.89311-4.975-8.40866-9.39229-2.60012-4.56849-.91224-99.99548-.913-122.99569A17.58921,17.58921,0,0,1,9.44875,3.83355C16.83562-.09016,21.52622-.80717,25.19986.80073,52.58156,12.7853,131.13723,57.73739,131.13723,57.73739c6.7816,3.6961,11.65491,9.9728,11.65491,19.19028,0,9.596-3.92456,15.44142-8.2963,17.85046l-.56181.31465c-12.67048,7.29463-24.19538,14.06729-36.39673,21.23753-4.49776,2.64321-9.05487,5.32056-13.74776,8.07109a4.05906,4.05906,0,0,1-.3992.26668q-6.69786,3.92456-13.40385,7.83612C57.51682,139.78664,29.36992,156.94593,25.35767,156.94593Zm4.4007-100.11527.51541,84.09631a1.71866,1.71866,0,0,0,2.58749,1.47233l4.588-2.68827c32.09639-18.80207,62.43272-36.57379,93.25132-54.71a1.72088,1.72088,0,0,0,.85091-1.5628c-.13389-2.82142-.32291-5.69006-.534-8.64449a1.72077,1.72077,0,0,0-2.58382-1.36267L43.713,123.06557a4.16324,4.16324,0,0,1-6.26044-3.35543c-.05366-.94557-.10732-1.77894-.15692-2.53832-.09757-1.51714-.17643-2.757-.2057-3.99774q-.16586-7.14788-.32115-14.29575c-.287-12.97781-.583-26.39629-1.00167-39.5798a5.41889,5.41889,0,0,0-.43977-1.81508,1.66323,1.66323,0,0,0-.61389-.71584c-.764-.51011-1.56658-.98971-2.41064-1.45865A1.72065,1.72065,0,0,0,29.75837,56.83066ZM10.16025,136.97757c2.36758,1.64613,4.79608,3.25269,7.3029,4.88083a1.7233,1.7233,0,0,0,2.66073-1.45028l-.57135-96.12571a4.16259,4.16259,0,0,1,6.02954-3.74488l2.31718,1.15127c1.44722.71548,2.67979,1.32607,3.892,1.97407L43.939,50.168q14.736,7.89791,29.50374,15.73322c.4575.24133.84886.422,1.17216.55549a1.68772,1.68772,0,0,0,1.41676-.07417c1.70261-.881,3.38641-1.829,5.13311-2.84937a1.72457,1.72457,0,0,0-.02651-2.99851l-70.382-38.79638-.00569.82849c-.27237,37.33905-.55368,75.9497-.73906,113.92211A1.86872,1.86872,0,0,0,10.16025,136.97757ZM46.94806,95.71964c-.06594,3.42909-.00333,6.87481.09812,10.42491a1.721,1.721,0,0,0,2.58789,1.43517l72.55029-42.50446a1.71515,1.71515,0,0,0-.02638-2.98105C90.17515,44.31444,57.27206,26.02923,24.83732,8.10682a2.03507,2.03507,0,0,0-.43579-.07805c-1.95625,1.04159-3.92047,2.15729-5.9253,3.32646a1.7205,1.7205,0,0,0,.03669,2.989l79.49593,43.938a4.16267,4.16267,0,0,1,.09025,7.23528l-15.717,9.18984c-11.14521,6.506-22.6693,13.23392-33.95354,19.922A8.78452,8.78452,0,0,0,46.94806,95.71964Zm-.91021-30.11608L46.421,80.642a1.71866,1.71866,0,0,0,2.5869,1.43912l13.239-7.75642a1.71866,1.71866,0,0,0-.05856-2.99858l-13.62215-7.282A1.71866,1.71866,0,0,0,46.03784,65.60356ZM227.05658,79.13424c0-11.09235-5.96158-17.21785-16.55769-17.21785a22.37259,22.37259,0,0,0-16.39153,6.78789v45.03405a6.21879,6.21879,0,0,1-6.12549,6.12549H181.194a6.21879,6.21879,0,0,1-6.12549-6.12549V10.09445A6.21879,6.21879,0,0,1,181.194,3.969h6.78789a6.21879,6.21879,0,0,1,6.12549,6.12549V52.14884c5.62926-5.46534,12.74947-8.11269,21.35839-8.11269,19.205,0,30.62971,10.09763,30.62971,32.61466v37.08753a6.21879,6.21879,0,0,1-6.12549,6.12549h-6.78789a6.21879,6.21879,0,0,1-6.12549-6.12549Zm50.9707-60.59478c0,7.28413-5.133,11.91867-10.92619,11.91867-6.79014,0-11.92091-4.63454-11.92091-11.91867,0-6.624,5.29694-11.0946,11.92091-11.0946A10.84921,10.84921,0,0,1,278.02729,18.53946Zm-7.94653,26.82149a6.2203,6.2203,0,0,1,6.12549,6.12549v62.2519a6.2203,6.2203,0,0,1-6.12549,6.12549h-6.78789a6.22075,6.22075,0,0,1-6.12774-6.12549V51.48644a6.22075,6.22075,0,0,1,6.12774-6.12549Zm83.92218,64.89925c-7.28413,7.61645-16.72161,11.42467-28.47636,11.42467-7.45029,0-13.24571-1.15863-17.38625-3.64206v28.80868a6.2203,6.2203,0,0,1-6.12549,6.12549h-6.78789a6.2203,6.2203,0,0,1-6.12549-6.12549v-95.365a6.21879,6.21879,0,0,1,6.12549-6.12549h6.78789a6.3388,6.3388,0,0,1,6.12549,6.62173c4.80294-4.8007,13.9081-8.445,23.01551-8.445,10.09763,0,18.37648,3.47815,24.502,10.59612,6.12549,7.12021,9.27132,16.22537,9.27132,27.32Q364.92913,98.83664,354.00294,110.26019ZM308.14032,99.66408a28.6667,28.6667,0,0,0,15.72914,4.30446c12.74947,0,20.86216-9.27132,20.86216-22.01855,0-12.08707-7.12021-20.52983-19.53736-20.52983-6.45782,0-12.251,2.64959-17.05393,8.11269Zm107.69449,19.64813a128.70922,128.70922,0,0,1-24.43384-2.25752c-2.3908-.398-2.78881-1.19495-2.78881-3.05355V21.04465a2.41022,2.41022,0,0,1,2.3899-2.52317h6.77257a2.52143,2.52143,0,0,1,2.52317,2.52317V45.745a94.36036,94.36036,0,0,1,15.537-1.32822c19.25513,0,28.94889,11.68563,28.94889,32.53463v9.56048C444.78371,106.43163,435.75361,119.31221,415.83482,119.31221Zm17.26326-42.36076c0-14.2088-4.2494-22.30959-17.26326-22.30959-4.117,0-11.15434.13237-15.537.9293v52.71907c4.515.39892,11.022.79693,15.537.79693,13.14622,0,17.26326-8.09989,17.26326-22.57523Zm57.35929-22.442c-6.10891,0-11.68563,1.593-18.32583,5.57672v55.64115a2.7538,2.7538,0,0,1-2.65554,2.65554h-6.50693a2.6394,2.6394,0,0,1-2.52317-2.65554V48.00256a2.55331,2.55331,0,0,1,2.52317-2.65644h6.24128a2.55331,2.55331,0,0,1,2.52317,2.65644v2.78791c6.6393-4.64742,12.74821-6.37365,18.72385-6.37365q2.78791,0,2.78881,2.3899V52.252C493.24617,53.71256,492.316,54.50949,490.45736,54.50949Zm60.01843,63.87342h-6.10891a2.66329,2.66329,0,0,1-2.65554-2.65554v-2.92208c-6.37365,3.71812-13.01385,6.50693-20.45008,6.50693-11.28762,0-21.64593-4.91306-21.64593-21.51266v-1.593c0-14.34207,8.36643-21.51266,32.00334-21.51266h9.827v-5.312c0-11.15434-3.85049-15.00573-14.2088-15.00573a193.2758,193.2758,0,0,0-20.31771,1.06258h-.66366c-1.19495,0-2.3899-.39892-2.3899-2.12515V48.66622c0-1.46059.9293-2.25752,2.78791-2.52317a114.40429,114.40429,0,0,1,20.58335-1.72624c18.4582,0,25.89443,9.29574,25.89443,24.96513v46.34542A2.66329,2.66329,0,0,1,550.47579,118.3829Zm-9.03009-35.32344h-9.827c-16.06741,0-20.31681,3.58574-20.31681,13.01385v1.59386c0,9.56138,4.515,12.08455,12.21692,12.08455,6.108,0,11.55326-1.85951,17.92692-5.312Zm51.1198,36.25275c-4.91306,0-14.47444-.398-20.98137-1.99188-1.72624-.398-2.78881-1.19495-2.78881-2.65554v-4.64832a2.15218,2.15218,0,0,1,2.3908-1.99188h.53129c6.37365.79693,16.06741,1.46149,20.8481,1.46149,8.63208,0,13.14712-2.25752,13.14712-9.429,0-3.98376-2.3908-6.50693-9.9594-11.022l-13.41277-7.96752c-8.09989-4.91306-13.54514-10.62306-13.54514-18.98949,0-13.80988,10.35831-17.66127,24.03583-17.66127a124.38526,124.38526,0,0,1,20.71573,1.72624C615.274,46.4087,616.07,47.338,616.07,48.79859v4.38268a2.03019,2.03019,0,0,1-2.25752,2.25752h-.398c-4.64742-.39892-13.14622-1.06258-20.58335-1.06258-7.43623,0-12.34929.9293-12.34929,7.70187,0,3.98376,3.05355,6.50693,9.16247,10.09267l13.14622,7.83515c11.022,6.506,14.60772,12.21692,14.60772,20.05117C617.39825,113.60221,607.43886,119.31221,592.5655,119.31221Zm51.25127-85.65172H637.0442a2.66329,2.66329,0,0,1-2.65554-2.65554V20.381a2.66329,2.66329,0,0,1,2.65554-2.65554h6.77257a2.66329,2.66329,0,0,1,2.65554,2.65554v10.624A2.66329,2.66329,0,0,1,643.81677,33.66049Zm-.26564,84.72241h-6.37455a2.66329,2.66329,0,0,1-2.65554-2.65554V48.00256a2.66348,2.66348,0,0,1,2.65554-2.65644h6.37455a2.66348,2.66348,0,0,1,2.65554,2.65644v67.7248A2.66329,2.66329,0,0,1,643.55113,118.3829Zm32.929,0h-6.90494a2.53155,2.53155,0,0,1-2.3899-2.65554V21.04465a2.41022,2.41022,0,0,1,2.3899-2.52317h6.90494a2.41339,2.41339,0,0,1,2.3908,2.52317v94.68271A2.52589,2.52589,0,0,1,676.48017,118.3829Z"/></g></g></svg>