<svg xmlns="http://www.w3.org/2000/svg" viewBox="0 0 857.40882 198.66762"><defs><style>.cls-1{fill:#1d1d1b;}</style></defs><title>logo_matuta</title><g id="Layer_2" data-name="Layer 2"><g id="Camada_1" data-name="Camada 1"><path class="cls-1" d="M295.26677,135.82033,222.68489,1.3902,154.64743,127.403H128.5512L128.551.028,64.16564,64.948.00037,0,0,135.82033H.00059L.00037,196.50124H128.551l.00022-60.68092h54.31494l-32.7632,60.68092h145.1642l-32.7632-60.68092ZM8.42265,20.5054,64.154,76.91678,120.1287,20.47751l-.00015,48.72411L64.166,125.62893,8.42251,69.2056ZM120.12855,81.15916l-.00022,46.24382H74.26526ZM54.0824,127.403H8.42288L8.423,81.18631Zm66.04629,60.681H8.42265l.00022-52.26365h111.706Zm44.08924-60.681,58.467-108.28779L281.15177,127.403H257.9593L222.685,62.07119,187.41078,127.403H164.21794Zm84.17107,0H196.98129L222.685,79.79611Zm32.76313,60.681H164.21809l28.21834-52.26365h60.49722Z"/><polygon class="cls-1" points="419.008 64.911 414.927 64.911 414.927 64.911 419.008 64.911 419.008 64.911"/><path class="cls-1" d="M451.81072,2.20268,451.81035,67.124H425.252V3.67816H307.21325V135.734h22.13227l.00059,60.49486h73.77363V135.734H425.252l.00037-59.75712h26.55835v64.2482c0,17.54122,4.57363,32.14,13.3431,42.21759,9.23587,10.61412,23.01955,16.22494,39.91879,16.22494,16.89961,0,30.523-5.61053,39.75958-16.22494,8.76932-10.07837,13.2134-24.67674,13.2134-42.21759V2.20268Zm-56.80615,185.911H337.46068l-.00059-52.37969h57.54448Zm21.39452-60.49486H316.06616l.00059-51.642H416.39909Zm-.001-60.49486H316.06616V12.53107H416.39909Zm133.53237,73.1011c0,15.48145-3.89838,28.1698-11.31556,36.69375-7.69731,8.84582-18.98911,13.33144-33.584,13.33144-14.59461,0-25.98365-4.48562-33.68059-13.33144-7.41726-8.52321-11.42438-21.2123-11.42438-36.69375V114.69257c8.85291,14.967,24.38835,23.29406,45.0019,23.29406,20.61429,0,36.14974-8.32741,45.00264-23.29517Zm0-60.68173c0,15.48181-3.89875,28.17039-11.31578,36.69426-7.69731,8.84582-18.98889,13.33159-33.58365,13.33159-14.59453,0-25.98416-4.48555-33.6811-13.33137-7.41364-8.51959-11.424-21.19991-11.424-36.67117l.00059-3.58978h90.00477Zm.00081-12.41937H459.92588V11.05558h90.00454Z"/><path class="cls-1" d="M857.40882,135.734,784.82694,1.455,716.78985,127.61885H699.69208V2.20268h-117.301V135.734H603.913l.00214,60.49486h73.64467V135.735l67.38441-.001-32.69946,60.49486H857.40845L824.64562,135.734ZM603.914,127.61885H590.63468l-.001-51.642H603.913Zm65.53061.36415V188.1137H612.63851V75.97689h56.80615Zm22.13227-.36415h-14.0171v-51.642h14.0171Zm0-60.49486H590.63365l.001-56.0684H691.57692Zm93.25-48.18652,26.017,48.18652H758.81ZM726.36,127.61885l27.90525-51.642h61.12364l27.90525,51.642ZM843.29375,188.1137H726.35962L754.57826,135.734h60.49722Z"/></g></g></svg>