<?xml version="1.0" encoding="utf-8"?>
<!-- Generator: Adobe Illustrator 17.0.0, SVG Export Plug-In . SVG Version: 6.00 Build 0)  -->
<!DOCTYPE svg PUBLIC "-//W3C//DTD SVG 1.1//EN" "http://www.w3.org/Graphics/SVG/1.1/DTD/svg11.dtd">
<svg version="1.1" id="Layer_1" xmlns="http://www.w3.org/2000/svg" xmlns:xlink="http://www.w3.org/1999/xlink" x="0px" y="0px"
	 width="283.46px" height="283.46px" viewBox="0 0 283.46 283.46" enable-background="new 0 0 283.46 283.46" xml:space="preserve">
<title>logo_aem</title>
<g>
	<path fill-rule="evenodd" clip-rule="evenodd" fill="#256156" d="M234.581,185.239h6.378c1.053,0,2.104,0.015,3.157,0.086
		c0.848,0.058,1.572,0.148,2.167,0.266c3.414,0.689,5.275,2.74,5.777,6.091c0.111,0.727,0.166,1.534,0.166,2.419v6.39
		c0,0.885-0.055,1.692-0.166,2.419c-0.199,1.317-0.596,2.522-1.418,3.587c-0.719,0.928-1.631,1.597-2.715,2.034
		c-1.221,0.492-2.509,0.653-3.814,0.739c-1.051,0.068-2.101,0.083-3.155,0.083h-6.378c-1.054,0-2.105-0.015-3.155-0.083
		c-1.305-0.088-2.592-0.246-3.813-0.739c-1.084-0.438-1.996-1.106-2.713-2.034c-0.827-1.066-1.222-2.267-1.42-3.59
		c-0.111-0.724-0.166-1.531-0.166-2.416v-6.39c0-0.885,0.055-1.692,0.166-2.419c0.517-3.434,2.446-5.42,5.777-6.091
		c0.596-0.118,1.32-0.209,2.169-0.266C232.476,185.255,233.527,185.239,234.581,185.239z M242.957,189.204h-10.378
		c-3.768,0-4.894,0.8-4.894,4.674v6.868c0,0.923,0.093,1.697,0.281,2.323c0.352,1.175,0.978,1.725,2.152,2.047
		c0.666,0.183,1.486,0.274,2.461,0.274c0.671,0,1.333-0.003,2.002-0.003h6.378c1.41,0,3.14,0.09,4.462-0.272
		c1.175-0.322,1.8-0.872,2.152-2.047c0.189-0.626,0.282-1.4,0.282-2.323v-6.868C247.855,189.885,246.58,189.204,242.957,189.204z
		 M260.877,185.604v18.998l9.166-8.985l9.166,8.985v-18.998h4.254v23.749h-5.398l-8.022-7.861l-8.022,7.861h-5.397v-23.749H260.877z
		 M197.364,195.175h15.694v-10.486h4.251v24.664h-4.251v-10.212h-15.694v10.212h-4.254v-24.664h4.254V195.175z M177.343,205.401
		c1.473,0,2.682-0.073,3.63-0.216c2.265-0.344,2.904-1.111,2.904-3.363c0-1.614-0.232-2.439-1.818-2.755
		c-0.608-0.121-1.382-0.181-2.328-0.181h-9.407c-1.528,0-2.846-0.12-3.952-0.364c-1.151-0.254-2.071-0.646-2.758-1.174
		c-0.709-0.548-1.241-1.285-1.591-2.207c-0.335-0.877-0.501-1.92-0.501-3.127c0-1.245,0.191-2.316,0.573-3.215
		c1.536-3.603,6.38-3.733,9.754-3.733h5.058c1.855,0,4.121-0.013,5.936,0.329c0.606,0.116,1.149,0.274,1.629,0.473
		c0.9,0.377,1.589,0.885,2.122,1.702c0.976,1.501,0.953,3.253,0.953,4.968h-4.13c-0.028-1.848,0.12-3.047-2.092-3.426
		c-0.699-0.121-1.599-0.181-2.695-0.181h-7.599c-1.124,0-2.052,0.062-2.785,0.186c-1.813,0.306-2.354,0.985-2.354,2.78
		c0,1.875,0.53,2.532,2.358,2.833c0.767,0.129,1.752,0.191,2.957,0.191h8.005c1.641,0,3.788,0.01,5.36,0.523
		c2.207,0.721,3.14,2.292,3.429,4.394c0.088,0.628,0.131,1.342,0.131,2.134c0,2.137-0.478,4.44-2.3,5.775
		c-1.928,1.41-5.32,1.609-7.635,1.609h-34.602c1.051,0,1.989-0.03,2.816-0.083c3.074-0.203,5.828-1.008,7.213-3.869H177.343z"/>
	<path fill-rule="evenodd" clip-rule="evenodd" fill="#2C2C2B" d="M57.409,209.353l13.779-23.749h4.533l13.812,23.749h-4.641
		l-11.398-19.325l-11.218,19.325H57.409z M91.516,209.353v-23.749h5.398l19.081,18.698v-18.698h4.236v23.749h-5.08l-19.383-19.001
		v19.001H91.516z M145.252,189.571h-15.016v14.146h-4.253v-18.113h17.51c1.093,0,2.067,0.03,2.919,0.088
		c2.536,0.171,4.905,0.676,6.523,2.768c0.825,1.066,1.222,2.27,1.42,3.587c0.108,0.727,0.163,1.534,0.163,2.421v6.023
		c0,1.445-0.138,3.047-0.673,4.399c-1.295,3.276-4.186,4.166-7.437,4.38c-0.852,0.055-1.825,0.083-2.916,0.083H122.98v-3.972
		c7.424,0,14.848,0.005,22.272,0.005c3.663,0,4.897-1.068,4.897-4.641v-6.504c0-0.988-0.088-1.802-0.266-2.443
		C149.287,189.639,147.2,189.571,145.252,189.571z M25.022,205.401c1.473,0,2.684-0.073,3.63-0.216
		c2.268-0.344,2.906-1.111,2.906-3.363c0-1.614-0.232-2.439-1.82-2.755c-0.606-0.121-1.383-0.181-2.328-0.181h-9.407
		c-1.528,0-2.846-0.12-3.949-0.364c-1.151-0.254-2.072-0.646-2.758-1.174c-0.711-0.548-1.241-1.285-1.593-2.207
		c-0.332-0.877-0.5-1.92-0.5-3.127c0-1.245,0.19-2.316,0.575-3.215c1.536-3.603,6.378-3.733,9.754-3.733h5.058
		c1.853,0,4.118-0.013,5.932,0.329c0.609,0.116,1.152,0.274,1.632,0.473c0.897,0.377,1.588,0.885,2.121,1.702
		c0.973,1.501,0.953,3.253,0.953,4.968h-4.133c-0.028-1.848,0.123-3.047-2.092-3.426c-0.699-0.121-1.596-0.181-2.695-0.181h-7.6
		c-1.121,0-2.052,0.062-2.783,0.186c-1.813,0.306-2.354,0.985-2.354,2.78c0,1.875,0.531,2.532,2.356,2.833
		c0.766,0.129,1.752,0.191,2.959,0.191h8.005c1.642,0,3.786,0.01,5.36,0.523c2.207,0.721,3.14,2.292,3.429,4.394
		c0.086,0.628,0.128,1.342,0.128,2.134c0,2.137-0.478,4.44-2.298,5.775c-1.931,1.41-5.32,1.609-7.635,1.609H-0.002v-3.952H25.022z
		 M47.848,209.353v-19.782H36.83v-3.967h26.291v3.967H52.102v19.782H47.848z"/>
	<rect x="96.343" y="86.571" fill-rule="evenodd" clip-rule="evenodd" fill="#C5C7C9" width="87.491" height="72.907"/>
	<path fill-rule="evenodd" clip-rule="evenodd" fill="#256156" d="M107.035,82.713c0-4.563,2.685-8.606,8.628-8.606h57.477v8.261
		h-52.036c-1.808,0-3.726,0.521-3.726,2.997l0.003,2.411c0,2.172,0.956,2.996,3.724,2.996h38.116c9.885,0,13.92,6.793,13.92,16.25
		v28.969h-18.747l-0.003-22.43c0-4.889-0.083-7.705-6.179-7.705h-27.659c-9.696,0-13.518-3.48-13.518-12.007V82.713z"/>
	<path fill-rule="evenodd" clip-rule="evenodd" fill="#256156" d="M173.139,163.338c0,4.56-2.685,8.603-8.625,8.603h-57.48v-8.258
		h52.037c1.81,0,3.726-0.521,3.726-2.996l-0.003-2.413c0-2.169-0.953-2.996-3.723-2.996h-38.117c-9.885,0-13.92-6.79-13.92-16.248
		v-28.971h18.749v22.429c0,4.892,0.083,7.708,6.182,7.708h27.656c9.696,0,13.518,3.479,13.518,12.004V163.338z"/>
</g>
</svg>
