<svg xmlns="http://www.w3.org/2000/svg" viewBox="0 0 407.44882 567.85552"><defs><style>.cls-1{fill:#ed1943;}</style></defs><title>logo_occiuzzi</title><g id="Layer_2" data-name="Layer 2"><g id="Layer_1-2" data-name="Layer 1"><path class="cls-1" d="M406.11619,0S318.80691,27.12677,262.48675,44.55707c-41.41593,12.84486-79.5516,25.33407-94.22487,29.55252a24.37587,24.37587,0,0,0-9.67278,5.637,22.28426,22.28426,0,0,0-7.5457,16.224L.9056.35463ZM0,9.555,149.611,105.9811V367.31478C90.91748,385.71662,0,411.9158,0,411.9158Zm2.03227,410.876s89.467-26.5166,149.01112-44.96238c41.27067-12.79886,79.18492-22.87152,93.82661-27.12327a22.81721,22.81721,0,0,0,9.64395-5.33929c4.04131-3.81267,7.50313-9.25308,7.50313-16.13759l.46967-.54091,142.48331,94.10344Zm404.21924-10.32175L262.97017,314.74094V54.12275C316.48489,37.0941,316.48489,36.89945,406.25151,9.20624Z"/><path d="M46.6811,462.10564v31.59988c0,21.03248-19.08249,21.13479-23.3917,21.13479S0,514.738,0,493.70552V462.10564c0-21.13427,18.98018-21.13427,23.2894-21.13427S46.6811,440.97137,46.6811,462.10564Zm-11.79919,4.20691c0-13.03-5.02638-13.95328-11.59251-13.95328s-11.49124.92333-11.49124,13.95328v23.18606c0,13.03,4.92511,13.9538,11.49124,13.9538s11.59251-.92385,11.59251-13.9538Zm38.46982,24.7258c0,8.00253,1.43641,12.51636,10.15611,12.51636,6.36152,0,16.21071-1.02615,16.21071-1.02615v11.2856s-9.54124.92385-16.313.92385c-6.77074,0-21.853-.92385-21.853-18.46762v-36.7296c0-17.54378,15.08225-18.56941,21.853-18.56941,6.77177,0,16.313,1.02563,16.313,1.02563v11.2856s-9.84919-1.02615-16.21071-1.02615c-8.7197,0-10.15611,4.412-10.15611,12.41457Zm52.01233,0c0,8.00253,1.43641,12.51636,10.15611,12.51636,6.36152,0,16.21071-1.02615,16.21071-1.02615v11.2856s-9.54124.92385-16.313.92385c-6.77074,0-21.853-.92385-21.853-18.46762v-36.7296c0-17.54378,15.08225-18.56941,21.853-18.56941,6.77177,0,16.313,1.02563,16.313,1.02563v11.2856s-9.84919-1.02615-16.21071-1.02615c-8.7197,0-10.15611,4.412-10.15611,12.41457Zm59.29666-38.166v49.96416h8.41279v10.97765H164.551V502.83651h8.31048V452.87235H164.551V441.997H193.0735v10.87534Zm69.55714-10.77252v51.60569c0,21.13479-19.08352,21.13479-23.39273,21.13479-4.30818,0-23.3917,0-23.3917-21.13479V442.09983h11.79919v49.55339c0,10.46509,4.61613,11.79919,11.59251,11.79919,7.07972,0,11.59355-1.12949,11.59355-11.79919V442.09983Zm56.62846-.10282v11.79867L282.4272,502.52856h27.085v11.2856H269.0893V502.016l28.41912-48.7334h-27.393V441.997Zm54.57616,0v11.79867l-28.41912,48.73288h27.085v11.2856H323.66546V502.016l28.41912-48.7334h-27.393V441.997Zm32.41625,10.87534v49.96416h8.41279v10.97765H377.72905V502.83651h8.31048V452.87235h-8.31048V441.997h28.52246v10.87534Z"/><path d="M345.46329,567.85552a1.999,1.999,0,0,0-.471-.2337c-4.83556-.95731-7.65734-4.09443-7.74731-8.99686-.11736-6.39654-.15994-12.79888-.02772-19.19444.16493-7.97754,5.48539-10.48686,12.06512-9.88633,6.00593.54815,8.71346,4.51733,8.7919,10.06387.08662,6.124.09658,12.2516-.01452,18.37484-.063,3.47084-1.15263,6.613-4.40383,8.43072a24.61044,24.61044,0,0,1-4.07343,1.44191Zm9.66063-19.081.11059-.00015c0-1.64515.01887-3.29059-.00526-4.93539-.02481-1.6893-.02843-3.38269-.15357-5.06594a6.59491,6.59491,0,0,0-5.00827-6.28182c-4.77482-1.109-9.82566.57808-10.01546,7.33857-.16409,5.84463-.08756,11.69824-.00865,17.54642.03423,2.53305.69428,4.96925,2.972,6.449a8.33024,8.33024,0,0,0,8.353.47616c2.62245-1.18789,3.63607-3.50769,3.7305-6.20984C355.20719,554.98935,355.12392,551.88048,355.12392,548.77452Zm-218.09328,19.081c.29368-.09388.582-.21239.88187-.27778a6.80738,6.80738,0,0,0,5.39051-4.71367,14.3569,14.3569,0,0,0,.71523-3.60524c.34846-6.06722-1.46848-10.257-7.44252-12.33546a34.27313,34.27313,0,0,1-3.42042-1.38c-4.03826-1.91443-5.20445-5.06206-3.9429-9.58074a4.24921,4.24921,0,0,1,3.72313-3.20763,38.26251,38.26251,0,0,1,5.59676-.1924c1.44159.024,2.87991.24377,4.34884.37919v-3.18068c-3.01769-.04392-5.94218-.25627-8.84517-.091-4.98748.284-7.4212,2.44687-8.06984,7.41713-.75,5.74682,1.05539,9.7593,6.52493,11.55713,1.03779.34112,2.067.716,3.07826,1.12886,4.23084,1.727,5.88959,4.42406,5.56089,8.99093-.268,3.72257-2.28391,5.8907-5.7849,6.046-1.68508.07476-3.38188-.05694-5.07084-.14425-1.487-.07688-2.97053-.2221-4.49763-.34039v2.92387l4.11379.606Zm240.56259,0c.29366-.09388.582-.21239.88184-.27777a6.80741,6.80741,0,0,0,5.39049-4.71365,14.354,14.354,0,0,0,.71533-3.60522c.3484-6.06678-1.46811-10.25691-7.44256-12.33551a34.27758,34.27758,0,0,1-3.42042-1.37994c-4.03833-1.91448-5.20441-5.062-3.94286-9.58072a4.2491,4.2491,0,0,1,3.72309-3.20765,38.26373,38.26373,0,0,1,5.59675-.19241c1.44156.024,2.8799.24377,4.34885.37919v-3.18067c-3.01771-.04392-5.9422-.25627-8.8452-.091-4.98745.284-7.42114,2.44689-8.06979,7.41715-.75,5.74665,1.05542,9.75934,6.525,11.55714,1.03778.34111,2.06692.716,3.07825,1.12886,4.23085,1.727,5.88977,4.42424,5.56092,8.99094-.26808,3.72267-2.284,5.89069-5.78495,6.046-1.68507.07476-3.3819-.05694-5.07085-.14425-1.48705-.07687-2.97051-.22209-4.49762-.34039v2.92386l4.11379.606Zm-199.645,0,5.38179-.59577v-2.49582c-2.561.127-5.02347.33151-7.48756.35349-4.59609.041-7.1165-2.33635-7.18033-6.91333q-.134-9.60641.00106-19.21595c.06141-4.42515,2.5988-6.85447,6.99968-6.81723,2.54517.02153,5.08859.24828,7.68662.38551V529.6857c-3.4445,0-6.82729-.22371-10.16772.05683a7.7495,7.7495,0,0,0-7.2789,7.594c-.13305,7.54492-.14805,15.09629.01542,22.64a7.40845,7.40845,0,0,0,4.9487,6.94809,29.15,29.15,0,0,0,3.23665.93086Zm-88.04871-29.923v29.27681H92.7359V530.11977c-2.7647-.38462-2.752-.3789-3.81152,1.97275q-3.53725,7.851-7.0977,15.69164c-1.086,2.39682-2.18162,4.7893-3.35331,7.36024-.23739-.4886-.37727-.76047-.50345-1.03857q-5.05377-11.13889-10.102-22.28027c-.92424-2.04335-1.35071-2.2492-3.62406-1.628v37.03442h2.78424V537.77389a2.29732,2.29732,0,0,1,.78425.98414c2.944,6.36934,5.91042,12.72862,8.79313,19.12562a1.70389,1.70389,0,0,0,1.90356,1.089,1.56686,1.56686,0,0,0,1.76411-1.03546c1.641-3.75693,3.41226-7.457,5.13658-11.17748q2.06037-4.44559,4.12307-8.89008Zm102.05629-7.96218c3.76585,0,7.52289-.27966,11.22.07147,4.52422.42967,7.38155,3.93731,7.68107,8.91182.22452,3.72917-.36276,7.26383-3.68062,9.647a27.17563,27.17563,0,0,1-3.47343,1.79113q4.10172,8.24647,8.41063,16.90942a17.11555,17.11555,0,0,0-1.97286.01371c-.91809.1176-1.36486-.26563-1.766-1.0887-2.37507-4.873-4.83207-9.70593-7.22054-14.57246a1.64736,1.64736,0,0,0-1.713-1.16105c-1.50044.02864-3.00492-.155-4.67145-.259v16.98415h-2.81378Zm2.83807,2.46128v15.11628c.83553.08415,1.603.21155,2.37284.22853a39.18227,39.18227,0,0,0,4.79026-.016,6.163,6.163,0,0,0,5.648-5.12138,14.758,14.758,0,0,0,.24708-3.92864,6.59081,6.59081,0,0,0-6.40337-6.264C199.268,532.36731,197.082,532.43165,194.7939,532.43165Zm66.61583,34.77257c-3.002.30345-2.99326.30082-3.80891-2.41027-.75868-2.5217-1.53869-5.037-2.31671-7.57921h-14.0373c-.88611,2.91235-1.81373,5.76443-2.60307,8.65428-.306,1.12037-.79321,1.62929-1.968,1.44492a11.50411,11.50411,0,0,0-1.64109-.01271c3.90525-12.48463,7.77418-24.85312,11.63657-37.20075a1.11959,1.11959,0,0,1,.29578-.09405c3.61553.04116,2.68774-.67027,3.7405,2.67189,3.56822,11.32776,7.07742,22.67413,10.607,34.01405C261.35385,566.81889,261.36423,566.95443,261.40973,567.20422Zm-12.97222-32.15277-.282-.01936c-1.9923,6.43006-3.98461,12.86012-6.00115,19.36833h12.23419Zm82.40759-5.01834c-.38464-.02089-.65653-.0451-.92877-.04893-2.07828-.02921-2.06742-.02507-2.59248,1.94138-2.85329,10.686-5.71234,21.37051-8.6682,32.42493-3.13229-11.65853-6.17367-22.9787-9.21381-34.29426h-2.94594a4.80584,4.80584,0,0,0,.07422.60889q4.40071,16.49773,8.81734,32.99121c.32577,1.21318.43116,2.87429,1.255,3.45788.85955.60892,2.46466.1674,3.74391.17872a3.93892,3.93892,0,0,0,.53223-.085C324.23217,554.79846,327.53153,542.44247,330.84511,530.0331Zm-226.64525,2.62156h12.99993v-2.56821h-15.888v37.14788H117.1492v-2.68927H104.20855V548.87774H117.19V546.365H104.19986ZM0,567.218H2.82795V548.86066H15.83131v-2.5225H2.83557V532.6706H15.83563v-2.61116H0Zm293.22074-2.32418h-5.65123v2.29682h14.64272v-2.37866h-5.80985V532.38059h5.827V530.0837H287.57655v2.33136h5.64419Zm-70.57645.0008h-5.65035v2.29558H231.6358v-2.37909h-5.809V532.37973h5.82615v-2.29544H217.001v2.33156h5.64331Zm-195.80041.00008H21.19361v2.29547H35.83539V564.811H30.02644V532.37966h5.82609v-2.29533H21.20064v2.33157h5.64324ZM274.9356,532.63923h9.28121v-2.5764H262.5862v2.66169h9.41464v34.51535h2.93476Zm-229.95328-2.5599H42.25515v37.13386H58.16685v-2.60345H44.98232Z"/><rect class="cls-1" x="394.30942" y="554.71613" width="13.1394" height="13.1394"/></g></g></svg>