<svg xmlns="http://www.w3.org/2000/svg" xmlns:xlink="http://www.w3.org/1999/xlink" viewBox="0 0 657.91458 442.7188"><defs><style>.cls-1{fill:none;clip-rule:evenodd;}.cls-2{clip-path:url(#clip-path);}.cls-3{fill:url(#linear-gradient);}.cls-4{fill:#2b2523;}</style><clipPath id="clip-path"><path class="cls-1" d="M412.87939,85.0684q6.54495,8.8272,12.5196,18.248c11.1855,17.6446,12.58,18.2208,1.6172,35.9375q-3.29308,5.32335-6.7735,10.4629c-14.2461,11.6465-33.793,18.6114-55.1348,17.9297-38.1044-1.2129-53.6376-30.1133-48.2587-54.3593,6.18361-27.875,33.8681-38.002,51.6064-23.9024a17.60277,17.60277,0,0,1,6.3809,16.4395c18.1562,12.2285,34.9316,4.6289,38.2187-13.1895a20.358,20.358,0,0,0-.1758-7.5664m-56.2363-57.2305a286.20742,286.20742,0,0,1,37.5625,34.502,40.42887,40.42887,0,0,0-8.1152-2.7813c-15.93559-5.041-34.4688.8145-46.8438,8.752-17.874,11.4668-25.9502,28.1484-28.3525,44.8789-3.1172,21.7012,8.2754,54.6309,39.0635,67.6562,13.9785,5.9161,27.19721,7.9688,39.3515,7.1329q-9.74415,10.13955-20.4844,19.3164c-45.0205.4882-83.4907-38.0664-85.7348-81.3828C280.85649,82.7579,305.63629,36.4024,356.64309,27.8379ZM332.17439,10.961q10.3944,6.4335,20.0996,13.5918c-39.0225,5.4961-76.7388,33.4922-88.1236,70.4785-17.8672,58.0586,16.3516,117.9375,75.8853,133.9629q-2.6631,1.76955-5.375,3.4863c-17.6436,11.1856-18.2197,12.5801-35.9365,1.6192A289.3595,289.3595,0,0,1,205.5,141.7422c-11.1875-17.6445-12.581-18.2187-1.6191-35.9375a289.33607,289.33607,0,0,1,92.355-93.2226C313.88039,1.3926,314.45659,0,332.17439,10.961Z"/></clipPath><linearGradient id="linear-gradient" x1="-266.38956" y1="411.51991" x2="-263.79464" y2="411.51991" gradientTransform="translate(-46157.287 -29219.67068) rotate(-90) scale(110.5846 112.9295)" gradientUnits="userSpaceOnUse"><stop offset="0" stop-color="#e78714"/><stop offset="1" stop-color="#b74024"/></linearGradient></defs><title>logo_caramelo</title><g id="Layer_2" data-name="Layer 2"><g id="Layer_1-2" data-name="Layer 1"><g class="cls-2"><rect class="cls-3" x="192.91899" width="245.05999" height="245.0606"/></g><path class="cls-4" d="M621.7388,359.4454a15.48385,15.48385,0,0,0,8.84958-2.3399,16.85224,16.85224,0,0,0,5.457-6.0019,26.78324,26.78324,0,0,0,2.75-8.2383,58.59316,58.59316,0,0,0,.7442-8.9531,61.39224,61.39224,0,0,0-1.1543-11.3243,38.96359,38.96359,0,0,0-3.832-10.9863,24.90754,24.90754,0,0,0-7.0508-8.2734,17.38888,17.38888,0,0,0-10.8164-3.2852,15.49265,15.49265,0,0,0-8.8496,2.3359,16.72681,16.72681,0,0,0-5.459,6.0372,27.39631,27.39631,0,0,0-2.7793,8.2714,50.28629,50.28629,0,0,0-.8145,8.9864,57.41479,57.41479,0,0,0,1.2207,11.4277,38.35385,38.35385,0,0,0,3.8653,10.916,24.67639,24.67639,0,0,0,7.0527,8.2071,17.80007,17.80007,0,0,0,10.81642,3.2207m-4.67772,8.748a36.50991,36.50991,0,0,1-14.9219-2.9512,34.8717,34.8717,0,0,1-19.0879-19.9707,43.19088,43.19088,0,0,1,.4082-30.8203,35.66122,35.66122,0,0,1,8.3731-12.3769,37.50026,37.50026,0,0,1,12.8164-7.9336,45.70784,45.70784,0,0,1,16.4121-2.8496,38.677,38.677,0,0,1,15.05472,2.8496,34.223,34.223,0,0,1,11.59568,7.7656,35.00645,35.00645,0,0,1,7.4941,11.7305,39.16323,39.16323,0,0,1,2.709,14.6152,43.85189,43.85189,0,0,1-2.9805,16.3418,36.10765,36.10765,0,0,1-8.4101,12.6113,38.12964,38.12964,0,0,1-12.918,8.1055A46.18713,46.18713,0,0,1,617.06108,368.1934ZM543.856,234.9551q3.32522-.74415,6.0684-1.2363a82.43208,82.43208,0,0,1,8.4433-1.2207c2.1035,0,3.1856,1.1875,3.1856,3.5605V363.5137a2.56378,2.56378,0,0,1-2.4063,2.7793c-1.11718.2051-2.3379.375-3.6289.543-1.2871.1679-2.5078.3047-3.69528.4082-1.22072.1015-2.30472.168-3.28912.2012-.9824.0351-1.7597.0351-2.3047.0351-1.5586,0-2.373-.8125-2.373-2.4746V234.9551Zm-39.4336,84.6504a15.37917,15.37917,0,0,0,.373-2.6797c.06842-.8828.1016-1.7636.1016-2.6797a16.966,16.966,0,0,0-.8125-5.2871,13.40162,13.40162,0,0,0-2.4433-4.3066,11.70913,11.70913,0,0,0-3.9668-2.8828,13.6511,13.6511,0,0,0-5.3887-1.0508,17.51467,17.51467,0,0,0-8.17189,1.7637,16.06214,16.06214,0,0,0-5.66411,4.6113,19.49711,19.49711,0,0,0-3.3554,6.7129,32.37356,32.37356,0,0,0-1.18749,7.9668Zm22.041,38.1426c-3.1894,1.5273-6.5117,2.918-10.039,4.2051-3.4903,1.3222-6.918,2.4082-10.2735,3.3574-3.3574.9141-6.4414,1.6269-9.3222,2.1348a46.32516,46.32516,0,0,1-7.2227.748,31.855,31.855,0,0,1-14.24019-3.0527,31.13118,31.13118,0,0,1-10.44541-8.0352,35.06079,35.06079,0,0,1-6.4082-11.5625,42.836,42.836,0,0,1-2.1679-13.6289,40.20517,40.20517,0,0,1,3.3554-16.6152,38.72785,38.72785,0,0,1,9.1875-12.8164,42.16245,42.16245,0,0,1,13.5645-8.2735,46.611,46.611,0,0,1,16.4102-2.9179,27.16488,27.16488,0,0,1,10.0371,1.7304,20.50919,20.50919,0,0,1,7.3242,4.7813,19.993,19.993,0,0,1,4.5762,7.289,26.86,26.86,0,0,1,1.5937,9.3594,45.79127,45.79127,0,0,1-1.6934,10.916l-46.6914,2.4766a35.89314,35.89314,0,0,0,2.5098,11.4258,25.67254,25.67254,0,0,0,15.2246,14.8183,35.767,35.767,0,0,0,12.6797,2.0684,47.88831,47.88831,0,0,0,10.1719-1.1543,60.004,60.004,0,0,0,9.6972-2.8125Zm-207.71189-63.457c2.0664-.4649,3.9395-.8789,5.6289-1.2032q3.40725-.7089,5.5957-1.0156c1.458-.1699,2.4072-.2715,2.8838-.2715,1.998,0,3.082,1.1875,3.2852,3.5606l.3046,4.2734c2.9512-1.1875,5.9356-2.3086,8.8868-3.3242q4.4208-1.5234,8.44331-2.6445c2.67579-.7129,5.15239-1.2891,7.45709-1.7286a31.02484,31.02484,0,0,1,5.7968-.6464,21.31649,21.31649,0,0,1,10.7832,2.4433,16.56665,16.56665,0,0,1,6.5098,6.8809,129.841,129.841,0,0,1,19.0215-7.0508,56.29012,56.29012,0,0,1,14.14061-2.2734,24.11623,24.11623,0,0,1,9.73049,1.7968,17.6661,17.6661,0,0,1,6.6777,4.9532,20.95753,20.95753,0,0,1,3.79881,7.6953,36.96017,36.96017,0,0,1,1.252,10.0019l-.50591,47.7754a2.54077,2.54077,0,0,1-2.375,2.7793c-1.0488.2051-2.2363.375-3.5273.543q-1.93065.25185-3.7617.4082c-1.2207.1015-2.37309.168-3.3907.2012-1.0156.0351-1.7636.0351-2.2382.0351-1.5938,0-2.3711-.8125-2.3711-2.4746l.5058-39.5332v-1.4961a47.47048,47.47048,0,0,0-.8476-9.3906,17.68336,17.68336,0,0,0-2.8477-6.7481,12.36444,12.36444,0,0,0-5.2207-4.1347,20.28017,20.28017,0,0,0-7.9668-1.3907,19.3259,19.3259,0,0,0-2.5117.2715,36.381,36.381,0,0,0-4,.7813c-1.5586.3691-3.3223.8789-5.2207,1.5234a54.07213,54.07213,0,0,0-5.9688,2.5098,35.1644,35.1644,0,0,1,.9825,9.3222l-.4727,46.793a2.56651,2.56651,0,0,1-2.4082,2.7793c-1.0527.2051-2.2383.375-3.5254.543q-1.9335.25185-3.7637.4082c-1.2207.1015-2.3398.168-3.3906.2012-1.0176.0351-1.7637.0351-2.2383.0351-1.56049,0-2.375-.8125-2.375-2.4746l.5098-39.5332v-1.4961q0-10.626-3.5937-16.2051c-2.375-3.6953-6.543-5.5586-12.5118-5.5586a37.67673,37.67673,0,0,0-6.4082,1.0157,52.80388,52.80388,0,0,0-11.0547,3.8652v56.4199a2.5637,2.5637,0,0,1-2.4062,2.7793c-1.0508.2051-2.2363.375-3.5254.543q-1.935.25185-3.7627.4082c-1.22259.1015-2.3398.168-3.39259.2012-1.01751.0351-1.76171.0351-2.23821.0351-1.5586,0-2.3731-.8125-2.3731-2.4746V294.2911Zm-44.2124,36.6367c-3.0869.2051-6.002.375-8.7148.5429-2.7461.1719-5.2207.4082-7.459.7481a27.16166,27.16166,0,0,0-5.9668,1.5254,10.51532,10.51532,0,0,0-4.1709,2.9512,11.97466,11.97466,0,0,0-2.002,3.457,13.24285,13.24285,0,0,0-.7793,4.5762,14.7306,14.7306,0,0,0,.6436,4.2734,10.70626,10.70626,0,0,0,2.2734,4.0352,12.33227,12.33227,0,0,0,4.4414,3.0156,17.57757,17.57757,0,0,0,7.0528,1.1875,14.64678,14.64678,0,0,0,1.9316-.2012,32.86651,32.86651,0,0,0,3.2891-.6445c1.2871-.2715,2.7129-.7149,4.30661-1.2207a41.29389,41.29389,0,0,0,4.88279-2.002Zm-41.1289-31.3946c3.458-1.3925,6.84861-2.6132,10.2051-3.664,3.3232-1.0508,6.47651-1.9317,9.4267-2.6426,2.9492-.6777,5.628-1.2207,8.0362-1.5937a45.78869,45.78869,0,0,1,6.0341-.543,38.34929,38.34929,0,0,1,12.003,1.6269,17.426,17.426,0,0,1,7.8672,5.2207,22.4149,22.4149,0,0,1,4.2714,9.086,56.52588,56.52588,0,0,1,1.1875,13.2578l-.5097,32.416a25.95052,25.95052,0,0,0,.4072,5.7285c.3398,1.7969.6777,3.5606,1.08591,5.291a1.61546,1.61546,0,0,1,.10059.7793c0,.9844-.6777,1.5957-2,1.7969-.84759.2051-1.831.375-2.916.543-1.0859.1679-2.2041.3047-3.3232.4082-1.1192.1015-2.2705.168-3.3907.2012-1.1181.0351-2.1015.0351-2.9824.0351a2.2009,2.2009,0,0,1-1.6279-.5762,4.20919,4.20919,0,0,1-.8486-1.7988l-1.2871-4.7773c-2.5098,1.1172-5.087,2.1679-7.76469,3.1172-2.64451.9824-5.15431,1.7968-7.59571,2.5097q-3.6123,1.0137-6.61229,1.625a24.78121,24.78121,0,0,1-4.84771.6133,19.91592,19.91592,0,0,1-9.1552-1.9687,19.51939,19.51939,0,0,1-6.3399-4.8477,19.26369,19.26369,0,0,1-3.6621-6.4746,21.44472,21.44472,0,0,1,.8145-16.2754,18.95779,18.95779,0,0,1,5.5263-6.5117,27.7364,27.7364,0,0,1,7.1875-3.7637,52.53214,52.53214,0,0,1,9.0879-2.3398,107.775,107.775,0,0,1,10.7471-1.2539c3.8301-.2715,7.8662-.4395,12.1045-.5762l.1015-3.3906a41.20569,41.20569,0,0,0-.5419-8.2051,15.91236,15.91236,0,0,0-2.3399-6.1016,10.50158,10.50158,0,0,0-4.543-3.7656,18.08719,18.08719,0,0,0-7.2558-1.2891,56.51219,56.51219,0,0,0-11.1895,1.1875,133.3095,133.3095,0,0,0-13.2568,3.5606Zm-65.3369-5.2207c2.1299-.4746,4.0566-.8964,5.7978-1.2246,2.3721-.4726,4.2715-.8105,5.76371-1.0156,1.49219-.1699,2.47459-.2715,2.95019-.2715,2.1006,0,3.1875,1.1875,3.1875,3.5606v5.0859c2.23631-1.2891,4.5439-2.4746,6.9492-3.5937,2.374-1.1192,4.7139-2.1016,6.9854-2.9161a46.60229,46.60229,0,0,1,6.5781-1.9316,24.7982,24.7982,0,0,1,5.4922-.7148,10.8654,10.8654,0,0,1,4.7138.9511,10.10274,10.10274,0,0,1,3.4913,2.543,10.60189,10.60189,0,0,1,2.1367,3.5605,12.45666,12.45666,0,0,1-.06839,8.3047,10.18736,10.18736,0,0,1-2.27151,3.6289,10.90454,10.90454,0,0,1-3.83,2.5098,13.66175,13.66175,0,0,1-5.35749.9512h-2.10251c-.3057,0-.6787,0-1.0859-.0332a10.67691,10.67691,0,0,1-1.085-.1719v-2.1699q0-4.5762-1.8301-6.4082a6.408,6.408,0,0,0-4.7129-1.8301,20.11623,20.11623,0,0,0-6.7129,1.2871,44.724,44.724,0,0,0-7.29,3.2559v55.8437a2.5667,2.5667,0,0,1-2.4092,2.7793c-1.1181.2051-2.3379.375-3.6269.543s-2.5088.3047-3.7295.4082q-1.78125.15225-3.2549.2012c-.9834.0351-1.7637.0351-2.3066.0351-1.55959,0-2.3721-.8125-2.3721-2.4746V294.3125Zm-44.2139,36.6153c-3.0869.2051-6.0019.375-8.7148.5429-2.7461.1719-5.2227.4082-7.459.7481a27.16142,27.16142,0,0,0-5.9668,1.5254,10.51893,10.51893,0,0,0-4.1719,2.9512,11.97069,11.97069,0,0,0-1.999,3.457,13.19589,13.19589,0,0,0-.7813,4.5762,14.7306,14.7306,0,0,0,.6436,4.2734,10.71979,10.71979,0,0,0,2.2734,4.0352,12.3411,12.3411,0,0,0,4.4414,3.0156,17.5756,17.5756,0,0,0,7.0518,1.1875,14.64012,14.64012,0,0,0,1.93259-.2012,32.86651,32.86651,0,0,0,3.2891-.6445c1.2881-.2715,2.7129-.7149,4.3066-1.2207a41.155,41.155,0,0,0,4.8828-2.002ZM82.7305,299.5332c3.459-1.3925,6.8486-2.6132,10.2051-3.664,3.3223-1.0508,6.4765-1.9317,9.4277-2.6426,2.9492-.6777,5.6279-1.2207,8.0352-1.5937a45.78742,45.78742,0,0,1,6.0351-.543,38.358,38.358,0,0,1,12.003,1.6269,17.41791,17.41791,0,0,1,7.86621,5.2207,22.40339,22.40339,0,0,1,4.27149,9.086,56.48791,56.48791,0,0,1,1.18551,13.2578l-.50781,32.416a25.95658,25.95658,0,0,0,.4072,5.7285c.3389,1.7969.6778,3.5606,1.085,5.291a1.59325,1.59325,0,0,1,.1025.7793c0,.9844-.6777,1.5957-2.001,1.7969-.8476.2051-1.832.375-2.916.543-1.08489.1679-2.2041.3047-3.3232.4082-1.1182.1015-2.2705.168-3.38969.2012-1.11911.0351-2.10351.0351-2.98341.0351a2.20106,2.20106,0,0,1-1.6279-.5762,4.20892,4.20892,0,0,1-.8476-1.7988l-1.28809-4.7773c-2.50981,1.1172-5.08691,2.1679-7.76571,3.1172-2.6445.9824-5.15329,1.7968-7.5947,2.5097q-3.6093,1.0137-6.6123,1.625a24.78125,24.78125,0,0,1-4.8467.6133,19.91441,19.91441,0,0,1-9.1562-1.9687,19.54348,19.54348,0,0,1-6.3408-4.8477,19.27659,19.27659,0,0,1-3.6612-6.4746,20.38625,20.38625,0,0,1-1.2207-6.6817,20.61275,20.61275,0,0,1,2.0332-9.5937,19.03477,19.03477,0,0,1,5.5274-6.5117,27.78173,27.78173,0,0,1,7.1875-3.7637,52.59828,52.59828,0,0,1,9.0879-2.3398,107.86059,107.86059,0,0,1,10.748-1.2539c3.8311-.2715,7.8662-.4395,12.1045-.5762l.1025-3.3906a41.20116,41.20116,0,0,0-.5429-8.2051,15.928,15.928,0,0,0-2.3389-6.1016,10.52128,10.52128,0,0,0-4.54389-3.7656,18.08812,18.08812,0,0,0-7.25591-1.2891,56.50443,56.50443,0,0,0-11.1895,1.1875,133.46739,133.46739,0,0,0-13.2578,3.5606Zm-33.668,14.002a42.12577,42.12577,0,0,0-.3056-5.2578,9.18074,9.18074,0,0,0-1.4932-4.1348,7.63006,7.63006,0,0,0-3.4238-2.6777,16.41088,16.41088,0,0,0-6.1026-.9492,21.13535,21.13535,0,0,0-9.3916,1.8984,16.92869,16.92869,0,0,0-6.206,5.0859,20.26549,20.26549,0,0,0-3.458,7.4258,36.00751,36.00751,0,0,0-1.1192,9.1543,42.45157,42.45157,0,0,0,1.7979,12.5449,28.66437,28.66437,0,0,0,5.4228,10.2071,24.71332,24.71332,0,0,0,9.1895,6.8496,32.04637,32.04637,0,0,0,13.1904,2.4746,37.64689,37.64689,0,0,0,4.4756-.3047c1.6621-.2051,3.3565-.4434,5.0859-.748a50.89263,50.89263,0,0,0,5.0518-1.084q2.4903-.6621,4.5781-1.3223l2.2705,5.5606c-3.1191,1.3886-6.373,2.6796-9.832,3.9003-3.4258,1.2207-6.7822,2.3047-10.0361,3.1856-3.2207.8809-6.2393,1.5937-9.0196,2.1016a43.04629,43.04629,0,0,1-6.8486.748,31.93092,31.93092,0,0,1-14.0713-2.9844A31.14815,31.14815,0,0,1,8.543,357.2051a35.90707,35.90707,0,0,1-6.374-11.5605A43.10893,43.10893,0,0,1,0,331.9141a39.442,39.442,0,0,1,3.4571-16.7187,37.88267,37.88267,0,0,1,9.5625-12.8165,42.68807,42.68807,0,0,1,14.207-8.205,51.71008,51.71008,0,0,1,17.4609-2.8828,39.626,39.626,0,0,1,7.4932.7148,20.7,20.7,0,0,1,6.7129,2.373,13.5501,13.5501,0,0,1,4.8164,4.4766,12.32162,12.32162,0,0,1,1.8291,6.9512c0,3.4902-1.1523,6.0332-3.457,7.5918a15.14879,15.14879,0,0,1-8.6465,2.3398,31.62823,31.62823,0,0,1-4.3731-.3047Z"/><path class="cls-4" d="M560.33448,416.625q0-6.0849-1.3652-8.3496a4.10589,4.10589,0,0,0-3.668-2.2734q-5.0361,0-5.0351,10.623c0,3.6309.39062,6.3008,1.1718,8.0391a4.14362,4.14362,0,0,0,7.7051-.0488c.7891-1.7559,1.1914-4.4199,1.1914-7.9903m6.3106-.2812q0,15.4365-11.4317,15.4297a10.05954,10.05954,0,0,1-8.2734-3.7246q-3.0117-3.7296-3.0137-11.4239,0-15.11415,11.4316-15.1093a10.1321,10.1321,0,0,1,8.2442,3.6875C565.62938,407.6622,566.64508,411.3672,566.64508,416.3438Zm-50.3086-24.4082,2.4316,1.6308q-2.5488,4.37415-5.8242,4.3711a7.70593,7.70593,0,0,1-3.7149-1.2812,7.17984,7.17984,0,0,0-2.9179-1.1504c-.9395,0-1.86528.7129-2.8008,2.1172l-2.3984-1.6289q2.5752-4.374,5.7734-4.3692a7.84908,7.84908,0,0,1,3.6777,1.2872,7.571,7.571,0,0,0,3.1797,1.1679C514.65088,394.0801,515.52008,393.3692,516.33648,391.9356Zm-2.6504,25.0703c-.7637-.0781-1.336-.1172-1.7481-.1172q-7.76955,0-7.7636,6.0879c0,2.9551,1.2773,4.4277,3.8535,4.4277a4.84182,4.84182,0,0,0,3.959-2.4004,11.2624,11.2624,0,0,0,1.6992-6.6015Zm-8.94728-6.6328-5.74611-.7129a8.64881,8.64881,0,0,1,3.5606-6.0078,12.28513,12.28513,0,0,1,7.3379-2.1367,11.06488,11.06488,0,0,1,6.2128,1.5507,6.68627,6.68627,0,0,1,2.92782,3.7071,25.93917,25.93917,0,0,1,.60348,6.4883v9.83a39.35216,39.35216,0,0,0,.5078,7.9707h-5.6289a22.856,22.856,0,0,1-.3711-4.7988c-1.8047,3.6758-4.5176,5.5098-8.1152,5.5098a7.851,7.851,0,0,1-5.87308-2.2422,8.3156,8.3156,0,0,1-2.21481-6.0977,9.29737,9.29737,0,0,1,3.2383-7.4629q3.249-2.7333,11.248-2.7402c.2754,0,.6934.0098,1.2598.0313v-1.1719a9.40215,9.40215,0,0,0-.9278-4.6621,3.53531,3.53531,0,0,0-3.3261-1.5723Q505.50923,405.8555,504.7388,410.3731Zm-28.28911,1.541-5.746.6328c-.2833-2.5156-.7715-4.2051-1.4532-5.0527a3.561,3.561,0,0,0-2.9179-1.2676,4.01714,4.01714,0,0,0-3.8516,2.4492q-1.2159,2.44335-1.2109,8.5821,0,9.60045,5.0625,9.5996,3.8964,0,4.3711-6.252l5.746.5059q-.71775,5.7216-3.2285,8.0996a10.1657,10.1657,0,0,1-6.85739,2.5332l-.68161,2.0312h.7988a5.03874,5.03874,0,0,1,3.793,1.2559,4.10572,4.10572,0,0,1,1.1992,2.918,4.29914,4.29914,0,0,1-1.60739,3.4043,6.38752,6.38752,0,0,1-4.24421,1.3652,10.40409,10.40409,0,0,1-5.6289-1.793l.8008-2.1484a10.19253,10.19253,0,0,0,4.2832,1.1133c1.5586,0,2.3398-.5957,2.3398-1.795q0-2.23815-3.51169-2.2343c-.30271,0-.88671.0215-1.74611.0605l1.5215-4.3144q-8.66308-1.69335-8.664-14.8672,0-7.4883,2.88861-11.3516,2.88283-3.87885,8.40039-3.873Q475.19974,401.5157,476.44969,411.9141Zm-51.6718,5.0918c-.7598-.0781-1.3379-.1172-1.74809-.1172q-7.76657,0-7.76361,6.0879c0,2.9551,1.2773,4.4277,3.8535,4.4277a4.8473,4.8473,0,0,0,3.9609-2.4004,11.27666,11.27666,0,0,0,1.6973-6.6015Zm-8.9453-6.6328-5.7461-.7129a8.6353,8.6353,0,0,1,3.5605-6.0078,12.2689,12.2689,0,0,1,7.334-2.1367,11.06323,11.06323,0,0,1,6.21481,1.5507,6.678,6.678,0,0,1,2.92779,3.7071,25.84272,25.84272,0,0,1,.6035,6.4883v9.83a39.35216,39.35216,0,0,0,.5078,7.9707H425.604a23.02431,23.02431,0,0,1-.3691-4.7988q-2.707,5.5137-8.1133,5.5098a7.84791,7.84791,0,0,1-5.873-2.2422,8.30757,8.30757,0,0,1-2.2149-6.0977,9.29161,9.29161,0,0,1,3.2383-7.4629q3.24615-2.7333,11.2461-2.7402.4101,0,1.2598.0313v-1.1719a9.42676,9.42676,0,0,0-.9258-4.6621,3.54072,3.54072,0,0,0-3.3281-1.5723C417.90869,405.8555,416.35009,407.3594,415.83259,410.3731Zm-28.2911,1.541-5.7441.6328c-.2852-2.5156-.7715-4.2051-1.4531-5.0527a3.56638,3.56638,0,0,0-2.918-1.2676,4.01361,4.01361,0,0,0-3.8516,2.4492q-1.21575,2.44335-1.21089,8.5821,0,9.60045,5.06249,9.5996,3.8907,0,4.3711-6.252l5.7441.5059q-1.16895,10.66695-10.5429,10.6621-5.5488,0-8.2129-3.9981-2.68065-3.996-2.6738-11.0625c0-4.955.9628-8.7187,2.8847-11.3164q2.8857-3.876,8.4004-3.8808Q386.29454,401.5157,387.54149,411.9141Zm-52.0136-9.7148h5.9492v28.8632h-5.9492Zm6.08591-3.8829h-6.22071v-6.3222h6.22071Zm-52.04151,3.8829h5.521v4.457q2.001-5.1504,7.1406-5.1406a7.45022,7.45022,0,0,1,4.7012,1.3945,6.09572,6.09572,0,0,1,2.26371,3.3555,29.48261,29.48261,0,0,1,.46869,6.1953v18.6015h-5.9414v-18.291a13.33811,13.33811,0,0,0-.664-5.1308c-.4375-.9063-1.36529-1.3575-2.7989-1.3575a4.04274,4.04274,0,0,0-3.4726,1.7286q-1.2423,1.7256-1.2383,6.8789v16.1718h-5.98Zm-46.1807,0h5.9698v18.3496a13.61414,13.61414,0,0,0,.6347,5.1289c.418.8691,1.336,1.2969,2.7696,1.2969a3.7725,3.7725,0,0,0,3.7168-2.3106q1.05465-2.3145,1.0537-8.5742V402.1993h5.9404v28.8632h-5.4521v-4.3398q-2.313,5.0478-7.3458,5.0508a7.5138,7.5138,0,0,1-4.2138-1.0801,5.96632,5.96632,0,0,1-2.3613-3.0937,23.092,23.092,0,0,1-.712-6.9356Zm-59.7295,0h5.5215v4.3984c1.4034-3.3867,3.78421-5.082,7.1104-5.082q5.4873,0,6.6035,5.3652,2.0346-5.37015,7.3174-5.3652a7.90333,7.90333,0,0,1,4.3887,1.1406,6.00013,6.00013,0,0,1,2.4384,3.0254,24.2291,24.2291,0,0,1,.6934,7.1211v18.2597h-5.9815V413.2891a14.86478,14.86478,0,0,0-.6914-5.5488,2.82665,2.82665,0,0,0-2.8183-1.4571c-3.0137,0-4.5166,2.629-4.5166,7.8653v16.914h-5.9707V413.4844a23.24591,23.24591,0,0,0-.3018-4.8398,3.20807,3.20807,0,0,0-1.11229-1.7344,3.35559,3.35559,0,0,0-2.10641-.627,3.7371,3.7371,0,0,0-3.542,1.875c-.7022,1.25-1.0537,3.2872-1.0537,6.127v16.7773h-5.9786ZM152.7178,416.625q0-6.0849-1.36621-8.3496a4.10023,4.10023,0,0,0-3.667-2.2734q-5.03175,0-5.0342,10.623c0,3.6309.3907,6.3008,1.1719,8.0391a4.14436,4.14436,0,0,0,7.7061-.0488Q152.71339,421.98145,152.7178,416.625Zm6.31149-.2812q0,15.4365-11.4326,15.4297a10.05649,10.05649,0,0,1-8.2705-3.7246q-3.0147-3.7296-3.0156-11.4239,0-15.11415,11.4316-15.1093a10.12761,10.12761,0,0,1,8.2432,3.6875C158.01469,407.6622,159.02929,411.3672,159.02929,416.3438Zm-44.2382-4.4297-5.7461.6328c-.28319-2.5156-.7715-4.2051-1.45319-5.0527a3.56158,3.56158,0,0,0-2.917-1.2676,4.018,4.018,0,0,0-3.8535,2.4492q-1.21424,2.44335-1.209,8.5821,0,9.60045,5.0625,9.5996,3.89219,0,4.37019-6.252l5.7461.5059q-1.17194,10.66695-10.5459,10.6621-5.54445,0-8.2139-3.9981-2.6763-3.996-2.6729-11.0625c0-4.955.9659-8.7187,2.8887-11.3164q2.88135-3.876,8.3994-3.8808Q113.54254,401.5157,114.79109,411.9141Z"/></g></g></svg>